<?xml version="1.0" standalone="no"?>
<!DOCTYPE svg PUBLIC "-//W3C//DTD SVG 1.1//EN" "http://www.w3.org/Graphics/SVG/1.1/DTD/svg11.dtd" >
<svg>
<metadata>
Created by FontForge 20110222 at Tue Nov 22 10:58:50 2011
 By System Administrator
Copyright (c) 2005 Parachute :, www.parachute.gr.  All rights reserved.
</metadata>
<defs>
<font id="PFHandbookPro-Regular" horiz-adv-x="1818" >
  <font-face 
    font-family="PF Handbook Pro"
    font-weight="400"
    font-stretch="normal"
    units-per-em="1000"
    panose-1="2 0 5 6 9 0 0 2 0 4"
    ascent="750"
    descent="-250"
    x-height="438"
    cap-height="617"
    bbox="-168.703 -229 1760 913"
    underline-thickness="60"
    underline-position="-50"
    stemh="69"
    stemv="80"
    unicode-range="U+0020-FB05"
  />
<missing-glyph horiz-adv-x="440" 
d="M0 0v700h440v-700h-440zM220 395l140 255h-280zM250 350l140 -255v510zM80 50h280l-140 255zM50 605v-510l140 255z" />
    <glyph glyph-name="ff" unicode="ff" horiz-adv-x="499" 
d="M226 626c42 0 75 -11 100 -22c1 -1 3 -1 5 -1s4 0 6 2c25 25 67 40 114 40c39 0 74 -10 98 -22c3 -1 7 -4 7 -10c0 -2 0 -5 -2 -9l-14 -35c-4 -8 -9 -11 -13 -11c-3 0 -5 1 -7 2c-17 6 -38 12 -68 12c-46 0 -68 -31 -68 -69v-54c0 -8 4 -10 11 -10h83c7 0 10 -3 10 -10
v-49c0 -6 -4 -9 -10 -9h-84c-7 0 -10 -3 -10 -10v-352c0 -6 -4 -9 -10 -9h-60c-7 0 -9 5 -9 9v350c0 7 -2 12 -10 12h-126c-7 0 -10 -3 -10 -10v-352c0 -6 -4 -9 -10 -9h-60c-7 0 -9 5 -9 9v350c0 7 -2 12 -10 12h-44c-5 0 -8 3 -8 10v49c0 6 3 9 10 9h41c8 0 11 3 11 10v45
c0 74 59 132 146 132zM170 439h123c8 0 11 3 11 10v78c0 7 0 10 -4 12c-17 7 -40 14 -73 14c-50 0 -68 -32 -68 -74v-30c0 -8 4 -10 11 -10z" />
    <glyph glyph-name="fi" unicode="fi" horiz-adv-x="440" 
d="M159 499v-50c0 -8 4 -10 11 -10h197c13 0 17 -4 17 -19v-411c0 -6 -4 -9 -10 -9h-60c-7 0 -9 5 -9 9v350c0 7 -2 12 -10 12h-126c-7 0 -10 -3 -10 -10v-352c0 -6 -4 -9 -10 -9h-60c-7 0 -9 5 -9 9v350c0 7 -2 12 -10 12h-44c-5 0 -8 3 -8 10v49c0 6 3 9 10 9h41
c8 0 11 3 11 10v68c0 82 59 128 146 128c52 0 92 -13 116 -28c6 -4 9 -7 9 -11c0 -2 -1 -4 -3 -8l-21 -40c-2 -4 -5 -6 -8 -6s-6 1 -10 3c-18 7 -43 17 -82 17c-52 0 -68 -31 -68 -73z" />
    <glyph glyph-name="fl" unicode="fl" horiz-adv-x="472" 
d="M248 371h-79c-7 0 -10 -3 -10 -10v-352c0 -6 -4 -9 -10 -9h-60c-7 0 -9 5 -9 9v350c0 7 -2 12 -10 12h-44c-5 0 -8 3 -8 10v49c0 6 3 9 10 9h41c8 0 11 3 11 10v68c0 82 59 128 146 128c35 0 66 -7 89 -15c2 -1 5 -2 10 -2c2 0 5 0 7 1l29 7c5 1 9 2 12 2
c9 0 11 -5 11 -18v-496c0 -46 12 -55 44 -55h13c9 0 9 -8 9 -15v-47c0 -8 -4 -12 -10 -13c-8 -2 -22 -2 -28 -2c-90 0 -108 55 -108 143v412c0 8 -3 10 -9 13c-17 7 -39 12 -68 12c-51 0 -68 -31 -68 -73v-50c0 -8 4 -10 11 -10h78c13 0 15 -2 15 -17v-37
c0 -14 -7 -14 -15 -14z" />
    <glyph glyph-name="ffi" unicode="ffi" horiz-adv-x="664" 
d="M450 643c52 0 92 -13 116 -28c6 -4 9 -7 9 -11c0 -2 -1 -4 -3 -8l-21 -40c-2 -4 -5 -6 -8 -6s-6 1 -10 3c-18 7 -43 17 -82 17c-43 0 -68 -31 -68 -73v-48c0 -8 4 -10 11 -10h200c13 0 14 -4 14 -19v-411c0 -6 -4 -9 -10 -9h-60c-7 0 -9 5 -9 9v350c0 7 -2 12 -10 12
h-126c-7 0 -10 -3 -10 -10v-352c0 -6 -4 -9 -10 -9h-60c-7 0 -9 5 -9 9v350c0 7 -2 12 -10 12h-125c-7 0 -10 -3 -10 -10v-352c0 -6 -4 -9 -10 -9h-60c-7 0 -9 5 -9 9v350c0 7 -2 12 -10 12h-44c-5 0 -8 3 -8 10v49c0 6 3 9 10 9h41c8 0 11 3 11 10v43c0 74 59 132 146 132
c42 0 75 -11 100 -22c1 -1 3 -1 5 -1s4 0 6 2c25 25 67 40 113 40zM170 439h123c8 0 11 3 11 10v77c0 7 0 10 -4 12c-17 7 -40 14 -73 14c-50 0 -68 -32 -68 -74v-29c0 -8 4 -10 11 -10z" />
    <glyph glyph-name="ffl" unicode="ffl" horiz-adv-x="669" 
d="M226 624c42 0 75 -11 100 -22c1 -1 3 -1 5 -1s4 0 6 2c25 25 67 40 113 40c34 0 65 -7 88 -15c2 -1 5 -2 10 -2c2 0 5 0 7 1l29 7c5 1 9 2 12 2c9 0 11 -5 11 -18v-494c0 -46 12 -55 44 -55h13c9 0 9 -8 9 -15v-47c0 -8 -4 -12 -10 -13c-8 -2 -22 -2 -28 -2
c-90 0 -108 55 -108 143v410c0 8 -3 10 -9 13c-17 7 -39 12 -68 12c-43 0 -68 -31 -68 -73v-48c0 -8 4 -10 11 -10h78c13 0 15 -2 15 -17v-37c0 -14 -7 -14 -15 -14h-79c-7 0 -10 -3 -10 -10v-352c0 -6 -4 -9 -10 -9h-60c-7 0 -9 5 -9 9v350c0 7 -2 12 -10 12h-124
c-7 0 -10 -3 -10 -10v-352c0 -6 -4 -9 -10 -9h-60c-7 0 -9 5 -9 9v350c0 7 -2 12 -10 12h-44c-5 0 -8 3 -8 10v49c0 6 3 9 10 9h41c8 0 11 3 11 10v43c0 74 59 132 146 132zM170 439h123c8 0 11 3 11 10v77c0 7 0 10 -4 12c-17 7 -40 14 -73 14c-50 0 -68 -32 -68 -74v-29
c0 -8 4 -10 11 -10z" />
    <glyph glyph-name="ft" unicode="ft" horiz-adv-x="521" 
d="M384 448c0 -7 3 -10 10 -10h92c6 0 10 -3 10 -9v-49c0 -7 -3 -10 -10 -10h-91c-7 0 -11 -2 -11 -10v-229c0 -38 14 -63 54 -63c13 0 40 3 51 7c3 1 6 2 8 2c4 0 6 -3 7 -7l11 -49c1 -2 1 -4 1 -6c0 -6 -4 -9 -12 -11c-17 -5 -50 -9 -77 -9c-84 0 -122 50 -122 121v244
c0 7 -3 10 -11 11h-125c-7 0 -10 -3 -10 -10v-352c0 -6 -4 -9 -10 -9h-60c-7 0 -9 5 -9 9v350c0 7 -2 12 -10 12h-44c-5 0 -8 3 -8 10v49c0 6 3 9 10 9h41c8 0 11 3 11 10v67c0 70 43 127 122 127c27 0 54 -4 69 -8c8 -2 12 -4 12 -10c0 -2 0 -4 -1 -6l-11 -49
c-1 -5 -3 -7 -8 -7c-2 0 -5 0 -8 1c-14 4 -29 6 -42 6c-40 0 -54 -30 -54 -63v-58c0 -8 4 -10 11 -10h123c8 0 12 5 12 12v84c0 4 2 9 9 11l58 14h3c6 0 9 -4 9 -9v-103z" />
    <glyph glyph-name="fj" unicode="fj" horiz-adv-x="439" 
d="M159 497v-48c0 -8 4 -10 11 -10h205c7 0 9 -5 9 -9v-486c0 -69 -32 -127 -110 -127c-27 0 -40 2 -56 6c-9 3 -13 6 -11 16l11 49c1 6 6 10 17 7c8 -2 18 -4 28 -4c40 0 42 32 42 62v407c0 6 -1 11 -11 11h-125c-7 0 -10 -3 -10 -10v-352c0 -6 -4 -9 -10 -9h-60
c-7 0 -9 5 -9 9v350c0 7 -2 12 -10 12h-44c-5 0 -8 3 -8 10v49c0 6 3 9 10 9h41c8 0 11 3 11 10v60c0 87 59 134 146 134c52 0 92 -13 116 -28c9 -6 11 -9 6 -19l-21 -40c-4 -7 -8 -7 -18 -3c-18 7 -43 17 -82 17c-48 0 -68 -31 -68 -73z" />
    <glyph glyph-name="ffj" unicode="ffj" horiz-adv-x="663" 
d="M518 371h-125c-7 0 -10 -3 -10 -10v-352c0 -6 -4 -9 -10 -9h-60c-7 0 -9 5 -9 9v350c0 7 -2 12 -10 12h-125c-7 0 -10 -3 -10 -10v-352c0 -6 -4 -9 -10 -9h-60c-7 0 -9 5 -9 9v350c0 7 -2 12 -10 12h-44c-5 0 -8 3 -8 10v49c0 6 3 9 10 9h41c8 0 11 3 11 10v33
c0 82 59 140 146 140c42 0 75 -9 100 -20c2 -1 7 -3 11 1c25 25 67 40 113 40c52 0 92 -13 116 -28c9 -6 11 -9 6 -19l-21 -40c-4 -7 -8 -7 -18 -3c-18 7 -43 17 -82 17c-43 0 -68 -31 -68 -73v-48c0 -8 4 -10 11 -10h205c7 0 9 -5 9 -9v-486c0 -69 -32 -127 -110 -127
c-27 0 -40 2 -56 6c-9 3 -13 6 -11 16l11 48c1 6 6 10 17 7c8 -2 18 -3 28 -3c40 0 42 32 42 62v407c0 6 -1 11 -11 11zM170 439h123c8 0 11 3 11 10v74c0 7 0 10 -4 12c-17 7 -40 14 -73 14c-50 0 -68 -32 -68 -74v-26c0 -8 4 -10 11 -10z" />
    <glyph glyph-name=".notdef" horiz-adv-x="440" 
d="M0 0v700h440v-700h-440zM220 395l140 255h-280zM250 350l140 -255v510zM80 50h280l-140 255zM50 605v-510l140 255z" />
    <glyph glyph-name="exclam" unicode="!" horiz-adv-x="263" 
d="M181 608l-15 -438c0 -5 -3 -9 -9 -9h-35c-6 0 -9 4 -9 8l-19 438c0 6 3 10 10 10h67c6 0 10 -4 10 -9zM192 43c0 -29 -23 -53 -54 -53c-30 0 -55 24 -55 53s25 53 54 53c31 0 55 -23 55 -53z" />
    <glyph glyph-name="quotedbl" unicode="&#x22;" horiz-adv-x="288" 
d="M228 617c6 0 10 -3 9 -8v-186c0 -5 -4 -8 -9 -8h-47c-5 0 -10 2 -10 8v185c0 6 4 9 10 9h47zM114 617c5 0 10 -3 9 -8v-186c0 -5 -5 -8 -10 -8h-46c-6 0 -10 2 -10 8v185c0 6 3 9 9 9h48z" />
    <glyph glyph-name="numbersign" unicode="#" horiz-adv-x="475" 
d="M452 410l-7 -30c-2 -7 -5 -10 -12 -10h-60c-7 0 -9 -1 -10 -6l-27 -122c-1 -9 -1 -13 11 -13h62c8 0 9 -4 8 -9l-7 -36c-2 -7 -5 -10 -12 -10h-69c-6 0 -9 0 -10 -5l-26 -118c-1 -5 -4 -7 -9 -7h-41c-12 0 -12 5 -11 12l24 106c1 7 1 13 -11 13h-78c-6 0 -8 -2 -9 -6
l-29 -118c-1 -5 -3 -7 -8 -7h-42c-10 0 -12 5 -11 11c1 5 25 107 25 107c1 7 1 12 -11 12h-52c-8 0 -8 4 -8 7c1 7 0 0 7 38c2 7 5 10 12 10h58c6 0 9 3 10 8l28 121c1 8 1 12 -11 12h-61c-8 0 -8 4 -8 8l8 37c1 7 5 9 11 9h69c5 0 8 4 9 8l26 120c2 5 3 6 9 6h41
c12 0 12 -4 11 -11l-24 -109c-2 -8 -1 -14 11 -14h78c5 0 8 4 9 8l28 120c0 4 3 6 9 6h40c12 0 12 -4 11 -11l-23 -109c-2 -8 -2 -13 10 -13h54c11 0 9 -9 8 -15zM299 358c1 8 1 12 -11 12h-75c-7 0 -13 -5 -13 -9l-26 -119c-1 -9 -2 -13 11 -13h77c6 0 9 3 10 8z" />
    <glyph glyph-name="dollar" unicode="$" horiz-adv-x="475" 
d="M341 173c0 63 -53 87 -105 103c-71 22 -176 51 -176 169c0 84 65 145 142 161c4 0 6 4 6 8v55c0 5 3 9 10 9h31c7 0 10 -3 10 -9v-54c0 -5 4 -6 8 -7c52 -4 96 -23 132 -53c6 -5 5 -11 0 -17l-30 -37c-6 -8 -11 -8 -20 0c-36 33 -74 43 -110 43c-49 0 -104 -34 -104 -100
c0 -62 66 -82 114 -97c85 -25 168 -62 168 -169c0 -97 -64 -152 -150 -165c-7 -1 -8 -4 -8 -8v-62c0 -6 -3 -10 -10 -10h-31c-6 0 -10 1 -10 9v62c0 4 -2 7 -8 7c-52 4 -95 20 -138 56c-5 5 -4 10 1 17l29 35c5 7 11 7 19 0c28 -25 71 -44 115 -44c63 0 115 33 115 98z" />
    <glyph glyph-name="percent" unicode="%" horiz-adv-x="700" 
d="M516 635l-277 -658c-3 -7 -7 -7 -12 -7h-36c-7 0 -7 4 -5 9l278 660c4 8 9 8 13 8h30c12 0 12 -4 9 -12zM283 342c0 -68 -47 -108 -122 -108c-74 0 -121 37 -121 108v171c0 67 48 108 121 108c72 0 122 -39 122 -108v-171zM216 342v171c0 31 -21 53 -55 53
s-55 -23 -55 -53v-171c0 -32 20 -53 55 -53c34 0 55 21 55 53zM660 103c0 -68 -47 -106 -121 -106c-73 0 -120 36 -120 106v172c0 66 48 107 120 107c71 0 121 -39 121 -107v-172zM597 103v172c0 32 -23 55 -58 55s-57 -24 -57 -55v-172c0 -33 21 -56 57 -56
c35 0 58 23 58 56z" />
    <glyph glyph-name="ampersand" unicode="&#x26;" horiz-adv-x="570" 
d="M357 299h-112c-7 0 -10 4 -10 10v48c0 6 5 10 11 10h204c35 0 76 8 115 36c4 3 7 4 10 4c4 0 7 -2 10 -6l19 -28c3 -4 4 -8 4 -11c0 -4 -2 -7 -5 -10c-38 -37 -94 -49 -139 -52c-12 -1 -18 -5 -18 -16v-102c0 -109 -69 -188 -190 -188h-8c-125 0 -184 69 -184 178v221
c0 104 83 169 189 169h126c6 0 11 -4 11 -10v-49c0 -6 -3 -10 -10 -10h-127c-64 0 -109 -41 -109 -99v-221c0 -57 14 -110 104 -110h8c89 0 111 63 111 120v106c0 3 0 10 -10 10z" />
    <glyph glyph-name="quotesingle" unicode="'" horiz-adv-x="173" 
d="M54 608c0 6 4 9 9 9h48c6 0 10 -3 10 -8l-1 -186c0 -5 -4 -8 -9 -8h-47c-6 0 -10 2 -10 8v185z" />
    <glyph glyph-name="parenleft" unicode="(" horiz-adv-x="325" 
d="M139 265c0 -147 67 -281 129 -377c7 -10 5 -18 -2 -23l-26 -17c-12 -7 -22 -5 -30 4c-71 91 -158 249 -158 413c0 166 101 344 162 424c5 6 12 8 23 2l28 -15c9 -5 10 -13 4 -22c-71 -109 -130 -252 -130 -389z" />
    <glyph glyph-name="parenright" unicode=")" horiz-adv-x="325" 
d="M115 -148c-7 -9 -18 -11 -29 -4l-26 17c-8 5 -10 13 -3 23c62 96 129 230 129 377c0 137 -59 280 -130 389c-6 9 -5 17 4 22l28 15c11 6 18 4 23 -2c61 -80 162 -258 162 -424c0 -164 -87 -322 -158 -413z" />
    <glyph glyph-name="asterisk" unicode="*" horiz-adv-x="370" 
d="M327 513l-93 -22c-5 -1 -8 -5 -3 -10l60 -72c8 -10 9 -17 0 -23l-27 -18c-13 -8 -18 -9 -26 5l-47 78c-3 7 -8 6 -12 0l-49 -79c-7 -12 -12 -13 -25 -4l-25 17c-10 7 -12 15 -1 27l59 69c4 4 3 8 -2 9l-92 23c-11 2 -13 7 -10 17l10 32c4 12 11 16 23 11l88 -36
c6 -2 7 -1 7 4l-11 99c-1 9 2 14 19 14h31c13 0 18 -6 17 -15l-10 -95c-1 -8 1 -9 7 -7l86 35c13 6 19 3 23 -10l12 -30c3 -8 2 -16 -9 -19z" />
    <glyph glyph-name="plus" unicode="+" horiz-adv-x="475" 
d="M435 223c0 -10 -5 -15 -15 -15h-147c-4 0 -5 0 -5 -4v-147c0 -9 -5 -14 -14 -14h-34c-10 0 -15 5 -15 14v146c0 3 -1 5 -4 5h-146c-9 0 -15 5 -15 14v32c0 9 5 15 15 15h145c5 0 5 0 5 4v146c0 9 5 15 14 15h34c10 0 15 -5 15 -15v-145c0 -5 1 -5 5 -5h147
c9 0 15 -6 15 -15v-31z" />
    <glyph glyph-name="comma" unicode="," horiz-adv-x="213" 
d="M161 80l-51 -181c-3 -9 -9 -13 -16 -13h-29c-10 0 -13 9 -12 18l11 180c1 10 6 17 16 17h67c14 0 18 -7 14 -21z" />
    <glyph glyph-name="hyphen" unicode="-" horiz-adv-x="340" 
d="M277 215c0 -6 -3 -10 -9 -10h-204c-7 0 -10 3 -10 10v46c0 7 3 10 9 10h204c6 0 10 -3 10 -9v-47z" />
    <glyph glyph-name="period" unicode="." horiz-adv-x="213" 
d="M106 98c31 0 55 -23 55 -53s-24 -54 -55 -54c-29 0 -53 25 -53 54s24 53 53 53z" />
    <glyph glyph-name="slash" unicode="/" horiz-adv-x="303" 
d="M297 663l-235 -717c-3 -7 -8 -12 -17 -12h-31c-8 0 -12 6 -9 14l234 715c3 9 8 12 20 12h29c6 0 12 -4 9 -12z" />
    <glyph glyph-name="zero" unicode="0" horiz-adv-x="475" 
d="M426 164c0 -108 -70 -170 -179 -170c-108 0 -180 58 -180 170v292c0 105 73 169 179 169c105 0 180 -60 180 -169v-292zM345 164v292c0 58 -40 100 -98 100c-59 0 -99 -43 -99 -100v-292c0 -60 39 -101 98 -101s99 40 99 101z" />
    <glyph glyph-name="one" unicode="1" horiz-adv-x="475" 
d="M295 10c0 -7 -3 -10 -10 -10h-62c-6 0 -9 3 -9 9v490c0 7 -3 10 -7 10c-3 0 -5 -1 -9 -3l-68 -40c-6 -3 -12 -5 -16 -5c-6 0 -10 3 -10 11v46c0 9 1 17 10 23l107 66c10 6 17 10 26 10h33c11 0 15 -4 15 -15v-592z" />
    <glyph glyph-name="two" unicode="2" horiz-adv-x="475" 
d="M411 10c0 -7 -3 -10 -10 -10h-338c-13 0 -17 5 -17 16v29c0 15 0 25 12 41l232 297c21 27 32 58 32 85c0 44 -25 88 -94 88c-39 0 -83 -28 -101 -49c-8 -9 -17 -14 -25 -8l-32 26c-9 6 -8 13 -4 19c36 56 102 81 166 81c96 0 173 -53 173 -155c0 -46 -28 -97 -50 -125
l-206 -264c-7 -9 -6 -12 5 -12h247c6 0 10 -3 10 -9v-50z" />
    <glyph glyph-name="three" unicode="3" horiz-adv-x="475" 
d="M396 167c0 -107 -76 -173 -184 -173c-44 0 -84 9 -117 35c-20 16 -34 31 -43 48c-2 5 -4 11 6 17l43 27c8 5 12 6 18 -1l10 -14c21 -25 47 -43 83 -43c54 0 104 34 104 102v47c0 52 -39 91 -97 91h-62c-7 0 -10 3 -10 9v51c0 7 2 9 9 9h63c56 0 99 33 99 91
c0 54 -34 93 -96 93c-40 0 -71 -19 -89 -47c-4 -6 -11 -15 -22 -9l-44 26c-9 6 -6 13 -2 19c34 56 98 80 161 80c113 0 172 -66 172 -159c0 -50 -33 -107 -82 -124c-7 -2 -6 -8 -1 -9c59 -14 81 -71 81 -118v-48z" />
    <glyph glyph-name="four" unicode="4" horiz-adv-x="475" 
d="M262 617h61c8 0 13 -7 9 -14l-204 -393c-2 -4 -5 -11 6 -11h134c11 0 10 9 10 13v175c0 6 3 10 9 10h61c6 0 10 -4 10 -10v-173c0 -10 0 -15 10 -15h59c6 0 10 -4 10 -10v-46c0 -6 -4 -10 -10 -10h-56c-8 0 -13 -2 -13 -14v-109c0 -6 -4 -10 -10 -10h-61c-6 0 -9 4 -9 10
v109c0 11 -4 14 -13 14h-217c-6 0 -10 4 -10 10v28c0 23 1 29 9 44l206 398c1 2 6 4 9 4z" />
    <glyph glyph-name="five" unicode="5" horiz-adv-x="475" 
d="M402 238v-68c0 -111 -82 -176 -183 -176c-80 0 -125 26 -159 86c-4 7 -3 11 4 15l46 26c8 5 13 3 17 -2c26 -34 44 -56 91 -56c66 0 104 43 104 99v77c0 44 -21 92 -102 92c-23 0 -45 -9 -58 -18c-12 -9 -23 -12 -33 -8l-35 15c-8 4 -15 9 -15 21v266c0 6 3 10 9 10h289
c6 0 10 -3 10 -9v-52c0 -6 -3 -8 -9 -8h-208c-8 0 -12 -4 -12 -11v-136c0 -14 7 -16 22 -10c18 8 33 11 51 11c119 0 171 -70 171 -164z" />
    <glyph glyph-name="six" unicode="6" horiz-adv-x="475" 
d="M420 164c0 -103 -74 -170 -179 -170c-104 0 -182 54 -182 165v281c0 118 78 185 188 185c71 0 117 -17 160 -72c7 -9 4 -16 -3 -22l-38 -31c-7 -6 -16 -1 -21 5c-25 31 -57 51 -99 51c-71 0 -107 -48 -107 -106v-81c0 -10 6 -14 13 -8c26 23 62 34 94 34
c98 0 174 -58 174 -159v-72zM339 164l1 72c1 59 -45 90 -100 90s-101 -40 -101 -95v-72c0 -58 45 -97 101 -97c55 0 98 37 99 102z" />
    <glyph glyph-name="seven" unicode="7" horiz-adv-x="475" 
d="M423 573c0 -10 -5 -23 -8 -30c0 0 -225 -498 -241 -533c-3 -6 -7 -10 -13 -10h-65c-7 0 -12 4 -8 12l233 517c5 11 2 19 -13 19h-162c-12 0 -14 -3 -14 -11v-46c0 -7 -2 -11 -9 -11h-51c-7 0 -10 3 -10 10v117c0 6 2 10 9 10h332c12 0 20 -3 20 -14v-30z" />
    <glyph glyph-name="eight" unicode="8" horiz-adv-x="475" 
d="M239 628c104 0 180 -65 180 -169c0 -47 -24 -95 -61 -124c-6 -5 -7 -9 -2 -12c42 -25 72 -74 72 -136c0 -121 -85 -193 -192 -193c-110 0 -188 57 -188 183c0 64 32 121 79 145c6 3 7 8 2 10c-45 21 -70 81 -70 126c0 102 79 170 180 170zM339 460c0 55 -40 99 -100 99
c-57 0 -101 -43 -101 -100c0 -54 42 -98 101 -98c54 0 100 43 100 99zM238 293c-53 0 -109 -45 -109 -119c0 -73 44 -111 106 -111c56 0 112 42 112 120c0 72 -51 110 -109 110z" />
    <glyph glyph-name="nine" unicode="9" horiz-adv-x="475" 
d="M410 193c0 -125 -65 -199 -193 -199c-71 0 -128 29 -164 87c-4 7 -4 13 3 17l46 27c8 5 13 0 17 -5c23 -31 54 -57 97 -57c77 0 114 47 114 128v61c0 9 -5 13 -12 7c-27 -23 -62 -35 -95 -35c-98 0 -174 63 -174 164v65c0 103 76 172 187 172c104 0 174 -62 174 -177
v-255zM330 388v72c0 58 -44 97 -101 97c-54 0 -99 -42 -99 -96v-73c0 -59 33 -95 100 -95c55 0 100 40 100 95z" />
    <glyph glyph-name="colon" unicode=":" horiz-adv-x="213" 
d="M161 330c0 -30 -24 -55 -55 -55c-29 0 -53 24 -53 54c0 28 24 53 53 53s55 -26 55 -52zM106 97v1c31 0 55 -23 55 -53s-24 -54 -55 -54c-29 0 -53 25 -53 53c0 30 24 53 53 53z" />
    <glyph glyph-name="semicolon" unicode=";" horiz-adv-x="213" 
d="M161 330c0 -30 -24 -54 -55 -54c-29 0 -53 23 -53 53c0 28 24 53 53 53c31 0 55 -23 55 -52zM155 79l-51 -180c-3 -10 -9 -13 -16 -13h-29c-9 0 -13 8 -12 18l11 179c1 10 6 18 17 18h66c14 0 18 -7 14 -22z" />
    <glyph glyph-name="less" unicode="&#x3c;" horiz-adv-x="475" 
d="M447 487v-40c0 -7 -4 -19 -13 -23l-324 -163c-8 -4 -9 -9 0 -14l326 -162c12 -6 11 -17 11 -25v-40c-1 -8 -10 -16 -20 -10l-383 198c-13 6 -18 13 -18 21v44c0 9 3 18 13 23l388 199c9 5 20 2 20 -8z" />
    <glyph glyph-name="equal" unicode="=" horiz-adv-x="475" 
d="M435 146c0 -10 -5 -15 -15 -15h-365c-9 0 -15 5 -15 14v32c0 9 5 15 15 15h365c9 0 15 -6 15 -15v-31zM435 317c0 -10 -5 -15 -15 -15h-365c-9 0 -15 5 -15 14v32c0 9 5 15 15 15h365c9 0 15 -6 15 -15v-31z" />
    <glyph glyph-name="greater" unicode="&#x3e;" horiz-adv-x="475" 
d="M448 229c0 -8 -4 -15 -17 -21l-385 -198c-10 -5 -20 2 -19 10v40c1 8 -1 19 12 25l325 162c9 5 9 10 0 14l-324 163c-9 4 -12 16 -12 23l-1 40c0 10 11 13 20 8l388 -199c10 -5 13 -14 13 -23v-44z" />
    <glyph glyph-name="question" unicode="?" horiz-adv-x="491" 
d="M419 469c0 -65 -35 -121 -98 -160c-55 -35 -85 -65 -85 -116v-21c0 -8 -2 -14 -9 -14h-58c-11 0 -14 2 -14 15v34c0 51 30 106 80 140c61 41 101 75 101 120c0 47 -29 91 -91 91c-37 0 -71 -28 -91 -56c-6 -8 -12 -8 -20 -3l-43 28c-8 5 -8 11 -4 17c35 56 96 85 160 85
c98 0 172 -58 172 -160zM249 43c0 -29 -23 -53 -55 -53c-29 0 -54 24 -54 53s25 53 54 53c31 0 55 -22 55 -53z" />
    <glyph glyph-name="at" unicode="@" horiz-adv-x="754" 
d="M565 181c35 0 88 28 88 150c0 147 -134 233 -249 233c-158 0 -276 -119 -276 -272c0 -154 110 -272 278 -272c54 0 121 13 164 31c11 5 17 7 23 -9l9 -24c6 -17 -5 -20 -10 -22c-55 -19 -115 -32 -180 -32c-205 0 -344 125 -344 328c0 183 140 324 333 324
c177 0 312 -118 312 -281c0 -160 -82 -208 -150 -208c-42 0 -72 14 -92 36c-3 3 -4 4 -8 1c-23 -21 -56 -37 -89 -37c-64 0 -119 43 -119 112c0 72 52 114 122 114c18 0 35 -6 49 -12c8 -3 14 4 14 11c0 25 -12 49 -60 49c-26 0 -54 -9 -76 -17c-5 -1 -10 0 -12 6l-11 33
c-2 6 -1 10 4 12c29 14 68 23 99 23c91 0 124 -42 124 -121v-94c0 -36 15 -62 57 -62zM377 301c-35 0 -61 -27 -61 -61s26 -61 61 -61c34 0 61 27 61 61c0 25 -17 61 -61 61z" />
    <glyph glyph-name="A" unicode="A" horiz-adv-x="457" 
d="M427 0h-61c-8 0 -13 2 -14 7l-33 130c-1 2 -1 4 -4 4h-177c-5 0 -5 -2 -6 -3l-32 -131c-1 -5 -6 -7 -13 -7h-54c-11 0 -16 3 -13 15l148 590c1 6 5 12 16 12h85c9 0 13 -2 15 -10l152 -590c2 -7 3 -17 -9 -17zM223 525l-27 -123l-45 -184c-1 -6 -1 -8 5 -8h138
c7 0 7 2 6 8l-44 180l-28 126c-1 4 -4 4 -5 1z" />
    <glyph glyph-name="B" unicode="B" horiz-adv-x="476" 
d="M438 184c0 -108 -69 -184 -179 -184h-193c-8 0 -12 4 -12 11v595c0 7 2 11 11 11h179c108 0 176 -56 176 -161c0 -43 -29 -94 -66 -120c-1 -2 -1 -5 1 -7c54 -28 83 -87 83 -145zM355 181c0 56 -28 113 -109 113h-100c-6 0 -8 -2 -8 -8v-204c0 -6 2 -9 8 -9h111
c61 0 98 44 98 108zM337 458c0 53 -33 87 -94 87h-97c-6 0 -8 -2 -8 -8v-163c0 -6 2 -9 8 -9h98c62 0 93 43 93 93z" />
    <glyph glyph-name="C" unicode="C" horiz-adv-x="430" 
d="M410 551c6 -8 7 -13 -3 -22l-38 -32c-5 -5 -16 -3 -21 4c-24 30 -66 51 -107 51c-63 0 -99 -40 -99 -97v-291c0 -56 40 -97 104 -97c41 0 79 25 102 48c7 8 13 15 23 7l40 -33c4 -3 5 -11 2 -16c-40 -52 -102 -79 -167 -79c-107 0 -188 60 -188 169v292
c0 105 76 170 182 170c62 0 120 -15 170 -74z" />
    <glyph glyph-name="D" unicode="D" horiz-adv-x="492" 
d="M437 186c0 -123 -68 -186 -185 -186h-179c-7 0 -12 4 -12 11v595c0 7 4 11 12 11h179c119 0 185 -66 185 -180v-251zM353 173v273c0 69 -44 99 -106 99h-93c-6 0 -9 -2 -9 -8v-455c0 -6 2 -9 8 -9h101c66 0 99 38 99 100z" />
    <glyph glyph-name="E" unicode="E" horiz-adv-x="440" 
d="M410 12c0 -8 -4 -12 -12 -12h-326c-7 0 -12 4 -12 11v595c0 7 4 11 12 11h322c7 0 13 -4 13 -11v-49c0 -7 -4 -12 -12 -12h-243c-5 0 -8 -2 -8 -8v-171c0 -6 2 -8 7 -8h201c8 0 12 -4 12 -12v-50c0 -7 -4 -11 -11 -11h-201c-5 0 -8 -3 -8 -9v-194c0 -6 2 -9 7 -9h247
c7 0 12 -4 12 -11v-50z" />
    <glyph glyph-name="F" unicode="F" horiz-adv-x="402" 
d="M390 556c0 -7 -4 -11 -12 -11h-228c-6 0 -9 -2 -9 -8v-175c0 -6 2 -8 8 -8h195c7 0 11 -4 11 -12v-50c0 -7 -2 -11 -11 -11h-194c-6 0 -8 -3 -8 -9v-260c0 -8 -4 -12 -11 -12h-61c-7 0 -12 4 -12 11v595c0 7 4 11 12 11h308c7 0 12 -4 12 -10v-51z" />
    <glyph glyph-name="G" unicode="G" horiz-adv-x="480" 
d="M427 161c0 -98 -74 -167 -181 -167s-188 60 -188 169v292c0 105 83 170 189 170c65 0 136 -23 169 -81c5 -9 3 -13 -5 -20l-39 -31c-7 -5 -15 -1 -21 7c-28 39 -69 51 -103 51c-73 0 -106 -47 -106 -104v-283c0 -56 40 -97 104 -97c57 0 95 35 95 95v92c0 5 -1 8 -6 8
h-74c-8 0 -12 3 -12 11v51c0 8 4 12 12 12h153c7 0 13 -4 13 -12v-163z" />
    <glyph glyph-name="H" unicode="H" horiz-adv-x="522" 
d="M461 12c0 -8 -4 -12 -12 -12h-61c-8 0 -12 4 -12 11v263c0 6 -2 9 -8 9h-213c-6 0 -8 -3 -8 -9v-262c0 -8 -4 -12 -11 -12h-61c-8 0 -12 4 -12 11v595c0 7 2 11 11 11h61c8 0 12 -4 12 -10v-243c0 -6 2 -9 8 -9h213c6 0 8 3 8 9v242c0 7 4 11 11 11h61c8 0 13 -4 13 -10
v-595z" />
    <glyph glyph-name="I" unicode="I" horiz-adv-x="241" 
d="M162 12c0 -8 -4 -12 -12 -12h-62c-7 0 -12 4 -12 11v595c0 7 4 11 12 11h62c7 0 12 -4 12 -10v-595z" />
    <glyph glyph-name="J" unicode="J" horiz-adv-x="269" 
d="M3 -103l-13 40c-3 10 -5 17 10 22c73 29 123 57 123 163v482c0 9 6 13 15 13h52c10 0 15 -6 15 -13v-474c0 -125 -40 -208 -182 -247c-10 -3 -16 0 -20 14z" />
    <glyph glyph-name="K" unicode="K" horiz-adv-x="499" 
d="M380 617h65c13 0 15 -7 10 -14l-185 -227c-5 -6 -1 -10 5 -10c10 0 19 1 28 0c91 -7 134 -67 141 -165l15 -191c0 -7 -3 -10 -10 -10h-58c-7 0 -11 3 -11 9l-12 180c-3 44 -15 113 -105 113c-76 0 -115 -49 -115 -119v-173c0 -7 -3 -10 -9 -10h-65c-8 0 -11 3 -11 9v598
c0 7 3 10 11 10h65c6 0 9 -3 9 -9v-248c0 -12 7 -8 11 -4l207 254c4 5 8 7 14 7z" />
    <glyph glyph-name="L" unicode="L" horiz-adv-x="426" 
d="M407 12c0 -8 -4 -12 -11 -12h-318c-8 0 -12 4 -12 11v595c0 7 2 11 11 11h61c8 0 11 -4 11 -10v-525c0 -6 2 -9 8 -9h238c7 0 12 -4 12 -11v-50z" />
    <glyph glyph-name="M" unicode="M" horiz-adv-x="627" 
d="M577 12c0 -8 -4 -12 -11 -12h-57c-9 0 -11 4 -11 11v388c0 3 -3 3 -4 1l-42 -117l-97 -249c-2 -4 -7 -14 -19 -14h-39c-10 0 -16 2 -20 13l-92 242l-43 122c-1 1 -3 2 -3 0v-385c0 -8 -2 -12 -11 -12h-56c-7 0 -12 4 -12 11v587c0 12 6 19 18 19h39c18 0 19 -2 25 -15
l134 -358l38 -110c3 -5 7 -4 9 -1c13 36 26 77 39 113l133 357c6 11 11 14 24 14h40c14 0 18 -7 18 -18v-587z" />
    <glyph glyph-name="N" unicode="N" horiz-adv-x="519" 
d="M82 617h36c16 0 21 -7 27 -16l233 -429c1 -2 3 -3 3 -1v435c0 7 2 11 11 11h56c8 0 12 -4 12 -10v-587c0 -17 -11 -20 -19 -20h-38c-15 0 -21 5 -26 15l-233 428c-1 1 -3 2 -3 0v-431c0 -8 -2 -12 -11 -12h-57c-8 0 -12 4 -12 11v581c0 17 2 25 21 25z" />
    <glyph glyph-name="O" unicode="O" horiz-adv-x="497" 
d="M439 165c0 -108 -81 -171 -190 -171c-108 0 -191 59 -191 171v290c0 106 84 170 190 170c104 0 191 -60 191 -170v-290zM355 167v286c0 57 -43 99 -106 99c-65 0 -107 -43 -107 -99v-286c0 -59 39 -100 106 -100c66 0 107 40 107 100z" />
    <glyph glyph-name="P" unicode="P" horiz-adv-x="458" 
d="M434 434c0 -99 -79 -180 -186 -180h-92c-6 0 -8 -3 -8 -9v-233c0 -8 -4 -12 -12 -12h-60c-7 0 -12 4 -12 11v595c0 7 4 11 12 11h171c117 0 187 -79 187 -183zM247 545h-91c-6 0 -9 -2 -9 -8v-203c0 -6 2 -9 8 -9h92c62 0 104 43 104 110c0 52 -34 110 -104 110z" />
    <glyph glyph-name="Q" unicode="Q" horiz-adv-x="497" 
d="M439 165c0 -92 -58 -155 -144 -167c-7 -1 -9 -4 -9 -13c0 -29 11 -45 41 -45c14 0 43 6 62 14c13 6 19 6 22 -5l15 -34c3 -9 3 -15 -9 -22c-30 -17 -68 -24 -93 -24c-79 0 -118 43 -118 118c0 7 -6 11 -9 12c-79 19 -139 74 -139 166v290c0 106 84 170 190 170
c104 0 191 -60 191 -170v-290zM355 167v286c0 57 -43 99 -106 99c-65 0 -107 -43 -107 -99v-286c0 -59 39 -100 106 -100c66 0 107 40 107 100z" />
    <glyph glyph-name="R" unicode="R" horiz-adv-x="483" 
d="M437 444c0 -70 -48 -135 -92 -172c-3 -2 -4 -5 -3 -7c2 -4 5 -12 114 -243c8 -17 -3 -22 -11 -22h-52c-21 0 -26 7 -32 20l-102 225c-3 5 -6 9 -15 9h-88c-6 0 -8 -3 -8 -9v-233c0 -8 -4 -12 -12 -12h-60c-7 0 -12 4 -12 11v595c0 7 4 11 12 11h176
c125 0 185 -68 185 -173zM241 545h-85c-6 0 -9 -2 -9 -8v-203c0 -6 2 -9 8 -9h122c6 0 12 3 16 5c36 25 59 73 59 105c0 52 -21 110 -111 110z" />
    <glyph glyph-name="S" unicode="S" horiz-adv-x="453" 
d="M207 68c76 0 129 35 129 102s-61 89 -115 108c-78 27 -181 64 -181 177c0 107 80 170 181 170c48 0 112 -8 169 -50c12 -9 4 -17 1 -22l-24 -38c-6 -9 -17 -6 -25 -1c-45 26 -78 37 -112 37c-58 0 -107 -24 -107 -98c0 -54 62 -78 118 -99c89 -34 178 -64 178 -183
c0 -108 -87 -176 -211 -176c-76 0 -147 27 -183 77c-6 7 -6 12 4 20l37 34c8 6 13 2 22 -7c31 -33 74 -51 119 -51z" />
    <glyph glyph-name="T" unicode="T" horiz-adv-x="417" 
d="M402 556c0 -7 -4 -11 -12 -11h-132c-6 0 -9 -2 -9 -8v-525c0 -8 -2 -12 -11 -12h-61c-8 0 -12 4 -12 11v525c0 6 -2 9 -8 9h-130c-8 0 -12 2 -12 11v50c0 7 4 11 12 11h363c8 0 12 -4 12 -10v-51z" />
    <glyph glyph-name="U" unicode="U" horiz-adv-x="498" 
d="M440 160c0 -106 -90 -166 -191 -166c-102 0 -191 59 -191 166v446c0 7 2 11 11 11h62c7 0 11 -4 11 -10v-447c0 -54 46 -93 106 -93c66 0 108 41 108 96v443c0 7 4 11 12 11h60c8 0 12 -4 12 -10v-447z" />
    <glyph glyph-name="V" unicode="V" horiz-adv-x="445" 
d="M437 598l-163 -589c-2 -7 -7 -9 -14 -9h-68c-9 0 -13 5 -15 10l-166 590c-3 9 1 17 13 17h62c9 0 12 -3 14 -9l87 -346l38 -160c1 -3 3 -3 4 0l36 160l86 346c2 5 8 9 14 9h58c18 0 16 -12 14 -19z" />
    <glyph glyph-name="W" unicode="W" horiz-adv-x="666" 
d="M660 600l-137 -591c-2 -4 -7 -9 -11 -9h-74c-5 0 -10 3 -11 8l-69 328l-23 121c0 1 -1 1 -2 0l-23 -123l-65 -327c-2 -5 -6 -7 -12 -7h-72c-6 0 -10 2 -12 6l-140 597c-1 7 1 14 12 14h65c10 0 11 -6 12 -13l69 -318l29 -148c1 -2 4 -2 5 0c8 47 18 97 26 143l66 329
c1 3 3 7 14 7h57c6 0 12 -4 14 -10l69 -325l28 -144c0 -4 4 -3 5 0l28 147l67 322c1 6 6 10 13 10h59c15 0 15 -9 13 -17z" />
    <glyph glyph-name="X" unicode="X" horiz-adv-x="451" 
d="M345 11l-111 222c-1 4 -7 7 -10 1l-111 -223c-6 -11 -11 -11 -22 -11h-62c-12 0 -14 6 -9 16l154 294c7 15 2 20 -1 25l-140 268c-5 9 -2 14 11 14h66c12 0 16 -3 20 -11l97 -200c2 -2 6 -2 8 0c33 65 67 134 99 200c4 8 8 11 20 11h60c12 0 14 -6 11 -14
c-47 -90 -97 -182 -143 -272c-3 -8 -3 -15 0 -20c47 -91 108 -204 156 -295c5 -10 3 -16 -9 -16h-62c-11 0 -17 0 -22 11z" />
    <glyph glyph-name="Y" unicode="Y" horiz-adv-x="435" 
d="M418 601l-154 -356c-4 -9 -5 -14 -5 -24v-209c0 -8 -4 -12 -12 -12h-60c-8 0 -12 4 -12 11v212c0 7 -1 14 -4 20l-154 357c-4 10 -1 17 10 17h57c11 0 17 -2 21 -11l108 -274c4 -6 6 -6 9 -1c36 90 72 183 107 273c5 10 8 13 23 13h55c14 0 15 -7 11 -16z" />
    <glyph glyph-name="Z" unicode="Z" horiz-adv-x="420" 
d="M390 12c0 -8 -4 -12 -12 -12h-325c-13 0 -19 8 -19 16v32c0 9 2 18 7 28l239 457c4 7 2 12 -7 12h-212c-7 0 -12 2 -12 11v50c0 7 4 11 12 11h301c17 0 22 -6 22 -18v-29c0 -13 -8 -32 -13 -41l-231 -444c-4 -7 -3 -12 6 -12h232c6 0 12 -4 12 -11v-50z" />
    <glyph glyph-name="bracketleft" unicode="[" horiz-adv-x="326" 
d="M269 -138c0 -6 -3 -9 -9 -9h-148c-6 0 -9 2 -9 9v812c0 6 3 10 9 10h147c6 0 10 -3 10 -10v-50c0 -7 -3 -9 -9 -9h-66c-8 0 -11 -4 -11 -11v-672c0 -7 3 -10 10 -10h66c6 0 10 -3 10 -9v-51z" />
    <glyph glyph-name="backslash" unicode="\" horiz-adv-x="303" 
d="M297 -52c3 -8 -1 -14 -9 -14h-31c-9 0 -14 5 -17 12l-235 717c-3 8 3 12 9 12h29c12 0 17 -3 20 -12z" />
    <glyph glyph-name="bracketright" unicode="]" horiz-adv-x="317" 
d="M215 -139c0 -6 -2 -9 -9 -9h-148c-6 0 -9 2 -9 9v50c0 6 3 9 9 9h66c7 0 11 4 11 11v672c0 7 -3 10 -11 10h-66c-6 0 -9 3 -9 10v50c0 7 3 10 9 10h147c7 0 10 -3 10 -10v-812z" />
    <glyph glyph-name="asciicircum" unicode="^" horiz-adv-x="548" 
d="M463 416c8 -10 2 -16 -6 -22l-22 -17c-4 -3 -12 1 -21 10l-138 149c-3 3 -4 7 -8 7s-5 -2 -9 -7l-126 -151c-8 -10 -15 -15 -24 -10l-27 17c-7 3 -9 13 -2 21l151 204c5 6 7 10 20 10h46c11 0 12 -1 18 -10z" />
    <glyph glyph-name="underscore" unicode="_" horiz-adv-x="500" 
d="M500 -134c0 -7 -3 -10 -9 -10h-482c-6 0 -10 3 -10 9v41c0 6 3 9 10 9h481c6 0 10 -3 10 -9v-40z" />
    <glyph glyph-name="grave" unicode="`" horiz-adv-x="438" 
d="M218 490l-98 111c-5 5 -9 14 2 22l44 29c8 5 16 -2 20 -9l76 -127c4 -7 4 -13 -4 -18l-19 -12c-7 -5 -16 -1 -21 4z" />
    <glyph glyph-name="a" unicode="a" horiz-adv-x="438" 
d="M40 147c0 86 56 153 162 153c31 0 57 -7 79 -19c9 -5 18 -4 18 8v9c0 53 -26 78 -89 78c-25 0 -78 -11 -103 -24c-7 -3 -12 -1 -15 6l-17 44c-2 6 0 11 5 13c36 18 91 30 139 30c123 0 160 -62 160 -159v-276c0 -7 -3 -10 -9 -10h-55c-7 0 -9 4 -9 8v18c0 9 -7 10 -13 4
c-26 -26 -62 -36 -100 -36c-99 0 -153 62 -153 153zM115 149c0 -49 29 -88 90 -88c54 0 89 38 89 88c0 49 -28 88 -90 88c-54 0 -89 -38 -89 -88z" />
    <glyph glyph-name="b" unicode="b" horiz-adv-x="451" 
d="M407 160c0 -97 -59 -165 -168 -165c-48 0 -76 19 -94 33c-9 7 -17 5 -17 -4v-14c0 -7 -3 -10 -11 -10h-53c-7 0 -10 2 -10 9v618c0 7 3 10 10 10h61c7 0 9 -3 9 -9v-208c0 -8 8 -15 17 -7c16 13 44 30 97 30c113 0 159 -79 159 -167v-116zM327 160v116
c0 54 -27 99 -96 99c-57 0 -97 -45 -97 -99v-116c0 -54 39 -98 96 -98c70 0 97 42 97 98z" />
    <glyph glyph-name="c" unicode="c" horiz-adv-x="402" 
d="M375 368c5 -7 4 -17 -4 -22l-35 -27c-10 -7 -17 -3 -23 6c-22 33 -57 50 -94 50c-57 0 -94 -40 -94 -95v-124c0 -54 39 -92 97 -92c52 0 79 26 103 57c4 5 9 3 15 -1l33 -24c13 -8 13 -15 8 -22c-40 -60 -99 -80 -158 -80c-107 0 -178 63 -178 165v115
c0 107 75 171 176 170c66 -1 115 -25 154 -76z" />
    <glyph glyph-name="d" unicode="d" horiz-adv-x="451" 
d="M399 9c0 -6 -2 -9 -9 -9h-54c-7 0 -10 3 -10 10v14c0 8 -9 11 -17 5c-17 -14 -55 -34 -103 -34c-97 0 -160 57 -160 165v116c0 91 61 167 160 167c53 0 83 -20 96 -30c10 -8 16 -2 16 7v207c0 7 3 10 10 10h61c7 0 10 -3 10 -9v-619zM318 160l1 116c0 54 -30 98 -96 98
c-69 0 -97 -44 -97 -98v-116c0 -55 32 -97 93 -97c55 0 99 43 99 97z" />
    <glyph glyph-name="e" unicode="e" horiz-adv-x="438" 
d="M399 225c0 -14 -11 -24 -20 -24h-234c-11 0 -18 -8 -18 -18v-19c0 -54 26 -100 96 -100c40 0 73 20 96 51c6 8 12 8 20 3l35 -24c8 -5 11 -10 8 -16c-32 -58 -92 -84 -157 -84c-107 0 -178 65 -178 164v114c0 102 73 173 176 173c106 0 176 -71 176 -173v-47zM223 376
c-55 0 -94 -42 -94 -92v-7c0 -5 3 -12 15 -12h164c7 0 10 3 10 11v9c0 50 -33 91 -95 91z" />
    <glyph glyph-name="f" unicode="f" horiz-adv-x="274" 
d="M282 619l-11 -48c-2 -7 -5 -9 -16 -6c-16 4 -29 5 -42 5c-40 0 -54 -30 -54 -63v-58c0 -8 4 -10 11 -10h83c7 0 10 -3 10 -10v-49c0 -6 -4 -9 -10 -9h-84c-7 0 -10 -3 -10 -10v-352c0 -6 -4 -9 -10 -9h-60c-7 0 -9 5 -9 9v350c0 7 -2 12 -10 12h-44c-5 0 -8 3 -8 10v49
c0 6 3 9 10 9h41c8 0 11 3 11 10v67c0 70 43 127 122 127c27 0 46 -2 69 -8c10 -3 14 -6 11 -16z" />
    <glyph glyph-name="g" unicode="g" horiz-adv-x="438" 
d="M283 -141c33 20 60 49 60 75c0 49 -64 62 -115 62c-43 0 -101 -8 -150 -16c-16 -2 -20 2 -25 9c-12 17 -18 41 -18 66c0 37 30 74 66 94c4 2 4 7 0 9l-4 2c-41 27 -69 71 -69 128c0 88 79 157 172 157c44 0 85 -14 116 -38c4 -3 6 -3 10 0c25 21 58 35 90 35
c11 1 14 -5 14 -15v-51c0 -11 -2 -12 -15 -11c-18 3 -34 1 -47 -4c-6 -1 -7 -4 -5 -8c11 -19 17 -41 17 -65c0 -92 -82 -158 -180 -158c-11 0 -19 -1 -23 -2c-34 -8 -65 -44 -67 -68c0 -4 2 -7 7 -5c37 9 87 12 109 12c92 0 199 -28 199 -130c0 -58 -53 -113 -105 -135
c-10 -5 -16 -2 -21 6l-22 34c-4 6 -2 12 6 17zM298 284c0 49 -38 92 -92 92c-60 0 -98 -43 -98 -92c0 -48 34 -91 92 -91c62 0 98 41 98 91z" />
    <glyph glyph-name="h" unicode="h" horiz-adv-x="466" 
d="M410 10c0 -7 -3 -10 -9 -10h-62c-7 0 -9 3 -9 9v267c0 57 -29 98 -96 98c-58 0 -96 -41 -96 -97v-267c0 -7 -3 -10 -10 -10h-61c-6 0 -10 3 -10 9v618c0 7 3 10 9 10h62c7 0 9 -3 9 -10v-211c0 -10 9 -12 15 -6c29 21 66 33 103 33c99 0 155 -67 155 -166v-267z" />
    <glyph glyph-name="i" unicode="i" horiz-adv-x="203" 
d="M154 576c0 -27 -23 -50 -51 -50s-50 21 -50 50c0 27 22 49 49 49c29 0 52 -21 52 -49zM61 9v419c0 7 3 10 9 10h62c7 0 10 -3 10 -10v-419c0 -7 -2 -9 -9 -9h-62c-6 0 -10 3 -10 9z" />
    <glyph glyph-name="j" unicode="j" horiz-adv-x="219" 
d="M166 576c0 -27 -23 -50 -51 -50s-50 21 -50 50c0 27 22 49 49 49c29 0 52 -21 52 -49zM-22 -164l9 49c1 6 6 9 17 7c9 -1 17 -2 24 -2c36 1 48 23 48 62v477c0 6 4 9 10 9h60c7 0 9 -5 9 -9v-486c0 -69 -32 -127 -116 -127c-24 0 -38 1 -50 4c-9 3 -13 6 -11 16z" />
    <glyph glyph-name="k" unicode="k" horiz-adv-x="437" 
d="M414 17c0 -12 -3 -17 -14 -17h-53c-11 0 -14 5 -14 14l-5 93c-3 52 -21 96 -94 96c-62 0 -96 -43 -96 -95v-98c0 -7 -3 -10 -10 -10h-61c-6 0 -10 3 -10 9v618c0 6 3 10 9 10h62c7 0 9 -3 9 -9v-354c0 -15 8 -17 15 -10l155 169c4 4 8 5 14 5h74c7 0 11 -4 11 -9
c0 -3 -3 -6 -5 -9l-132 -142c-5 -6 -3 -8 4 -10c9 -1 18 -2 26 -4c82 -19 107 -79 111 -156z" />
    <glyph glyph-name="l" unicode="l" horiz-adv-x="221" 
d="M63 627c0 6 3 10 9 10h61c6 0 10 -3 10 -9v-504c0 -46 12 -55 44 -55h13c9 0 9 -8 9 -15v-47c0 -8 -4 -12 -10 -13c-8 -2 -22 -2 -28 -2c-90 0 -108 45 -108 133v502z" />
    <glyph glyph-name="m" unicode="m" horiz-adv-x="703" 
d="M651 10c0 -7 -3 -10 -9 -10h-62c-7 0 -9 3 -9 9v268c0 52 -29 98 -90 98c-51 0 -89 -48 -89 -98v-267c0 -7 -2 -10 -9 -10h-61c-7 0 -10 3 -10 9v268c0 52 -27 98 -88 98c-59 0 -90 -47 -90 -98v-267c0 -7 -2 -10 -9 -10h-62c-6 0 -10 3 -10 9v268c0 96 62 167 171 167
c53 0 94 -23 122 -55c5 -5 8 -5 12 -1c27 31 70 56 128 56c112 0 165 -69 165 -167v-267z" />
    <glyph glyph-name="n" unicode="n" horiz-adv-x="462" 
d="M408 10c0 -7 -3 -10 -9 -10h-62c-7 0 -9 3 -9 9v267c0 57 -32 99 -96 99c-58 0 -96 -41 -96 -98v-267c0 -7 -3 -10 -10 -10h-61c-6 0 -10 3 -10 9v419c0 7 3 10 9 10h58c7 0 9 -2 9 -9v-15c0 -6 3 -9 7 -9c3 0 5 2 8 4c29 24 62 35 100 35c100 0 162 -66 162 -167v-267z
" />
    <glyph glyph-name="o" unicode="o" horiz-adv-x="448" 
d="M400 163c0 -108 -68 -169 -176 -169c-110 0 -176 60 -176 168v115c0 102 62 168 175 168c112 0 177 -62 177 -168v-114zM320 162v115c0 57 -31 98 -96 98c-58 0 -96 -40 -96 -98v-115c0 -57 27 -99 95 -99c67 0 96 41 97 99z" />
    <glyph glyph-name="p" unicode="p" horiz-adv-x="454" 
d="M408 161c0 -93 -67 -168 -161 -168c-52 0 -78 15 -95 31c-11 9 -17 2 -17 -6v-189c0 -7 -3 -10 -9 -10h-62c-6 0 -9 3 -9 9v601c0 6 2 9 9 9h55c7 0 10 -2 10 -9v-21c0 -8 8 -7 16 1c17 15 52 34 102 34c96 0 161 -59 161 -164v-118zM327 161v117c0 55 -34 97 -96 97
c-56 0 -96 -42 -96 -96v-118c0 -54 39 -99 96 -99c58 0 96 44 96 99z" />
    <glyph glyph-name="q" unicode="q" horiz-adv-x="454" 
d="M403 -181c0 -7 -3 -10 -9 -10h-62c-7 0 -10 3 -10 9v200c0 7 -6 15 -17 6c-17 -16 -43 -31 -94 -31c-103 0 -161 75 -161 167v118c0 99 65 165 162 165c50 0 83 -19 100 -34c8 -8 16 -4 16 4v16c0 7 3 9 10 9h55c6 0 10 -2 10 -9v-610zM322 161v117c0 55 -39 97 -95 97
c-55 0 -97 -41 -97 -96v-118c0 -54 38 -99 96 -99c57 0 96 44 96 99z" />
    <glyph glyph-name="r" unicode="r" horiz-adv-x="295" 
d="M68 438h52c7 0 10 -3 10 -9v-47c0 -7 6 -10 11 -3c23 32 64 65 117 65c8 0 23 -1 27 -3c10 -3 11 -7 9 -15l-12 -59c-2 -11 -8 -11 -13 -10c-10 2 -20 3 -29 3c-75 0 -100 -49 -100 -113v-237c0 -7 -3 -10 -9 -10h-62c-6 0 -10 3 -10 9v419c0 7 3 10 9 10z" />
    <glyph glyph-name="s" unicode="s" horiz-adv-x="392" 
d="M355 119c0 -67 -57 -124 -158 -124c-71 0 -136 32 -163 98c-2 5 -1 9 4 11l51 23c6 3 10 -1 12 -5c20 -38 57 -62 102 -62c43 0 75 26 75 56c0 32 -24 46 -63 61c-62 24 -169 47 -169 143c0 81 72 122 151 123c55 1 109 -18 147 -59c5 -5 3 -11 -3 -17l-27 -31
c-7 -8 -14 -7 -23 1c-27 24 -62 39 -95 39c-44 0 -72 -19 -72 -50c0 -29 24 -46 62 -60c78 -29 169 -51 169 -147z" />
    <glyph glyph-name="t" unicode="t" horiz-adv-x="305" 
d="M197 -6c-89 0 -118 50 -118 121v245c0 7 -3 10 -11 10h-41c-7 0 -10 3 -10 9v49c0 7 3 10 8 10h42c8 0 12 5 12 12v84c0 4 2 9 9 11l58 14c8 2 12 -3 12 -9v-102c0 -7 3 -10 10 -10h92c6 0 10 -3 10 -9v-49c0 -7 -3 -10 -10 -10h-91c-7 0 -11 -2 -11 -10v-228
c0 -38 10 -63 50 -63c22 0 45 3 59 6c15 3 18 -3 19 -11l8 -41c2 -11 0 -13 -10 -17c-20 -9 -60 -12 -87 -12z" />
    <glyph glyph-name="u" unicode="u" horiz-adv-x="459" 
d="M401 10c0 -7 -3 -10 -10 -10h-57c-7 0 -10 2 -10 9v15c0 9 -8 11 -14 5c-25 -22 -69 -35 -103 -35c-99 0 -159 65 -159 167v267c0 7 3 10 9 10h62c7 0 9 -3 9 -9v-268c0 -56 33 -98 96 -98c58 0 96 41 96 98v267c0 7 2 10 9 10h62c6 0 10 -3 10 -9v-419z" />
    <glyph glyph-name="v" unicode="v" horiz-adv-x="404" 
d="M391 425l-146 -413c-3 -9 -6 -12 -18 -12h-49c-11 0 -15 2 -18 11l-146 413c-3 9 -1 14 8 14h55c11 0 18 -5 20 -12l68 -207l33 -113c2 -6 7 -6 9 -1l31 108l68 210c2 7 6 15 19 15h57c9 0 12 -5 9 -13z" />
    <glyph glyph-name="w" unicode="w" horiz-adv-x="604" 
d="M587 426l-113 -412c-3 -11 -8 -14 -16 -14h-45c-11 0 -15 1 -18 11l-64 204l-31 113c-2 4 -4 6 -6 0l-32 -121l-60 -196c-3 -11 -9 -11 -18 -11h-45c-9 0 -15 2 -18 13l-111 412c-3 9 0 14 8 14h62c10 0 15 -4 17 -13l37 -165l29 -138c1 -5 6 -5 7 0l38 134l51 166
c3 10 7 16 18 16h45c7 0 14 -1 18 -15l61 -198l29 -103c1 -4 6 -5 7 0l19 96l45 206c2 8 6 14 18 14h59c9 0 11 -5 9 -13z" />
    <glyph glyph-name="x" unicode="x" horiz-adv-x="387" 
d="M247 217l128 -203c5 -7 4 -14 -7 -14h-61c-9 0 -16 1 -23 12l-85 145c-5 9 -10 2 -12 -1l-84 -144c-7 -11 -14 -12 -23 -12h-60c-11 0 -12 7 -7 14l125 199c9 14 6 20 1 29l-113 181c-5 8 -2 15 8 15h58c13 0 16 0 23 -11l74 -127c5 -8 8 -5 11 1l73 126
c7 11 10 11 23 11h58c10 0 13 -7 8 -15l-115 -182c-8 -13 -3 -19 0 -24z" />
    <glyph glyph-name="y" unicode="y" horiz-adv-x="412" 
d="M103 424l84 -337c2 -10 9 -14 14 0l110 333c3 8 7 19 23 19h47c13 0 16 -9 13 -19l-193 -582c-3 -9 -12 -21 -31 -21h-37c-14 0 -20 7 -14 26l47 142c2 7 6 15 -5 15h-10c-13 0 -20 5 -24 20l-110 401c-3 10 -1 18 11 18h53c13 0 19 -7 22 -15z" />
    <glyph glyph-name="z" unicode="z" horiz-adv-x="402" 
d="M367 10c0 -7 -3 -10 -9 -10h-306c-11 0 -16 7 -16 14v27c0 8 1 18 7 26l194 289c6 8 2 15 -9 15h-172c-7 0 -10 2 -10 9v48c0 7 3 10 9 10h275c15 0 20 -5 20 -17v-28c0 -9 -3 -21 -6 -26l-192 -284c-5 -9 -2 -15 9 -15h196c6 0 10 -3 10 -10v-48z" />
    <glyph glyph-name="braceleft" unicode="{" horiz-adv-x="338" 
d="M38 249v43c0 15 8 16 23 22c40 18 67 46 67 95v129c0 106 53 145 149 145h15c6 0 10 -3 10 -10v-49c0 -7 -3 -10 -9 -10h-12c-57 0 -72 -9 -72 -68v-154c0 -48 -26 -88 -67 -112c-3 -2 -4 -5 -4 -7s1 -4 4 -5c45 -21 67 -79 67 -121v-161c0 -60 15 -68 72 -68h12
c6 0 9 -3 9 -10v-49c0 -7 -4 -10 -10 -10h-15c-96 0 -148 39 -148 145v142c0 49 -27 79 -66 94c-18 7 -25 10 -25 19z" />
    <glyph glyph-name="bar" unicode="|" horiz-adv-x="227" 
d="M141 668v-773c0 -7 -3 -10 -9 -10h-39c-6 0 -10 3 -10 9v773c0 6 3 9 10 9h38c7 0 10 -3 10 -8z" />
    <glyph glyph-name="braceright" unicode="}" horiz-adv-x="338" 
d="M298 251c0 -10 -7 -14 -25 -21c-39 -15 -66 -45 -66 -94v-142c0 -106 -52 -145 -148 -145h-15c-6 0 -10 3 -10 10v49c0 7 3 10 9 10h12c57 0 72 8 72 68v161c0 42 22 100 67 121c3 1 4 3 4 5s-1 5 -4 7c-41 24 -67 64 -67 112v154c0 59 -15 68 -72 68h-12
c-6 0 -9 3 -9 10v49c0 7 4 10 10 10h15c96 0 149 -39 149 -145v-129c0 -49 27 -77 67 -95c15 -6 23 -7 23 -22v-41z" />
    <glyph glyph-name="asciitilde" unicode="~" horiz-adv-x="475" 
d="M460 306c-33 -44 -74 -72 -120 -72c-41 0 -84 23 -123 40c-30 14 -58 26 -84 26c-28 0 -50 -15 -77 -46c-2 -2 -4 -3 -6 -3l-3 1l-34 32c-2 2 -3 4 -3 7s1 5 3 7c40 52 82 70 117 70c37 0 77 -15 110 -31s66 -31 99 -31c29 0 50 20 68 39c4 4 7 7 11 7c2 0 5 -1 7 -3
l33 -26c4 -3 6 -5 6 -8s-2 -6 -4 -9z" />
    <glyph glyph-name="dieresistonos" unicode="&#x385;" horiz-adv-x="438" 
d="M408 555c0 -26 -21 -47 -47 -47c-27 0 -48 21 -48 47s21 47 48 47c25 0 47 -21 47 -47zM166 555c0 -26 -21 -47 -47 -47s-47 21 -47 47s21 47 47 47s47 -21 47 -47zM315 601l-99 -111c-4 -5 -13 -9 -21 -4l-19 12c-7 5 -7 11 -3 18l75 127c4 7 13 14 20 9l44 -29
c11 -8 7 -17 3 -22z" />
    <glyph glyph-name="tonos" unicode="&#x384;" horiz-adv-x="438" 
d="M332 601l-99 -111c-4 -5 -13 -9 -21 -4l-19 12c-7 5 -7 11 -3 18l75 127c4 7 13 14 20 9l44 -29c11 -8 7 -17 3 -22z" />
    <glyph glyph-name="dieresis" unicode="&#xa8;" horiz-adv-x="455" 
d="M347 545c0 -26 -20 -47 -46 -47c-27 0 -48 21 -48 47s21 47 47 47s47 -21 47 -47zM185 545c0 -26 -21 -47 -47 -47s-47 21 -47 47s21 47 47 47s47 -21 47 -47z" />
    <glyph glyph-name="ccedilla" unicode="&#xe7;" horiz-adv-x="408" 
d="M314 -126c0 -38 -35 -77 -92 -77c-35 0 -57 8 -79 22c-4 3 -7 8 -1 15l16 21c5 5 7 6 12 3c14 -8 29 -16 50 -16c27 0 42 13 42 31c0 10 -3 33 -38 33h-27c-25 0 -34 17 -29 37c5 23 10 39 14 55c-84 13 -137 72 -137 161v115c0 107 75 171 176 170
c66 -1 115 -25 154 -76c5 -7 4 -17 -4 -22l-35 -27c-10 -7 -17 -3 -23 6c-22 33 -57 50 -94 50c-57 0 -94 -40 -94 -95v-124c0 -54 39 -92 97 -92c52 0 79 26 103 57c4 5 9 3 15 -1l33 -24c13 -8 13 -15 8 -22c-39 -58 -96 -79 -153 -80l-8 -33c-3 -9 1 -11 7 -11h11
c46 0 76 -30 76 -76z" />
    <glyph glyph-name="sterling" unicode="&#xa3;" horiz-adv-x="475" 
d="M175 461v-103c0 -7 3 -10 10 -10h109c7 0 10 -3 10 -10v-50c0 -7 -3 -9 -10 -9h-108c-8 0 -11 -4 -11 -11v-60c0 -55 -1 -99 -21 -131c-2 -5 -1 -8 4 -8h243c6 0 10 -3 10 -9v-50c0 -7 -3 -10 -9 -10h-359c-6 0 -9 2 -9 9v50c0 7 4 9 10 10c46 14 50 63 50 95v104
c0 7 -3 10 -10 10h-39c-6 0 -9 3 -9 10v50c0 7 2 9 9 9h38c8 0 11 4 11 11v87c0 105 76 180 178 180c64 0 132 -24 165 -81c4 -7 4 -12 -4 -17l-44 -28c-8 -5 -15 -6 -20 3c-20 34 -52 54 -95 54c-55 0 -99 -39 -99 -95z" />
    <glyph glyph-name="trademark" unicode="&#x2122;" horiz-adv-x="600" 
d="M505 496l-77 -170c-2 -4 -5 -9 -11 -9h-20c-6 0 -9 2 -12 8l-76 171l-2 -1v-181c0 -4 -2 -7 -7 -7h-33c-5 0 -7 2 -7 7v295c0 5 2 9 7 9h27c11 0 11 -2 15 -10l96 -221h3l95 221c3 6 7 10 14 10h28c5 0 8 -3 8 -8v-296c0 -4 -2 -7 -6 -7h-32c-5 0 -8 2 -7 7v181zM235 581
c0 -5 -2 -7 -6 -7h-70c-4 0 -5 -2 -5 -5v-254c0 -4 -2 -7 -7 -7h-36c-5 0 -8 2 -8 7v254c0 3 0 4 -4 4h-69c-5 0 -7 3 -7 8v29c0 5 2 8 6 8h199c4 0 7 -2 7 -7v-30z" />
    <glyph glyph-name="bullet" unicode="&#x2022;" horiz-adv-x="382" 
d="M304 232c0 -62 -50 -112 -112 -112s-113 50 -113 111c0 62 51 113 113 113c61 0 112 -51 112 -112z" />
    <glyph glyph-name="perthousand" unicode="&#x2030;" horiz-adv-x="991" 
d="M516 635l-277 -658c-3 -7 -7 -7 -12 -7h-36c-7 0 -7 4 -5 9l278 660c4 8 9 8 13 8h30c12 0 12 -4 9 -12zM283 342c0 -68 -47 -108 -122 -108c-74 0 -121 37 -121 108v171c0 67 48 108 121 108c72 0 122 -39 122 -108v-171zM216 342v171c0 31 -21 53 -55 53
s-55 -23 -55 -53v-171c0 -32 20 -53 55 -53c34 0 55 21 55 53zM660 103c0 -68 -47 -106 -121 -106c-73 0 -120 36 -120 106v172c0 66 48 107 120 107c71 0 121 -39 121 -107v-172zM597 103v172c0 32 -23 55 -58 55s-57 -24 -57 -55v-172c0 -33 21 -56 57 -56
c35 0 58 23 58 56zM951 103c0 -68 -47 -106 -121 -106c-73 0 -120 36 -120 106v172c0 66 48 107 120 107c71 0 121 -39 121 -107v-172zM888 103v172c0 32 -23 55 -58 55s-57 -24 -57 -55v-172c0 -33 21 -56 57 -56c35 0 58 23 58 56z" />
    <glyph glyph-name="sfthyphen" unicode="&#xad;" horiz-adv-x="340" 
d="M277 215c0 -6 -3 -10 -9 -10h-204c-7 0 -10 3 -10 10v46c0 7 3 10 9 10h204c6 0 10 -3 10 -9v-47z" />
    <glyph glyph-name="dagger" unicode="&#x2020;" horiz-adv-x="460" 
d="M420 453c0 -9 -5 -15 -14 -15h-142c-4 0 -6 0 -6 -4l-1 -555c0 -9 -4 -14 -13 -14h-34c-10 0 -15 5 -14 13v555c0 5 -1 5 -5 5h-140c-9 0 -15 5 -15 14v32c0 9 5 15 14 15h141c4 0 5 0 5 4v150c0 10 5 15 14 15h34c9 0 14 -5 14 -14v-150c0 -5 1 -5 5 -5h143
c7 0 14 -6 14 -14v-32z" />
    <glyph glyph-name="Gamma" unicode="&#x393;" horiz-adv-x="426" 
d="M418 556c0 -7 -4 -11 -12 -11h-234c-6 0 -8 -2 -8 -8v-525c0 -8 -3 -12 -11 -12h-61c-7 0 -12 4 -12 11v595c0 7 4 11 12 11h314c7 0 12 -4 12 -10v-51z" />
    <glyph glyph-name="Delta" unicode="&#x394;" horiz-adv-x="468" 
d="M442 0h-415c-10 0 -13 7 -12 15c53 190 113 402 165 592c2 7 5 10 14 10h79c11 0 12 -6 13 -9l166 -588c3 -11 1 -20 -10 -20zM345 81l-74 280l-37 150c-1 5 -5 6 -6 1l-37 -152l-69 -278c-2 -7 -1 -12 8 -12h208c6 0 9 4 7 12v-1z" />
    <glyph glyph-name="Delta" unicode="&#x2206;" horiz-adv-x="468" 
d="M442 0h-415c-10 0 -13 7 -12 15c53 190 113 402 165 592c2 7 5 10 14 10h79c11 0 12 -6 13 -9l166 -588c3 -11 1 -20 -10 -20zM345 81l-74 280l-37 150c-1 5 -5 6 -6 1l-37 -152l-69 -278c-2 -7 -1 -12 8 -12h208c6 0 9 4 7 12v-1z" />
    <glyph glyph-name="Theta" unicode="&#x398;" horiz-adv-x="517" 
d="M459 165c0 -108 -81 -171 -200 -171c-116 0 -201 59 -201 171v290c0 106 87 170 200 170c119 0 201 -60 201 -170v-290zM375 167v286c0 57 -44 99 -116 99c-74 0 -117 -43 -117 -99v-286c0 -59 42 -100 116 -100s117 40 117 100zM341 280h-165c-5 0 -6 2 -6 7v54
c0 6 1 8 7 8h163c6 0 7 -2 7 -8v-54c0 -5 -1 -7 -6 -7z" />
    <glyph glyph-name="Lambda" unicode="&#x39b;" horiz-adv-x="460" 
d="M105 11v-1c-2 -7 -5 -10 -14 -10h-63c-12 0 -16 9 -13 19l166 589c2 5 6 9 15 9h68c7 0 12 -2 14 -8l165 -589c2 -7 4 -20 -14 -20h-60c-7 0 -12 2 -14 10v-1c-26 103 -53 205 -80 308l-46 179c0 2 -4 2 -4 0l-43 -178z" />
    <glyph glyph-name="Xi" unicode="&#x39e;" horiz-adv-x="476" 
d="M429 12c0 -8 -4 -12 -12 -12h-358c-8 0 -12 4 -12 12v50c0 7 5 11 12 11h129c6 0 8 3 8 9v189c0 6 -3 9 -9 9h-83c-7 0 -11 4 -11 11v50c0 8 4 12 12 12h83c6 0 8 2 8 8v176c0 6 -3 8 -9 8h-126c-8 0 -12 5 -12 12v49c0 7 6 11 13 11h352c7 0 13 -4 13 -11v-49
c0 -7 -4 -12 -12 -12h-133c-6 0 -9 -2 -9 -8v-176c0 -6 2 -8 8 -8h90c8 0 12 -4 12 -12v-50c0 -7 -4 -11 -11 -11h-90c-6 0 -9 -3 -9 -9v-189c0 -6 2 -9 8 -9h136c7 0 12 -4 12 -11v-50z" />
    <glyph glyph-name="Pi" unicode="&#x3a0;" horiz-adv-x="556" 
d="M481 12c0 -8 -4 -12 -12 -12h-61c-9 0 -11 4 -11 11v526c0 6 -3 9 -8 9h-221c-6 0 -8 -3 -8 -9v-525c0 -8 -4 -12 -12 -12h-61c-7 0 -12 4 -12 11v595c0 7 4 11 12 11h382c8 0 12 -4 12 -10v-595z" />
    <glyph glyph-name="germandbls" unicode="&#xdf;" horiz-adv-x="484" 
d="M430 155c0 -46 -18 -88 -47 -119c-28 -29 -67 -46 -107 -46h-67c-7 0 -9 3 -9 8v43c0 13 7 13 18 13h42c51 0 90 51 90 101v105c0 55 -35 88 -90 88h-12c-6 0 -9 3 -9 9v47c0 7 2 9 8 9h16c48 0 77 33 77 80c0 51 -35 85 -90 85s-93 -42 -93 -95v-473c0 -7 -2 -10 -9 -10
h-62c-6 0 -10 3 -10 9v471c0 96 66 167 172 167c105 0 172 -60 172 -158c0 -39 -12 -89 -46 -107c-3 -2 -3 -6 0 -8c38 -22 56 -66 56 -114v-105z" />
    <glyph glyph-name="registered" unicode="&#xae;" horiz-adv-x="409" 
d="M211 567c37 0 58 -21 58 -51c0 -20 -11 -36 -27 -47c-4 -3 -6 -3 -3 -10l31 -65c3 -5 4 -12 -6 -12h-17c-4 0 -8 1 -11 7l-28 65c-2 4 -4 4 -9 4h-11c-4 0 -6 -1 -6 -5v-63c0 -5 -3 -8 -7 -8h-18c-4 0 -8 2 -8 7v170c0 4 3 8 8 8h54zM237 513c0 15 -11 25 -26 25h-23
c-4 0 -6 -2 -6 -5v-43c0 -3 1 -4 5 -4h21c15 0 29 13 29 27zM203 307c-95 0 -161 51 -161 132v74c0 81 66 132 161 132c94 0 163 -48 163 -132v-74c0 -85 -69 -132 -163 -132zM335 514c0 58 -46 103 -132 103c-88 0 -131 -48 -131 -103v-77c0 -54 43 -103 131 -103
c86 0 132 48 132 103v77z" />
    <glyph glyph-name="copyright" unicode="&#xa9;" horiz-adv-x="707" 
d="M469 424c2 -4 2 -8 -3 -11l-29 -19c-6 -3 -11 -4 -14 2c-13 23 -34 36 -61 36c-39 0 -66 -27 -66 -66v-125c0 -38 26 -66 65 -66c26 0 47 15 61 33c3 5 9 8 15 3l30 -20c2 -2 2 -7 0 -10c-26 -35 -61 -53 -105 -53c-72 0 -120 39 -120 112v125c0 70 50 113 121 113
c49 0 83 -16 106 -54zM355 0c-174 0 -294 92 -294 239v138c0 147 120 240 294 240c173 0 297 -87 297 -240v-138c0 -153 -124 -239 -297 -239zM608 380c0 111 -89 198 -254 198c-166 0 -249 -91 -249 -198v-143c0 -106 83 -199 249 -199c165 0 254 91 254 199v143z" />
    <glyph glyph-name="Sigma" unicode="&#x3a3;" horiz-adv-x="425" 
d="M402 12c0 -8 -4 -12 -12 -12h-325c-13 0 -19 8 -19 16v35c0 9 2 18 7 28l110 218c5 10 10 23 2 37l-109 202c-3 6 -8 17 -8 27v35c0 12 5 19 22 19h302c8 0 12 -4 12 -10v-51c0 -7 -4 -11 -11 -11h-217c-8 0 -11 -6 -8 -12l108 -191c11 -20 10 -32 3 -45l-113 -212
c-4 -7 -2 -12 7 -12h237c6 0 12 -4 12 -11v-50z" />
    <glyph glyph-name="section" unicode="&#xa7;" horiz-adv-x="452" 
d="M239 600c-59 0 -89 -24 -89 -54s25 -48 92 -72c92 -32 159 -60 159 -142c0 -54 -34 -93 -82 -113c-1 0 -3 -1 -5 -1c-3 0 -6 1 -9 7l-17 39c-1 2 -2 4 -2 6c0 5 4 7 7 8c20 10 33 26 33 50c0 42 -44 59 -107 81c-82 29 -144 59 -144 132s60 124 166 124
c58 0 108 -19 146 -61c2 -2 3 -4 3 -6c0 -4 -2 -7 -6 -11l-29 -31c-3 -3 -7 -5 -10 -5c-4 0 -9 2 -13 7c-25 27 -60 42 -93 42zM233 -73c-65 0 -131 25 -169 67c-2 2 -3 4 -3 6c0 4 2 7 6 11l33 31c3 3 7 5 10 5c4 0 9 -2 13 -7c25 -27 72 -48 113 -48c47 0 99 16 99 59
c0 40 -51 59 -117 81c-82 28 -144 65 -144 134c0 51 32 86 84 110c3 1 6 2 8 2c6 0 9 -4 11 -9l14 -31c1 -3 3 -6 3 -9c0 -4 -2 -8 -10 -12c-21 -11 -36 -31 -36 -46c0 -30 27 -49 93 -71c90 -31 171 -64 171 -145c0 -83 -80 -128 -179 -128z" />
    <glyph glyph-name="degree" unicode="&#xb0;" horiz-adv-x="303" 
d="M265 523c0 -63 -56 -111 -120 -111s-115 47 -115 111c0 63 51 111 114 111c78 0 121 -48 121 -111zM144 588c-32 0 -61 -29 -61 -65c0 -35 26 -66 61 -66c36 0 66 30 66 66c0 35 -25 65 -66 65z" />
    <glyph glyph-name="periodcentered" unicode="&#xb7;" horiz-adv-x="213" 
d="M161 233c0 -30 -24 -55 -55 -55c-29 0 -53 24 -53 54c0 28 24 53 53 53s55 -26 55 -52z" />
    <glyph glyph-name="plusminus" unicode="&#xb1;" horiz-adv-x="475" 
d="M435 333c0 -10 -5 -15 -15 -15h-147c-4 0 -5 0 -5 -4v-147c0 -9 -5 -14 -14 -14h-34c-10 0 -15 5 -15 14v146c0 3 -1 5 -4 5h-146c-9 0 -15 5 -15 14v32c0 9 5 15 15 15h145c5 0 5 0 5 4v146c0 9 5 15 14 15h34c10 0 15 -5 15 -15v-145c0 -5 1 -5 5 -5h147
c9 0 15 -6 15 -15v-31zM435 55c0 -10 -5 -15 -15 -15h-365c-9 0 -15 5 -15 14v32c0 9 5 15 15 15h365c9 0 15 -6 15 -15v-31z" />
    <glyph glyph-name="yen" unicode="&#xa5;" horiz-adv-x="475" 
d="M54 256h378c5 0 9 -4 9 -9v-37c0 -6 -6 -9 -9 -9h-147c-9 0 -9 -7 -9 -13v-178c0 -7 -3 -10 -10 -10h-60c-7 0 -10 3 -10 9v178c0 6 -2 13 -13 13h-129c-6 0 -10 3 -10 10v37c0 6 3 9 10 9zM432 304h-378c-6 0 -10 3 -10 9v37c0 7 3 10 10 10h78c6 0 7 7 5 10l-100 232
c-5 10 -2 15 8 15h59c11 0 14 0 19 -11l62 -143l47 -119c4 -8 9 -10 13 -1l50 125l58 136c5 10 8 13 21 13h53c12 0 13 -7 9 -14l-102 -235c-2 -4 0 -8 6 -8h92c6 0 9 -2 9 -9v-37c0 -7 -3 -10 -9 -10z" />
    <glyph glyph-name="Phi" unicode="&#x3a6;" horiz-adv-x="571" 
d="M512 235c0 -89 -82 -163 -177 -171c-8 -1 -10 -5 -10 -11v-42c0 -8 -2 -11 -10 -11h-61c-8 0 -10 3 -10 10v43c0 6 -5 11 -11 11c-98 5 -174 76 -174 171v170c0 96 72 166 175 172c7 0 9 2 9 7v22c0 7 3 11 11 11h60c8 0 11 -3 11 -10v-23c0 -4 1 -7 7 -7
c106 -5 180 -75 180 -171v-171zM433 233v177c0 50 -27 93 -101 96c-6 0 -7 -3 -7 -7v-352c0 -6 3 -9 10 -9c53 7 98 40 98 95zM244 146v351c0 6 -3 9 -9 9c-63 -3 -96 -48 -96 -95v-178c0 -47 36 -89 96 -95c7 0 9 3 9 8z" />
    <glyph glyph-name="Psi" unicode="&#x3a8;" horiz-adv-x="563" 
d="M509 309c0 -93 -77 -173 -178 -178c-7 0 -9 -2 -9 -8v-111c0 -8 -2 -12 -11 -12h-61c-9 0 -11 4 -11 11v110c0 7 -2 10 -9 10c-101 5 -176 81 -176 178v297c0 7 4 11 11 11h60c7 0 12 -4 12 -10v-308c0 -47 46 -88 92 -93c7 -1 9 1 9 9v400c0 7 4 12 12 12h60
c8 0 12 -4 12 -12v-400c0 -7 4 -10 11 -9c47 6 91 45 91 93v307c0 7 4 11 12 11h62c6 0 11 -4 11 -10v-298z" />
    <glyph glyph-name="Omega" unicode="&#x3a9;" horiz-adv-x="520" 
d="M460 0h-155c-11 0 -13 2 -13 11v64c0 9 1 11 9 12c43 8 73 48 73 94v270c0 55 -34 103 -113 103c-73 0 -115 -47 -115 -103v-269c0 -46 27 -88 72 -95c6 -2 8 -2 8 -12v-63c0 -11 0 -12 -12 -12h-153c-7 0 -12 4 -12 11v50c0 8 5 12 12 12h42c2 0 4 2 1 4
c-37 27 -42 75 -42 124v246c0 108 88 179 198 179c126 0 198 -71 198 -179v-246c0 -49 -14 -94 -47 -124c-1 -2 0 -4 2 -4h46c7 0 12 -4 12 -11v-50c0 -8 -4 -12 -11 -12z" />
    <glyph glyph-name="guillemotleft" unicode="&#xab;" horiz-adv-x="479" 
d="M316 211c-8 -9 -5 -13 0 -19l122 -152c8 -10 2 -20 -8 -20h-47c-15 0 -22 4 -34 19l-113 142c-14 17 -12 28 -1 42l116 145c7 9 13 16 31 16h48c15 0 18 -8 10 -18zM138 211c-8 -9 -6 -13 0 -19l121 -152c8 -10 2 -20 -7 -20h-48c-15 0 -22 4 -34 19l-113 142
c-13 17 -11 28 0 42l115 145c8 9 14 16 31 16h49c14 0 17 -8 9 -18z" />
    <glyph glyph-name="guillemotright" unicode="&#xbb;" horiz-adv-x="479" 
d="M431 178l-113 -141c-12 -15 -19 -19 -34 -19h-48c-9 0 -15 10 -7 20l122 151c5 7 7 10 0 20l-124 155c-8 9 -5 18 9 18h49c17 0 23 -7 31 -16l115 -146c11 -13 13 -25 0 -42zM252 178l-113 -141c-12 -15 -19 -19 -34 -19h-47c-10 0 -16 10 -8 20l122 151c5 7 8 10 0 20
l-124 155c-8 9 -4 18 10 18h48c18 0 24 -7 31 -16l116 -146c11 -13 13 -25 -1 -42z" />
    <glyph glyph-name="ellipsis" unicode="&#x2026;" horiz-adv-x="684" 
d="M564 98c30 0 55 -23 55 -53s-24 -54 -55 -54c-29 0 -53 25 -53 54s24 53 53 53zM339 98c31 0 55 -23 55 -53s-23 -54 -54 -54c-29 0 -53 25 -53 54s23 53 52 53zM111 98c31 0 55 -23 55 -53s-23 -54 -54 -54c-29 0 -53 25 -53 54s24 53 52 53z" />
    <glyph glyph-name="Chi" unicode="&#x3a7;" horiz-adv-x="451" 
d="M345 11l-111 222c-1 4 -7 7 -10 1l-111 -223c-6 -11 -11 -11 -22 -11h-62c-12 0 -14 6 -9 16l154 294c7 15 2 20 -1 25l-140 268c-5 9 -2 14 11 14h66c12 0 16 -3 20 -11l97 -200c2 -2 6 -2 8 0c33 65 67 134 99 200c4 8 8 11 20 11h60c12 0 14 -6 11 -14
c-47 -90 -97 -182 -143 -272c-3 -8 -3 -15 0 -20c47 -91 108 -204 156 -295c5 -10 3 -16 -9 -16h-62c-11 0 -17 0 -22 11z" />
    <glyph glyph-name="oe" unicode="&#x153;" horiz-adv-x="709" 
d="M670 225c0 -14 -10 -24 -20 -24h-233c-10 0 -18 -4 -18 -15v-31c0 -50 41 -91 96 -91c35 0 63 15 84 42c9 11 13 23 28 13l40 -25c8 -5 10 -10 7 -16c-11 -17 -21 -30 -34 -41c-33 -31 -79 -43 -123 -43c-52 0 -94 15 -125 41c-14 12 -15 11 -28 0
c-30 -26 -73 -41 -124 -41c-108 0 -176 60 -176 168v115c0 108 70 168 175 168c52 0 96 -15 127 -44c14 -12 16 -10 29 1c31 28 72 43 119 43c104 0 176 -71 176 -173v-47zM589 276v9c0 50 -38 91 -94 91s-94 -42 -94 -92c0 -12 2 -19 15 -19h163c8 0 10 3 10 11zM315 162
v115c0 57 -37 98 -95 98s-96 -40 -96 -98v-115c0 -57 37 -99 95 -99s96 41 96 99z" />
    <glyph glyph-name="endash" unicode="&#x2013;" horiz-adv-x="500" 
d="M470 213c0 -6 -3 -10 -9 -10h-421c-7 0 -10 3 -10 10v40c0 6 3 10 9 10h421c6 0 10 -4 10 -10v-40z" />
    <glyph glyph-name="afii00208" unicode="&#x2015;" horiz-adv-x="1000" 
d="M980 213c0 -6 -3 -10 -10 -10h-940c-7 0 -10 3 -10 10v40c0 6 3 10 9 10h941c6 0 10 -4 10 -10v-40z" />
    <glyph glyph-name="quotedblleft" unicode="&#x201c;" horiz-adv-x="306" 
d="M260 624l-11 -180c0 -8 -6 -16 -16 -16h-66c-14 0 -18 7 -14 20l51 182c3 10 8 13 16 13h28c10 0 13 -9 12 -19zM132 624l-11 -180c0 -8 -6 -16 -16 -16h-66c-13 0 -18 6 -14 20l51 182c3 10 8 13 16 13h29c9 0 12 -9 11 -19z" />
    <glyph glyph-name="quotedblright" unicode="&#x201d;" horiz-adv-x="306" 
d="M275 622l-51 -182c-3 -10 -9 -12 -17 -12h-28c-10 0 -13 8 -12 18l11 180c1 9 6 17 16 17h66c14 0 19 -7 15 -21zM146 622l-50 -182c-3 -10 -9 -12 -16 -12h-29c-9 0 -13 9 -12 18l12 180c1 9 6 17 16 17h66c13 0 17 -7 13 -21z" />
    <glyph glyph-name="quoteleft" unicode="&#x2018;" horiz-adv-x="189" 
d="M137 624l-11 -180c0 -8 -6 -16 -16 -16h-67c-13 0 -18 6 -14 20l51 182c3 10 9 13 16 13h29c10 0 13 -9 12 -19z" />
    <glyph glyph-name="quoteright" unicode="&#x2019;" horiz-adv-x="194" 
d="M153 622l-51 -182c-3 -10 -9 -12 -17 -12h-28c-10 0 -14 9 -13 18l12 180c1 9 6 17 16 17h66c14 0 19 -7 15 -21z" />
    <glyph glyph-name="alpha" unicode="&#x3b1;" horiz-adv-x="453" 
d="M401 10c0 -7 -3 -10 -10 -10h-61c-7 0 -9 3 -9 9v10c0 9 -6 13 -16 5c-17 -15 -53 -27 -88 -27c-103 0 -169 58 -169 159v124c0 96 74 163 168 163c50 0 78 -18 94 -31c7 -6 16 -6 16 2v14c0 8 2 10 9 10h56c6 0 10 -2 10 -9v-419zM320 156l1 124c0 53 -41 94 -96 94
c-64 0 -97 -42 -97 -94v-124c0 -52 33 -96 97 -96c54 0 95 43 95 96z" />
    <glyph glyph-name="beta" unicode="&#x3b2;" horiz-adv-x="458" 
d="M407 158c0 -91 -70 -165 -161 -165c-46 0 -69 9 -100 31c-6 4 -12 3 -12 -5v-155c0 -7 -2 -10 -9 -10h-62c-6 0 -10 3 -10 9v602c0 95 66 172 172 172c109 0 173 -64 173 -160c0 -40 -16 -88 -54 -106c-4 -2 -5 -5 0 -7c43 -19 63 -66 63 -114v-92zM327 158v92
c0 55 -42 88 -97 88h-44c-6 0 -9 4 -9 9v46c0 7 4 10 10 10h46c44 0 84 25 84 75c0 52 -31 88 -90 88c-62 0 -93 -45 -93 -97v-311c0 -52 42 -96 96 -96s97 43 97 96z" />
    <glyph glyph-name="psi" unicode="&#x3c8;" horiz-adv-x="535" 
d="M490 158c0 -95 -70 -164 -172 -168c-8 0 -9 -3 -9 -10v-151c0 -6 -3 -10 -10 -10h-61c-7 0 -9 3 -9 9v152c0 6 -3 10 -10 10c-102 3 -173 71 -173 167v271c0 7 3 10 9 10h61c7 0 10 -3 10 -9v-271c0 -55 42 -94 93 -98c7 0 9 3 9 9v388c0 6 3 10 10 10h61c6 0 9 -3 9 -10
v-387c0 -7 4 -10 10 -10c49 6 92 46 92 97v271c0 7 2 10 9 10h61c6 0 10 -3 10 -9v-271z" />
    <glyph glyph-name="delta" unicode="&#x3b4;" horiz-adv-x="454" 
d="M404 155c0 -98 -70 -165 -177 -165s-176 65 -176 165v107c0 60 28 118 80 145c7 3 8 9 1 14c-45 31 -51 69 -52 86c-3 98 81 130 161 130c43 0 93 -7 128 -25c7 -3 9 -6 6 -14l-16 -42c-3 -8 -7 -9 -13 -7c-38 16 -88 25 -124 20c-34 -5 -58 -22 -58 -53
c0 -18 16 -36 39 -46c23 -11 53 -27 83 -41c61 -28 118 -70 118 -167v-107zM324 155v107c0 37 -19 89 -88 108c-13 4 -16 4 -27 1c-50 -14 -78 -60 -78 -109v-107c0 -52 31 -96 96 -96c67 0 97 43 97 96z" />
    <glyph glyph-name="epsilon" unicode="&#x3b5;" horiz-adv-x="382" 
d="M204 444c59 0 118 -18 155 -74c5 -8 7 -14 0 -19l-41 -29c-10 -7 -16 -3 -23 6c-23 32 -59 47 -93 47c-29 0 -79 -16 -79 -63c0 -38 33 -50 65 -50h70c6 0 9 -3 9 -9v-48c0 -6 -2 -8 -9 -8h-72c-32 0 -66 -19 -66 -59c0 -54 50 -75 83 -75c38 0 79 23 96 46
c7 9 14 16 23 8l36 -29c11 -9 13 -14 8 -21c-38 -52 -101 -73 -163 -73c-96 0 -165 48 -165 142c0 27 18 67 54 84c5 2 6 9 0 11c-37 11 -52 46 -52 73c0 86 74 140 164 140z" />
    <glyph glyph-name="phi" unicode="&#x3c6;" horiz-adv-x="531" 
d="M490 158c0 -95 -72 -164 -174 -168c-8 0 -9 -3 -9 -10v-151c0 -7 -3 -10 -10 -10h-61c-7 0 -9 3 -9 9v152c0 6 -4 10 -10 10c-102 3 -175 71 -175 167v123c0 69 42 122 100 148l9 4c9 3 11 0 14 -6l23 -47c3 -7 1 -10 -7 -14c-33 -14 -59 -48 -59 -84v-123
c0 -49 44 -95 94 -98c8 -1 10 3 10 9v366c0 7 3 10 10 10h59c104 0 195 -59 195 -169v-118zM410 158v117c0 54 -45 93 -94 99c-6 0 -10 -3 -10 -10v-294c0 -7 4 -10 10 -10c49 6 94 48 94 98z" />
    <glyph glyph-name="gamma" unicode="&#x3b3;" horiz-adv-x="401" 
d="M133 376l68 -239c2 -5 4 -7 6 -7s5 2 6 7c0 0 88 280 92 291c2 5 6 10 16 10h57c8 0 10 -4 10 -9c0 -2 0 -4 -1 -6l-134 -387c-6 -16 -8 -35 -8 -47v-160c0 -7 -3 -10 -10 -10h-61c-7 0 -10 3 -10 9v164c0 17 -2 27 -6 39l-96 312c-4 11 -6 25 -28 25c-11 0 -15 -2 -17 7
l-9 44c-1 6 1 10 10 13c20 7 37 11 50 11c38 0 51 -22 65 -67z" />
    <glyph glyph-name="eta" unicode="&#x3b7;" horiz-adv-x="462" 
d="M408 10c0 -7 -3 -10 -9 -10h-62c-7 0 -9 3 -9 9v267c0 57 -40 99 -96 99c-58 0 -96 -41 -96 -98v-267c0 -7 -3 -10 -10 -10h-61c-6 0 -10 3 -10 9v419c0 7 3 10 9 10h58c7 0 9 -2 9 -9v-15c0 -10 8 -11 15 -5c29 24 55 35 93 35c100 0 169 -66 169 -167v-267z" />
    <glyph glyph-name="iota" unicode="&#x3b9;" horiz-adv-x="213" 
d="M148 10c0 -7 -3 -10 -10 -10h-62c-6 0 -10 3 -10 9v419c0 7 3 10 9 10h63c6 0 10 -3 10 -9v-419z" />
    <glyph glyph-name="xi" unicode="&#x3be;" horiz-adv-x="368" 
d="M148 551l-101 1c-15 0 -19 5 -19 18v39c0 9 6 14 19 14h303c14 0 21 -5 21 -15v-31c0 -13 -2 -18 -11 -20c-162 -34 -231 -81 -231 -130c0 -50 52 -75 109 -75h92c13 0 19 -5 19 -14v-34c0 -13 -4 -18 -19 -18h-91c-60 0 -132 -50 -132 -113c0 -57 38 -87 131 -114
c98 -28 117 -55 117 -86c0 -17 -7 -55 -56 -134c-3 -5 -8 -7 -12 -7c-3 0 -5 1 -8 2l-37 17c-7 3 -10 7 -10 12c0 3 1 6 3 9c25 46 34 76 34 84c0 15 -25 23 -79 40c-119 37 -164 90 -164 167c0 60 36 122 104 149c2 1 3 1 3 2s-1 2 -3 3c-51 19 -79 63 -79 106
c0 66 47 97 98 121c3 1 5 3 5 4c0 2 -3 3 -6 3z" />
    <glyph glyph-name="kappa" unicode="&#x3ba;" horiz-adv-x="441" 
d="M414 17c0 -12 -3 -17 -14 -17h-53c-11 0 -14 5 -14 14l-5 93c-3 52 -21 96 -94 96c-62 0 -96 -43 -96 -95v-98c0 -7 -3 -10 -10 -10h-61c-6 0 -10 3 -10 9v421c0 6 3 10 9 10h62c7 0 9 -3 9 -9v-157c0 -15 8 -17 15 -10l155 169c4 4 8 5 14 5h74c7 0 11 -4 11 -9
c0 -3 -3 -6 -5 -9l-132 -142c-5 -6 -3 -8 4 -10c13 -1 24 -2 35 -5c75 -18 98 -81 102 -155z" />
    <glyph glyph-name="lambda" unicode="&#x3bb;" horiz-adv-x="474" 
d="M409 10c0 -7 -3 -10 -10 -10h-61c-6 0 -9 2 -9 9v273c0 52 -42 95 -96 95s-96 -43 -96 -95v-272c0 -7 -3 -10 -10 -10h-61c-6 0 -10 3 -10 9v272c0 98 69 164 164 164c34 0 65 -7 91 -28c14 -12 18 0 18 4v51c0 52 -34 95 -102 95c-30 0 -48 -5 -85 -21
c-14 -6 -19 -6 -23 2l-16 35c-6 13 -2 17 8 23c32 20 95 31 131 31c105 0 167 -70 167 -164v-463z" />
    <glyph glyph-name="mu" unicode="&#xb5;" horiz-adv-x="474" 
d="M408 9c0 -6 -2 -9 -9 -9h-57c-8 0 -10 2 -10 9v15c0 9 -8 10 -15 5c-10 -9 -21 -16 -34 -22c-16 -8 -36 -13 -60 -13c-28 0 -50 8 -69 22c-12 9 -18 0 -18 -7v-180c0 -7 -2 -10 -9 -10h-61c-7 0 -10 3 -11 9v600c0 6 3 9 10 9h61c7 0 9 -3 9 -9v-271c0 -51 43 -94 97 -94
c55 0 95 41 95 94v271c0 6 3 9 10 9h61c7 0 10 -3 10 -9v-419z" />
    <glyph glyph-name="mu" unicode="&#x3bc;" horiz-adv-x="474" 
d="M408 9c0 -6 -2 -9 -9 -9h-57c-8 0 -10 2 -10 9v15c0 9 -8 10 -15 5c-10 -9 -21 -16 -34 -22c-16 -8 -36 -13 -60 -13c-28 0 -50 8 -69 22c-12 9 -18 0 -18 -7v-180c0 -7 -2 -10 -9 -10h-61c-7 0 -10 3 -11 9v600c0 6 3 9 10 9h61c7 0 9 -3 9 -9v-271c0 -51 43 -94 97 -94
c55 0 95 41 95 94v271c0 6 3 9 10 9h61c7 0 10 -3 10 -9v-419z" />
    <glyph glyph-name="nu" unicode="&#x3bd;" horiz-adv-x="404" 
d="M391 425l-146 -413c-3 -9 -6 -12 -18 -12h-49c-11 0 -15 2 -18 11l-146 413c-3 9 -1 14 8 14h55c11 0 18 -5 20 -12l68 -207l33 -113c2 -6 7 -6 9 -1l31 108l68 210c2 7 6 15 19 15h57c9 0 12 -5 9 -13z" />
    <glyph glyph-name="omicron" unicode="&#x3bf;" horiz-adv-x="448" 
d="M400 163c0 -108 -68 -169 -176 -169c-110 0 -176 60 -176 168v115c0 102 62 168 175 168c112 0 177 -62 177 -168v-114zM320 162v115c0 57 -31 98 -96 98c-58 0 -96 -40 -96 -98v-115c0 -57 27 -99 95 -99c67 0 96 41 97 99z" />
    <glyph glyph-name="pi" unicode="&#x3c0;" horiz-adv-x="459" 
d="M405 10c0 -7 -3 -10 -9 -10h-61c-7 0 -9 3 -9 9v349c0 7 -4 11 -11 11h-171c-7 0 -10 -3 -10 -10v-349c0 -7 -3 -10 -10 -10h-61c-6 0 -10 3 -10 9v419c0 7 3 10 10 10h332c7 0 10 -3 10 -9v-419z" />
    <glyph glyph-name="rho" unicode="&#x3c1;" horiz-adv-x="445" 
d="M401 283v-113c0 -109 -59 -177 -162 -177c-37 0 -68 9 -97 31c-9 7 -13 1 -13 -6v-189c0 -7 -3 -10 -10 -10h-61c-6 0 -9 3 -10 9v446c0 108 76 171 180 171c102 0 173 -63 173 -162zM321 161l-1 116c-1 56 -34 98 -95 98c-59 0 -97 -41 -97 -99v-115
c0 -54 38 -99 96 -99c62 0 97 43 97 99z" />
    <glyph glyph-name="sigma" unicode="&#x3c3;" horiz-adv-x="450" 
d="M441 380c0 -7 -3 -9 -9 -9h-56c-11 0 -14 -7 -8 -15c21 -25 29 -52 29 -82v-113c0 -103 -71 -167 -176 -167c-107 0 -176 63 -176 167v110c0 97 61 167 163 167h223c7 0 10 -3 10 -9v-49zM316 161v110c0 54 -36 98 -95 98c-57 0 -97 -43 -97 -97v-111
c0 -54 34 -98 96 -98c65 0 96 43 96 98z" />
    <glyph glyph-name="tau" unicode="&#x3c4;" horiz-adv-x="332" 
d="M230 -5c-78 0 -122 50 -122 121v244c0 7 -3 10 -11 10h-72c-7 0 -10 3 -10 9v49c0 7 3 10 8 10h274c6 0 10 -3 10 -9v-49c0 -7 -3 -10 -10 -10h-99c-7 0 -11 -2 -11 -10v-229c0 -33 14 -63 54 -63c13 0 33 2 44 5s14 1 16 -5l10 -48c2 -11 -2 -14 -11 -17
c-18 -5 -43 -8 -70 -8z" />
    <glyph glyph-name="theta" unicode="&#x3b8;" horiz-adv-x="455" 
d="M407 160c0 -99 -70 -166 -177 -166s-176 66 -176 165v314c0 99 69 164 176 164s177 -66 177 -164v-313zM326 374v99c0 51 -33 95 -96 95c-55 0 -96 -42 -96 -95v-96c0 -9 6 -14 14 -14h168c8 0 10 3 10 11zM327 159v125c0 8 -3 11 -11 11h-171c-5 0 -11 -4 -11 -11
c0 -27 0 -120 1 -126c-4 -57 42 -95 95 -95c63 0 97 44 97 96z" />
    <glyph glyph-name="omega" unicode="&#x3c9;" horiz-adv-x="632" 
d="M583 281v-120c0 -105 -62 -167 -153 -167c-66 0 -95 29 -114 65c-23 -36 -60 -65 -119 -65c-89 0 -148 61 -148 155v133c0 96 68 163 165 163c8 0 15 0 15 -10v-51c0 -6 -3 -9 -9 -9c-53 -3 -92 -44 -92 -94v-116c0 -62 30 -102 75 -102c48 0 73 44 73 95v155
c-1 6 2 9 9 9h61c7 0 10 -3 10 -8v-156c0 -51 25 -94 74 -94c45 0 75 35 75 80v137c0 50 -42 92 -92 94c-6 0 -10 2 -10 9v51c0 10 7 10 14 10c98 0 166 -68 166 -164z" />
    <glyph glyph-name="sigma1" unicode="&#x3c2;" horiz-adv-x="378" 
d="M341 119c0 -72 -59 -124 -160 -124c-46 0 -86 12 -116 42c-19 19 -31 39 -38 56c-2 5 -1 9 4 11l51 23c6 3 10 -1 12 -5c20 -38 45 -62 90 -62c46 0 78 23 78 57c0 33 -26 45 -64 60c-25 10 -49 18 -72 28c-51 22 -89 54 -89 115c0 90 84 125 160 125
c53 0 95 -15 116 -24c9 -4 19 -10 15 -20l-16 -42c-4 -10 -14 -9 -22 -5c-35 17 -73 24 -96 24c-40 0 -81 -14 -81 -52c0 -46 60 -60 98 -73c65 -23 130 -50 130 -134z" />
    <glyph glyph-name="upsilon" unicode="&#x3c5;" horiz-adv-x="454" 
d="M406 155c0 -98 -70 -165 -177 -165s-176 65 -176 165v273c0 7 3 10 10 10h60c7 0 10 -3 10 -10v-273c0 -52 36 -97 96 -97c61 0 96 44 96 97v273c0 7 3 10 10 10h62c6 0 9 -3 9 -10v-273z" />
    <glyph glyph-name="zeta" unicode="&#x3b6;" horiz-adv-x="380" 
d="M88 620h308c15 0 22 -6 22 -16v-28c0 -13 -4 -21 -11 -26c-103 -62 -291 -228 -291 -357c0 -83 105 -117 201 -150c59 -20 75 -45 75 -77c0 -22 -17 -65 -57 -128c-3 -5 -6 -8 -11 -8c-2 0 -6 1 -9 2l-34 16c-6 2 -9 6 -9 11c0 3 1 6 3 10l22 45c4 8 9 21 9 30
c0 17 -13 28 -42 38c-78 26 -228 68 -228 206c0 139 143 284 244 353c2 2 4 4 4 5s-1 2 -5 2h-191c-14 0 -18 6 -18 19v39c0 9 6 14 18 14z" />
    <glyph glyph-name="Euro" unicode="&#x20ac;" horiz-adv-x="475" 
d="M52 290h279c6 0 10 -3 10 -9v-37c0 -7 -6 -10 -11 -10h-151c-4 0 -8 -1 -8 -4v-68c0 -57 40 -99 98 -99c39 0 70 23 91 51c3 5 8 9 14 9c3 0 6 -1 10 -4l43 -31c2 -2 3 -4 3 -7c0 -2 -1 -5 -2 -7c-40 -55 -90 -80 -159 -80c-107 0 -179 59 -179 168v65c0 4 -1 8 -5 8h-34
c-6 0 -9 2 -9 9v37c0 6 3 9 10 9zM331 329h-280c-6 0 -9 2 -9 9v37c0 7 3 10 10 10h31c7 0 7 8 7 11v58c0 108 75 171 181 171c64 0 125 -24 159 -82c1 -2 2 -5 2 -7c0 -4 -2 -7 -7 -10l-44 -28c-3 -2 -5 -3 -8 -3c-4 0 -7 3 -11 8c-22 35 -46 53 -92 53
c-58 0 -99 -41 -99 -100v-65c0 -4 0 -7 8 -7h152c7 0 10 -2 10 -9v-36c0 -7 -4 -10 -10 -10z" />
    <glyph glyph-name="florin" unicode="&#x192;" horiz-adv-x="475" 
d="M385 628c23 0 48 -6 61 -11c11 -4 16 -6 12 -17l-20 -51c-4 -10 -6 -11 -20 -6c-47 17 -88 0 -97 -58l-17 -110c-1 -5 0 -8 7 -8h68c9 0 13 -5 13 -11v-46c0 -8 -4 -11 -12 -11h-78c-10 0 -14 -6 -14 -11l-33 -222c-19 -127 -83 -171 -152 -171c-23 0 -48 6 -61 11
c-11 4 -16 6 -12 17l20 51c4 10 5 10 20 6c51 -15 89 2 99 61l39 246c1 6 0 12 -6 12h-60c-8 0 -13 3 -13 11v46c1 6 5 11 14 11h68c7 0 11 3 11 9l17 103c18 114 78 149 146 149z" />
    <glyph glyph-name="daggerdbl" unicode="&#x2021;" horiz-adv-x="460" 
d="M196 -122v256c0 5 -1 5 -5 5h-140c-9 0 -14 6 -14 15v32c0 9 6 14 15 14h139c4 0 5 0 5 5v228c0 5 -1 5 -5 5h-140c-9 0 -15 5 -15 14v32c0 9 5 15 14 15h141c4 0 5 0 5 4v150c0 10 5 15 14 15h34c9 0 14 -5 14 -14v-150c0 -5 1 -5 5 -5h143c7 0 14 -6 14 -14v-32
c0 -9 -5 -15 -14 -15h-143c-4 0 -6 0 -6 -4v-229c0 -5 1 -5 5 -5h145c9 0 14 -6 14 -15v-32c0 -8 -7 -14 -14 -14h-145c-4 0 -5 0 -5 -5v-255c0 -9 -4 -14 -13 -14h-34c-10 0 -15 5 -14 13z" />
    <glyph glyph-name="AE" unicode="&#xc6;" horiz-adv-x="729" 
d="M699 12c0 -8 -4 -12 -12 -12h-326c-7 0 -12 4 -12 11v126c0 6 0 13 -11 13h-181c-5 0 -5 -2 -6 -4l-48 -136c-3 -7 -7 -10 -14 -10h-56c-12 0 -14 9 -11 19l217 584c2 5 6 14 22 14h422c7 0 13 -4 13 -11v-49c0 -7 -4 -12 -12 -12h-242c-6 0 -9 -2 -9 -8v-176
c0 -6 2 -8 8 -8h200c8 0 12 -4 12 -12v-50c0 -7 -4 -11 -11 -11h-200c-6 0 -9 -3 -9 -9v-189c0 -6 2 -9 8 -9h246c7 0 12 -4 12 -11v-50zM340 545h-39c-7 0 -10 -4 -12 -9l-108 -305c-2 -5 -2 -7 4 -7h153c7 0 11 3 11 12v301c0 6 -3 8 -9 8z" />
    <glyph glyph-name="Eth" unicode="&#xd0;" horiz-adv-x="486" 
d="M61 354v252c0 7 4 11 12 11h172c119 0 185 -66 185 -180v-251c0 -123 -68 -186 -185 -186h-172c-7 0 -12 4 -12 11v265c0 6 -1 9 -8 9h-32c-8 0 -12 4 -12 12v36c0 8 4 12 11 12h33c6 0 8 2 8 9zM144 276v-194c0 -6 2 -9 8 -9h95c65 0 99 38 99 100v273
c0 69 -44 99 -106 99h-87c-6 0 -9 -2 -9 -8v-182c0 -9 4 -10 9 -10h70c7 0 12 -4 12 -11v-37c0 -7 -4 -12 -11 -12h-72c-7 0 -8 -2 -8 -9z" />
    <glyph glyph-name="Oslash" unicode="&#xd8;" horiz-adv-x="497" 
d="M124 21l-13 -24c-4 -6 -8 -9 -14 -5l-32 17c-5 3 -6 6 -2 14l19 35c2 5 2 11 1 13c-15 23 -25 58 -25 94v290c0 106 84 170 190 170c43 0 82 -10 113 -28c3 -2 8 -1 11 2c4 8 11 18 15 26c4 6 7 7 14 4c10 -5 21 -12 31 -16c7 -4 8 -7 4 -13c-7 -14 -16 -28 -23 -42
c-3 -5 -1 -9 0 -11c15 -24 26 -58 26 -92v-290c0 -108 -81 -171 -190 -171c-46 0 -84 8 -114 28c-2 2 -8 5 -11 -1zM355 167v279c0 2 -1 3 -1 2l-185 -344c-2 -3 -1 -8 1 -11c18 -16 46 -26 78 -26c66 0 107 40 107 100zM142 453v-275c0 -3 1 -7 4 -2l179 333
c3 5 5 12 -1 17c-18 16 -45 26 -75 26c-65 0 -107 -43 -107 -99z" />
    <glyph glyph-name="Thorn" unicode="&#xde;" horiz-adv-x="458" 
d="M147 607v-107c1 -3 5 -6 9 -6h91c117 0 187 -79 187 -184c0 -98 -79 -180 -186 -180h-92c-6 0 -8 -3 -8 -9v-109c0 -8 -4 -12 -12 -12h-60c-8 0 -11 4 -12 11v595c0 7 4 11 12 11h59c7 0 12 -4 12 -10zM247 422h-91c-4 0 -8 -3 -9 -6v-208c0 -4 3 -6 8 -6h92
c62 0 104 43 104 109c0 53 -39 111 -104 111z" />
    <glyph glyph-name="ae" unicode="&#xe6;" horiz-adv-x="690" 
d="M651 225c0 -14 -11 -24 -20 -24h-234c-11 0 -18 -8 -18 -18v-19c0 -54 38 -100 96 -100c40 0 70 21 93 52c6 8 12 8 20 3l38 -25c8 -5 11 -10 8 -16c-32 -58 -92 -84 -157 -84c-63 0 -114 22 -145 61c-27 -36 -76 -60 -134 -60c-87 0 -158 55 -158 153
c0 93 73 154 165 154c22 0 58 -10 76 -21c9 -6 18 -4 18 8v11c0 53 -44 76 -99 76c-25 0 -68 -11 -93 -24c-7 -3 -12 -1 -15 6l-17 44c-2 6 0 11 5 13c36 18 83 30 131 30c60 0 106 -14 132 -54c31 34 77 54 132 54c106 0 176 -71 176 -173v-47zM292 149c0 49 -35 90 -88 90
c-52 0 -89 -40 -89 -90c0 -49 29 -90 88 -90c56 0 89 45 89 90zM570 276v9c0 50 -38 91 -95 91c-55 0 -94 -42 -94 -92v-7c0 -5 3 -12 15 -12h164c7 0 10 3 10 11z" />
    <glyph glyph-name="oslash" unicode="&#xf8;" horiz-adv-x="448" 
d="M98 25l-15 -20c-3 -4 -5 -6 -10 -2l-24 18c-3 3 -3 5 0 9l22 29c3 4 1 7 0 9c-15 25 -23 56 -23 94v115c0 102 66 168 175 168c44 0 83 -12 113 -33c2 -1 6 -4 10 1l18 22c3 3 5 5 10 1l23 -19c3 -3 5 -6 2 -10l-23 -28c-4 -5 -2 -7 -1 -9c16 -25 25 -56 25 -93v-114
c0 -108 -68 -169 -176 -169c-47 0 -86 12 -115 33c-2 1 -6 4 -11 -2zM320 162v115c0 6 0 15 -2 20c-1 3 -3 4 -5 2l-154 -197c-4 -6 -4 -10 0 -16c14 -18 38 -23 64 -23c66 0 96 41 97 99zM128 162c0 -5 0 -11 1 -16c1 -4 3 -8 6 -4l153 198c6 8 0 12 -1 13
c-17 13 -38 22 -63 22c-58 0 -96 -40 -96 -98v-115z" />
    <glyph glyph-name="cent" unicode="&#xa2;" horiz-adv-x="475" 
d="M406 366c5 -7 4 -17 -4 -22l-38 -27c-10 -7 -17 -3 -23 6c-22 33 -51 52 -88 52c-55 0 -98 -40 -98 -95v-124c0 -54 43 -92 97 -92c52 0 71 27 95 58c4 5 9 3 15 -1l39 -25c13 -8 13 -15 8 -22c-30 -45 -70 -68 -113 -76c-6 -1 -17 2 -17 -16v-43c0 -6 -3 -10 -10 -10
h-31c-6 0 -10 1 -10 9v44c0 12 -10 14 -15 15c-85 14 -138 73 -138 162v115c0 93 60 154 142 167c4 1 11 0 11 15v45c0 5 3 9 10 9h31c7 0 10 -3 10 -9v-47c0 -14 9 -13 14 -14c46 -9 82 -34 113 -74z" />
    <glyph glyph-name="exclamdown" unicode="&#xa1;" horiz-adv-x="263" 
d="M95 -180l15 438c0 5 3 9 9 9h35c6 0 9 -4 9 -8l19 -438c0 -6 -3 -10 -10 -10h-67c-6 0 -10 4 -10 9zM84 385c0 29 23 53 54 53c30 0 55 -24 55 -53s-25 -53 -54 -53c-31 0 -55 23 -55 53z" />
    <glyph glyph-name="questiondown" unicode="&#xbf;" horiz-adv-x="491" 
d="M84 -39c0 65 40 119 103 158c55 35 85 65 85 116v21c0 8 2 14 9 14h58c11 0 14 -2 14 -15v-34c0 -51 -30 -106 -80 -140c-61 -41 -102 -70 -106 -115c-5 -46 33 -96 92 -96c47 0 71 22 88 47c2 3 4 5 6 9c6 8 12 8 20 3l44 -28c8 -5 7 -10 4 -17
c-34 -57 -93 -83 -157 -83c-98 0 -180 55 -180 160zM259 385c0 29 23 53 55 53c29 0 54 -24 54 -53s-25 -53 -54 -53c-31 0 -55 22 -55 53z" />
    <glyph glyph-name="quotesinglbase" unicode="&#x201a;" horiz-adv-x="213" 
d="M161 80l-51 -181c-3 -9 -9 -13 -16 -13h-29c-10 0 -13 9 -12 18l11 180c1 10 6 17 16 17h67c14 0 18 -7 14 -21z" />
    <glyph glyph-name="quotedblbase" unicode="&#x201e;" horiz-adv-x="357" 
d="M161 80l-51 -181c-3 -9 -9 -13 -16 -13h-29c-10 0 -13 9 -12 18l11 180c1 10 6 17 16 17h67c14 0 18 -7 14 -21zM303 80l-51 -181c-3 -9 -9 -13 -16 -13h-29c-10 0 -13 9 -12 18l11 180c1 10 6 17 16 17h67c14 0 18 -7 14 -21z" />
    <glyph glyph-name="OE" unicode="&#x152;" horiz-adv-x="672" 
d="M641 12c0 -8 -4 -12 -12 -12h-328c-16 -4 -37 -6 -55 -6c-109 0 -191 59 -191 171v290c0 106 83 170 190 170c21 0 43 -3 63 -8h317c7 0 13 -4 13 -11v-49c0 -7 -4 -12 -12 -12h-242c-6 0 -9 -2 -9 -8v-176c0 -6 2 -8 8 -8h201c8 0 12 -4 12 -12v-50c0 -7 -4 -11 -11 -11
h-201c-6 0 -9 -3 -9 -9v-189c0 -6 2 -9 8 -9h246c7 0 12 -4 12 -11v-50zM245 67c15 0 32 4 46 9v468c-14 5 -30 8 -45 8c-65 0 -108 -43 -108 -99v-286c0 -59 40 -100 107 -100z" />
    <glyph glyph-name="guilsinglright" unicode="&#x203a;" horiz-adv-x="302" 
d="M252 178l-113 -141c-12 -15 -19 -19 -34 -19h-47c-10 0 -16 10 -8 20l122 151c5 7 8 10 0 20l-124 155c-8 9 -4 18 10 18h48c18 0 24 -7 31 -16l116 -146c11 -13 13 -25 -1 -42z" />
    <glyph glyph-name="guilsinglleft" unicode="&#x2039;" horiz-adv-x="302" 
d="M167 37l-113 141c-14 17 -12 29 -1 42l116 146c7 9 13 16 31 16h48c14 0 18 -9 10 -18l-124 -155c-8 -10 -5 -13 0 -20l122 -151c8 -10 2 -20 -8 -20h-47c-15 0 -22 4 -34 19z" />
    <glyph glyph-name="brokenbar" unicode="&#xa6;" horiz-adv-x="227" 
d="M141 310c-1 -6 -4 -9 -9 -9h-39c-6 0 -10 3 -10 9v357c0 6 3 9 10 9h38c7 0 10 -3 10 -8v-358zM141 -106c-1 -6 -4 -9 -9 -9h-39c-6 0 -10 3 -10 9l1 354c0 6 3 9 10 9h38c7 0 10 -3 10 -8z" />
    <glyph glyph-name="thorn" unicode="&#xfe;" horiz-adv-x="454" 
d="M408 161c0 -93 -67 -168 -161 -168c-52 0 -78 15 -95 31c-11 9 -17 2 -17 -6v-189c0 -7 -3 -10 -9 -10h-62c-6 0 -9 3 -9 9v800c0 6 2 9 9 9h55c7 0 10 -2 10 -9v-220c0 -8 8 -7 16 1c17 15 44 34 94 34c96 0 169 -59 169 -164v-118zM327 161v117c0 55 -41 97 -96 97
c-56 0 -96 -42 -96 -96v-118c0 -54 39 -99 96 -99c58 0 96 44 96 99z" />
    <glyph glyph-name="currency" unicode="&#xa4;" horiz-adv-x="492" 
d="M94 431c5 5 8 6 13 1l46 -51c28 19 59 28 91 28c31 0 63 -9 89 -28l55 52c3 5 10 6 14 0l32 -32c5 -5 5 -10 1 -14l-53 -51c20 -27 30 -60 30 -93c0 -32 -9 -64 -29 -92l50 -48c4 -4 6 -8 1 -13l-34 -34c-4 -4 -9 -4 -13 0l-51 49c-28 -20 -59 -30 -90 -30
c-32 0 -64 11 -92 33l-52 -53c-4 -5 -9 -5 -13 -1l-34 33c-4 4 -4 9 0 13l53 56c-20 28 -29 59 -29 89c0 31 10 62 28 89l-46 51c-4 6 -6 8 0 14zM144 243c0 -56 46 -101 102 -101s101 45 101 101s-45 102 -101 102s-102 -46 -102 -102z" />
    <glyph glyph-name="circumflex" unicode="&#x2c6;" horiz-adv-x="443" 
d="M362 526c6 -7 8 -14 -1 -21l-14 -12c-9 -8 -14 -5 -22 2l-91 80c-6 6 -10 6 -15 1l-88 -81c-7 -7 -13 -10 -22 -2l-14 12c-9 7 -7 14 -1 21l96 117c6 7 11 11 22 11h32c11 0 16 -4 22 -11z" />
    <glyph glyph-name="tilde" unicode="&#x2dc;" horiz-adv-x="442" 
d="M355 572c-21 -45 -53 -63 -78 -63c-43 0 -75 35 -109 35c-11 0 -27 -15 -36 -31c-4 -7 -10 -8 -17 -4l-27 16c-6 3 -3 11 -1 16c17 33 45 63 78 63c40 0 78 -37 108 -37c14 0 27 17 36 33c2 4 4 8 11 4l32 -15c6 -2 7 -8 3 -17z" />
    <glyph glyph-name="emdash" unicode="&#x2014;" horiz-adv-x="1000" 
d="M970 213c0 -6 -3 -10 -10 -10h-920c-7 0 -10 3 -10 10v40c0 6 3 10 9 10h921c6 0 10 -4 10 -10v-40z" />
    <glyph glyph-name="multiply" unicode="&#xd7;" horiz-adv-x="475" 
d="M388 66c-7 -7 -15 -7 -22 0l-125 125c-3 3 -3 4 -6 1l-125 -125c-7 -6 -14 -6 -20 0l-24 24c-7 7 -7 14 -1 20l125 125c2 2 2 4 0 6l-124 125c-6 6 -7 14 -1 20l23 23c6 6 14 7 21 0l124 -124c3 -3 3 -3 6 -1l125 125c6 6 14 7 20 1l24 -25c7 -7 7 -14 0 -21l-124 -123
c-3 -4 -2 -5 0 -8l126 -125c6 -6 6 -15 0 -21z" />
    <glyph glyph-name="Scedilla" unicode="&#x15e;" horiz-adv-x="453" 
d="M323 -126c0 -38 -35 -77 -92 -77c-35 0 -57 8 -79 22c-4 3 -7 8 -1 15l16 21c5 5 7 6 12 3c14 -8 29 -16 50 -16c27 0 42 13 42 31c0 10 -3 33 -38 33h-27c-25 0 -34 17 -29 37c5 22 9 37 14 53c-70 3 -133 29 -166 76c-6 7 -6 12 4 20l37 34c8 6 13 2 22 -7
c31 -33 74 -51 119 -51c76 0 129 35 129 102s-61 89 -115 108c-78 27 -181 64 -181 177c0 107 80 170 181 170c48 0 112 -8 169 -50c12 -9 4 -17 1 -22l-24 -38c-6 -9 -17 -6 -25 -1c-45 26 -78 37 -112 37c-58 0 -107 -24 -107 -98c0 -54 62 -78 118 -99
c89 -34 178 -64 178 -183c0 -99 -73 -165 -181 -174l-9 -36c-3 -9 1 -11 7 -11h11c46 0 76 -30 76 -76z" />
    <glyph glyph-name="Aogonek" unicode="&#x104;" horiz-adv-x="457" 
d="M350 11l1 1l-32 125c-1 2 -1 4 -4 4h-177c-5 0 -5 -2 -6 -3l-32 -131c-1 -5 -6 -7 -13 -7h-54c-11 0 -16 3 -13 15l148 590c1 6 5 12 16 12h85c9 0 13 -2 15 -10l152 -590c2 -7 3 -17 -9 -17h-36c-26 -29 -45 -71 -45 -106c0 -17 7 -31 33 -31c19 0 40 12 60 23
c4 2 6 3 9 -1l16 -22c1 -1 2 -3 2 -4c0 -2 -1 -4 -3 -6c-20 -18 -61 -40 -98 -40c-59 0 -79 32 -79 73s30 97 64 125zM223 525l-27 -123l-45 -184c-1 -6 -1 -8 5 -8h138c7 0 7 2 6 8l-44 180l-28 126c-1 4 -4 4 -5 1z" />
    <glyph glyph-name="lslash" unicode="&#x142;" horiz-adv-x="291" 
d="M100 225c0 5 0 13 -9 8l-57 -34c-5 -3 -9 -2 -11 3l-20 34c-3 5 -2 8 2 11l87 51c6 4 8 6 8 15v314c0 6 3 10 9 10h60c6 0 10 -3 10 -9v-267c0 -6 2 -10 7 -7l72 43c4 2 9 1 11 -3l20 -34c3 -5 2 -9 -2 -11l-98 -58c-9 -5 -10 -9 -10 -20l1 -147c0 -46 12 -55 44 -55h13
c9 0 9 -8 9 -15v-47c0 -8 -4 -12 -10 -13c-8 -2 -22 -2 -28 -2c-90 0 -108 45 -108 133v100z" />
    <glyph glyph-name="Lslash" unicode="&#x141;" horiz-adv-x="436" 
d="M296 338c4 -6 1 -12 -3 -14l-112 -65c-5 -3 -7 -7 -7 -14v-163c0 -6 2 -9 8 -9h238c7 0 12 -4 12 -11v-50c0 -8 -4 -12 -11 -12h-318c-8 0 -12 4 -12 11v188c0 4 -2 5 -7 2l-44 -26c-6 -4 -11 -2 -14 4l-20 34c-4 6 -3 10 3 14l74 42c4 3 8 7 8 14v323c0 7 2 11 11 11h60
c8 0 12 -4 12 -10v-278c0 -3 1 -4 4 -3l84 50c5 3 12 1 14 -4z" />
    <glyph glyph-name="aogonek" unicode="&#x105;" horiz-adv-x="438" 
d="M301 11l5 4v11c0 9 -7 10 -13 4c-26 -26 -62 -36 -100 -36c-99 0 -153 62 -153 153c0 86 56 153 162 153c31 0 57 -7 79 -19c9 -5 18 -4 18 8v9c0 53 -26 78 -89 78c-25 0 -78 -11 -103 -24c-7 -3 -12 -1 -15 6l-17 44c-2 6 0 11 5 13c36 18 91 30 139 30
c123 0 160 -62 160 -159v-276c0 -7 -3 -10 -9 -10h-28c-26 -29 -45 -71 -45 -106c0 -17 7 -31 33 -31c19 0 40 12 60 23c4 2 6 3 9 -1l16 -22c1 -1 2 -3 2 -4c0 -2 -1 -4 -3 -6c-20 -18 -61 -40 -98 -40c-59 0 -79 32 -79 73s30 97 64 125zM115 149c0 -49 29 -88 90 -88
c54 0 89 38 89 88c0 49 -28 88 -90 88c-54 0 -89 -38 -89 -88z" />
    <glyph glyph-name="scedilla" unicode="&#x15f;" horiz-adv-x="392" 
d="M296 -126c0 -38 -35 -77 -92 -77c-35 0 -57 8 -79 22c-4 3 -7 8 -1 15l16 21c5 5 7 6 12 3c14 -8 29 -16 50 -16c27 0 42 13 42 31c0 10 -3 33 -38 33h-27c-25 0 -34 17 -29 37c5 23 10 38 14 54c-58 8 -107 40 -130 96c-2 5 -1 9 4 11l51 23c6 3 10 -1 12 -5
c20 -38 57 -62 102 -62c43 0 75 26 75 56c0 32 -24 46 -63 61c-62 24 -169 47 -169 143c0 81 72 122 151 123c55 1 109 -18 147 -59c5 -5 3 -11 -3 -17l-27 -31c-7 -8 -14 -7 -23 1c-27 24 -62 39 -95 39c-44 0 -72 -19 -72 -50c0 -29 24 -46 62 -60
c78 -29 169 -51 169 -147c0 -64 -52 -119 -144 -123l-9 -35c-3 -9 1 -11 7 -11h11c46 0 76 -30 76 -76z" />
    <glyph glyph-name="Eogonek" unicode="&#x118;" horiz-adv-x="440" 
d="M410 12c0 -8 -4 -12 -12 -12h-31c-26 -29 -45 -71 -45 -106c0 -17 7 -31 33 -31c19 0 40 12 60 23c4 2 6 3 9 -1l16 -22c1 -1 2 -3 2 -4c0 -2 -1 -4 -3 -6c-20 -18 -61 -40 -98 -40c-59 0 -79 32 -79 73c0 36 23 84 52 114h-242c-7 0 -12 4 -12 11v595c0 7 4 11 12 11
h322c7 0 13 -4 13 -11v-49c0 -7 -4 -12 -12 -12h-243c-5 0 -8 -2 -8 -8v-171c0 -6 2 -8 7 -8h201c8 0 12 -4 12 -12v-50c0 -7 -4 -11 -11 -11h-201c-5 0 -8 -3 -8 -9v-194c0 -6 2 -9 7 -9h247c7 0 12 -4 12 -11v-50z" />
    <glyph glyph-name="Dcroat" unicode="&#x110;" horiz-adv-x="486" 
d="M61 354v252c0 7 4 11 12 11h172c119 0 185 -66 185 -180v-251c0 -123 -68 -186 -185 -186h-172c-7 0 -12 4 -12 11v265c0 6 -1 9 -8 9h-32c-8 0 -12 4 -12 12v36c0 8 4 12 11 12h33c6 0 8 2 8 9zM144 276v-194c0 -6 2 -9 8 -9h95c65 0 99 38 99 100v273
c0 69 -44 99 -106 99h-87c-6 0 -9 -2 -9 -8v-182c0 -9 4 -10 9 -10h70c7 0 12 -4 12 -11v-37c0 -7 -4 -12 -11 -12h-72c-7 0 -8 -2 -8 -9z" />
    <glyph glyph-name="eogonek" unicode="&#x119;" horiz-adv-x="438" 
d="M399 225c0 -14 -11 -24 -20 -24h-234c-11 0 -18 -8 -18 -18v-19c0 -54 26 -100 96 -100c40 0 73 20 96 51c6 8 12 8 20 3l35 -24c8 -5 11 -10 8 -16c-16 -28 -37 -48 -63 -62c-25 -29 -44 -71 -44 -105c0 -17 7 -31 33 -31c19 0 40 12 60 23c4 2 6 3 9 -1l16 -22
c1 -1 2 -3 2 -4c0 -2 -1 -4 -3 -6c-20 -18 -61 -40 -98 -40c-59 0 -79 32 -79 73c0 28 14 64 34 92c-8 -1 -16 -1 -24 -1c-107 0 -178 65 -178 164v114c0 102 73 173 176 173c106 0 176 -71 176 -173v-47zM223 376c-55 0 -94 -42 -94 -92v-7c0 -5 3 -12 15 -12h164
c7 0 10 3 10 11v9c0 50 -33 91 -95 91z" />
    <glyph glyph-name="dcroat" unicode="&#x111;" horiz-adv-x="451" 
d="M237 538h70c6 0 11 1 11 12v57c0 7 3 10 10 10h61c7 0 10 -3 10 -9v-59c0 -9 3 -11 10 -11h32c6 0 9 -3 9 -10v-36c0 -7 -3 -10 -10 -10h-31c-9 0 -10 -4 -10 -11v-462c0 -6 -2 -9 -9 -9h-54c-7 0 -10 3 -10 10v14c0 8 -9 11 -17 5c-17 -14 -46 -34 -94 -34
c-97 0 -169 66 -169 165v116c0 91 68 167 167 167c53 0 76 -20 89 -30c10 -8 16 -2 16 7v51c0 9 -1 11 -10 11h-72c-6 0 -9 4 -9 10v37c0 6 4 9 10 9zM318 160l1 116c0 54 -39 98 -96 98c-58 0 -97 -44 -97 -98v-116c0 -55 42 -97 97 -97s95 43 95 97z" />
    <glyph glyph-name="dotaccent" unicode="&#x2d9;" horiz-adv-x="437" 
d="M279 553c0 -26 -21 -47 -46 -47c-27 0 -48 20 -48 46s21 47 47 47s47 -21 47 -46z" />
    <glyph glyph-name="acute" unicode="&#xb4;" horiz-adv-x="438" 
d="M332 601l-99 -111c-4 -5 -13 -9 -21 -4l-19 12c-7 5 -7 11 -3 18l75 127c4 7 9 16 20 9l44 -29c11 -8 7 -17 3 -22z" />
    <glyph glyph-name="Iogonek" unicode="&#x12e;" horiz-adv-x="241" 
d="M162 12c0 -8 -4 -12 -12 -12h-22c-26 -29 -45 -71 -45 -106c0 -17 7 -31 33 -31c19 0 40 12 60 23c4 2 6 3 9 -1l16 -22c1 -1 2 -3 2 -4c0 -2 -1 -4 -3 -6c-20 -18 -61 -40 -98 -40c-59 0 -79 32 -79 73c0 38 25 88 55 117c-1 2 -2 5 -2 8v595c0 7 4 11 12 11h62
c7 0 12 -4 12 -10v-595z" />
    <glyph glyph-name="Uogonek" unicode="&#x172;" horiz-adv-x="498" 
d="M440 160c0 -97 -75 -155 -165 -164c-24 -29 -41 -69 -41 -102c0 -17 7 -31 33 -31c19 0 40 12 60 23c4 2 6 3 9 -1l16 -22c1 -1 2 -3 2 -4c0 -2 -1 -4 -3 -6c-20 -18 -61 -40 -98 -40c-59 0 -79 32 -79 73c0 35 21 80 48 110c-90 9 -164 66 -164 164v446c0 7 2 11 11 11
h62c7 0 11 -4 11 -10v-447c0 -54 46 -93 106 -93c66 0 108 41 108 96v443c0 7 4 11 12 11h60c8 0 12 -4 12 -10v-447z" />
    <glyph glyph-name="iogonek" unicode="&#x12f;" horiz-adv-x="203" 
d="M61 9v419c0 7 3 10 9 10h62c7 0 10 -3 10 -10v-419c0 -7 -2 -9 -9 -9h-18c-26 -29 -45 -71 -45 -106c0 -17 7 -31 33 -31c19 0 40 12 60 23c4 2 6 3 9 -1l16 -22c1 -1 2 -3 2 -4c0 -2 -1 -4 -3 -6c-20 -18 -61 -40 -98 -40c-59 0 -79 32 -79 73c0 37 24 86 54 116
c-2 1 -3 4 -3 7zM154 576c0 -27 -23 -50 -51 -50s-50 21 -50 50c0 27 22 49 49 49c29 0 52 -21 52 -49z" />
    <glyph glyph-name="uogonek" unicode="&#x173;" horiz-adv-x="459" 
d="M322 11l2 2v11c0 9 -8 11 -14 5c-25 -22 -69 -35 -103 -35c-99 0 -159 65 -159 167v267c0 7 3 10 9 10h62c7 0 9 -3 9 -9v-268c0 -56 33 -98 96 -98c58 0 96 41 96 98v267c0 7 2 10 9 10h62c6 0 10 -3 10 -9v-419c0 -7 -3 -10 -10 -10h-28c-26 -29 -45 -71 -45 -106
c0 -17 7 -31 33 -31c19 0 40 12 60 23c4 2 6 3 9 -1l16 -22c1 -1 2 -3 2 -4c0 -2 -1 -4 -3 -6c-20 -18 -61 -40 -98 -40c-59 0 -79 32 -79 73s30 97 64 125z" />
    <glyph glyph-name="ogonek" unicode="&#x2db;" horiz-adv-x="450" 
d="M219 11c10 9 17 10 26 10h22c4 0 6 -2 6 -5c0 -2 -1 -4 -2 -5c-31 -29 -56 -78 -56 -117c0 -17 7 -31 33 -31c19 0 40 12 60 23c4 2 6 3 9 -1l16 -22c1 -1 2 -3 2 -4c0 -2 -1 -4 -3 -6c-20 -18 -61 -40 -98 -40c-59 0 -79 32 -79 73s30 97 64 125z" />
    <glyph glyph-name="cedilla" unicode="&#xb8;" horiz-adv-x="408" 
d="M314 -126c0 -38 -35 -77 -92 -77c-35 0 -57 8 -79 22c-4 3 -7 8 -1 15l16 21c5 5 7 6 12 3c14 -8 29 -16 50 -16c27 0 42 13 42 31c0 10 -3 33 -38 33h-27c-25 0 -34 17 -29 37c7 28 12 46 18 66c1 4 3 13 11 13h30c7 0 6 -10 5 -14c-5 -20 -11 -41 -12 -47
c-3 -9 1 -11 7 -11h11c46 0 76 -30 76 -76z" />
    <glyph glyph-name="eth" unicode="&#xf0;" horiz-adv-x="448" 
d="M47 163v94c0 104 72 168 166 168c40 0 74 -9 101 -32c2 -2 6 -3 6 2c0 43 -3 78 -24 108c0 1 -1 1 -2 1s-3 -2 -5 -4l-38 -41c-2 -2 -4 -3 -6 -3c-1 0 -2 1 -4 2l-22 20c-2 2 -3 4 -3 6s1 4 2 5l40 44c2 2 4 4 4 6c0 1 -1 3 -3 4c-29 21 -68 25 -106 27
c-7 0 -19 1 -19 13v48c0 10 6 12 18 12c62 0 127 -13 165 -46c2 -1 3 -2 4 -2s2 1 4 3l41 41c2 2 4 3 6 3s4 -1 5 -3l23 -21c2 -2 3 -4 3 -5c0 -2 -1 -4 -3 -6l-43 -43c-2 -2 -3 -4 -3 -6c0 -1 1 -3 2 -4c44 -45 44 -158 44 -235v-157c0 -108 -73 -168 -180 -168
c-108 0 -173 61 -173 169zM126 257v-95c0 -58 29 -99 95 -99c67 0 99 42 99 99v75c0 58 -14 119 -95 119c-66 0 -99 -42 -99 -99z" />
    <glyph glyph-name="ordmasculine" unicode="&#xba;" horiz-adv-x="299" 
d="M271 348c0 -70 -46 -109 -122 -109c-74 0 -121 39 -121 108v70c0 65 48 107 121 107s122 -39 122 -107v-69zM206 347v70c0 29 -23 51 -57 51c-33 0 -56 -22 -56 -51v-70c0 -30 22 -54 56 -54s56 23 57 54z" />
    <glyph glyph-name="ordfeminine" unicode="&#xaa;" horiz-adv-x="292" 
d="M257 255c0 -9 -1 -13 -11 -13h-37c-10 0 -11 4 -11 11v7c0 5 -3 2 -6 1c-13 -11 -41 -22 -61 -22c-70 0 -110 37 -110 99s47 100 112 100c15 0 37 -4 53 -17c2 -1 4 -2 5 3v5c0 27 -13 40 -50 40c-16 0 -51 -6 -69 -15c-8 -4 -11 -1 -15 7l-10 24c-4 7 -1 15 6 19
c25 12 60 20 90 20c83 0 114 -39 114 -102v-167zM187 339c0 27 -22 47 -51 47c-30 0 -51 -20 -51 -47s21 -49 51 -49c32 0 51 22 51 49z" />
    <glyph glyph-name="paragraph" unicode="&#xb6;" horiz-adv-x="449" 
d="M279 315h-87c-95 0 -162 70 -162 160c0 88 69 162 162 162h87c5 0 9 -4 9 -9v-304c0 -6 -4 -9 -9 -9zM399 628v-540c0 -105 -44 -169 -169 -176c-5 0 -9 1 -10 9l-4 36c-1 6 2 12 8 13c93 11 111 47 111 112v546c0 5 4 9 10 9h44c6 0 10 -4 10 -9z" />
    <glyph glyph-name="macron" unicode="&#xaf;" horiz-adv-x="438" 
d="M339 525c0 -6 -3 -10 -9 -10h-213c-7 0 -10 3 -10 10v41c0 7 3 10 9 10h213c6 0 10 -3 10 -9v-42z" />
    <glyph glyph-name="logicalnot" unicode="&#xac;" horiz-adv-x="475" 
d="M435 254v-197c0 -9 -5 -14 -14 -14h-41c-10 0 -15 5 -15 14v146c0 3 -1 5 -4 5h-306c-9 0 -15 5 -15 14v32c0 9 5 15 15 15h365c9 0 15 -6 15 -15z" />
    <glyph glyph-name="hungarumlaut" unicode="&#x2dd;" horiz-adv-x="448" 
d="M280 601l-98 -111c-5 -5 -14 -9 -21 -4l-19 12c-8 5 -8 11 -4 18l76 127c4 7 12 14 20 9l44 -29c11 -8 7 -17 2 -22zM400 601l-98 -111c-5 -5 -14 -9 -21 -4l-19 12c-8 5 -8 11 -4 18l76 127c4 7 12 14 20 9l44 -29c11 -8 7 -17 2 -22z" />
    <glyph glyph-name="caron" unicode="&#x2c7;" horiz-adv-x="438" 
d="M364 611l-96 -117c-6 -7 -11 -11 -22 -11h-32c-11 0 -16 4 -22 11l-96 117c-6 7 -8 14 1 21l14 12c9 8 15 5 22 -2l88 -81c5 -5 9 -5 15 1l91 80c8 7 13 10 22 2l14 -12c9 -7 7 -14 1 -21z" />
    <glyph glyph-name="breve" unicode="&#x2d8;" horiz-adv-x="438" 
d="M109 614c0 7 1 11 12 11h21c11 0 11 -4 14 -13c12 -38 31 -59 69 -59c37 0 59 20 69 59c2 9 2 13 14 13h21c10 0 12 -4 12 -11c-3 -67 -48 -122 -117 -122c-64 0 -112 55 -115 122z" />
    <glyph glyph-name="Hbar" unicode="&#x126;" horiz-adv-x="539" 
d="M468 475v-463c0 -8 -4 -12 -12 -12h-60c-8 0 -12 4 -12 11v263c0 6 -2 9 -8 9h-213c-6 0 -8 -3 -8 -9v-262c0 -8 -4 -12 -11 -12h-61c-8 0 -12 4 -12 11v464c0 8 -3 12 -13 12h-27c-8 0 -12 4 -12 12v29c0 8 4 12 11 12h29c6 0 12 4 12 11v55c0 7 2 11 11 11h61
c8 0 12 -4 12 -10v-54c0 -9 3 -13 10 -13h209c7 0 10 4 10 13v53c0 7 4 11 11 11h59c8 0 14 -4 14 -10v-56c0 -7 6 -11 12 -11h29c7 0 11 -4 11 -12v-29c0 -8 -4 -12 -12 -12h-27c-10 0 -13 -4 -13 -12zM384 364v111c0 7 -2 12 -8 12h-213c-6 0 -8 -5 -8 -12v-111
c0 -6 2 -9 8 -9h213c6 0 8 3 8 9z" />
    <glyph glyph-name="hbar" unicode="&#x127;" horiz-adv-x="476" 
d="M67 9v470c0 9 -4 14 -15 14h-27c-7 0 -10 3 -10 10v32c0 7 3 10 9 10h29c7 0 14 5 14 13v49c0 7 3 10 9 10h62c7 0 9 -3 9 -10v-47c0 -10 4 -15 12 -15h171c6 0 10 -3 10 -9v-33c0 -6 -3 -10 -9 -10h-174c-8 0 -10 -6 -10 -14v-63c0 -10 9 -12 15 -6c29 21 66 33 103 33
c99 0 155 -67 155 -166v-267c0 -7 -3 -10 -9 -10h-62c-7 0 -9 3 -9 9v267c0 57 -29 98 -96 98c-58 0 -96 -41 -96 -97v-267c0 -7 -3 -10 -10 -10h-61c-6 0 -10 3 -10 9z" />
    <glyph glyph-name="Eng" unicode="&#x14a;" horiz-adv-x="519" 
d="M460 -58c0 -65 -29 -117 -124 -117c-12 0 -41 3 -55 9c-10 4 -8 10 -7 17l6 35c2 9 5 11 17 10c11 -1 29 -2 36 -2c39 0 50 18 50 56v52c0 7 -2 17 -6 24l-233 413c-1 1 -3 2 -3 0v-427c0 -8 -2 -12 -11 -12h-57c-8 0 -12 4 -12 11v595c0 7 2 11 11 11h46
c16 0 21 -7 27 -16l233 -425c1 -2 3 -3 3 -1v431c0 7 2 11 11 11h56c8 0 12 -4 12 -10v-665z" />
    <glyph glyph-name="eng" unicode="&#x14b;" horiz-adv-x="462" 
d="M408 -60c0 -65 -29 -116 -123 -116c-13 0 -40 2 -54 9c-6 3 -8 7 -6 15l6 36c2 10 7 11 15 10c11 -1 21 -2 29 -2c42 0 53 16 53 56v328c0 57 -29 99 -96 99c-58 0 -96 -41 -96 -98v-267c0 -7 -3 -10 -10 -10h-61c-6 0 -10 3 -10 9v419c0 7 3 10 9 10h58c7 0 9 -2 9 -9
v-15c0 -6 3 -9 7 -9c3 0 5 2 8 4c29 24 65 35 103 35c100 0 159 -66 159 -167v-337z" />
    <glyph glyph-name="Tbar" unicode="&#x166;" horiz-adv-x="404" 
d="M59 364h90c7 0 10 4 10 13v159c0 6 -2 9 -8 9h-120c-8 0 -12 2 -12 11v50c0 7 4 11 12 11h342c8 0 12 -4 12 -10v-51c0 -7 -4 -11 -12 -11h-121c-6 0 -9 -2 -9 -8v-160c0 -9 3 -13 10 -13h90c7 0 12 -4 12 -11v-30c0 -7 -4 -12 -11 -12h-93c-6 0 -8 -5 -8 -12v-287
c0 -8 -2 -12 -11 -12h-61c-8 0 -12 4 -12 11v288c0 7 -2 12 -8 12h-93c-7 0 -11 5 -11 12v30c0 7 5 11 12 11z" />
    <glyph glyph-name="tbar" unicode="&#x167;" horiz-adv-x="314" 
d="M99 220c0 7 -3 10 -11 10h-51c-7 0 -10 3 -10 9v33c0 7 3 10 8 10h52c8 0 12 5 12 12v66c0 7 -3 10 -11 10h-51c-7 0 -10 3 -10 9v49c0 7 3 10 8 10h52c8 0 12 5 12 12v84c0 4 2 9 9 11l58 14c8 2 12 -3 12 -9v-102c0 -7 3 -10 10 -10h92c6 0 10 -3 10 -9v-49
c0 -7 -3 -10 -10 -10h-91c-7 0 -11 -2 -11 -10v-68c0 -7 3 -10 10 -10h92c6 0 10 -3 10 -9v-33c0 -7 -3 -10 -10 -10h-91c-7 0 -11 -2 -11 -10v-88c0 -38 10 -63 50 -63c13 0 45 4 59 7c15 3 18 -3 19 -11l8 -42c2 -11 0 -13 -10 -17c-20 -9 -60 -12 -87 -12
c-89 0 -118 50 -118 121v105z" />
    <glyph glyph-name="afii10026" unicode="&#x418;" horiz-adv-x="519" 
d="M62 12v595c0 6 4 10 12 10h56c9 0 11 -4 11 -11v-441c0 -2 2 -1 3 1l233 435c6 9 11 16 27 16h46c9 0 11 -4 11 -11v-595c0 -7 -4 -11 -12 -11h-57c-9 0 -11 4 -11 12v447c0 2 -2 1 -3 0c-73 -141 -160 -303 -233 -444c-7 -14 -9 -15 -26 -15h-45c-8 0 -12 4 -12 12z" />
    <glyph glyph-name="afii10028" unicode="&#x41a;" horiz-adv-x="499" 
d="M380 617h65c13 0 15 -7 10 -14l-185 -227c-5 -6 -1 -10 5 -10c9 0 18 1 26 0c92 -6 136 -67 143 -165l15 -191c0 -7 -3 -10 -10 -10h-58c-7 0 -11 3 -11 9l-12 180c-3 44 -15 113 -105 113c-76 0 -115 -49 -115 -119v-173c0 -7 -3 -10 -9 -10h-65c-8 0 -11 3 -11 9v598
c0 7 3 10 11 10h65c6 0 9 -3 9 -9v-248c0 -12 7 -8 11 -4l207 254c4 5 8 7 14 7z" />
    <glyph glyph-name="afii10038" unicode="&#x424;" horiz-adv-x="571" 
d="M512 235c0 -89 -82 -163 -177 -171c-8 -1 -10 -5 -10 -11v-42c0 -8 -2 -11 -10 -11h-61c-8 0 -10 3 -10 10v43c0 6 -5 11 -11 11c-98 5 -174 76 -174 171v170c0 96 72 166 175 172c7 0 9 2 9 7v22c0 7 3 11 11 11h60c8 0 11 -3 11 -10v-23c0 -4 1 -7 7 -7
c106 -5 180 -75 180 -171v-171zM433 233v177c0 50 -27 93 -101 96c-6 0 -7 -3 -7 -7v-352c0 -6 3 -9 10 -9c53 7 98 40 98 95zM244 146v351c0 6 -3 9 -9 9c-63 -3 -96 -48 -96 -95v-178c0 -47 36 -89 96 -95c7 0 9 3 9 8z" />
    <glyph glyph-name="afii10037" unicode="&#x423;" horiz-adv-x="434" 
d="M22 618h56c11 0 18 -2 21 -11l118 -357c2 -2 5 -2 7 0l113 355c3 9 9 13 23 13h50c14 0 15 -7 11 -16l-154 -456c-32 -97 -51 -159 -141 -159h-45c-14 0 -16 3 -16 18v40c0 14 3 16 13 16h26c27 0 42 4 56 29s18 40 10 64l-158 447c-4 10 -1 17 10 17z" />
    <glyph glyph-name="afii10049" unicode="&#x42f;" horiz-adv-x="491" 
d="M338 545h-85c-78 0 -112 -58 -112 -110c0 -31 14 -80 50 -105c4 -2 10 -5 16 -5h132c6 0 8 3 8 9v203c0 6 -3 8 -9 8zM57 441c0 105 73 176 185 176h176c8 0 12 -4 12 -11v-595c0 -7 -5 -11 -12 -11h-60c-8 0 -12 4 -12 12v233c0 6 -2 9 -8 9h-100c-11 0 -12 -4 -15 -10
l-106 -227c-6 -12 -8 -17 -30 -17h-48c-8 0 -22 1 -14 18l116 244c1 1 0 4 -2 6c-45 37 -82 99 -82 173z" />
    <glyph glyph-name="afii61352" unicode="&#x2116;" horiz-adv-x="747" 
d="M427 10c0 -7 -3 -10 -10 -10h-45c-15 0 -17 1 -24 14l-215 427c-4 6 -7 3 -7 -1v-430c0 -7 -2 -10 -9 -10h-57c-7 0 -10 3 -10 9v598c0 6 2 10 9 10h46c15 0 20 -8 25 -16l215 -427c2 -5 7 -5 7 0v433c0 6 2 10 9 10h56c7 0 10 -3 10 -9v-598zM700 247
c0 -6 -2 -10 -8 -10h-215c-7 0 -10 3 -10 10v35c0 7 3 10 9 10h215c6 0 9 -3 9 -9v-36zM705 445c0 -70 -46 -109 -122 -109c-74 0 -121 39 -121 108v70c0 65 48 107 121 107s122 -39 122 -107v-69zM640 444v70c0 29 -23 51 -57 51c-33 0 -56 -22 -56 -51v-70
c0 -30 22 -54 56 -54s56 23 57 54z" />
    <glyph glyph-name="afii10024" unicode="&#x416;" horiz-adv-x="765" 
d="M50 617h64c6 0 10 -2 14 -7l201 -245c3 -4 10 -8 11 1v242c0 6 3 9 9 9h65c8 0 11 -3 11 -10v-244c1 -9 7 -5 11 -1l201 248c4 5 8 7 14 7h64c13 0 15 -7 10 -14l-185 -231c-5 -6 -1 -10 5 -10c9 0 18 0 26 -1c86 -8 137 -72 144 -170l14 -181c1 -7 -3 -10 -10 -10h-58
c-7 0 -11 3 -11 9l-14 176c-3 44 -20 113 -101 113c-72 0 -110 -53 -110 -120v-169c0 -6 -3 -9 -11 -9h-65c-6 0 -9 3 -9 10v175c0 70 -31 113 -108 113c-83 0 -102 -69 -105 -113l-12 -176c0 -6 -4 -9 -11 -9h-58c-7 0 -11 3 -10 10l20 200c8 82 56 141 133 151
c10 1 20 1 31 1c6 0 10 4 5 10l-185 231c-5 7 -3 14 10 14z" />
    <glyph glyph-name="afii10025" unicode="&#x417;" horiz-adv-x="485" 
d="M238 625c119 0 184 -69 184 -163c0 -50 -28 -113 -78 -130c-3 -1 -2 -4 -1 -5c51 -18 90 -70 90 -141c0 -115 -79 -192 -208 -192c-72 0 -151 19 -186 84c-2 6 -2 13 7 19c12 9 28 18 40 27c9 6 14 7 21 -2c21 -31 68 -55 118 -55c80 0 124 50 124 114
c0 77 -52 112 -121 112h-69c-8 0 -12 4 -12 11v51c0 9 2 11 11 11h86c55 0 94 37 94 93c0 53 -37 94 -107 94c-32 0 -74 -14 -104 -49c-5 -5 -12 -12 -22 -7l-39 26c-10 6 -7 15 -3 22c35 54 101 80 175 80z" />
    <glyph glyph-name="afii10053" unicode="&#x404;" horiz-adv-x="448" 
d="M410 551c6 -8 7 -13 -3 -22l-38 -32c-5 -5 -16 -3 -21 4c-24 30 -66 51 -107 51c-63 0 -99 -40 -99 -97v-97c0 -5 4 -5 6 -5h192c8 0 12 -4 12 -12v-50c0 -7 -4 -11 -11 -11h-192c-2 0 -7 0 -7 -6v-110c0 -56 40 -97 104 -97c41 0 79 25 102 48c7 8 13 15 23 7l40 -33
c4 -3 5 -11 2 -16c-40 -52 -102 -79 -167 -79c-107 0 -188 60 -188 169v292c0 105 76 170 182 170c62 0 120 -15 170 -74z" />
    <glyph glyph-name="afii10018" unicode="&#x411;" horiz-adv-x="473" 
d="M148 537v-164c0 -6 2 -9 8 -9h102c120 0 191 -79 191 -183s-75 -181 -192 -181h-181c-8 0 -12 5 -12 12v595c0 6 5 10 12 10h312c7 0 12 -4 12 -10v-51c0 -7 -4 -11 -12 -11h-232c-6 0 -8 -2 -8 -8zM156 73h101c65 0 109 50 109 107c0 74 -47 112 -109 112h-102
c-6 0 -8 -3 -8 -9v-202c0 -6 3 -8 9 -8z" />
    <glyph glyph-name="afii10046" unicode="&#x42c;" horiz-adv-x="473" 
d="M147 607v-234c0 -6 2 -9 8 -9h110c119 0 184 -79 184 -183s-75 -181 -192 -181h-181c-8 0 -12 5 -12 12v595c0 6 5 10 12 10h59c7 0 12 -4 12 -10zM156 73h101c65 0 109 50 109 107c0 74 -47 112 -109 112h-102c-6 0 -8 -3 -8 -9v-202c0 -6 3 -8 9 -8z" />
    <glyph glyph-name="afii10045" unicode="&#x42b;" horiz-adv-x="655" 
d="M147 607v-234c0 -6 2 -9 8 -9h115c109 0 179 -79 179 -183s-74 -181 -192 -181h-181c-8 0 -11 5 -11 12v595c0 6 4 10 11 10h59c7 0 12 -4 12 -10zM595 12c0 -8 -3 -12 -11 -12h-62c-7 0 -12 4 -12 11v595c0 7 4 11 12 11h62c7 0 11 -4 11 -10v-595zM156 73h101
c65 0 110 50 110 107c0 74 -48 112 -110 112h-102c-6 0 -8 -3 -8 -9v-202c0 -6 3 -8 9 -8z" />
    <glyph glyph-name="afii10044" unicode="&#x42a;" horiz-adv-x="600" 
d="M282 73h101c65 0 110 50 110 107c0 74 -48 112 -110 112h-102c-6 0 -8 -3 -8 -9v-202c0 -6 3 -8 9 -8zM191 12v523c0 6 -2 8 -8 8l-156 1c-8 0 -12 4 -12 11v51c0 7 5 10 12 10h234c8 0 12 -4 12 -11v-232c0 -6 2 -9 8 -9h106c123 0 188 -79 188 -183s-74 -181 -192 -181
h-180c-8 0 -12 5 -12 12z" />
    <glyph glyph-name="afii10040" unicode="&#x426;" horiz-adv-x="556" 
d="M481 606v-525c0 -3 1 -8 6 -9h34c16 0 16 -12 16 -22v-172c-1 -16 -7 -18 -16 -18h-42c-9 0 -17 -1 -17 18v113c-1 9 -8 9 -14 9h-361c-8 0 -12 5 -12 12v595c0 6 5 10 12 10h61c8 0 12 -4 12 -11v-525c0 -6 2 -9 8 -9h221c5 0 8 3 8 9v526c0 6 2 10 11 10h61
c8 0 12 -4 12 -11z" />
    <glyph glyph-name="afii10042" unicode="&#x428;" horiz-adv-x="777" 
d="M702 606v-595c0 -7 -4 -11 -12 -11h-602c-8 0 -12 5 -12 12v595c0 6 5 10 12 10h60c8 0 12 -4 12 -11v-525c0 -6 2 -9 8 -9h172c5 0 8 3 8 9v526c0 6 2 10 11 10h61c8 0 12 -4 12 -11v-525c0 -6 2 -9 8 -9h171c5 0 8 3 8 9v526c0 6 2 10 11 10h60c8 0 12 -4 12 -11z" />
    <glyph glyph-name="afii10047" unicode="&#x42d;" horiz-adv-x="448" 
d="M44 552c50 59 120 73 174 73c124 0 180 -65 180 -170v-292c0 -109 -78 -169 -195 -169c-65 0 -127 27 -167 79c-3 5 -2 13 2 16l40 33c10 8 16 1 23 -7c23 -23 61 -48 102 -48c78 0 111 41 111 97v121c0 6 -5 6 -7 6h-192c-7 0 -11 4 -11 11v50c0 8 4 12 12 12h192
c2 0 6 0 6 5v86c0 57 -30 96 -106 96c-34 0 -76 -17 -108 -51c-6 -6 -11 -7 -16 -2l-37 32c-10 9 -9 14 -3 22z" />
    <glyph glyph-name="afii10048" unicode="&#x42e;" horiz-adv-x="688" 
d="M248 165v109c0 6 0 9 -9 9h-84c-6 0 -8 -3 -8 -9v-262c0 -8 -4 -12 -11 -12h-61c-7 0 -11 4 -11 11v595c0 7 2 11 10 11h61c8 0 12 -4 12 -10v-243c0 -6 2 -9 8 -9h83c8 0 10 0 10 6v94c0 106 83 170 190 170c104 0 190 -60 190 -170v-290c0 -108 -80 -171 -189 -171
s-191 59 -191 171zM545 167v286c0 57 -44 99 -106 99c-65 0 -108 -43 -108 -99v-286c0 -59 40 -100 107 -100c65 0 107 40 107 100z" />
    <glyph glyph-name="afii10043" unicode="&#x429;" horiz-adv-x="777" 
d="M668 0h-580c-8 0 -12 5 -12 12v595c0 6 5 10 12 10h60c8 0 12 -4 12 -11v-525c0 -6 2 -9 8 -9h172c5 0 8 3 8 9v526c0 6 2 10 11 10h61c8 0 12 -4 12 -11v-525c0 -6 2 -9 8 -9h171c5 0 8 3 8 9v526c0 6 2 10 11 10h60c8 0 12 -4 12 -11v-525c0 -3 1 -9 8 -9h32
c16 0 16 -12 16 -22v-172c0 -16 -7 -18 -16 -18h-43c-9 0 -17 1 -17 18v113c-1 9 -8 9 -14 9z" />
    <glyph glyph-name="afii10041" unicode="&#x427;" horiz-adv-x="483" 
d="M340 12v260c0 9 -7 5 -12 3c-31 -18 -83 -29 -120 -29c-99 0 -174 69 -174 173v188c0 7 4 11 11 11h62c9 0 11 -4 11 -10v-176c0 -61 28 -111 107 -111c47 0 85 15 109 35c3 2 7 6 7 16v235c0 7 2 11 11 11h60c8 0 12 -4 12 -10v-597c0 -7 -5 -11 -12 -11h-60
c-8 0 -12 4 -12 12z" />
    <glyph glyph-name="afii10029" unicode="&#x41b;" horiz-adv-x="523" 
d="M370 546h-158c-6 0 -8 -3 -8 -9v-129c0 -301 -31 -372 -156 -422c-2 -1 -4 -1 -7 -1c-6 0 -10 3 -12 10l-14 39c0 1 -1 3 -1 4c0 7 6 11 13 14c76 39 104 68 104 364v190c0 7 4 11 12 11h307c8 0 12 -4 12 -10v-595c0 -8 -4 -12 -12 -12h-61c-9 0 -11 4 -11 11v526
c0 6 -3 9 -8 9z" />
    <glyph glyph-name="afii10058" unicode="&#x409;" horiz-adv-x="780" 
d="M441 617c8 -1 10 -3 12 -10v-234c0 -6 2 -9 8 -9h103c113 0 191 -79 191 -183s-75 -181 -192 -181h-181c-11 0 -13 4 -13 11v526c0 6 -3 9 -8 9h-152c-6 0 -8 -3 -8 -9v-89c0 -338 -23 -420 -152 -462c-12 -4 -15 1 -19 9l-14 38c-3 8 3 15 12 19c79 39 95 70 95 395v159
c0 7 4 11 12 11h306zM462 73h101c65 0 109 50 109 107c0 74 -47 112 -109 112h-102c-5 0 -8 -2 -8 -7v-207c1 -3 5 -5 9 -5z" />
    <glyph glyph-name="afii10021" unicode="&#x414;" horiz-adv-x="555" 
d="M85 -13v-108c-1 -19 -6 -19 -15 -19h-46c-11 0 -14 2 -15 14v164c0 20 5 22 17 27l18 7c39 14 58 64 66 137c10 81 14 167 24 389c1 15 7 19 20 19h300c12 0 18 -4 18 -19v-516c0 -3 1 -9 6 -9h21c14 0 16 -6 16 -19v-176c-1 -18 -6 -18 -15 -18h-44c-11 0 -15 2 -16 18
v113c-1 9 -8 9 -14 9h-327c-12 0 -12 -2 -14 -13zM375 545h-159c-6 0 -8 -7 -8 -10c-4 -94 -11 -239 -19 -321c-4 -36 -16 -98 -38 -135c-3 -5 0 -6 5 -6h223c3 0 9 0 9 9v451c0 9 -4 12 -13 12z" />
    <glyph glyph-name="afii10145" unicode="&#x40f;" horiz-adv-x="556" 
d="M317 -12v-135c-1 -16 -10 -19 -18 -19h-46c-11 0 -13 6 -14 19v136c-1 8 -2 11 -16 11h-136c-8 0 -12 5 -12 12v595c0 6 5 10 12 10h61c8 0 12 -4 12 -11v-525c0 -6 2 -9 8 -9h221c5 0 8 3 8 9v526c0 6 2 10 11 10h61c8 0 12 -4 12 -11v-595c0 -7 -4 -11 -12 -11h-137
c-11 0 -15 -3 -15 -12z" />
    <glyph glyph-name="afii10059" unicode="&#x40a;" horiz-adv-x="747" 
d="M337 12v271c0 6 -2 9 -8 9h-174c-6 0 -8 -3 -8 -9v-271c0 -8 -4 -12 -11 -12h-60c-8 0 -12 4 -12 11v595c0 7 2 11 11 11h60c8 0 12 -4 12 -10v-234c0 -6 2 -9 8 -9h174c6 0 8 3 8 9v234c0 6 5 10 12 10h59c7 0 12 -4 12 -10v-234c0 -6 2 -9 8 -9h114
c114 0 180 -79 180 -183s-74 -181 -192 -181h-181c-8 0 -12 5 -12 12zM429 73h101c65 0 110 50 110 107c0 74 -48 112 -110 112h-102c-6 0 -8 -3 -8 -9v-202c0 -6 3 -8 9 -8z" />
    <glyph glyph-name="afii10060" unicode="&#x40b;" horiz-adv-x="609" 
d="M247 381c0 -9 7 -5 12 -3c38 17 80 26 121 26c108 0 174 -68 174 -172v-221c0 -7 -4 -11 -11 -11h-62c-9 0 -11 4 -11 10v209c0 61 -20 111 -107 111c-47 0 -85 -15 -109 -35c-3 -2 -7 -6 -7 -16v-268c0 -7 -2 -11 -11 -11h-60c-8 0 -12 4 -12 10v526c0 6 -2 9 -8 9h-121
c-8 0 -12 2 -12 11v50c0 7 4 11 12 11h423c8 0 12 -4 12 -10v-51c0 -7 -4 -11 -12 -11h-202c-6 0 -9 -2 -9 -8v-156z" />
    <glyph glyph-name="afii10051" unicode="&#x402;" horiz-adv-x="619" 
d="M471 219c0 61 -20 111 -107 111c-47 0 -85 -15 -109 -35c-3 -2 -7 -6 -7 -16v-268c0 -7 -2 -11 -11 -11h-60c-8 0 -12 4 -12 10v526c0 6 -2 9 -8 9h-121c-8 0 -12 2 -12 11v50c0 7 4 11 12 11h423c8 0 12 -4 12 -10v-51c0 -7 -4 -11 -12 -11h-202c-6 0 -9 -2 -9 -8v-156
c0 -9 7 -5 12 -3c38 17 80 26 121 26c108 0 174 -68 174 -172v-81c0 -55 -5 -168 -162 -192c-14 -2 -24 -2 -25 11l-6 45c-2 14 11 14 20 16c84 19 89 72 89 121v67z" />
    <glyph glyph-name="afii10050" unicode="&#x490;" horiz-adv-x="426" 
d="M419 554c0 -6 -3 -9 -10 -9h-235c-7 0 -10 -3 -10 -10v-525c0 -7 -3 -10 -10 -10h-64c-6 0 -10 3 -10 9v598c0 6 3 10 10 10h245c6 0 10 2 11 8l14 90c1 14 9 17 16 17h30c10 0 12 -5 13 -17v-161z" />
    <glyph glyph-name="afii10098" unicode="&#x491;" horiz-adv-x="345" 
d="M342 384c0 -9 -4 -13 -14 -13h-192v-357c0 -10 -4 -14 -14 -14h-54c-8 0 -14 4 -14 13v412c0 7 4 13 14 13h204l10 90c3 15 11 18 20 18h24c13 0 16 -5 16 -19v-143z" />
    <glyph glyph-name="afii10100" unicode="&#x453;" horiz-adv-x="345" 
d="M284 601l-99 -111c-4 -5 -13 -9 -21 -4l-19 12c-7 5 -7 11 -3 18l75 127c4 7 13 14 20 9l44 -29c11 -8 7 -17 3 -22zM345 384c0 -9 -4 -13 -14 -13h-186c-13 0 -11 -5 -11 -15v-342c0 -10 -4 -14 -14 -14h-52c-8 0 -14 4 -14 13v412c0 7 4 13 14 13h263
c10 0 14 -4 14 -12v-42z" />
    <glyph glyph-name="afii10107" unicode="&#x45a;" horiz-adv-x="637" 
d="M267 14v179c0 10 -8 9 -12 9h-111c-5 0 -6 -2 -6 -6v-182c0 -10 -6 -14 -14 -14h-54c-11 0 -15 4 -15 13v412c0 7 4 13 15 13h52c11 0 16 -4 16 -12v-149c0 -4 1 -6 8 -6h112c6 0 9 0 9 10v146c0 8 7 12 15 12h50c11 0 16 -4 16 -12v-150c0 -4 2 -6 7 -6h113
c93 0 149 -58 149 -134c0 -75 -53 -137 -150 -137h-185c-9 0 -15 6 -15 14zM467 68c49 0 74 33 74 68c0 47 -27 68 -74 68h-109c-4 0 -10 -2 -10 -8v-122c0 -6 5 -6 9 -6h110z" />
    <glyph glyph-name="afii10106" unicode="&#x459;" horiz-adv-x="652" 
d="M349 438c11 0 14 -3 14 -11v-140c0 -4 2 -6 7 -6h113c93 0 149 -63 149 -139c0 -75 -53 -142 -150 -142h-185c-9 0 -15 6 -15 14v347c0 6 -3 10 -11 10h-99c-6 0 -10 -6 -10 -11v-91c0 -215 -40 -255 -122 -287c-9 -3 -12 -1 -16 6l-17 39c-4 8 -3 11 9 18
c54 31 71 51 71 223v157c0 7 5 13 16 13h246zM482 68c49 0 74 38 74 73c0 47 -27 73 -74 73h-109c-4 0 -10 -2 -10 -8v-132c0 -6 5 -6 9 -6h110z" />
    <glyph glyph-name="afii10193" unicode="&#x45f;" horiz-adv-x="464" 
d="M268 -8v-95c0 -15 -11 -18 -18 -18h-38c-13 0 -16 6 -16 18v95c0 2 0 8 -7 8h-118c-11 0 -16 6 -16 14v411c0 8 7 12 16 12h49c11 0 15 -4 15 -13v-344c0 -9 3 -12 10 -12h175c8 0 10 0 10 10v347c0 8 2 12 13 12h53c8 0 13 -4 13 -13v-411c0 -9 -7 -13 -15 -13h-118
c-7 0 -8 -3 -8 -8z" />
    <glyph glyph-name="afii10067" unicode="&#x432;" horiz-adv-x="444" 
d="M399 129c0 -78 -56 -129 -147 -129h-182c-9 0 -15 4 -15 13v412c0 7 2 13 14 13h173c90 0 144 -45 144 -120c0 -31 -18 -66 -48 -85c-2 -1 -4 -4 1 -6c42 -18 60 -59 60 -98zM322 130c0 36 -25 66 -75 66h-109c-3 0 -4 -2 -4 -6v-117c0 -3 2 -5 5 -5h111
c45 0 72 26 72 62zM309 315c0 33 -26 56 -71 56h-98c-7 0 -6 -5 -6 -10v-98c0 -4 1 -7 6 -7h99c45 0 70 27 70 59z" />
    <glyph glyph-name="afii10068" unicode="&#x433;" horiz-adv-x="345" 
d="M345 384c0 -9 -4 -13 -14 -13h-186c-13 0 -11 -5 -11 -15v-342c0 -10 -4 -14 -14 -14h-52c-8 0 -14 4 -14 13v412c0 7 4 13 14 13h263c10 0 14 -4 14 -12v-42z" />
    <glyph glyph-name="afii10069" unicode="&#x434;" horiz-adv-x="455" 
d="M294 371h-98c-15 0 -14 -8 -15 -14c-7 -86 -13 -148 -19 -198c-3 -28 -13 -63 -25 -83c-1 -2 -2 -3 -2 -4c0 -2 2 -4 7 -4h157c8 0 13 2 13 14v271c0 17 -5 18 -18 18zM134 438h237c15 0 19 -1 19 -17v-341c0 -10 2 -12 11 -12h16c11 0 14 -9 14 -18v-144
c-1 -17 -7 -17 -15 -17h-37c-10 0 -15 0 -16 17v84c-1 7 0 10 -12 10h-263c-5 0 -11 0 -12 -11v-83c0 -17 -7 -17 -15 -17h-37c-10 0 -15 0 -16 17v138c0 11 0 18 14 21l17 4c30 7 43 56 49 91c16 99 12 95 26 257c1 16 5 21 20 21z" />
    <glyph glyph-name="afii10072" unicode="&#x436;" horiz-adv-x="703" 
d="M44 17l4 91c4 74 27 133 103 154c10 3 22 5 34 6c7 2 9 4 4 10l-132 142c-2 3 -5 6 -5 9c0 5 4 9 11 9h74c6 0 10 -1 14 -5l145 -160c7 -7 15 -5 15 10v148c0 6 2 9 9 9h62c6 0 9 -4 9 -10v-151c0 -15 8 -17 15 -10l148 164c4 4 8 5 14 5h71c7 0 11 -4 11 -9
c0 -3 -3 -6 -5 -9l-132 -142c-5 -6 -3 -8 4 -10c8 -1 17 -2 24 -4c84 -19 109 -79 113 -156l4 -91c0 -12 -3 -17 -14 -17h-53c-11 0 -14 5 -14 14l-5 93c-3 52 -21 96 -94 96c-55 0 -87 -43 -87 -95v-99c0 -6 -4 -9 -10 -9h-61c-7 0 -10 3 -10 10v105c0 52 -31 88 -86 88
c-73 0 -91 -44 -94 -96l-5 -93c0 -9 -3 -14 -14 -14h-53c-11 0 -14 5 -14 17z" />
    <glyph glyph-name="afii10073" unicode="&#x437;" horiz-adv-x="390" 
d="M181 -6c-59 0 -121 20 -161 80c-5 7 -5 14 8 22l39 25c6 4 11 6 15 1c24 -31 52 -58 98 -58c45 0 88 20 88 74c0 40 -31 59 -63 59h-72c-7 0 -9 2 -9 8v48c0 6 3 9 9 9h66c32 0 61 12 61 50c0 47 -39 63 -74 63c-37 0 -70 -19 -92 -52c-6 -9 -13 -13 -23 -6l-36 27
c-8 5 -9 15 -4 22c39 51 93 78 159 78c90 0 154 -42 154 -128c0 -21 -12 -64 -49 -85c-6 -3 -5 -9 0 -11c38 -16 57 -57 57 -84c0 -92 -70 -142 -171 -142z" />
    <glyph glyph-name="afii10074" unicode="&#x438;" horiz-adv-x="454" 
d="M55 12v416c0 8 3 10 13 10h54c11 0 11 -5 11 -11v-286c0 -9 3 -8 6 -4l54 89l123 197c7 11 11 15 25 15h45c11 0 13 -4 13 -11v-416c0 -8 -4 -11 -11 -11h-57c-9 0 -12 2 -12 12v289c0 7 -3 5 -5 2l-51 -85l-128 -206c-8 -14 -12 -12 -19 -12h-48c-11 0 -13 2 -13 12z
" />
    <glyph glyph-name="afii10077" unicode="&#x43b;" horiz-adv-x="429" 
d="M92 425c0 7 5 13 16 13h252c7 0 14 -4 14 -12v-412c0 -10 -7 -14 -14 -14h-54c-11 0 -13 4 -13 13v348c0 7 -5 10 -9 10h-107c-6 0 -10 -6 -10 -11v-91c0 -215 -45 -255 -127 -287c-9 -3 -12 -1 -16 6l-17 39c-4 8 -3 11 9 18c54 31 76 51 76 223v157z" />
    <glyph glyph-name="afii10078" unicode="&#x43c;" horiz-adv-x="554" 
d="M275 128c1 -2 3 -2 4 0l54 120l85 177c6 10 8 13 20 13h48c9 0 13 -6 13 -13v-411c0 -10 -6 -14 -14 -14h-51c-12 0 -14 4 -14 13v246c0 13 -5 5 -7 1l-40 -84l-64 -126c-3 -5 -5 -14 -17 -14h-36c-9 0 -12 3 -17 13l-56 114l-44 96c-3 6 -6 11 -6 0v-245
c0 -10 -2 -14 -13 -14h-50c-9 0 -15 4 -15 13v411c0 7 3 14 14 14h45c16 0 17 -6 21 -14c26 -52 60 -123 91 -188c18 -37 35 -79 49 -108z" />
    <glyph glyph-name="afii10079" unicode="&#x43d;" horiz-adv-x="448" 
d="M393 12c0 -10 -7 -12 -15 -12h-51c-9 0 -15 2 -15 11v177c0 5 -3 8 -7 8h-162c-4 0 -7 -4 -7 -8v-176c0 -10 -6 -12 -14 -12h-52c-11 0 -15 2 -15 11v415c0 7 2 12 13 12h55c11 0 13 -3 13 -11v-163c0 -3 3 -8 7 -8h162c3 0 7 3 7 8v162c0 7 6 12 14 12h51
c9 0 16 -3 16 -11v-415z" />
    <glyph glyph-name="afii10075" unicode="&#x439;" horiz-adv-x="454" 
d="M55 12v416c0 8 3 10 13 10h54c11 0 11 -5 11 -11v-286c0 -9 3 -8 6 -4l54 89l123 197c7 11 11 15 25 15h45c11 0 13 -4 13 -11v-416c0 -8 -4 -11 -11 -11h-57c-9 0 -12 2 -12 12v289c0 7 -3 5 -5 2l-51 -85l-128 -206c-8 -14 -12 -12 -19 -12h-48c-11 0 -13 2 -13 12z
M111 614c0 7 2 11 12 11h21c11 0 11 -4 14 -13c12 -38 31 -59 69 -59c37 0 59 20 69 59c2 9 2 13 14 13h21c10 0 12 -4 12 -11c-3 -67 -48 -122 -117 -122c-64 0 -112 55 -115 122z" />
    <glyph glyph-name="afii10084" unicode="&#x442;" horiz-adv-x="360" 
d="M350 384c0 -9 -6 -13 -15 -13h-109c-5 0 -7 -5 -7 -9v-348c0 -10 -2 -14 -13 -14h-53c-9 0 -15 4 -15 13v349c0 7 -2 9 -8 9h-105c-11 0 -15 2 -15 13v41c0 7 4 13 15 13h310c9 0 15 -4 15 -12v-42z" />
    <glyph glyph-name="afii10088" unicode="&#x446;" horiz-adv-x="462" 
d="M365 0h-299c-10 0 -12 6 -12 14v414c0 8 6 10 14 10h54c11 0 13 -1 13 -10v-347c0 -13 4 -13 15 -13h153c13 0 14 3 14 13v344c0 8 0 13 11 13h57c8 0 12 -1 12 -10v-348c0 -10 1 -12 11 -12h25c12 -2 13 -11 13 -20v-138c0 -17 -5 -21 -13 -21h-42c-10 0 -14 4 -14 21
v80c-1 7 0 10 -12 10z" />
    <glyph glyph-name="afii10089" unicode="&#x447;" horiz-adv-x="438" 
d="M30 432c0 7 3 10 9 10h62c7 0 9 -3 9 -9v-113c0 -57 30 -100 96 -100c40 0 69 15 85 27c4 3 11 9 11 22v163c0 7 3 10 10 10h61c6 0 10 -3 10 -9v-422c0 -7 -3 -10 -9 -10h-62c-7 0 -9 3 -9 10v160c0 6 -4 9 -8 9c-2 0 -5 -1 -7 -3c-24 -17 -66 -24 -103 -24
c-99 0 -155 67 -155 166v113z" />
    <glyph glyph-name="afii10090" unicode="&#x448;" horiz-adv-x="658" 
d="M522 73v354c0 8 1 11 13 11h55c11 0 13 -3 13 -12v-414c0 -9 -4 -12 -15 -12h-518c-11 0 -15 3 -15 11v416c0 8 4 11 13 11h56c11 0 12 -3 12 -12v-351c0 -7 4 -7 9 -7h135c4 0 9 0 9 6v353c0 8 3 11 13 11h55c8 0 13 -3 13 -12v-352c0 -5 1 -6 8 -6h137c4 0 7 1 7 5z
" />
    <glyph glyph-name="afii10091" unicode="&#x449;" horiz-adv-x="672" 
d="M570 0h-500c-11 0 -15 3 -15 11v416c0 8 4 11 13 11h56c11 0 12 -3 12 -12v-351c0 -7 4 -7 9 -7h135c4 0 9 0 9 6v353c0 8 3 11 13 11h55c8 0 13 -3 13 -12v-352c0 -5 1 -6 8 -6h137c4 0 7 1 7 5v354c0 8 1 11 13 11h54c11 0 13 -3 13 -12v-346c0 -10 1 -12 11 -12h25
c12 -2 13 -11 13 -20v-138c0 -17 -5 -21 -13 -21h-42c-10 0 -14 4 -14 21v80c0 7 0 10 -12 10z" />
    <glyph glyph-name="afii10092" unicode="&#x44a;" horiz-adv-x="515" 
d="M226 426v-139c0 -4 2 -6 7 -6h113c93 0 149 -63 149 -139c0 -75 -53 -142 -150 -142h-185c-9 0 -15 6 -15 14v346c0 7 -1 11 -11 11h-111c-11 0 -15 4 -15 13v42c0 8 7 12 15 12h187c11 0 16 -4 16 -12zM345 68c49 0 74 38 74 73c0 47 -27 73 -74 73h-109
c-4 0 -10 -2 -10 -8v-132c0 -6 5 -6 9 -6h110z" />
    <glyph glyph-name="afii10093" unicode="&#x44b;" horiz-adv-x="582" 
d="M55 14l1 412c0 8 7 12 15 12h50c11 0 16 -4 16 -12v-139c0 -4 2 -6 7 -6h113c93 0 149 -63 149 -139c0 -75 -53 -142 -150 -142h-186c-9 0 -15 6 -15 14zM527 14c0 -10 -4 -14 -15 -14h-49c-9 0 -15 4 -15 13v411c0 7 6 13 15 13h49c9 0 15 -4 15 -12v-411zM256 68
c49 0 74 38 74 73c0 47 -27 73 -74 73h-109c-4 0 -10 -2 -10 -8v-132c0 -6 5 -6 9 -6h110z" />
    <glyph glyph-name="afii10094" unicode="&#x44c;" horiz-adv-x="426" 
d="M55 14l1 412c0 8 7 12 15 12h50c11 0 16 -4 16 -12v-139c0 -4 2 -6 7 -6h113c93 0 149 -63 149 -139c0 -75 -53 -142 -150 -142h-186c-9 0 -15 6 -15 14zM256 68c49 0 74 38 74 73c0 47 -27 73 -74 73h-109c-4 0 -10 -2 -10 -8v-132c0 -6 5 -6 9 -6h110z" />
    <glyph glyph-name="afii10096" unicode="&#x44e;" horiz-adv-x="601" 
d="M219 162v29c0 4 -1 4 -7 4h-70c-6 0 -6 -3 -6 -6v-176c0 -10 -3 -13 -13 -13h-55c-10 0 -13 3 -13 12v415c0 7 3 11 12 11h55c11 0 14 -2 14 -10v-163c0 -4 2 -6 5 -6h72c4 0 6 3 6 6v12c0 102 60 168 165 168s167 -62 167 -168v-114c0 -108 -58 -169 -166 -169
c-107 0 -166 60 -166 168zM471 162v115c0 57 -28 98 -86 98s-86 -40 -86 -98v-115c0 -57 27 -99 85 -99s86 41 87 99z" />
    <glyph glyph-name="afii10097" unicode="&#x44f;" horiz-adv-x="445" 
d="M299 375h-108c-47 0 -64 -42 -64 -74c0 -19 12 -48 39 -66c4 -3 7 -4 17 -4h115c10 0 13 6 13 15v118c0 7 -3 11 -12 11zM49 305c0 76 50 136 131 136h193c13 0 17 -7 17 -17v-408c0 -10 -3 -16 -13 -16h-52c-12 0 -15 4 -15 17v134c0 10 -3 13 -14 13h-92
c-8 0 -12 -4 -15 -10l-66 -135c-6 -12 -9 -19 -30 -19h-43c-8 0 -15 2 -15 10c0 3 1 7 4 13l72 144c2 4 3 6 3 8c0 3 -2 5 -5 8c-37 31 -60 73 -60 122z" />
    <glyph glyph-name="afii10108" unicode="&#x45b;" horiz-adv-x="495" 
d="M158 497v-81c0 -10 9 -12 15 -6c29 21 56 33 93 33c99 0 165 -67 165 -166v-267c0 -7 -3 -10 -9 -10h-62c-7 0 -9 3 -9 9v267c0 57 -40 98 -96 98c-58 0 -96 -41 -96 -97v-267c0 -7 -3 -10 -10 -10h-60c-6 0 -10 3 -10 9v488c0 7 -3 10 -11 10h-51c-7 0 -10 3 -10 9v42
c0 7 3 10 8 10h52c8 0 12 5 12 12v48c0 4 2 9 9 9h60c6 0 10 -3 10 -9v-50c0 -7 3 -10 10 -10h171c6 0 10 -3 10 -9v-42c0 -7 -3 -10 -10 -10h-170c-7 0 -11 -2 -11 -10z" />
    <glyph glyph-name="afii10099" unicode="&#x452;" horiz-adv-x="479" 
d="M348 153v125c0 60 -31 96 -94 96c-58 0 -99 -41 -99 -97v-267c0 -7 -3 -10 -10 -10h-60c-6 0 -10 3 -10 9v488c0 7 -3 10 -11 10h-51c-7 0 -10 3 -10 9v42c0 7 3 10 8 10h52c8 0 12 5 12 12v48c0 4 2 9 9 9h60c6 0 10 -3 10 -9v-50c0 -7 3 -10 10 -10h164
c6 0 10 -3 10 -9v-42c0 -7 -3 -10 -10 -10h-163c-7 0 -11 -2 -11 -10v-81c0 -10 9 -12 15 -6c29 21 61 33 98 33c107 0 160 -65 160 -159v-117c0 -78 -11 -189 -161 -202c-13 -1 -27 -1 -28 13l-4 41c-1 12 10 13 19 14c95 9 95 88 95 120z" />
    <glyph glyph-name="afii10086" unicode="&#x444;" horiz-adv-x="517" 
d="M472 167c0 -97 -62 -161 -160 -172c-4 -4 -21 -1 -21 -21v-145c0 -7 -3 -10 -10 -10h-52c-7 0 -9 3 -9 9v143c0 24 -13 24 -19 25c-97 10 -156 75 -156 170v108c0 92 63 162 163 172c4 0 11 2 11 15v167c0 7 3 10 10 10h52c10 0 11 -1 10 -10v-165c0 -14 12 -16 18 -17
c97 -10 163 -74 163 -172v-107zM392 166v108c0 54 -34 89 -83 97c-6 1 -18 0 -18 -13v-277c0 -17 11 -14 17 -13c53 11 84 45 84 98zM125 166c0 -56 31 -92 77 -98c5 -1 17 -4 17 13v274c0 19 -10 16 -15 15c-45 -7 -79 -43 -79 -96v-108z" />
    <glyph glyph-name="afii10066" unicode="&#x431;" horiz-adv-x="448" 
d="M400 257v-94c0 -108 -70 -169 -178 -169c-112 0 -174 60 -174 168v157c0 123 28 247 212 295c44 11 64 19 92 27c11 3 17 2 19 -8l11 -45c3 -12 -9 -15 -16 -17c-26 -7 -58 -17 -90 -25c-91 -24 -138 -68 -146 -151c0 -5 3 -6 7 -4c30 21 65 33 102 33
c102 0 161 -66 161 -167zM319 162v95c0 57 -37 98 -95 98s-96 -40 -96 -98v-95c0 -57 31 -99 93 -99c58 0 98 41 98 99z" />
    <glyph glyph-name="space" unicode=" " horiz-adv-x="210" 
 />
    <glyph glyph-name="Circumflex" unicode="&#xf6c0;" horiz-adv-x="450" 
d="M92 675l96 99c6 6 11 9 22 9h32c11 0 16 -3 22 -9l96 -99c6 -5 8 -11 -1 -17l-14 -10c-9 -7 -15 -4 -22 1l-88 61c-5 5 -9 5 -15 0l-91 -61c-8 -5 -13 -8 -22 -1l-14 10c-9 6 -7 12 -1 17z" />
    <glyph glyph-name="commaaccent" unicode="&#xf6c3;" horiz-adv-x="470" 
d="M287 -59l-47 -158c-3 -8 -8 -12 -15 -12h-27c-9 0 -12 9 -11 17l10 157c1 9 6 16 15 16h62c13 0 17 -7 13 -20z" />
    <glyph glyph-name="Acute" unicode="&#xf6c9;" horiz-adv-x="450" 
d="M367 715l-132 -69c-6 -3 -16 -3 -21 4l-13 18c-5 7 -4 13 3 18l116 92c6 5 16 8 22 1l30 -44c8 -11 1 -17 -5 -20z" />
    <glyph glyph-name="Caron" unicode="&#xf6ca;" horiz-adv-x="430" 
d="M89 752c-6 5 -8 11 1 17l14 10c9 7 14 4 22 -1l91 -61c6 -5 10 -5 15 0l88 61c7 5 13 8 22 1l14 -10c9 -6 7 -12 1 -17l-96 -99c-6 -6 -11 -9 -22 -9h-32c-11 0 -16 3 -22 9z" />
    <glyph glyph-name="Dieresis" unicode="&#xf6cb;" horiz-adv-x="430" 
d="M353 700c0 -26 -20 -47 -46 -47c-27 0 -48 21 -48 47s21 47 47 47s47 -21 47 -47zM191 700c0 -26 -21 -47 -47 -47s-47 21 -47 47s21 47 47 47s47 -21 47 -47z" />
    <glyph glyph-name="DieresisAcute" unicode="&#xf6cc;" horiz-adv-x="454" 
d="M437 708c0 -26 -21 -47 -47 -47c-27 0 -48 21 -48 47s21 47 48 47c25 0 47 -21 47 -47zM195 708c0 -26 -21 -47 -47 -47s-47 21 -47 47s21 47 47 47s47 -21 47 -47zM344 754l-99 -111c-4 -5 -13 -9 -21 -4l-19 12c-7 5 -7 11 -3 18l75 127c4 7 13 14 20 9l44 -29
c11 -8 7 -17 3 -22z" />
    <glyph glyph-name="DieresisGrave" unicode="&#xf6cd;" horiz-adv-x="548" 
d="M104 710c0 26 22 47 47 47c27 0 48 -21 48 -47s-21 -47 -48 -47c-26 0 -47 21 -47 47zM346 710c0 26 21 47 47 47s47 -21 47 -47s-21 -47 -47 -47s-47 21 -47 47zM296 645l-99 111c-4 5 -8 14 3 22l44 29c7 5 16 -2 20 -9l75 -127c4 -7 4 -13 -3 -18l-19 -12
c-8 -5 -17 -1 -21 4z" />
    <glyph glyph-name="Grave" unicode="&#xf6ce;" horiz-adv-x="450" 
d="M214 643l-132 69c-6 3 -13 9 -5 20l30 44c6 7 16 4 22 -1l116 -92c7 -5 8 -11 3 -18l-13 -18c-5 -7 -15 -7 -21 -4z" />
    <glyph glyph-name="Hungarumlaut" unicode="&#xf6cf;" horiz-adv-x="488" 
d="M435 710l-132 -69c-6 -3 -16 -3 -21 4l-13 18c-5 7 -4 13 3 18l116 92c6 5 16 8 22 1l30 -44c8 -11 1 -17 -5 -20zM283 710l-132 -69c-6 -3 -16 -3 -21 4l-13 18c-5 7 -4 13 3 18l116 92c6 5 16 8 22 1l30 -44c8 -11 1 -17 -5 -20z" />
    <glyph glyph-name="Macron" unicode="&#xf6d0;" horiz-adv-x="450" 
d="M343 683c0 -6 -3 -10 -9 -10h-213c-7 0 -10 3 -10 10v41c0 7 3 10 9 10h213c6 0 10 -3 10 -9v-42z" />
    <glyph glyph-name="cyrBreve" unicode="&#xf6d1;" horiz-adv-x="450" 
d="M112 767c0 7 2 11 12 11h21c11 0 11 -4 14 -13c12 -38 31 -59 69 -59c37 0 59 20 69 59c2 9 2 13 14 13h21c10 0 12 -4 12 -11c-3 -67 -48 -122 -117 -122c-64 0 -112 55 -115 122z" />
    <glyph glyph-name="cyrbreve" unicode="&#xf6d4;" horiz-adv-x="438" 
d="M111 614c0 7 2 11 12 11h21c11 0 11 -4 14 -13c12 -38 31 -59 69 -59c37 0 59 20 69 59c2 9 2 13 14 13h21c10 0 12 -4 12 -11c-3 -67 -48 -122 -117 -122c-64 0 -112 55 -115 122z" />
    <glyph glyph-name="ring" unicode="&#x2da;" horiz-adv-x="438" 
d="M314 563c0 -46 -38 -85 -86 -85c-47 0 -86 37 -86 83s38 86 86 86c47 0 86 -37 86 -84zM271 562c0 23 -20 44 -43 44s-41 -20 -41 -44s18 -43 41 -43s43 19 43 43z" />
    <glyph glyph-name="Ccedilla" unicode="&#xc7;" horiz-adv-x="430" 
d="M350 -126c0 -38 -35 -77 -92 -77c-35 0 -57 8 -79 22c-4 3 -7 8 -1 15l16 21c5 5 7 6 12 3c14 -8 29 -16 50 -16c27 0 42 13 42 31c0 10 -3 33 -38 33h-27c-25 0 -34 17 -29 37c5 22 9 37 14 53c-93 9 -160 67 -160 167v292c0 105 76 170 182 170c62 0 120 -15 170 -74
c6 -8 7 -13 -3 -22l-38 -32c-5 -5 -16 -3 -21 4c-24 30 -66 51 -107 51c-63 0 -99 -40 -99 -97v-291c0 -56 40 -97 104 -97c41 0 79 25 102 48c7 8 13 15 23 7l40 -33c4 -3 5 -11 2 -16c-36 -47 -90 -73 -148 -78l-9 -34c-3 -9 1 -11 7 -11h11c46 0 76 -30 76 -76z" />
    <glyph glyph-name="Oslashacute" unicode="&#x1fe;" horiz-adv-x="497" 
d="M124 21l-13 -24c-4 -6 -8 -9 -14 -5l-32 17c-5 3 -6 6 -2 14l19 35c2 5 2 11 1 13c-15 23 -25 58 -25 94v290c0 106 84 170 190 170c43 0 82 -10 113 -28c3 -2 8 -1 11 2c4 8 11 18 15 26c4 6 7 7 14 4c10 -5 21 -12 31 -16c7 -4 8 -7 4 -13c-7 -14 -16 -28 -23 -42
c-3 -5 -1 -9 0 -11c15 -24 26 -58 26 -92v-290c0 -108 -81 -171 -190 -171c-46 0 -84 8 -114 28c-2 2 -8 5 -11 -1zM355 167v279c0 2 -1 3 -1 2l-185 -344c-2 -3 -1 -8 1 -11c18 -16 46 -26 78 -26c66 0 107 40 107 100zM142 453v-275c0 -3 1 -7 4 -2l179 333
c3 5 5 12 -1 17c-18 16 -45 26 -75 26c-65 0 -107 -43 -107 -99zM374 722l-132 -69c-6 -3 -16 -3 -21 4l-13 18c-5 7 -4 13 3 18l116 92c6 5 16 8 22 1l30 -44c8 -11 1 -17 -5 -20z" />
    <glyph glyph-name="oslashacute" unicode="&#x1ff;" horiz-adv-x="448" 
d="M98 25l-15 -20c-3 -4 -5 -6 -10 -2l-24 18c-3 3 -3 5 0 9l22 29c3 4 1 7 0 9c-15 25 -23 56 -23 94v115c0 102 66 168 175 168c44 0 83 -12 113 -33c2 -1 6 -4 10 1l18 22c3 3 5 5 10 1l23 -19c3 -3 5 -6 2 -10l-23 -28c-4 -5 -2 -7 -1 -9c16 -25 25 -56 25 -93v-114
c0 -108 -68 -169 -176 -169c-47 0 -86 12 -115 33c-2 1 -6 4 -11 -2zM320 162v115c0 6 0 15 -2 20c-1 3 -3 4 -5 2l-154 -197c-4 -6 -4 -10 0 -16c14 -18 38 -23 64 -23c66 0 96 41 97 99zM128 162c0 -5 0 -11 1 -16c1 -4 3 -8 6 -4l153 198c6 8 0 12 -1 13
c-17 13 -38 22 -63 22c-58 0 -96 -40 -96 -98v-115zM332 601l-99 -111c-4 -5 -13 -9 -21 -4l-19 12c-7 5 -7 11 -3 18l75 127c4 7 9 16 20 9l44 -29c11 -8 7 -17 3 -22z" />
    <glyph glyph-name="Alphatonos" unicode="&#x386;" horiz-adv-x="457" 
d="M427 0h-61c-8 0 -13 2 -14 7l-33 130c-1 2 -1 4 -4 4h-177c-5 0 -5 -2 -6 -3l-32 -131c-1 -5 -6 -7 -13 -7h-54c-11 0 -16 3 -13 15l148 590c1 6 5 12 16 12h85c9 0 13 -2 15 -10l152 -590c2 -7 3 -17 -9 -17zM223 525l-27 -123l-45 -184c-1 -6 -1 -8 5 -8h138
c7 0 7 2 6 8l-44 180l-28 126c-1 4 -4 4 -5 1zM92 564l-99 -111c-4 -5 -13 -9 -21 -4l-19 12c-7 5 -7 11 -3 18l75 127c4 7 13 14 20 9l44 -29c11 -8 7 -17 3 -22z" />
    <glyph glyph-name="Epsilontonos" unicode="&#x388;" horiz-adv-x="440" 
d="M410 12c0 -8 -4 -12 -12 -12h-326c-7 0 -12 4 -12 11v595c0 7 4 11 12 11h322c7 0 13 -4 13 -11v-49c0 -7 -4 -12 -12 -12h-243c-5 0 -8 -2 -8 -8v-171c0 -6 2 -8 7 -8h201c8 0 12 -4 12 -12v-50c0 -7 -4 -11 -11 -11h-201c-5 0 -8 -3 -8 -9v-194c0 -6 2 -9 7 -9h247
c7 0 12 -4 12 -11v-50zM-4 564l-99 -111c-4 -5 -13 -9 -21 -4l-19 12c-7 5 -7 11 -3 18l75 127c4 7 13 14 20 9l44 -29c11 -8 7 -17 3 -22z" />
    <glyph glyph-name="Etatonos" unicode="&#x389;" horiz-adv-x="627" 
d="M461 12c0 -8 -4 -12 -12 -12h-61c-8 0 -12 4 -12 11v263c0 6 -2 9 -8 9h-213c-6 0 -8 -3 -8 -9v-262c0 -8 -4 -12 -11 -12h-61c-8 0 -12 4 -12 11v595c0 7 2 11 11 11h61c8 0 12 -4 12 -10v-243c0 -6 2 -9 8 -9h213c6 0 8 3 8 9v242c0 7 4 11 11 11h61c8 0 13 -4 13 -10
v-595zM-4 564l-99 -111c-4 -5 -13 -9 -21 -4l-19 12c-7 5 -7 11 -3 18l75 127c4 7 13 14 20 9l44 -29c11 -8 7 -17 3 -22z" />
    <glyph glyph-name="Iotatonos" unicode="&#x38a;" horiz-adv-x="241" 
d="M162 12c0 -8 -4 -12 -12 -12h-62c-7 0 -12 4 -12 11v595c0 7 4 11 12 11h62c7 0 12 -4 12 -10v-595zM13 564l-99 -111c-4 -5 -13 -9 -21 -4l-19 12c-7 5 -7 11 -3 18l75 127c4 7 13 14 20 9l44 -29c11 -8 7 -17 3 -22z" />
    <glyph glyph-name="Omicrontonos" unicode="&#x38c;" horiz-adv-x="497" 
d="M439 165c0 -108 -81 -171 -190 -171c-108 0 -191 59 -191 171v290c0 106 84 170 190 170c104 0 191 -60 191 -170v-290zM355 167v286c0 57 -43 99 -106 99c-65 0 -107 -43 -107 -99v-286c0 -59 39 -100 106 -100c66 0 107 40 107 100zM18 564l-99 -111
c-4 -5 -13 -9 -21 -4l-19 12c-7 5 -7 11 -3 18l75 127c4 7 13 14 20 9l44 -29c11 -8 7 -17 3 -22z" />
    <glyph glyph-name="Upsilontonos" unicode="&#x38e;" horiz-adv-x="435" 
d="M418 601l-154 -356c-4 -9 -5 -14 -5 -24v-209c0 -8 -4 -12 -12 -12h-60c-8 0 -12 4 -12 11v212c0 7 -1 14 -4 20l-154 357c-4 10 -1 17 10 17h57c11 0 17 -2 21 -11l108 -274c4 -6 6 -6 9 -1c36 90 72 183 107 273c5 10 8 13 23 13h55c14 0 15 -7 11 -16zM-24 564
l-99 -111c-4 -5 -13 -9 -21 -4l-19 12c-7 5 -7 11 -3 18l75 127c4 7 13 14 20 9l44 -29c11 -8 7 -17 3 -22z" />
    <glyph glyph-name="Omegatonos" unicode="&#x38f;" horiz-adv-x="520" 
d="M460 0h-155c-11 0 -13 2 -13 11v64c0 9 1 11 9 12c43 8 73 48 73 94v270c0 55 -34 103 -113 103c-73 0 -115 -47 -115 -103v-269c0 -46 27 -88 72 -95c6 -2 8 -2 8 -12v-63c0 -11 0 -12 -12 -12h-153c-7 0 -12 4 -12 11v50c0 8 5 12 12 12h42c2 0 4 2 1 4
c-37 27 -42 75 -42 124v246c0 108 88 179 198 179c126 0 198 -71 198 -179v-246c0 -49 -14 -94 -47 -124c-1 -2 0 -4 2 -4h46c7 0 12 -4 12 -11v-50c0 -8 -4 -12 -11 -12zM22 564l-99 -111c-4 -5 -13 -9 -21 -4l-19 12c-7 5 -7 11 -3 18l75 127c4 7 13 14 20 9l44 -29
c11 -8 7 -17 3 -22z" />
    <glyph glyph-name="iotadieresistonos" unicode="&#x390;" horiz-adv-x="220" 
d="M148 10c0 -7 -3 -10 -10 -10h-62c-6 0 -10 3 -10 9v419c0 7 3 10 9 10h63c6 0 10 -3 10 -9v-419zM283 555c0 -26 -21 -47 -47 -47c-27 0 -48 21 -48 47s21 47 48 47c25 0 47 -21 47 -47zM41 555c0 -26 -21 -47 -47 -47s-47 21 -47 47s21 47 47 47s47 -21 47 -47zM190 601
l-99 -111c-4 -5 -13 -9 -21 -4l-19 12c-7 5 -7 11 -3 18l75 127c4 7 13 14 20 9l44 -29c11 -8 7 -17 3 -22z" />
    <glyph glyph-name="Alpha" unicode="&#x391;" horiz-adv-x="457" 
d="M427 0h-61c-8 0 -13 2 -14 7l-33 130c-1 2 -1 4 -4 4h-177c-5 0 -5 -2 -6 -3l-32 -131c-1 -5 -6 -7 -13 -7h-54c-11 0 -16 3 -13 15l148 590c1 6 5 12 16 12h85c9 0 13 -2 15 -10l152 -590c2 -7 3 -17 -9 -17zM223 525l-27 -123l-45 -184c-1 -6 -1 -8 5 -8h138
c7 0 7 2 6 8l-44 180l-28 126c-1 4 -4 4 -5 1z" />
    <glyph glyph-name="Beta" unicode="&#x392;" horiz-adv-x="476" 
d="M438 184c0 -108 -69 -184 -179 -184h-193c-8 0 -12 4 -12 11v595c0 7 2 11 11 11h179c108 0 176 -56 176 -161c0 -43 -29 -94 -66 -120c-1 -2 -1 -5 1 -7c54 -28 83 -87 83 -145zM355 181c0 56 -28 113 -109 113h-100c-6 0 -8 -2 -8 -8v-204c0 -6 2 -9 8 -9h111
c61 0 98 44 98 108zM337 458c0 53 -33 87 -94 87h-97c-6 0 -8 -2 -8 -8v-163c0 -6 2 -9 8 -9h98c62 0 93 43 93 93z" />
    <glyph glyph-name="Epsilon" unicode="&#x395;" horiz-adv-x="440" 
d="M410 12c0 -8 -4 -12 -12 -12h-326c-7 0 -12 4 -12 11v595c0 7 4 11 12 11h322c7 0 13 -4 13 -11v-49c0 -7 -4 -12 -12 -12h-243c-5 0 -8 -2 -8 -8v-171c0 -6 2 -8 7 -8h201c8 0 12 -4 12 -12v-50c0 -7 -4 -11 -11 -11h-201c-5 0 -8 -3 -8 -9v-194c0 -6 2 -9 7 -9h247
c7 0 12 -4 12 -11v-50z" />
    <glyph glyph-name="Zeta" unicode="&#x396;" horiz-adv-x="420" 
d="M390 12c0 -8 -4 -12 -12 -12h-325c-13 0 -19 8 -19 16v32c0 9 2 18 7 28l239 457c4 7 2 12 -7 12h-212c-7 0 -12 2 -12 11v50c0 7 4 11 12 11h301c17 0 22 -6 22 -18v-29c0 -13 -8 -32 -13 -41l-231 -444c-4 -7 -3 -12 6 -12h232c6 0 12 -4 12 -11v-50z" />
    <glyph glyph-name="Eta" unicode="&#x397;" horiz-adv-x="627" 
d="M461 12c0 -8 -4 -12 -12 -12h-61c-8 0 -12 4 -12 11v263c0 6 -2 9 -8 9h-213c-6 0 -8 -3 -8 -9v-262c0 -8 -4 -12 -11 -12h-61c-8 0 -12 4 -12 11v595c0 7 2 11 11 11h61c8 0 12 -4 12 -10v-243c0 -6 2 -9 8 -9h213c6 0 8 3 8 9v242c0 7 4 11 11 11h61c8 0 13 -4 13 -10
v-595z" />
    <glyph glyph-name="Iota" unicode="&#x399;" horiz-adv-x="241" 
d="M162 12c0 -8 -4 -12 -12 -12h-62c-7 0 -12 4 -12 11v595c0 7 4 11 12 11h62c7 0 12 -4 12 -10v-595z" />
    <glyph glyph-name="Kappa" unicode="&#x39a;" horiz-adv-x="499" 
d="M380 617h65c13 0 15 -7 10 -14l-185 -227c-5 -6 -1 -10 5 -10c10 0 19 1 28 0c91 -7 134 -67 141 -165l15 -191c0 -7 -3 -10 -10 -10h-58c-7 0 -11 3 -11 9l-12 180c-3 44 -15 113 -105 113c-76 0 -115 -49 -115 -119v-173c0 -7 -3 -10 -9 -10h-65c-8 0 -11 3 -11 9v598
c0 7 3 10 11 10h65c6 0 9 -3 9 -9v-248c0 -12 7 -8 11 -4l207 254c4 5 8 7 14 7z" />
    <glyph glyph-name="Mu" unicode="&#x39c;" horiz-adv-x="627" 
d="M577 12c0 -8 -4 -12 -11 -12h-57c-9 0 -11 4 -11 11v388c0 3 -3 3 -4 1l-42 -117l-97 -249c-2 -4 -7 -14 -19 -14h-39c-10 0 -16 2 -20 13l-92 242l-43 122c-1 1 -3 2 -3 0v-385c0 -8 -2 -12 -11 -12h-56c-7 0 -12 4 -12 11v587c0 12 6 19 18 19h39c18 0 19 -2 25 -15
l134 -358l38 -110c3 -5 7 -4 9 -1c13 36 26 77 39 113l133 357c6 11 11 14 24 14h40c14 0 18 -7 18 -18v-587z" />
    <glyph glyph-name="Nu" unicode="&#x39d;" horiz-adv-x="519" 
d="M82 617h36c16 0 21 -7 27 -16l233 -429c1 -2 3 -3 3 -1v435c0 7 2 11 11 11h56c8 0 12 -4 12 -10v-587c0 -17 -11 -20 -19 -20h-38c-15 0 -21 5 -26 15l-233 428c-1 1 -3 2 -3 0v-431c0 -8 -2 -12 -11 -12h-57c-8 0 -12 4 -12 11v581c0 17 2 25 21 25z" />
    <glyph glyph-name="Omicron" unicode="&#x39f;" horiz-adv-x="497" 
d="M439 165c0 -108 -81 -171 -190 -171c-108 0 -191 59 -191 171v290c0 106 84 170 190 170c104 0 191 -60 191 -170v-290zM355 167v286c0 57 -43 99 -106 99c-65 0 -107 -43 -107 -99v-286c0 -59 39 -100 106 -100c66 0 107 40 107 100z" />
    <glyph glyph-name="Rho" unicode="&#x3a1;" horiz-adv-x="458" 
d="M434 434c0 -99 -79 -180 -186 -180h-92c-6 0 -8 -3 -8 -9v-233c0 -8 -4 -12 -12 -12h-60c-7 0 -12 4 -12 11v595c0 7 4 11 12 11h171c117 0 187 -79 187 -183zM247 545h-91c-6 0 -9 -2 -9 -8v-203c0 -6 2 -9 8 -9h92c62 0 104 43 104 110c0 52 -34 110 -104 110z" />
    <glyph glyph-name="Tau" unicode="&#x3a4;" horiz-adv-x="417" 
d="M402 556c0 -7 -4 -11 -12 -11h-132c-6 0 -9 -2 -9 -8v-525c0 -8 -2 -12 -11 -12h-61c-8 0 -12 4 -12 11v525c0 6 -2 9 -8 9h-130c-8 0 -12 2 -12 11v50c0 7 4 11 12 11h363c8 0 12 -4 12 -10v-51z" />
    <glyph glyph-name="Upsilon" unicode="&#x3a5;" horiz-adv-x="435" 
d="M418 601l-154 -356c-4 -9 -5 -14 -5 -24v-209c0 -8 -4 -12 -12 -12h-60c-8 0 -12 4 -12 11v212c0 7 -1 14 -4 20l-154 357c-4 10 -1 17 10 17h57c11 0 17 -2 21 -11l108 -274c4 -6 6 -6 9 -1c36 90 72 183 107 273c5 10 8 13 23 13h55c14 0 15 -7 11 -16z" />
    <glyph glyph-name="Iotadieresis" unicode="&#x3aa;" horiz-adv-x="241" 
d="M162 12c0 -8 -4 -12 -12 -12h-62c-7 0 -12 4 -12 11v595c0 7 4 11 12 11h62c7 0 12 -4 12 -10v-595zM247 700c0 -26 -20 -47 -46 -47c-27 0 -48 21 -48 47s21 47 47 47s47 -21 47 -47zM85 700c0 -26 -21 -47 -47 -47s-47 21 -47 47s21 47 47 47s47 -21 47 -47z" />
    <glyph glyph-name="Upsilondieresis" unicode="&#x3ab;" horiz-adv-x="435" 
d="M418 601l-154 -356c-4 -9 -5 -14 -5 -24v-209c0 -8 -4 -12 -12 -12h-60c-8 0 -12 4 -12 11v212c0 7 -1 14 -4 20l-154 357c-4 10 -1 17 10 17h57c11 0 17 -2 21 -11l108 -274c4 -6 6 -6 9 -1c36 90 72 183 107 273c5 10 8 13 23 13h55c14 0 15 -7 11 -16zM345 700
c0 -26 -20 -47 -46 -47c-27 0 -48 21 -48 47s21 47 47 47s47 -21 47 -47zM183 700c0 -26 -21 -47 -47 -47s-47 21 -47 47s21 47 47 47s47 -21 47 -47z" />
    <glyph glyph-name="alphatonos" unicode="&#x3ac;" horiz-adv-x="453" 
d="M401 10c0 -7 -3 -10 -10 -10h-61c-7 0 -9 3 -9 9v10c0 9 -6 13 -16 5c-17 -15 -53 -27 -88 -27c-103 0 -169 58 -169 159v124c0 96 74 163 168 163c50 0 78 -18 94 -31c7 -6 16 -6 16 2v14c0 8 2 10 9 10h56c6 0 10 -2 10 -9v-419zM320 156l1 124c0 53 -41 94 -96 94
c-64 0 -97 -42 -97 -94v-124c0 -52 33 -96 97 -96c54 0 95 43 95 96zM332 601l-99 -111c-4 -5 -13 -9 -21 -4l-19 12c-7 5 -7 11 -3 18l75 127c4 7 13 14 20 9l44 -29c11 -8 7 -17 3 -22z" />
    <glyph glyph-name="epsilontonos" unicode="&#x3ad;" horiz-adv-x="382" 
d="M204 444c59 0 118 -18 155 -74c5 -8 7 -14 0 -19l-41 -29c-10 -7 -16 -3 -23 6c-23 32 -59 47 -93 47c-29 0 -79 -16 -79 -63c0 -38 33 -50 65 -50h70c6 0 9 -3 9 -9v-48c0 -6 -2 -8 -9 -8h-72c-32 0 -66 -19 -66 -59c0 -54 50 -75 83 -75c38 0 79 23 96 46
c7 9 14 16 23 8l36 -29c11 -9 13 -14 8 -21c-38 -52 -101 -73 -163 -73c-96 0 -165 48 -165 142c0 27 18 67 54 84c5 2 6 9 0 11c-37 11 -52 46 -52 73c0 86 74 140 164 140zM298 601l-99 -111c-4 -5 -13 -9 -21 -4l-19 12c-7 5 -7 11 -3 18l75 127c4 7 13 14 20 9l44 -29
c11 -8 7 -17 3 -22z" />
    <glyph glyph-name="etatonos" unicode="&#x3ae;" horiz-adv-x="462" 
d="M408 10c0 -7 -3 -10 -9 -10h-62c-7 0 -9 3 -9 9v267c0 57 -32 99 -96 99c-58 0 -96 -41 -96 -98v-267c0 -7 -3 -10 -10 -10h-61c-6 0 -10 3 -10 9v419c0 7 3 10 9 10h58c7 0 9 -2 9 -9v-15c0 -6 3 -9 7 -9c3 0 5 2 8 4c29 24 62 35 100 35c100 0 162 -66 162 -167v-267z
M311 601l-99 -111c-4 -5 -13 -9 -21 -4l-19 12c-7 5 -7 11 -3 18l75 127c4 7 13 14 20 9l44 -29c11 -8 7 -17 3 -22z" />
    <glyph glyph-name="iotatonos" unicode="&#x3af;" horiz-adv-x="213" 
d="M148 10c0 -7 -3 -10 -10 -10h-62c-6 0 -10 3 -10 9v419c0 7 3 10 9 10h63c6 0 10 -3 10 -9v-419zM222 601l-99 -111c-4 -5 -13 -9 -21 -4l-19 12c-7 5 -7 11 -3 18l75 127c4 7 13 14 20 9l44 -29c11 -8 7 -17 3 -22z" />
    <glyph glyph-name="upsilondieresistonos" unicode="&#x3b0;" horiz-adv-x="454" 
d="M406 155c0 -98 -70 -165 -177 -165s-176 65 -176 165v273c0 7 3 10 10 10h60c7 0 10 -3 10 -10v-273c0 -52 36 -97 96 -97c61 0 96 44 96 97v273c0 7 3 10 10 10h62c6 0 9 -3 9 -10v-273zM398 555c0 -26 -21 -47 -47 -47c-27 0 -48 21 -48 47s21 47 48 47
c25 0 47 -21 47 -47zM156 555c0 -26 -21 -47 -47 -47s-47 21 -47 47s21 47 47 47s47 -21 47 -47zM305 601l-99 -111c-4 -5 -13 -9 -21 -4l-19 12c-7 5 -7 11 -3 18l75 127c4 7 13 14 20 9l44 -29c11 -8 7 -17 3 -22z" />
    <glyph glyph-name="chi" unicode="&#x3c7;" horiz-adv-x="387" 
d="M247 217l128 -203c5 -7 4 -14 -7 -14h-61c-9 0 -16 1 -23 12l-85 145c-5 9 -10 2 -12 -1l-84 -144c-7 -11 -14 -12 -23 -12h-60c-11 0 -12 7 -7 14l125 199c9 14 6 20 1 29l-113 181c-5 8 -2 15 8 15h58c13 0 16 0 23 -11l74 -127c5 -8 8 -5 11 1l73 126
c7 11 10 11 23 11h58c10 0 13 -7 8 -15l-115 -182c-8 -13 -3 -19 0 -24z" />
    <glyph glyph-name="iotadieresis" unicode="&#x3ca;" horiz-adv-x="213" 
d="M148 10c0 -7 -3 -10 -10 -10h-62c-6 0 -10 3 -10 9v419c0 7 3 10 9 10h63c6 0 10 -3 10 -9v-419zM237 545c0 -26 -20 -47 -46 -47c-27 0 -48 21 -48 47s21 47 47 47s47 -21 47 -47zM75 545c0 -26 -21 -47 -47 -47s-47 21 -47 47s21 47 47 47s47 -21 47 -47z" />
    <glyph glyph-name="upsilondieresis" unicode="&#x3cb;" horiz-adv-x="454" 
d="M363 545c0 -26 -20 -47 -46 -47c-27 0 -48 21 -48 47s21 47 47 47s47 -21 47 -47zM201 545c0 -26 -21 -47 -47 -47s-47 21 -47 47s21 47 47 47s47 -21 47 -47zM406 155c0 -98 -70 -165 -177 -165s-176 65 -176 165v273c0 7 3 10 10 10h60c7 0 10 -3 10 -10v-273
c0 -52 36 -97 96 -97c61 0 96 44 96 97v273c0 7 3 10 10 10h62c6 0 9 -3 9 -10v-273z" />
    <glyph glyph-name="omicrontonos" unicode="&#x3cc;" horiz-adv-x="448" 
d="M400 163c0 -108 -68 -169 -176 -169c-110 0 -176 60 -176 168v115c0 102 62 168 175 168c112 0 177 -62 177 -168v-114zM320 162v115c0 57 -31 98 -96 98c-58 0 -96 -40 -96 -98v-115c0 -57 27 -99 95 -99c67 0 96 41 97 99zM333 601l-99 -111c-4 -5 -13 -9 -21 -4
l-19 12c-7 5 -7 11 -3 18l75 127c4 7 13 14 20 9l44 -29c11 -8 7 -17 3 -22z" />
    <glyph glyph-name="upsilontonos" unicode="&#x3cd;" horiz-adv-x="454" 
d="M406 155c0 -98 -70 -165 -177 -165s-176 65 -176 165v273c0 7 3 10 10 10h60c7 0 10 -3 10 -10v-273c0 -52 36 -97 96 -97c61 0 96 44 96 97v273c0 7 3 10 10 10h62c6 0 9 -3 9 -10v-273zM338 601l-99 -111c-4 -5 -13 -9 -21 -4l-19 12c-7 5 -7 11 -3 18l75 127
c4 7 13 14 20 9l44 -29c11 -8 7 -17 3 -22z" />
    <glyph glyph-name="omegatonos" unicode="&#x3ce;" horiz-adv-x="632" 
d="M583 281v-120c0 -105 -62 -167 -153 -167c-66 0 -95 29 -114 65c-23 -36 -60 -65 -119 -65c-89 0 -148 61 -148 155v133c0 96 68 163 165 163c8 0 15 0 15 -10v-51c0 -6 -3 -9 -9 -9c-53 -3 -92 -44 -92 -94v-116c0 -62 30 -102 75 -102c48 0 73 44 73 95v155
c-1 6 2 9 9 9h61c7 0 10 -3 10 -8v-156c0 -51 25 -94 74 -94c45 0 75 35 75 80v137c0 50 -42 92 -92 94c-6 0 -10 2 -10 9v51c0 10 7 10 14 10c98 0 166 -68 166 -164zM414 601l-99 -111c-4 -5 -13 -9 -21 -4l-19 12c-7 5 -7 11 -3 18l75 127c4 7 13 14 20 9l44 -29
c11 -8 7 -17 3 -22z" />
    <glyph glyph-name="afii10023" unicode="&#x401;" horiz-adv-x="440" 
d="M410 12c0 -8 -4 -12 -12 -12h-326c-7 0 -12 4 -12 11v595c0 7 4 11 12 11h322c7 0 13 -4 13 -11v-49c0 -7 -4 -12 -12 -12h-243c-5 0 -8 -2 -8 -8v-171c0 -6 2 -8 7 -8h201c8 0 12 -4 12 -12v-50c0 -7 -4 -11 -11 -11h-201c-5 0 -8 -3 -8 -9v-194c0 -6 2 -9 7 -9h247
c7 0 12 -4 12 -11v-50zM359 700c0 -26 -20 -47 -46 -47c-27 0 -48 21 -48 47s21 47 47 47s47 -21 47 -47zM197 700c0 -26 -21 -47 -47 -47s-47 21 -47 47s21 47 47 47s47 -21 47 -47z" />
    <glyph glyph-name="afii10052" unicode="&#x403;" horiz-adv-x="426" 
d="M418 556c0 -7 -4 -11 -12 -11h-234c-6 0 -8 -2 -8 -8v-525c0 -8 -3 -12 -11 -12h-61c-7 0 -12 4 -12 11v595c0 7 4 11 12 11h314c7 0 12 -4 12 -10v-51zM330 715l-132 -69c-6 -3 -16 -3 -21 4l-13 18c-5 7 -4 13 3 18l116 92c6 5 16 8 22 1l30 -44c8 -11 1 -17 -5 -20z
" />
    <glyph glyph-name="afii10054" unicode="&#x405;" horiz-adv-x="453" 
d="M207 68c76 0 129 35 129 102s-61 89 -115 108c-78 27 -181 64 -181 177c0 107 80 170 181 170c48 0 112 -8 169 -50c12 -9 4 -17 1 -22l-24 -38c-6 -9 -17 -6 -25 -1c-45 26 -78 37 -112 37c-58 0 -107 -24 -107 -98c0 -54 62 -78 118 -99c89 -34 178 -64 178 -183
c0 -108 -87 -176 -211 -176c-76 0 -147 27 -183 77c-6 7 -6 12 4 20l37 34c8 6 13 2 22 -7c31 -33 74 -51 119 -51z" />
    <glyph glyph-name="afii10055" unicode="&#x406;" horiz-adv-x="241" 
d="M162 12c0 -8 -4 -12 -12 -12h-62c-7 0 -12 4 -12 11v595c0 7 4 11 12 11h62c7 0 12 -4 12 -10v-595z" />
    <glyph glyph-name="afii10056" unicode="&#x407;" horiz-adv-x="241" 
d="M162 12c0 -8 -4 -12 -12 -12h-62c-7 0 -12 4 -12 11v595c0 7 4 11 12 11h62c7 0 12 -4 12 -10v-595zM247 700c0 -26 -20 -47 -46 -47c-27 0 -48 21 -48 47s21 47 47 47s47 -21 47 -47zM85 700c0 -26 -21 -47 -47 -47s-47 21 -47 47s21 47 47 47s47 -21 47 -47z" />
    <glyph glyph-name="afii10057" unicode="&#x408;" horiz-adv-x="269" 
d="M3 -103l-13 40c-3 10 -5 17 10 22c73 29 123 57 123 163v482c0 9 6 13 15 13h52c10 0 15 -6 15 -13v-474c0 -125 -40 -208 -182 -247c-10 -3 -16 0 -20 14z" />
    <glyph glyph-name="afii10017" unicode="&#x410;" horiz-adv-x="457" 
d="M427 0h-61c-8 0 -13 2 -14 7l-33 130c-1 2 -1 4 -4 4h-177c-5 0 -5 -2 -6 -3l-32 -131c-1 -5 -6 -7 -13 -7h-54c-11 0 -16 3 -13 15l148 590c1 6 5 12 16 12h85c9 0 13 -2 15 -10l152 -590c2 -7 3 -17 -9 -17zM223 525l-27 -123l-45 -184c-1 -6 -1 -8 5 -8h138
c7 0 7 2 6 8l-44 180l-28 126c-1 4 -4 4 -5 1z" />
    <glyph glyph-name="afii10019" unicode="&#x412;" horiz-adv-x="476" 
d="M438 184c0 -108 -69 -184 -179 -184h-193c-8 0 -12 4 -12 11v595c0 7 2 11 11 11h179c108 0 176 -56 176 -161c0 -43 -29 -94 -66 -120c-1 -2 -1 -5 1 -7c54 -28 83 -87 83 -145zM355 181c0 56 -28 113 -109 113h-100c-6 0 -8 -2 -8 -8v-204c0 -6 2 -9 8 -9h111
c61 0 98 44 98 108zM337 458c0 53 -33 87 -94 87h-97c-6 0 -8 -2 -8 -8v-163c0 -6 2 -9 8 -9h98c62 0 93 43 93 93z" />
    <glyph glyph-name="afii10020" unicode="&#x413;" horiz-adv-x="426" 
d="M418 556c0 -7 -4 -11 -12 -11h-234c-6 0 -8 -2 -8 -8v-525c0 -8 -3 -12 -11 -12h-61c-7 0 -12 4 -12 11v595c0 7 4 11 12 11h314c7 0 12 -4 12 -10v-51z" />
    <glyph glyph-name="afii10022" unicode="&#x415;" horiz-adv-x="440" 
d="M410 12c0 -8 -4 -12 -12 -12h-326c-7 0 -12 4 -12 11v595c0 7 4 11 12 11h322c7 0 13 -4 13 -11v-49c0 -7 -4 -12 -12 -12h-243c-5 0 -8 -2 -8 -8v-171c0 -6 2 -8 7 -8h201c8 0 12 -4 12 -12v-50c0 -7 -4 -11 -11 -11h-201c-5 0 -8 -3 -8 -9v-194c0 -6 2 -9 7 -9h247
c7 0 12 -4 12 -11v-50z" />
    <glyph glyph-name="afii10030" unicode="&#x41c;" horiz-adv-x="627" 
d="M577 12c0 -8 -4 -12 -11 -12h-57c-9 0 -11 4 -11 11v388c0 3 -3 3 -4 1l-42 -117l-97 -249c-2 -4 -7 -14 -19 -14h-39c-10 0 -16 2 -20 13l-92 242l-43 122c-1 1 -3 2 -3 0v-385c0 -8 -2 -12 -11 -12h-56c-7 0 -12 4 -12 11v587c0 12 6 19 18 19h39c18 0 19 -2 25 -15
l134 -358l38 -110c3 -5 7 -4 9 -1c13 36 26 77 39 113l133 357c6 11 11 14 24 14h40c14 0 18 -7 18 -18v-587z" />
    <glyph glyph-name="afii10031" unicode="&#x41d;" horiz-adv-x="627" 
d="M461 12c0 -8 -4 -12 -12 -12h-61c-8 0 -12 4 -12 11v263c0 6 -2 9 -8 9h-213c-6 0 -8 -3 -8 -9v-262c0 -8 -4 -12 -11 -12h-61c-8 0 -12 4 -12 11v595c0 7 2 11 11 11h61c8 0 12 -4 12 -10v-243c0 -6 2 -9 8 -9h213c6 0 8 3 8 9v242c0 7 4 11 11 11h61c8 0 13 -4 13 -10
v-595z" />
    <glyph glyph-name="afii10032" unicode="&#x41e;" horiz-adv-x="497" 
d="M439 165c0 -108 -81 -171 -190 -171c-108 0 -191 59 -191 171v290c0 106 84 170 190 170c104 0 191 -60 191 -170v-290zM355 167v286c0 57 -43 99 -106 99c-65 0 -107 -43 -107 -99v-286c0 -59 39 -100 106 -100c66 0 107 40 107 100z" />
    <glyph glyph-name="afii10033" unicode="&#x41f;" horiz-adv-x="546" 
d="M481 12c0 -8 -4 -12 -12 -12h-61c-9 0 -11 4 -11 11v526c0 6 -3 9 -8 9h-221c-6 0 -8 -3 -8 -9v-525c0 -8 -4 -12 -12 -12h-61c-7 0 -12 4 -12 11v595c0 7 4 11 12 11h382c8 0 12 -4 12 -10v-595z" />
    <glyph glyph-name="afii10034" unicode="&#x420;" horiz-adv-x="458" 
d="M434 434c0 -99 -79 -180 -186 -180h-92c-6 0 -8 -3 -8 -9v-233c0 -8 -4 -12 -12 -12h-60c-7 0 -12 4 -12 11v595c0 7 4 11 12 11h171c117 0 187 -79 187 -183zM247 545h-91c-6 0 -9 -2 -9 -8v-203c0 -6 2 -9 8 -9h92c62 0 104 43 104 110c0 52 -34 110 -104 110z" />
    <glyph glyph-name="afii10035" unicode="&#x421;" horiz-adv-x="430" 
d="M410 551c6 -8 7 -13 -3 -22l-38 -32c-5 -5 -16 -3 -21 4c-24 30 -66 51 -107 51c-63 0 -99 -40 -99 -97v-291c0 -56 40 -97 104 -97c41 0 79 25 102 48c7 8 13 15 23 7l40 -33c4 -3 5 -11 2 -16c-40 -52 -102 -79 -167 -79c-107 0 -188 60 -188 169v292
c0 105 76 170 182 170c62 0 120 -15 170 -74z" />
    <glyph glyph-name="afii10036" unicode="&#x422;" horiz-adv-x="417" 
d="M402 556c0 -7 -4 -11 -12 -11h-132c-6 0 -9 -2 -9 -8v-525c0 -8 -2 -12 -11 -12h-61c-8 0 -12 4 -12 11v525c0 6 -2 9 -8 9h-130c-8 0 -12 2 -12 11v50c0 7 4 11 12 11h363c8 0 12 -4 12 -10v-51z" />
    <glyph glyph-name="afii10039" unicode="&#x425;" horiz-adv-x="451" 
d="M345 11l-111 222c-1 4 -7 7 -10 1l-111 -223c-6 -11 -11 -11 -22 -11h-62c-12 0 -14 6 -9 16l154 294c7 15 2 20 -1 25l-140 268c-5 9 -2 14 11 14h66c12 0 16 -3 20 -11l97 -200c2 -2 6 -2 8 0c33 65 67 134 99 200c4 8 8 11 20 11h60c12 0 14 -6 11 -14
c-47 -90 -97 -182 -143 -272c-3 -8 -3 -15 0 -20c47 -91 108 -204 156 -295c5 -10 3 -16 -9 -16h-62c-11 0 -17 0 -22 11z" />
    <glyph glyph-name="afii10065" unicode="&#x430;" horiz-adv-x="438" 
d="M40 147c0 86 56 153 162 153c31 0 57 -7 79 -19c9 -5 18 -4 18 8v9c0 53 -26 78 -89 78c-25 0 -78 -11 -103 -24c-7 -3 -12 -1 -15 6l-17 44c-2 6 0 11 5 13c36 18 91 30 139 30c123 0 160 -62 160 -159v-276c0 -7 -3 -10 -9 -10h-55c-7 0 -9 4 -9 8v18c0 9 -7 10 -13 4
c-26 -26 -62 -36 -100 -36c-99 0 -153 62 -153 153zM115 149c0 -49 29 -88 90 -88c54 0 89 38 89 88c0 49 -28 88 -90 88c-54 0 -89 -38 -89 -88z" />
    <glyph glyph-name="afii10070" unicode="&#x435;" horiz-adv-x="438" 
d="M399 225c0 -14 -11 -24 -20 -24h-234c-11 0 -18 -8 -18 -18v-19c0 -54 26 -100 96 -100c40 0 73 20 96 51c6 8 12 8 20 3l35 -24c8 -5 11 -10 8 -16c-32 -58 -92 -84 -157 -84c-107 0 -178 65 -178 164v114c0 102 73 173 176 173c106 0 176 -71 176 -173v-47zM223 376
c-55 0 -94 -42 -94 -92v-7c0 -5 3 -12 15 -12h164c7 0 10 3 10 11v9c0 50 -33 91 -95 91z" />
    <glyph glyph-name="afii10076" unicode="&#x43a;" horiz-adv-x="441" 
d="M414 17c0 -12 -3 -17 -14 -17h-53c-11 0 -14 5 -14 14l-5 93c-3 52 -21 96 -94 96c-62 0 -96 -43 -96 -95v-98c0 -7 -3 -10 -10 -10h-61c-6 0 -10 3 -10 9v421c0 6 3 10 9 10h62c7 0 9 -3 9 -9v-157c0 -15 8 -17 15 -10l155 169c4 4 8 5 14 5h74c7 0 11 -4 11 -9
c0 -3 -3 -6 -5 -9l-132 -142c-5 -6 -3 -8 4 -10c13 -1 24 -2 35 -5c75 -18 98 -81 102 -155z" />
    <glyph glyph-name="afii10080" unicode="&#x43e;" horiz-adv-x="448" 
d="M400 163c0 -108 -68 -169 -176 -169c-110 0 -176 60 -176 168v115c0 102 62 168 175 168c112 0 177 -62 177 -168v-114zM320 162v115c0 57 -31 98 -96 98c-58 0 -96 -40 -96 -98v-115c0 -57 27 -99 95 -99c67 0 96 41 97 99z" />
    <glyph glyph-name="afii10081" unicode="&#x43f;" horiz-adv-x="459" 
d="M405 10c0 -7 -3 -10 -9 -10h-61c-7 0 -9 3 -9 9v349c0 7 -4 11 -11 11h-171c-7 0 -10 -3 -10 -10v-349c0 -7 -3 -10 -10 -10h-61c-6 0 -10 3 -10 9v419c0 7 3 10 10 10h332c7 0 10 -3 10 -9v-419z" />
    <glyph glyph-name="afii10082" unicode="&#x440;" horiz-adv-x="454" 
d="M408 161c0 -93 -67 -168 -161 -168c-52 0 -78 15 -95 31c-11 9 -17 2 -17 -6v-189c0 -7 -3 -10 -9 -10h-62c-6 0 -9 3 -9 9v601c0 6 2 9 9 9h55c7 0 10 -2 10 -9v-21c0 -8 8 -7 16 1c17 15 52 34 102 34c96 0 161 -59 161 -164v-118zM327 161v117c0 55 -34 97 -96 97
c-56 0 -96 -42 -96 -96v-118c0 -54 39 -99 96 -99c58 0 96 44 96 99z" />
    <glyph glyph-name="afii10083" unicode="&#x441;" horiz-adv-x="402" 
d="M375 368c5 -7 4 -17 -4 -22l-35 -27c-10 -7 -17 -3 -23 6c-22 33 -57 50 -94 50c-57 0 -94 -40 -94 -95v-124c0 -54 39 -92 97 -92c52 0 79 26 103 57c4 5 9 3 15 -1l33 -24c13 -8 13 -15 8 -22c-40 -60 -99 -80 -158 -80c-107 0 -178 63 -178 165v115
c0 107 75 171 176 170c66 -1 115 -25 154 -76z" />
    <glyph glyph-name="afii10085" unicode="&#x443;" horiz-adv-x="412" 
d="M103 424l84 -337c2 -10 9 -14 14 0l110 333c3 8 7 19 23 19h47c13 0 16 -9 13 -19l-193 -582c-3 -9 -12 -21 -31 -21h-37c-14 0 -20 7 -14 26l47 142c2 7 6 15 -5 15h-10c-13 0 -20 5 -24 20l-110 401c-3 10 -1 18 11 18h53c13 0 19 -7 22 -15z" />
    <glyph glyph-name="afii10087" unicode="&#x445;" horiz-adv-x="387" 
d="M247 217l128 -203c5 -7 4 -14 -7 -14h-61c-9 0 -16 1 -23 12l-85 145c-5 9 -10 2 -12 -1l-84 -144c-7 -11 -14 -12 -23 -12h-60c-11 0 -12 7 -7 14l125 199c9 14 6 20 1 29l-113 181c-5 8 -2 15 8 15h58c13 0 16 0 23 -11l74 -127c5 -8 8 -5 11 1l73 126
c7 11 10 11 23 11h58c10 0 13 -7 8 -15l-115 -182c-8 -13 -3 -19 0 -24z" />
    <glyph glyph-name="afii10071" unicode="&#x451;" horiz-adv-x="438" 
d="M399 225c0 -14 -11 -24 -20 -24h-234c-11 0 -18 -8 -18 -18v-19c0 -54 26 -100 96 -100c40 0 73 20 96 51c6 8 12 8 20 3l35 -24c8 -5 11 -10 8 -16c-32 -58 -92 -84 -157 -84c-107 0 -178 65 -178 164v114c0 102 73 173 176 173c106 0 176 -71 176 -173v-47zM223 376
c-55 0 -94 -42 -94 -92v-7c0 -5 3 -12 15 -12h164c7 0 10 3 10 11v9c0 50 -33 91 -95 91zM349 552c0 -26 -20 -47 -46 -47c-27 0 -48 21 -48 47s21 47 47 47s47 -21 47 -47zM187 552c0 -26 -21 -47 -47 -47s-47 21 -47 47s21 47 47 47s47 -21 47 -47z" />
    <glyph glyph-name="afii10102" unicode="&#x455;" horiz-adv-x="385" 
d="M355 119c0 -67 -57 -124 -158 -124c-71 0 -136 32 -163 98c-2 5 -1 9 4 11l51 23c6 3 10 -1 12 -5c20 -38 57 -62 102 -62c43 0 75 26 75 56c0 32 -24 46 -63 61c-62 24 -169 47 -169 143c0 81 72 122 151 123c55 1 109 -18 147 -59c5 -5 3 -11 -3 -17l-27 -31
c-7 -8 -14 -7 -23 1c-27 24 -62 39 -95 39c-44 0 -72 -19 -72 -50c0 -29 24 -46 62 -60c78 -29 169 -51 169 -147z" />
    <glyph glyph-name="afii10103" unicode="&#x456;" horiz-adv-x="203" 
d="M154 576c0 -27 -23 -50 -51 -50s-50 21 -50 50c0 27 22 49 49 49c29 0 52 -21 52 -49zM61 9v419c0 7 3 10 9 10h62c7 0 10 -3 10 -10v-419c0 -7 -2 -9 -9 -9h-62c-6 0 -10 3 -10 9z" />
    <glyph glyph-name="afii10104" unicode="&#x457;" horiz-adv-x="203" 
d="M61 9v419c0 7 3 10 9 10h62c7 0 10 -3 10 -10v-419c0 -7 -2 -9 -9 -9h-62c-6 0 -10 3 -10 9zM229 545c0 -26 -20 -47 -46 -47c-27 0 -48 21 -48 47s21 47 47 47s47 -21 47 -47zM67 545c0 -26 -21 -47 -47 -47s-47 21 -47 47s21 47 47 47s47 -21 47 -47z" />
    <glyph glyph-name="afii10105" unicode="&#x458;" horiz-adv-x="219" 
d="M166 576c0 -27 -23 -50 -51 -50s-50 21 -50 50c0 27 22 49 49 49c29 0 52 -21 52 -49zM-22 -164l9 49c1 6 6 9 17 7c9 -1 17 -2 24 -2c36 1 48 23 48 62v477c0 6 4 9 10 9h60c7 0 9 -5 9 -9v-486c0 -69 -32 -127 -116 -127c-24 0 -38 1 -50 4c-9 3 -13 6 -11 16z" />
    <glyph glyph-name="afii10109" unicode="&#x45c;" horiz-adv-x="441" 
d="M414 17c0 -12 -3 -17 -14 -17h-53c-11 0 -14 5 -14 14l-5 93c-3 52 -21 96 -94 96c-62 0 -96 -43 -96 -95v-98c0 -7 -3 -10 -10 -10h-61c-6 0 -10 3 -10 9v421c0 6 3 10 9 10h62c7 0 9 -3 9 -9v-157c0 -15 8 -17 15 -10l155 169c4 4 8 5 14 5h74c7 0 11 -4 11 -9
c0 -3 -3 -6 -5 -9l-132 -142c-5 -6 -3 -8 4 -10c13 -1 24 -2 35 -5c75 -18 98 -81 102 -155zM312 601l-99 -111c-4 -5 -13 -9 -21 -4l-19 12c-7 5 -7 11 -3 18l75 127c4 7 9 16 20 9l44 -29c11 -8 7 -17 3 -22z" />
    <glyph glyph-name="afii10110" unicode="&#x45e;" horiz-adv-x="412" 
d="M103 424l84 -337c2 -10 9 -14 14 0l110 333c3 8 7 19 23 19h47c13 0 16 -9 13 -19l-193 -582c-3 -9 -12 -21 -31 -21h-37c-14 0 -20 7 -14 26l47 142c2 7 6 15 -5 15h-10c-13 0 -20 5 -24 20l-110 401c-3 10 -1 18 11 18h53c13 0 19 -7 22 -15zM94 614c0 7 1 11 12 11h21
c11 0 11 -4 14 -13c12 -38 31 -59 69 -59c37 0 59 20 69 59c2 9 2 13 14 13h21c10 0 12 -4 12 -11c-3 -67 -48 -122 -117 -122c-64 0 -112 55 -115 122z" />
    <glyph glyph-name="Scaron" unicode="&#x160;" horiz-adv-x="453" 
d="M207 68c76 0 129 35 129 102s-61 89 -115 108c-78 27 -181 64 -181 177c0 107 80 170 181 170c48 0 112 -8 169 -50c12 -9 4 -17 1 -22l-24 -38c-6 -9 -17 -6 -25 -1c-45 26 -78 37 -112 37c-58 0 -107 -24 -107 -98c0 -54 62 -78 118 -99c89 -34 178 -64 178 -183
c0 -108 -87 -176 -211 -176c-76 0 -147 27 -183 77c-6 7 -6 12 4 20l37 34c8 6 13 2 22 -7c31 -33 74 -51 119 -51zM77 752c-6 5 -8 11 1 17l14 10c9 7 14 4 22 -1l91 -61c6 -5 10 -5 15 0l88 61c7 5 13 8 22 1l14 -10c9 -6 7 -12 1 -17l-96 -99c-6 -6 -11 -9 -22 -9h-32
c-11 0 -16 3 -22 9z" />
    <glyph glyph-name="scaron" unicode="&#x161;" horiz-adv-x="392" 
d="M355 119c0 -67 -57 -124 -158 -124c-71 0 -136 32 -163 98c-2 5 -1 9 4 11l51 23c6 3 10 -1 12 -5c20 -38 57 -62 102 -62c43 0 75 26 75 56c0 32 -24 46 -63 61c-62 24 -169 47 -169 143c0 81 72 122 151 123c55 1 109 -18 147 -59c5 -5 3 -11 -3 -17l-27 -31
c-7 -8 -14 -7 -23 1c-27 24 -62 39 -95 39c-44 0 -72 -19 -72 -50c0 -29 24 -46 62 -60c78 -29 169 -51 169 -147zM331 611l-96 -117c-6 -7 -11 -11 -22 -11h-32c-11 0 -16 4 -22 11l-96 117c-6 7 -8 14 1 21l14 12c9 8 15 5 22 -2l88 -81c5 -5 9 -5 15 1l91 80
c8 7 13 10 22 2l14 -12c9 -7 7 -14 1 -21z" />
    <glyph glyph-name="zcaron" unicode="&#x17e;" horiz-adv-x="402" 
d="M367 10c0 -7 -3 -10 -9 -10h-306c-11 0 -16 7 -16 14v27c0 8 1 18 7 26l194 289c6 8 2 15 -9 15h-172c-7 0 -10 2 -10 9v48c0 7 3 10 9 10h275c15 0 20 -5 20 -17v-28c0 -9 -3 -21 -6 -26l-192 -284c-5 -9 -2 -15 9 -15h196c6 0 10 -3 10 -10v-48zM333 611l-96 -117
c-6 -7 -11 -11 -22 -11h-32c-11 0 -16 4 -22 11l-96 117c-6 7 -8 14 1 21l14 12c9 8 15 5 22 -2l88 -81c5 -5 9 -5 15 1l91 80c8 7 13 10 22 2l14 -12c9 -7 7 -14 1 -21z" />
    <glyph glyph-name="Ydieresis" unicode="&#x178;" horiz-adv-x="435" 
d="M418 601l-154 -356c-4 -9 -5 -14 -5 -24v-209c0 -8 -4 -12 -12 -12h-60c-8 0 -12 4 -12 11v212c0 7 -1 14 -4 20l-154 357c-4 10 -1 17 10 17h57c11 0 17 -2 21 -11l108 -274c4 -6 6 -6 9 -1c36 90 72 183 107 273c5 10 8 13 23 13h55c14 0 15 -7 11 -16zM342 700
c0 -26 -20 -47 -46 -47c-27 0 -48 21 -48 47s21 47 47 47s47 -21 47 -47zM180 700c0 -26 -21 -47 -47 -47s-47 21 -47 47s21 47 47 47s47 -21 47 -47z" />
    <glyph glyph-name="Agrave" unicode="&#xc0;" horiz-adv-x="457" 
d="M427 0h-61c-8 0 -13 2 -14 7l-33 130c-1 2 -1 4 -4 4h-177c-5 0 -5 -2 -6 -3l-32 -131c-1 -5 -6 -7 -13 -7h-54c-11 0 -16 3 -13 15l148 590c1 6 5 12 16 12h85c9 0 13 -2 15 -10l152 -590c2 -7 3 -17 -9 -17zM223 525l-27 -123l-45 -184c-1 -6 -1 -8 5 -8h138
c7 0 7 2 6 8l-44 180l-28 126c-1 4 -4 4 -5 1zM211 643l-132 69c-6 3 -13 9 -5 20l30 44c6 7 16 4 22 -1l116 -92c7 -5 8 -11 3 -18l-13 -18c-5 -7 -15 -7 -21 -4z" />
    <glyph glyph-name="Aacute" unicode="&#xc1;" horiz-adv-x="457" 
d="M427 0h-61c-8 0 -13 2 -14 7l-33 130c-1 2 -1 4 -4 4h-177c-5 0 -5 -2 -6 -3l-32 -131c-1 -5 -6 -7 -13 -7h-54c-11 0 -16 3 -13 15l148 590c1 6 5 12 16 12h85c9 0 13 -2 15 -10l152 -590c2 -7 3 -17 -9 -17zM223 525l-27 -123l-45 -184c-1 -6 -1 -8 5 -8h138
c7 0 7 2 6 8l-44 180l-28 126c-1 4 -4 4 -5 1zM364 715l-132 -69c-6 -3 -16 -3 -21 4l-13 18c-5 7 -4 13 3 18l116 92c6 5 16 8 22 1l30 -44c8 -11 1 -17 -5 -20z" />
    <glyph glyph-name="Acircumflex" unicode="&#xc2;" horiz-adv-x="457" 
d="M427 0h-61c-8 0 -13 2 -14 7l-33 130c-1 2 -1 4 -4 4h-177c-5 0 -5 -2 -6 -3l-32 -131c-1 -5 -6 -7 -13 -7h-54c-11 0 -16 3 -13 15l148 590c1 6 5 12 16 12h85c9 0 13 -2 15 -10l152 -590c2 -7 3 -17 -9 -17zM223 525l-27 -123l-45 -184c-1 -6 -1 -8 5 -8h138
c7 0 7 2 6 8l-44 180l-28 126c-1 4 -4 4 -5 1zM84 675l96 99c6 6 11 9 22 9h32c11 0 16 -3 22 -9l96 -99c6 -5 8 -11 -1 -17l-14 -10c-9 -7 -15 -4 -22 1l-88 61c-5 5 -9 5 -15 0l-91 -61c-8 -5 -13 -8 -22 -1l-14 10c-9 6 -7 12 -1 17z" />
    <glyph glyph-name="Atilde" unicode="&#xc3;" horiz-adv-x="457" 
d="M427 0h-61c-8 0 -13 2 -14 7l-33 130c-1 2 -1 4 -4 4h-177c-5 0 -5 -2 -6 -3l-32 -131c-1 -5 -6 -7 -13 -7h-54c-11 0 -16 3 -13 15l148 590c1 6 5 12 16 12h85c9 0 13 -2 15 -10l152 -590c2 -7 3 -17 -9 -17zM223 525l-27 -123l-45 -184c-1 -6 -1 -8 5 -8h138
c7 0 7 2 6 8l-44 180l-28 126c-1 4 -4 4 -5 1zM353 716c-21 -45 -53 -63 -78 -63c-43 0 -75 35 -109 35c-11 0 -27 -15 -36 -31c-4 -7 -10 -8 -17 -4l-27 16c-6 3 -3 11 -1 16c17 33 45 63 78 63c40 0 78 -37 108 -37c14 0 27 17 36 33c2 4 4 8 11 4l32 -15c6 -2 7 -8 3 -17
z" />
    <glyph glyph-name="Adieresis" unicode="&#xc4;" horiz-adv-x="457" 
d="M427 0h-61c-8 0 -13 2 -14 7l-33 130c-1 2 -1 4 -4 4h-177c-5 0 -5 -2 -6 -3l-32 -131c-1 -5 -6 -7 -13 -7h-54c-11 0 -16 3 -13 15l148 590c1 6 5 12 16 12h85c9 0 13 -2 15 -10l152 -590c2 -7 3 -17 -9 -17zM223 525l-27 -123l-45 -184c-1 -6 -1 -8 5 -8h138
c7 0 7 2 6 8l-44 180l-28 126c-1 4 -4 4 -5 1zM347 700c0 -26 -20 -47 -46 -47c-27 0 -48 21 -48 47s21 47 47 47s47 -21 47 -47zM185 700c0 -26 -21 -47 -47 -47s-47 21 -47 47s21 47 47 47s47 -21 47 -47z" />
    <glyph glyph-name="Aring" unicode="&#xc5;" horiz-adv-x="457" 
d="M427 0h-61c-8 0 -13 2 -14 7l-33 130c-1 2 -1 4 -4 4h-177c-5 0 -5 -2 -6 -3l-32 -131c-1 -5 -6 -7 -13 -7h-54c-11 0 -16 3 -13 15l148 590c1 6 5 12 16 12h85c9 0 13 -2 15 -10l152 -590c2 -7 3 -17 -9 -17zM223 525l-27 -123l-45 -184c-1 -6 -1 -8 5 -8h138
c7 0 7 2 6 8l-44 180l-28 126c-1 4 -4 4 -5 1zM304 720c0 -46 -38 -85 -86 -85c-47 0 -86 37 -86 83s38 86 86 86c47 0 86 -37 86 -84zM261 719c0 23 -20 44 -43 44s-41 -20 -41 -44s18 -43 41 -43s43 19 43 43z" />
    <glyph glyph-name="Egrave" unicode="&#xc8;" horiz-adv-x="440" 
d="M410 12c0 -8 -4 -12 -12 -12h-326c-7 0 -12 4 -12 11v595c0 7 4 11 12 11h322c7 0 13 -4 13 -11v-49c0 -7 -4 -12 -12 -12h-243c-5 0 -8 -2 -8 -8v-171c0 -6 2 -8 7 -8h201c8 0 12 -4 12 -12v-50c0 -7 -4 -11 -11 -11h-201c-5 0 -8 -3 -8 -9v-194c0 -6 2 -9 7 -9h247
c7 0 12 -4 12 -11v-50zM234 643l-132 69c-6 3 -13 9 -5 20l30 44c6 7 16 4 22 -1l116 -92c7 -5 8 -11 3 -18l-13 -18c-5 -7 -15 -7 -21 -4z" />
    <glyph glyph-name="Eacute" unicode="&#xc9;" horiz-adv-x="440" 
d="M410 12c0 -8 -4 -12 -12 -12h-326c-7 0 -12 4 -12 11v595c0 7 4 11 12 11h322c7 0 13 -4 13 -11v-49c0 -7 -4 -12 -12 -12h-243c-5 0 -8 -2 -8 -8v-171c0 -6 2 -8 7 -8h201c8 0 12 -4 12 -12v-50c0 -7 -4 -11 -11 -11h-201c-5 0 -8 -3 -8 -9v-194c0 -6 2 -9 7 -9h247
c7 0 12 -4 12 -11v-50zM337 715l-132 -69c-6 -3 -16 -3 -21 4l-13 18c-5 7 -4 13 3 18l116 92c6 5 16 8 22 1l30 -44c8 -11 1 -17 -5 -20z" />
    <glyph glyph-name="Ecircumflex" unicode="&#xca;" horiz-adv-x="440" 
d="M410 12c0 -8 -4 -12 -12 -12h-326c-7 0 -12 4 -12 11v595c0 7 4 11 12 11h322c7 0 13 -4 13 -11v-49c0 -7 -4 -12 -12 -12h-243c-5 0 -8 -2 -8 -8v-171c0 -6 2 -8 7 -8h201c8 0 12 -4 12 -12v-50c0 -7 -4 -11 -11 -11h-201c-5 0 -8 -3 -8 -9v-194c0 -6 2 -9 7 -9h247
c7 0 12 -4 12 -11v-50zM90 675l96 99c6 6 11 9 22 9h32c11 0 16 -3 22 -9l96 -99c6 -5 8 -11 -1 -17l-14 -10c-9 -7 -15 -4 -22 1l-88 61c-5 5 -9 5 -15 0l-91 -61c-8 -5 -13 -8 -22 -1l-14 10c-9 6 -7 12 -1 17z" />
    <glyph glyph-name="Edieresis" unicode="&#xcb;" horiz-adv-x="440" 
d="M410 12c0 -8 -4 -12 -12 -12h-326c-7 0 -12 4 -12 11v595c0 7 4 11 12 11h322c7 0 13 -4 13 -11v-49c0 -7 -4 -12 -12 -12h-243c-5 0 -8 -2 -8 -8v-171c0 -6 2 -8 7 -8h201c8 0 12 -4 12 -12v-50c0 -7 -4 -11 -11 -11h-201c-5 0 -8 -3 -8 -9v-194c0 -6 2 -9 7 -9h247
c7 0 12 -4 12 -11v-50zM354 700c0 -26 -20 -47 -46 -47c-27 0 -48 21 -48 47s21 47 47 47s47 -21 47 -47zM192 700c0 -26 -21 -47 -47 -47s-47 21 -47 47s21 47 47 47s47 -21 47 -47z" />
    <glyph glyph-name="Igrave" unicode="&#xcc;" horiz-adv-x="241" 
d="M162 12c0 -8 -4 -12 -12 -12h-62c-7 0 -12 4 -12 11v595c0 7 4 11 12 11h62c7 0 12 -4 12 -10v-595zM100 643l-132 69c-6 3 -13 9 -5 20l30 44c6 7 16 4 22 -1l116 -92c7 -5 8 -11 3 -18l-13 -18c-5 -7 -15 -7 -21 -4z" />
    <glyph glyph-name="Iacute" unicode="&#xcd;" horiz-adv-x="241" 
d="M162 12c0 -8 -4 -12 -12 -12h-62c-7 0 -12 4 -12 11v595c0 7 4 11 12 11h62c7 0 12 -4 12 -10v-595zM258 715l-132 -69c-6 -3 -16 -3 -21 4l-13 18c-5 7 -4 13 3 18l116 92c6 5 16 8 22 1l30 -44c8 -11 1 -17 -5 -20z" />
    <glyph glyph-name="Icircumflex" unicode="&#xce;" horiz-adv-x="241" 
d="M162 12c0 -8 -4 -12 -12 -12h-62c-7 0 -12 4 -12 11v595c0 7 4 11 12 11h62c7 0 12 -4 12 -10v-595zM-16 683l96 99c6 6 11 9 22 9h32c11 0 16 -3 22 -9l96 -99c6 -5 8 -11 -1 -17l-14 -10c-9 -7 -15 -4 -22 1l-88 61c-5 5 -9 5 -15 0l-91 -61c-8 -5 -13 -8 -22 -1
l-14 10c-9 6 -7 12 -1 17z" />
    <glyph glyph-name="Idieresis" unicode="&#xcf;" horiz-adv-x="241" 
d="M162 12c0 -8 -4 -12 -12 -12h-62c-7 0 -12 4 -12 11v595c0 7 4 11 12 11h62c7 0 12 -4 12 -10v-595zM247 700c0 -26 -20 -47 -46 -47c-27 0 -48 21 -48 47s21 47 47 47s47 -21 47 -47zM85 700c0 -26 -21 -47 -47 -47s-47 21 -47 47s21 47 47 47s47 -21 47 -47z" />
    <glyph glyph-name="Ntilde" unicode="&#xd1;" horiz-adv-x="519" 
d="M82 617h36c16 0 21 -7 27 -16l233 -429c1 -2 3 -3 3 -1v435c0 7 2 11 11 11h56c8 0 12 -4 12 -10v-587c0 -17 -11 -20 -19 -20h-38c-15 0 -21 5 -26 15l-233 428c-1 1 -3 2 -3 0v-431c0 -8 -2 -12 -11 -12h-57c-8 0 -12 4 -12 11v581c0 17 2 25 21 25zM392 712
c-21 -45 -53 -63 -78 -63c-43 0 -75 35 -109 35c-11 0 -27 -15 -36 -31c-4 -7 -10 -8 -17 -4l-27 16c-6 3 -3 11 -1 16c17 33 45 63 78 63c40 0 78 -37 108 -37c14 0 27 17 36 33c2 4 4 8 11 4l32 -15c6 -2 7 -8 3 -17z" />
    <glyph glyph-name="Ograve" unicode="&#xd2;" horiz-adv-x="497" 
d="M439 165c0 -108 -81 -171 -190 -171c-108 0 -191 59 -191 171v290c0 106 84 170 190 170c104 0 191 -60 191 -170v-290zM355 167v286c0 57 -43 99 -106 99c-65 0 -107 -43 -107 -99v-286c0 -59 39 -100 106 -100c66 0 107 40 107 100zM255 651l-132 69c-6 3 -13 9 -5 20
l30 44c6 7 16 4 22 -1l116 -92c7 -5 8 -11 3 -18l-13 -18c-5 -7 -15 -7 -21 -4z" />
    <glyph glyph-name="Oacute" unicode="&#xd3;" horiz-adv-x="497" 
d="M439 165c0 -108 -81 -171 -190 -171c-108 0 -191 59 -191 171v290c0 106 84 170 190 170c104 0 191 -60 191 -170v-290zM355 167v286c0 57 -43 99 -106 99c-65 0 -107 -43 -107 -99v-286c0 -59 39 -100 106 -100c66 0 107 40 107 100zM380 722l-132 -69
c-6 -3 -16 -3 -21 4l-13 18c-5 7 -4 13 3 18l116 92c6 5 16 8 22 1l30 -44c8 -11 1 -17 -5 -20z" />
    <glyph glyph-name="Ocircumflex" unicode="&#xd4;" horiz-adv-x="497" 
d="M439 165c0 -108 -81 -171 -190 -171c-108 0 -191 59 -191 171v290c0 106 84 170 190 170c104 0 191 -60 191 -170v-290zM355 167v286c0 57 -43 99 -106 99c-65 0 -107 -43 -107 -99v-286c0 -59 39 -100 106 -100c66 0 107 40 107 100zM120 675l96 99c6 6 11 9 22 9h32
c11 0 16 -3 22 -9l96 -99c6 -5 8 -11 -1 -17l-14 -10c-9 -7 -15 -4 -22 1l-88 61c-5 5 -9 5 -15 0l-91 -61c-8 -5 -13 -8 -22 -1l-14 10c-9 6 -7 12 -1 17z" />
    <glyph glyph-name="Otilde" unicode="&#xd5;" horiz-adv-x="497" 
d="M439 165c0 -108 -81 -171 -190 -171c-108 0 -191 59 -191 171v290c0 106 84 170 190 170c104 0 191 -60 191 -170v-290zM355 167v286c0 57 -43 99 -106 99c-65 0 -107 -43 -107 -99v-286c0 -59 39 -100 106 -100c66 0 107 40 107 100zM381 722c-21 -45 -53 -63 -78 -63
c-43 0 -75 35 -109 35c-11 0 -27 -15 -36 -31c-4 -7 -10 -8 -17 -4l-27 16c-6 3 -3 11 -1 16c17 33 45 63 78 63c40 0 78 -37 108 -37c14 0 27 17 36 33c2 4 4 8 11 4l32 -15c6 -2 7 -8 3 -17z" />
    <glyph glyph-name="Odieresis" unicode="&#xd6;" horiz-adv-x="497" 
d="M439 165c0 -108 -81 -171 -190 -171c-108 0 -191 59 -191 171v290c0 106 84 170 190 170c104 0 191 -60 191 -170v-290zM355 167v286c0 57 -43 99 -106 99c-65 0 -107 -43 -107 -99v-286c0 -59 39 -100 106 -100c66 0 107 40 107 100zM376 700c0 -26 -20 -47 -46 -47
c-27 0 -48 21 -48 47s21 47 47 47s47 -21 47 -47zM214 700c0 -26 -21 -47 -47 -47s-47 21 -47 47s21 47 47 47s47 -21 47 -47z" />
    <glyph glyph-name="Ugrave" unicode="&#xd9;" horiz-adv-x="498" 
d="M440 160c0 -106 -90 -166 -191 -166c-102 0 -191 59 -191 166v446c0 7 2 11 11 11h62c7 0 11 -4 11 -10v-447c0 -54 46 -93 106 -93c66 0 108 41 108 96v443c0 7 4 11 12 11h60c8 0 12 -4 12 -10v-447zM260 643l-132 69c-6 3 -13 9 -5 20l30 44c6 7 16 4 22 -1l116 -92
c7 -5 8 -11 3 -18l-13 -18c-5 -7 -15 -7 -21 -4z" />
    <glyph glyph-name="Uacute" unicode="&#xda;" horiz-adv-x="498" 
d="M440 160c0 -106 -90 -166 -191 -166c-102 0 -191 59 -191 166v446c0 7 2 11 11 11h62c7 0 11 -4 11 -10v-447c0 -54 46 -93 106 -93c66 0 108 41 108 96v443c0 7 4 11 12 11h60c8 0 12 -4 12 -10v-447zM377 715l-132 -69c-6 -3 -16 -3 -21 4l-13 18c-5 7 -4 13 3 18
l116 92c6 5 16 8 22 1l30 -44c8 -11 1 -17 -5 -20z" />
    <glyph glyph-name="Ucircumflex" unicode="&#xdb;" horiz-adv-x="498" 
d="M440 160c0 -106 -90 -166 -191 -166c-102 0 -191 59 -191 166v446c0 7 2 11 11 11h62c7 0 11 -4 11 -10v-447c0 -54 46 -93 106 -93c66 0 108 41 108 96v443c0 7 4 11 12 11h60c8 0 12 -4 12 -10v-447zM118 675l96 99c6 6 11 9 22 9h32c11 0 16 -3 22 -9l96 -99
c6 -5 8 -11 -1 -17l-14 -10c-9 -7 -15 -4 -22 1l-88 61c-5 5 -9 5 -15 0l-91 -61c-8 -5 -13 -8 -22 -1l-14 10c-9 6 -7 12 -1 17z" />
    <glyph glyph-name="Udieresis" unicode="&#xdc;" horiz-adv-x="498" 
d="M440 160c0 -106 -90 -166 -191 -166c-102 0 -191 59 -191 166v446c0 7 2 11 11 11h62c7 0 11 -4 11 -10v-447c0 -54 46 -93 106 -93c66 0 108 41 108 96v443c0 7 4 11 12 11h60c8 0 12 -4 12 -10v-447zM380 700c0 -26 -20 -47 -46 -47c-27 0 -48 21 -48 47s21 47 47 47
s47 -21 47 -47zM218 700c0 -26 -21 -47 -47 -47s-47 21 -47 47s21 47 47 47s47 -21 47 -47z" />
    <glyph glyph-name="Yacute" unicode="&#xdd;" horiz-adv-x="435" 
d="M418 601l-154 -356c-4 -9 -5 -14 -5 -24v-209c0 -8 -4 -12 -12 -12h-60c-8 0 -12 4 -12 11v212c0 7 -1 14 -4 20l-154 357c-4 10 -1 17 10 17h57c11 0 17 -2 21 -11l108 -274c4 -6 6 -6 9 -1c36 90 72 183 107 273c5 10 8 13 23 13h55c14 0 15 -7 11 -16zM333 715
l-132 -69c-6 -3 -16 -3 -21 4l-13 18c-5 7 -4 13 3 18l116 92c6 5 16 8 22 1l30 -44c8 -11 1 -17 -5 -20z" />
    <glyph glyph-name="agrave" unicode="&#xe0;" horiz-adv-x="438" 
d="M40 147c0 86 56 153 162 153c31 0 57 -7 79 -19c9 -5 18 -4 18 8v9c0 53 -26 78 -89 78c-25 0 -78 -11 -103 -24c-7 -3 -12 -1 -15 6l-17 44c-2 6 0 11 5 13c36 18 91 30 139 30c123 0 160 -62 160 -159v-276c0 -7 -3 -10 -9 -10h-55c-7 0 -9 4 -9 8v18c0 9 -7 10 -13 4
c-26 -26 -62 -36 -100 -36c-99 0 -153 62 -153 153zM115 149c0 -49 29 -88 90 -88c54 0 89 38 89 88c0 49 -28 88 -90 88c-54 0 -89 -38 -89 -88zM218 490l-98 111c-5 5 -9 14 2 22l44 29c8 5 16 -2 20 -9l76 -127c4 -7 4 -13 -4 -18l-19 -12c-7 -5 -16 -1 -21 4z" />
    <glyph glyph-name="aacute" unicode="&#xe1;" horiz-adv-x="438" 
d="M40 147c0 86 56 153 162 153c31 0 57 -7 79 -19c9 -5 18 -4 18 8v9c0 53 -26 78 -89 78c-25 0 -78 -11 -103 -24c-7 -3 -12 -1 -15 6l-17 44c-2 6 0 11 5 13c36 18 91 30 139 30c123 0 160 -62 160 -159v-276c0 -7 -3 -10 -9 -10h-55c-7 0 -9 4 -9 8v18c0 9 -7 10 -13 4
c-26 -26 -62 -36 -100 -36c-99 0 -153 62 -153 153zM115 149c0 -49 29 -88 90 -88c54 0 89 38 89 88c0 49 -28 88 -90 88c-54 0 -89 -38 -89 -88zM332 601l-99 -111c-4 -5 -13 -9 -21 -4l-19 12c-7 5 -7 11 -3 18l75 127c4 7 9 16 20 9l44 -29c11 -8 7 -17 3 -22z" />
    <glyph glyph-name="acircumflex" unicode="&#xe2;" horiz-adv-x="438" 
d="M40 147c0 86 56 153 162 153c31 0 57 -7 79 -19c9 -5 18 -4 18 8v9c0 53 -26 78 -89 78c-25 0 -78 -11 -103 -24c-7 -3 -12 -1 -15 6l-17 44c-2 6 0 11 5 13c36 18 91 30 139 30c123 0 160 -62 160 -159v-276c0 -7 -3 -10 -9 -10h-55c-7 0 -9 4 -9 8v18c0 9 -7 10 -13 4
c-26 -26 -62 -36 -100 -36c-99 0 -153 62 -153 153zM115 149c0 -49 29 -88 90 -88c54 0 89 38 89 88c0 49 -28 88 -90 88c-54 0 -89 -38 -89 -88zM362 526c6 -7 8 -14 -1 -21l-14 -12c-9 -8 -14 -5 -22 2l-91 80c-6 6 -10 6 -15 1l-88 -81c-7 -7 -13 -10 -22 -2l-14 12
c-9 7 -7 14 -1 21l96 117c6 7 11 11 22 11h32c11 0 16 -4 22 -11z" />
    <glyph glyph-name="atilde" unicode="&#xe3;" horiz-adv-x="438" 
d="M40 147c0 86 56 153 162 153c31 0 57 -7 79 -19c9 -5 18 -4 18 8v9c0 53 -26 78 -89 78c-25 0 -78 -11 -103 -24c-7 -3 -12 -1 -15 6l-17 44c-2 6 0 11 5 13c36 18 91 30 139 30c123 0 160 -62 160 -159v-276c0 -7 -3 -10 -9 -10h-55c-7 0 -9 4 -9 8v18c0 9 -7 10 -13 4
c-26 -26 -62 -36 -100 -36c-99 0 -153 62 -153 153zM115 149c0 -49 29 -88 90 -88c54 0 89 38 89 88c0 49 -28 88 -90 88c-54 0 -89 -38 -89 -88zM366 572c-21 -45 -53 -63 -78 -63c-43 0 -75 35 -109 35c-11 0 -27 -15 -36 -31c-4 -7 -10 -8 -17 -4l-27 16
c-6 3 -3 11 -1 16c17 33 45 63 78 63c40 0 78 -37 108 -37c14 0 27 17 36 33c2 4 4 8 11 4l32 -15c6 -2 7 -8 3 -17z" />
    <glyph glyph-name="adieresis" unicode="&#xe4;" horiz-adv-x="438" 
d="M40 147c0 86 56 153 162 153c31 0 57 -7 79 -19c9 -5 18 -4 18 8v9c0 53 -26 78 -89 78c-25 0 -78 -11 -103 -24c-7 -3 -12 -1 -15 6l-17 44c-2 6 0 11 5 13c36 18 91 30 139 30c123 0 160 -62 160 -159v-276c0 -7 -3 -10 -9 -10h-55c-7 0 -9 4 -9 8v18c0 9 -7 10 -13 4
c-26 -26 -62 -36 -100 -36c-99 0 -153 62 -153 153zM115 149c0 -49 29 -88 90 -88c54 0 89 38 89 88c0 49 -28 88 -90 88c-54 0 -89 -38 -89 -88zM347 545c0 -26 -20 -47 -46 -47c-27 0 -48 21 -48 47s21 47 47 47s47 -21 47 -47zM185 545c0 -26 -21 -47 -47 -47
s-47 21 -47 47s21 47 47 47s47 -21 47 -47z" />
    <glyph glyph-name="aring" unicode="&#xe5;" horiz-adv-x="438" 
d="M40 147c0 86 56 153 162 153c31 0 57 -7 79 -19c9 -5 18 -4 18 8v9c0 53 -26 78 -89 78c-25 0 -78 -11 -103 -24c-7 -3 -12 -1 -15 6l-17 44c-2 6 0 11 5 13c36 18 91 30 139 30c123 0 160 -62 160 -159v-276c0 -7 -3 -10 -9 -10h-55c-7 0 -9 4 -9 8v18c0 9 -7 10 -13 4
c-26 -26 -62 -36 -100 -36c-99 0 -153 62 -153 153zM115 149c0 -49 29 -88 90 -88c54 0 89 38 89 88c0 49 -28 88 -90 88c-54 0 -89 -38 -89 -88zM314 563c0 -46 -38 -85 -86 -85c-47 0 -86 37 -86 83s38 86 86 86c47 0 86 -37 86 -84zM271 562c0 23 -20 44 -43 44
s-41 -20 -41 -44s18 -43 41 -43s43 19 43 43z" />
    <glyph glyph-name="egrave" unicode="&#xe8;" horiz-adv-x="438" 
d="M399 225c0 -14 -11 -24 -20 -24h-234c-11 0 -18 -8 -18 -18v-19c0 -54 26 -100 96 -100c40 0 73 20 96 51c6 8 12 8 20 3l35 -24c8 -5 11 -10 8 -16c-32 -58 -92 -84 -157 -84c-107 0 -178 65 -178 164v114c0 102 73 173 176 173c106 0 176 -71 176 -173v-47zM223 376
c-55 0 -94 -42 -94 -92v-7c0 -5 3 -12 15 -12h164c7 0 10 3 10 11v9c0 50 -33 91 -95 91zM212 490l-98 111c-5 5 -9 14 2 22l44 29c8 5 16 -2 20 -9l76 -127c4 -7 4 -13 -4 -18l-19 -12c-7 -5 -16 -1 -21 4z" />
    <glyph glyph-name="eacute" unicode="&#xe9;" horiz-adv-x="438" 
d="M399 225c0 -14 -11 -24 -20 -24h-234c-11 0 -18 -8 -18 -18v-19c0 -54 26 -100 96 -100c40 0 73 20 96 51c6 8 12 8 20 3l35 -24c8 -5 11 -10 8 -16c-32 -58 -92 -84 -157 -84c-107 0 -178 65 -178 164v114c0 102 73 173 176 173c106 0 176 -71 176 -173v-47zM223 376
c-55 0 -94 -42 -94 -92v-7c0 -5 3 -12 15 -12h164c7 0 10 3 10 11v9c0 50 -33 91 -95 91zM322 601l-99 -111c-4 -5 -13 -9 -21 -4l-19 12c-7 5 -7 11 -3 18l75 127c4 7 9 16 20 9l44 -29c11 -8 7 -17 3 -22z" />
    <glyph glyph-name="ecircumflex" unicode="&#xea;" horiz-adv-x="438" 
d="M399 225c0 -14 -11 -24 -20 -24h-234c-11 0 -18 -8 -18 -18v-19c0 -54 26 -100 96 -100c40 0 73 20 96 51c6 8 12 8 20 3l35 -24c8 -5 11 -10 8 -16c-32 -58 -92 -84 -157 -84c-107 0 -178 65 -178 164v114c0 102 73 173 176 173c106 0 176 -71 176 -173v-47zM223 376
c-55 0 -94 -42 -94 -92v-7c0 -5 3 -12 15 -12h164c7 0 10 3 10 11v9c0 50 -33 91 -95 91zM362 526c6 -7 8 -14 -1 -21l-14 -12c-9 -8 -14 -5 -22 2l-91 80c-6 6 -10 6 -15 1l-88 -81c-7 -7 -13 -10 -22 -2l-14 12c-9 7 -7 14 -1 21l96 117c6 7 11 11 22 11h32
c11 0 16 -4 22 -11z" />
    <glyph glyph-name="edieresis" unicode="&#xeb;" horiz-adv-x="438" 
d="M399 225c0 -14 -11 -24 -20 -24h-234c-11 0 -18 -8 -18 -18v-19c0 -54 26 -100 96 -100c40 0 73 20 96 51c6 8 12 8 20 3l35 -24c8 -5 11 -10 8 -16c-32 -58 -92 -84 -157 -84c-107 0 -178 65 -178 164v114c0 102 73 173 176 173c106 0 176 -71 176 -173v-47zM223 376
c-55 0 -94 -42 -94 -92v-7c0 -5 3 -12 15 -12h164c7 0 10 3 10 11v9c0 50 -33 91 -95 91zM355 545c0 -26 -20 -47 -46 -47c-27 0 -48 21 -48 47s21 47 47 47s47 -21 47 -47zM193 545c0 -26 -21 -47 -47 -47s-47 21 -47 47s21 47 47 47s47 -21 47 -47z" />
    <glyph glyph-name="igrave" unicode="&#xec;" horiz-adv-x="203" 
d="M61 9v419c0 7 3 10 9 10h62c7 0 10 -3 10 -10v-419c0 -7 -2 -9 -9 -9h-62c-6 0 -10 3 -10 9zM90 490l-98 111c-5 5 -9 14 2 22l44 29c8 5 16 -2 20 -9l76 -127c4 -7 4 -13 -4 -18l-19 -12c-7 -5 -16 -1 -21 4z" />
    <glyph glyph-name="iacute" unicode="&#xed;" horiz-adv-x="203" 
d="M61 9v419c0 7 3 10 9 10h62c7 0 10 -3 10 -10v-419c0 -7 -2 -9 -9 -9h-62c-6 0 -10 3 -10 9zM216 601l-99 -111c-4 -5 -13 -9 -21 -4l-19 12c-7 5 -7 11 -3 18l75 127c4 7 9 16 20 9l44 -29c11 -8 7 -17 3 -22z" />
    <glyph glyph-name="icircumflex" unicode="&#xee;" horiz-adv-x="203" 
d="M61 9v419c0 7 3 10 9 10h62c7 0 10 -3 10 -10v-419c0 -7 -2 -9 -9 -9h-62c-6 0 -10 3 -10 9zM236 526c6 -7 8 -14 -1 -21l-14 -12c-9 -8 -14 -5 -22 2l-91 80c-6 6 -10 6 -15 1l-88 -81c-7 -7 -13 -10 -22 -2l-14 12c-9 7 -7 14 -1 21l96 117c6 7 11 11 22 11h32
c11 0 16 -4 22 -11z" />
    <glyph glyph-name="idieresis" unicode="&#xef;" horiz-adv-x="203" 
d="M61 9v419c0 7 3 10 9 10h62c7 0 10 -3 10 -10v-419c0 -7 -2 -9 -9 -9h-62c-6 0 -10 3 -10 9zM230 545c0 -26 -20 -47 -46 -47c-27 0 -48 21 -48 47s21 47 47 47s47 -21 47 -47zM68 545c0 -26 -21 -47 -47 -47s-47 21 -47 47s21 47 47 47s47 -21 47 -47z" />
    <glyph glyph-name="ntilde" unicode="&#xf1;" horiz-adv-x="462" 
d="M408 10c0 -7 -3 -10 -9 -10h-62c-7 0 -9 3 -9 9v267c0 57 -32 99 -96 99c-58 0 -96 -41 -96 -98v-267c0 -7 -3 -10 -10 -10h-61c-6 0 -10 3 -10 9v419c0 7 3 10 9 10h58c7 0 9 -2 9 -9v-15c0 -6 3 -9 7 -9c3 0 5 2 8 4c29 24 62 35 100 35c100 0 162 -66 162 -167v-267z
M358 572c-21 -45 -53 -63 -78 -63c-43 0 -75 35 -109 35c-11 0 -27 -15 -36 -31c-4 -7 -10 -8 -17 -4l-27 16c-6 3 -3 11 -1 16c17 33 45 63 78 63c40 0 78 -37 108 -37c14 0 27 17 36 33c2 4 4 8 11 4l32 -15c6 -2 7 -8 3 -17z" />
    <glyph glyph-name="ograve" unicode="&#xf2;" horiz-adv-x="448" 
d="M400 163c0 -108 -68 -169 -176 -169c-110 0 -176 60 -176 168v115c0 102 62 168 175 168c112 0 177 -62 177 -168v-114zM320 162v115c0 57 -31 98 -96 98c-58 0 -96 -40 -96 -98v-115c0 -57 27 -99 95 -99c67 0 96 41 97 99zM216 490l-98 111c-5 5 -9 14 2 22l44 29
c8 5 16 -2 20 -9l76 -127c4 -7 4 -13 -4 -18l-19 -12c-7 -5 -16 -1 -21 4z" />
    <glyph glyph-name="oacute" unicode="&#xf3;" horiz-adv-x="448" 
d="M400 163c0 -108 -68 -169 -176 -169c-110 0 -176 60 -176 168v115c0 102 62 168 175 168c112 0 177 -62 177 -168v-114zM320 162v115c0 57 -31 98 -96 98c-58 0 -96 -40 -96 -98v-115c0 -57 27 -99 95 -99c67 0 96 41 97 99zM332 601l-99 -111c-4 -5 -13 -9 -21 -4
l-19 12c-7 5 -7 11 -3 18l75 127c4 7 9 16 20 9l44 -29c11 -8 7 -17 3 -22z" />
    <glyph glyph-name="ocircumflex" unicode="&#xf4;" horiz-adv-x="448" 
d="M400 163c0 -108 -68 -169 -176 -169c-110 0 -176 60 -176 168v115c0 102 62 168 175 168c112 0 177 -62 177 -168v-114zM320 162v115c0 57 -31 98 -96 98c-58 0 -96 -40 -96 -98v-115c0 -57 27 -99 95 -99c67 0 96 41 97 99zM362 526c6 -7 8 -14 -1 -21l-14 -12
c-9 -8 -14 -5 -22 2l-91 80c-6 6 -10 6 -15 1l-88 -81c-7 -7 -13 -10 -22 -2l-14 12c-9 7 -7 14 -1 21l96 117c6 7 11 11 22 11h32c11 0 16 -4 22 -11z" />
    <glyph glyph-name="otilde" unicode="&#xf5;" horiz-adv-x="448" 
d="M400 163c0 -108 -68 -169 -176 -169c-110 0 -176 60 -176 168v115c0 102 62 168 175 168c112 0 177 -62 177 -168v-114zM320 162v115c0 57 -31 98 -96 98c-58 0 -96 -40 -96 -98v-115c0 -57 27 -99 95 -99c67 0 96 41 97 99zM362 572c-21 -45 -53 -63 -78 -63
c-43 0 -75 35 -109 35c-11 0 -27 -15 -36 -31c-4 -7 -10 -8 -17 -4l-27 16c-6 3 -3 11 -1 16c17 33 45 63 78 63c40 0 78 -37 108 -37c14 0 27 17 36 33c2 4 4 8 11 4l32 -15c6 -2 7 -8 3 -17z" />
    <glyph glyph-name="odieresis" unicode="&#xf6;" horiz-adv-x="448" 
d="M400 163c0 -108 -68 -169 -176 -169c-110 0 -176 60 -176 168v115c0 102 62 168 175 168c112 0 177 -62 177 -168v-114zM320 162v115c0 57 -31 98 -96 98c-58 0 -96 -40 -96 -98v-115c0 -57 27 -99 95 -99c67 0 96 41 97 99zM353 545c0 -26 -20 -47 -46 -47
c-27 0 -48 21 -48 47s21 47 47 47s47 -21 47 -47zM191 545c0 -26 -21 -47 -47 -47s-47 21 -47 47s21 47 47 47s47 -21 47 -47z" />
    <glyph glyph-name="ugrave" unicode="&#xf9;" horiz-adv-x="459" 
d="M401 10c0 -7 -3 -10 -10 -10h-57c-7 0 -10 2 -10 9v15c0 9 -8 11 -14 5c-25 -22 -69 -35 -103 -35c-99 0 -159 65 -159 167v267c0 7 3 10 9 10h62c7 0 9 -3 9 -9v-268c0 -56 33 -98 96 -98c58 0 96 41 96 98v267c0 7 2 10 9 10h62c6 0 10 -3 10 -9v-419zM216 490l-98 111
c-5 5 -9 14 2 22l44 29c8 5 16 -2 20 -9l76 -127c4 -7 4 -13 -4 -18l-19 -12c-7 -5 -16 -1 -21 4z" />
    <glyph glyph-name="uacute" unicode="&#xfa;" horiz-adv-x="459" 
d="M401 10c0 -7 -3 -10 -10 -10h-57c-7 0 -10 2 -10 9v15c0 9 -8 11 -14 5c-25 -22 -69 -35 -103 -35c-99 0 -159 65 -159 167v267c0 7 3 10 9 10h62c7 0 9 -3 9 -9v-268c0 -56 33 -98 96 -98c58 0 96 41 96 98v267c0 7 2 10 9 10h62c6 0 10 -3 10 -9v-419zM337 601
l-99 -111c-4 -5 -13 -9 -21 -4l-19 12c-7 5 -7 11 -3 18l75 127c4 7 9 16 20 9l44 -29c11 -8 7 -17 3 -22z" />
    <glyph glyph-name="ucircumflex" unicode="&#xfb;" horiz-adv-x="459" 
d="M401 10c0 -7 -3 -10 -10 -10h-57c-7 0 -10 2 -10 9v15c0 9 -8 11 -14 5c-25 -22 -69 -35 -103 -35c-99 0 -159 65 -159 167v267c0 7 3 10 9 10h62c7 0 9 -3 9 -9v-268c0 -56 33 -98 96 -98c58 0 96 41 96 98v267c0 7 2 10 9 10h62c6 0 10 -3 10 -9v-419zM357 526
c6 -7 8 -14 -1 -21l-14 -12c-9 -8 -14 -5 -22 2l-91 80c-6 6 -10 6 -15 1l-88 -81c-7 -7 -13 -10 -22 -2l-14 12c-9 7 -7 14 -1 21l96 117c6 7 11 11 22 11h32c11 0 16 -4 22 -11z" />
    <glyph glyph-name="udieresis" unicode="&#xfc;" horiz-adv-x="459" 
d="M401 10c0 -7 -3 -10 -10 -10h-57c-7 0 -10 2 -10 9v15c0 9 -8 11 -14 5c-25 -22 -69 -35 -103 -35c-99 0 -159 65 -159 167v267c0 7 3 10 9 10h62c7 0 9 -3 9 -9v-268c0 -56 33 -98 96 -98c58 0 96 41 96 98v267c0 7 2 10 9 10h62c6 0 10 -3 10 -9v-419zM352 545
c0 -26 -20 -47 -46 -47c-27 0 -48 21 -48 47s21 47 47 47s47 -21 47 -47zM190 545c0 -26 -21 -47 -47 -47s-47 21 -47 47s21 47 47 47s47 -21 47 -47z" />
    <glyph glyph-name="yacute" unicode="&#xfd;" horiz-adv-x="412" 
d="M103 424l84 -337c2 -10 9 -14 14 0l110 333c3 8 7 19 23 19h47c13 0 16 -9 13 -19l-193 -582c-3 -9 -12 -21 -31 -21h-37c-14 0 -20 7 -14 26l47 142c2 7 6 15 -5 15h-10c-13 0 -20 5 -24 20l-110 401c-3 10 -1 18 11 18h53c13 0 19 -7 22 -15zM309 601l-99 -111
c-4 -5 -13 -9 -21 -4l-19 12c-7 5 -7 11 -3 18l75 127c4 7 9 16 20 9l44 -29c11 -8 7 -17 3 -22z" />
    <glyph glyph-name="ydieresis" unicode="&#xff;" horiz-adv-x="412" 
d="M103 424l84 -337c2 -10 9 -14 14 0l110 333c3 8 7 19 23 19h47c13 0 16 -9 13 -19l-193 -582c-3 -9 -12 -21 -31 -21h-37c-14 0 -20 7 -14 26l47 142c2 7 6 15 -5 15h-10c-13 0 -20 5 -24 20l-110 401c-3 10 -1 18 11 18h53c13 0 19 -7 22 -15zM322 545
c0 -26 -20 -47 -46 -47c-27 0 -48 21 -48 47s21 47 47 47s47 -21 47 -47zM160 545c0 -26 -21 -47 -47 -47s-47 21 -47 47s21 47 47 47s47 -21 47 -47z" />
    <glyph glyph-name="Amacron" unicode="&#x100;" horiz-adv-x="457" 
d="M427 0h-61c-8 0 -13 2 -14 7l-33 130c-1 2 -1 4 -4 4h-177c-5 0 -5 -2 -6 -3l-32 -131c-1 -5 -6 -7 -13 -7h-54c-11 0 -16 3 -13 15l148 590c1 6 5 12 16 12h85c9 0 13 -2 15 -10l152 -590c2 -7 3 -17 -9 -17zM223 525l-27 -123l-45 -184c-1 -6 -1 -8 5 -8h138
c7 0 7 2 6 8l-44 180l-28 126c-1 4 -4 4 -5 1zM336 683c0 -6 -3 -10 -9 -10h-213c-7 0 -10 3 -10 10v41c0 7 3 10 9 10h213c6 0 10 -3 10 -9v-42z" />
    <glyph glyph-name="amacron" unicode="&#x101;" horiz-adv-x="438" 
d="M40 147c0 86 56 153 162 153c31 0 57 -7 79 -19c9 -5 18 -4 18 8v9c0 53 -26 78 -89 78c-25 0 -78 -11 -103 -24c-7 -3 -12 -1 -15 6l-17 44c-2 6 0 11 5 13c36 18 91 30 139 30c123 0 160 -62 160 -159v-276c0 -7 -3 -10 -9 -10h-55c-7 0 -9 4 -9 8v18c0 9 -7 10 -13 4
c-26 -26 -62 -36 -100 -36c-99 0 -153 62 -153 153zM115 149c0 -49 29 -88 90 -88c54 0 89 38 89 88c0 49 -28 88 -90 88c-54 0 -89 -38 -89 -88zM339 525c0 -6 -3 -10 -9 -10h-213c-7 0 -10 3 -10 10v41c0 7 3 10 9 10h213c6 0 10 -3 10 -9v-42z" />
    <glyph glyph-name="Abreve" unicode="&#x102;" horiz-adv-x="457" 
d="M427 0h-61c-8 0 -13 2 -14 7l-33 130c-1 2 -1 4 -4 4h-177c-5 0 -5 -2 -6 -3l-32 -131c-1 -5 -6 -7 -13 -7h-54c-11 0 -16 3 -13 15l148 590c1 6 5 12 16 12h85c9 0 13 -2 15 -10l152 -590c2 -7 3 -17 -9 -17zM223 525l-27 -123l-45 -184c-1 -6 -1 -8 5 -8h138
c7 0 7 2 6 8l-44 180l-28 126c-1 4 -4 4 -5 1zM104 767c0 7 2 11 12 11h21c11 0 11 -4 14 -13c12 -38 31 -59 69 -59c37 0 59 20 69 59c2 9 2 13 14 13h21c10 0 12 -4 12 -11c-3 -67 -48 -122 -117 -122c-64 0 -112 55 -115 122z" />
    <glyph glyph-name="abreve" unicode="&#x103;" horiz-adv-x="438" 
d="M40 147c0 86 56 153 162 153c31 0 57 -7 79 -19c9 -5 18 -4 18 8v9c0 53 -26 78 -89 78c-25 0 -78 -11 -103 -24c-7 -3 -12 -1 -15 6l-17 44c-2 6 0 11 5 13c36 18 91 30 139 30c123 0 160 -62 160 -159v-276c0 -7 -3 -10 -9 -10h-55c-7 0 -9 4 -9 8v18c0 9 -7 10 -13 4
c-26 -26 -62 -36 -100 -36c-99 0 -153 62 -153 153zM115 149c0 -49 29 -88 90 -88c54 0 89 38 89 88c0 49 -28 88 -90 88c-54 0 -89 -38 -89 -88zM109 614c0 7 1 11 12 11h21c11 0 11 -4 14 -13c12 -38 31 -59 69 -59c37 0 59 20 69 59c2 9 2 13 14 13h21c10 0 12 -4 12 -11
c-3 -67 -48 -122 -117 -122c-64 0 -112 55 -115 122z" />
    <glyph glyph-name="Cacute" unicode="&#x106;" horiz-adv-x="430" 
d="M410 551c6 -8 7 -13 -3 -22l-38 -32c-5 -5 -16 -3 -21 4c-24 30 -66 51 -107 51c-63 0 -99 -40 -99 -97v-291c0 -56 40 -97 104 -97c41 0 79 25 102 48c7 8 13 15 23 7l40 -33c4 -3 5 -11 2 -16c-40 -52 -102 -79 -167 -79c-107 0 -188 60 -188 169v292
c0 105 76 170 182 170c62 0 120 -15 170 -74zM361 715l-132 -69c-6 -3 -16 -3 -21 4l-13 18c-5 7 -4 13 3 18l116 92c6 5 16 8 22 1l30 -44c8 -11 1 -17 -5 -20z" />
    <glyph glyph-name="cacute" unicode="&#x107;" horiz-adv-x="402" 
d="M375 368c5 -7 4 -17 -4 -22l-35 -27c-10 -7 -17 -3 -23 6c-22 33 -57 50 -94 50c-57 0 -94 -40 -94 -95v-124c0 -54 39 -92 97 -92c52 0 79 26 103 57c4 5 9 3 15 -1l33 -24c13 -8 13 -15 8 -22c-40 -60 -99 -80 -158 -80c-107 0 -178 63 -178 165v115
c0 107 75 171 176 170c66 -1 115 -25 154 -76zM311 601l-99 -111c-4 -5 -13 -9 -21 -4l-19 12c-7 5 -7 11 -3 18l75 127c4 7 9 16 20 9l44 -29c11 -8 7 -17 3 -22z" />
    <glyph glyph-name="Ccircumflex" unicode="&#x108;" horiz-adv-x="430" 
d="M410 551c6 -8 7 -13 -3 -22l-38 -32c-5 -5 -16 -3 -21 4c-24 30 -66 51 -107 51c-63 0 -99 -40 -99 -97v-291c0 -56 40 -97 104 -97c41 0 79 25 102 48c7 8 13 15 23 7l40 -33c4 -3 5 -11 2 -16c-40 -52 -102 -79 -167 -79c-107 0 -188 60 -188 169v292
c0 105 76 170 182 170c62 0 120 -15 170 -74zM116 675l96 99c6 6 11 9 22 9h32c11 0 16 -3 22 -9l96 -99c6 -5 8 -11 -1 -17l-14 -10c-9 -7 -15 -4 -22 1l-88 61c-5 5 -9 5 -15 0l-91 -61c-8 -5 -13 -8 -22 -1l-14 10c-9 6 -7 12 -1 17z" />
    <glyph glyph-name="ccircumflex" unicode="&#x109;" horiz-adv-x="402" 
d="M375 368c5 -7 4 -17 -4 -22l-35 -27c-10 -7 -17 -3 -23 6c-22 33 -57 50 -94 50c-57 0 -94 -40 -94 -95v-124c0 -54 39 -92 97 -92c52 0 79 26 103 57c4 5 9 3 15 -1l33 -24c13 -8 13 -15 8 -22c-40 -60 -99 -80 -158 -80c-107 0 -178 63 -178 165v115
c0 107 75 171 176 170c66 -1 115 -25 154 -76zM354 526c6 -7 8 -14 -1 -21l-14 -12c-9 -8 -14 -5 -22 2l-91 80c-6 6 -10 6 -15 1l-88 -81c-7 -7 -13 -10 -22 -2l-14 12c-9 7 -7 14 -1 21l96 117c6 7 11 11 22 11h32c11 0 16 -4 22 -11z" />
    <glyph glyph-name="Cdotaccent" unicode="&#x10a;" horiz-adv-x="430" 
d="M410 551c6 -8 7 -13 -3 -22l-38 -32c-5 -5 -16 -3 -21 4c-24 30 -66 51 -107 51c-63 0 -99 -40 -99 -97v-291c0 -56 40 -97 104 -97c41 0 79 25 102 48c7 8 13 15 23 7l40 -33c4 -3 5 -11 2 -16c-40 -52 -102 -79 -167 -79c-107 0 -188 60 -188 169v292
c0 105 76 170 182 170c62 0 120 -15 170 -74zM278 723c0 -26 -21 -47 -46 -47c-27 0 -48 20 -48 46s21 47 47 47s47 -21 47 -46z" />
    <glyph glyph-name="cdotaccent" unicode="&#x10b;" horiz-adv-x="402" 
d="M375 368c5 -7 4 -17 -4 -22l-35 -27c-10 -7 -17 -3 -23 6c-22 33 -57 50 -94 50c-57 0 -94 -40 -94 -95v-124c0 -54 39 -92 97 -92c52 0 79 26 103 57c4 5 9 3 15 -1l33 -24c13 -8 13 -15 8 -22c-40 -60 -99 -80 -158 -80c-107 0 -178 63 -178 165v115
c0 107 75 171 176 170c66 -1 115 -25 154 -76zM272 553c0 -26 -21 -47 -46 -47c-27 0 -48 20 -48 46s21 47 47 47s47 -21 47 -46z" />
    <glyph glyph-name="Ccaron" unicode="&#x10c;" horiz-adv-x="430" 
d="M410 551c6 -8 7 -13 -3 -22l-38 -32c-5 -5 -16 -3 -21 4c-24 30 -66 51 -107 51c-63 0 -99 -40 -99 -97v-291c0 -56 40 -97 104 -97c41 0 79 25 102 48c7 8 13 15 23 7l40 -33c4 -3 5 -11 2 -16c-40 -52 -102 -79 -167 -79c-107 0 -188 60 -188 169v292
c0 105 76 170 182 170c62 0 120 -15 170 -74zM108 752c-6 5 -8 11 1 17l14 10c9 7 14 4 22 -1l91 -61c6 -5 10 -5 15 0l88 61c7 5 13 8 22 1l14 -10c9 -6 7 -12 1 -17l-96 -99c-6 -6 -11 -9 -22 -9h-32c-11 0 -16 3 -22 9z" />
    <glyph glyph-name="ccaron" unicode="&#x10d;" horiz-adv-x="402" 
d="M375 368c5 -7 4 -17 -4 -22l-35 -27c-10 -7 -17 -3 -23 6c-22 33 -57 50 -94 50c-57 0 -94 -40 -94 -95v-124c0 -54 39 -92 97 -92c52 0 79 26 103 57c4 5 9 3 15 -1l33 -24c13 -8 13 -15 8 -22c-40 -60 -99 -80 -158 -80c-107 0 -178 63 -178 165v115
c0 107 75 171 176 170c66 -1 115 -25 154 -76zM361 611l-96 -117c-6 -7 -11 -11 -22 -11h-32c-11 0 -16 4 -22 11l-96 117c-6 7 -8 14 1 21l14 12c9 8 15 5 22 -2l88 -81c5 -5 9 -5 15 1l91 80c8 7 13 10 22 2l14 -12c9 -7 7 -14 1 -21z" />
    <glyph glyph-name="Dcaron" unicode="&#x10e;" horiz-adv-x="492" 
d="M437 186c0 -123 -68 -186 -185 -186h-179c-7 0 -12 4 -12 11v595c0 7 4 11 12 11h179c119 0 185 -66 185 -180v-251zM353 173v273c0 69 -44 99 -106 99h-93c-6 0 -9 -2 -9 -8v-455c0 -6 2 -9 8 -9h101c66 0 99 38 99 100zM84 752c-6 5 -8 11 1 17l14 10c9 7 14 4 22 -1
l91 -61c6 -5 10 -5 15 0l88 61c7 5 13 8 22 1l14 -10c9 -6 7 -12 1 -17l-96 -99c-6 -6 -11 -9 -22 -9h-32c-11 0 -16 3 -22 9z" />
    <glyph glyph-name="dcaron" unicode="&#x10f;" horiz-adv-x="562" 
d="M563 616l-47 -158c-3 -8 -8 -12 -15 -12h-27c-9 0 -12 9 -11 17l10 157c1 9 6 16 15 16h62c13 0 17 -7 13 -20zM399 9c0 -6 -2 -9 -9 -9h-54c-7 0 -10 3 -10 10v14c0 8 -9 11 -17 5c-17 -14 -55 -34 -103 -34c-97 0 -160 57 -160 165v116c0 91 61 167 160 167
c53 0 83 -20 96 -30c10 -8 16 -2 16 7v207c0 7 3 10 10 10h61c7 0 10 -3 10 -9v-619zM318 160l1 116c0 54 -30 98 -96 98c-69 0 -97 -44 -97 -98v-116c0 -55 32 -97 93 -97c55 0 99 43 99 97z" />
    <glyph glyph-name="Emacron" unicode="&#x112;" horiz-adv-x="440" 
d="M410 12c0 -8 -4 -12 -12 -12h-326c-7 0 -12 4 -12 11v595c0 7 4 11 12 11h322c7 0 13 -4 13 -11v-49c0 -7 -4 -12 -12 -12h-243c-5 0 -8 -2 -8 -8v-171c0 -6 2 -8 7 -8h201c8 0 12 -4 12 -12v-50c0 -7 -4 -11 -11 -11h-201c-5 0 -8 -3 -8 -9v-194c0 -6 2 -9 7 -9h247
c7 0 12 -4 12 -11v-50zM340 683c0 -6 -3 -10 -9 -10h-213c-7 0 -10 3 -10 10v41c0 7 3 10 9 10h213c6 0 10 -3 10 -9v-42z" />
    <glyph glyph-name="emacron" unicode="&#x113;" horiz-adv-x="438" 
d="M399 225c0 -14 -11 -24 -20 -24h-234c-11 0 -18 -8 -18 -18v-19c0 -54 26 -100 96 -100c40 0 73 20 96 51c6 8 12 8 20 3l35 -24c8 -5 11 -10 8 -16c-32 -58 -92 -84 -157 -84c-107 0 -178 65 -178 164v114c0 102 73 173 176 173c106 0 176 -71 176 -173v-47zM223 376
c-55 0 -94 -42 -94 -92v-7c0 -5 3 -12 15 -12h164c7 0 10 3 10 11v9c0 50 -33 91 -95 91zM340 525c0 -6 -3 -10 -9 -10h-213c-7 0 -10 3 -10 10v41c0 7 3 10 9 10h213c6 0 10 -3 10 -9v-42z" />
    <glyph glyph-name="Ebreve" unicode="&#x114;" horiz-adv-x="440" 
d="M410 12c0 -8 -4 -12 -12 -12h-326c-7 0 -12 4 -12 11v595c0 7 4 11 12 11h322c7 0 13 -4 13 -11v-49c0 -7 -4 -12 -12 -12h-243c-5 0 -8 -2 -8 -8v-171c0 -6 2 -8 7 -8h201c8 0 12 -4 12 -12v-50c0 -7 -4 -11 -11 -11h-201c-5 0 -8 -3 -8 -9v-194c0 -6 2 -9 7 -9h247
c7 0 12 -4 12 -11v-50zM118 767c0 7 2 11 12 11h21c11 0 11 -4 14 -13c12 -38 31 -59 69 -59c37 0 59 20 69 59c2 9 2 13 14 13h21c10 0 12 -4 12 -11c-3 -67 -48 -122 -117 -122c-64 0 -112 55 -115 122z" />
    <glyph glyph-name="ebreve" unicode="&#x115;" horiz-adv-x="438" 
d="M399 225c0 -14 -11 -24 -20 -24h-234c-11 0 -18 -8 -18 -18v-19c0 -54 26 -100 96 -100c40 0 73 20 96 51c6 8 12 8 20 3l35 -24c8 -5 11 -10 8 -16c-32 -58 -92 -84 -157 -84c-107 0 -178 65 -178 164v114c0 102 73 173 176 173c106 0 176 -71 176 -173v-47zM223 376
c-55 0 -94 -42 -94 -92v-7c0 -5 3 -12 15 -12h164c7 0 10 3 10 11v9c0 50 -33 91 -95 91zM114 614c0 7 1 11 12 11h21c11 0 11 -4 14 -13c12 -38 31 -59 69 -59c37 0 59 20 69 59c2 9 2 13 14 13h21c10 0 12 -4 12 -11c-3 -67 -48 -122 -117 -122c-64 0 -112 55 -115 122z
" />
    <glyph glyph-name="Edotaccent" unicode="&#x116;" horiz-adv-x="440" 
d="M410 12c0 -8 -4 -12 -12 -12h-326c-7 0 -12 4 -12 11v595c0 7 4 11 12 11h322c7 0 13 -4 13 -11v-49c0 -7 -4 -12 -12 -12h-243c-5 0 -8 -2 -8 -8v-171c0 -6 2 -8 7 -8h201c8 0 12 -4 12 -12v-50c0 -7 -4 -11 -11 -11h-201c-5 0 -8 -3 -8 -9v-194c0 -6 2 -9 7 -9h247
c7 0 12 -4 12 -11v-50zM279 703c0 -26 -21 -47 -46 -47c-27 0 -48 20 -48 46s21 47 47 47s47 -21 47 -46z" />
    <glyph glyph-name="edotaccent" unicode="&#x117;" horiz-adv-x="438" 
d="M399 225c0 -14 -11 -24 -20 -24h-234c-11 0 -18 -8 -18 -18v-19c0 -54 26 -100 96 -100c40 0 73 20 96 51c6 8 12 8 20 3l35 -24c8 -5 11 -10 8 -16c-32 -58 -92 -84 -157 -84c-107 0 -178 65 -178 164v114c0 102 73 173 176 173c106 0 176 -71 176 -173v-47zM223 376
c-55 0 -94 -42 -94 -92v-7c0 -5 3 -12 15 -12h164c7 0 10 3 10 11v9c0 50 -33 91 -95 91zM272 553c0 -26 -21 -47 -46 -47c-27 0 -48 20 -48 46s21 47 47 47s47 -21 47 -46z" />
    <glyph glyph-name="Ecaron" unicode="&#x11a;" horiz-adv-x="440" 
d="M410 12c0 -8 -4 -12 -12 -12h-326c-7 0 -12 4 -12 11v595c0 7 4 11 12 11h322c7 0 13 -4 13 -11v-49c0 -7 -4 -12 -12 -12h-243c-5 0 -8 -2 -8 -8v-171c0 -6 2 -8 7 -8h201c8 0 12 -4 12 -12v-50c0 -7 -4 -11 -11 -11h-201c-5 0 -8 -3 -8 -9v-194c0 -6 2 -9 7 -9h247
c7 0 12 -4 12 -11v-50zM87 752c-6 5 -8 11 1 17l14 10c9 7 14 4 22 -1l91 -61c6 -5 10 -5 15 0l88 61c7 5 13 8 22 1l14 -10c9 -6 7 -12 1 -17l-96 -99c-6 -6 -11 -9 -22 -9h-32c-11 0 -16 3 -22 9z" />
    <glyph glyph-name="ecaron" unicode="&#x11b;" horiz-adv-x="438" 
d="M399 225c0 -14 -11 -24 -20 -24h-234c-11 0 -18 -8 -18 -18v-19c0 -54 26 -100 96 -100c40 0 73 20 96 51c6 8 12 8 20 3l35 -24c8 -5 11 -10 8 -16c-32 -58 -92 -84 -157 -84c-107 0 -178 65 -178 164v114c0 102 73 173 176 173c106 0 176 -71 176 -173v-47zM358 611
l-96 -117c-6 -7 -11 -11 -22 -11h-32c-11 0 -16 4 -22 11l-96 117c-6 7 -8 14 1 21l14 12c9 8 15 5 22 -2l88 -81c5 -5 9 -5 15 1l91 80c8 7 13 10 22 2l14 -12c9 -7 7 -14 1 -21zM223 376c-55 0 -94 -42 -94 -92v-7c0 -5 3 -12 15 -12h164c7 0 10 3 10 11v9
c0 50 -33 91 -95 91z" />
    <glyph glyph-name="Gcircumflex" unicode="&#x11c;" horiz-adv-x="480" 
d="M427 161c0 -98 -74 -167 -181 -167s-188 60 -188 169v292c0 105 83 170 189 170c65 0 136 -23 169 -81c5 -9 3 -13 -5 -20l-39 -31c-7 -5 -15 -1 -21 7c-28 39 -69 51 -103 51c-73 0 -106 -47 -106 -104v-283c0 -56 40 -97 104 -97c57 0 95 35 95 95v92c0 5 -1 8 -6 8
h-74c-8 0 -12 3 -12 11v51c0 8 4 12 12 12h153c7 0 13 -4 13 -12v-163zM112 675l96 99c6 6 11 9 22 9h32c11 0 16 -3 22 -9l96 -99c6 -5 8 -11 -1 -17l-14 -10c-9 -7 -15 -4 -22 1l-88 61c-5 5 -9 5 -15 0l-91 -61c-8 -5 -13 -8 -22 -1l-14 10c-9 6 -7 12 -1 17z" />
    <glyph glyph-name="gcircumflex" unicode="&#x11d;" horiz-adv-x="438" 
d="M283 -141c33 20 60 49 60 75c0 49 -64 62 -115 62c-43 0 -101 -8 -150 -16c-16 -2 -20 2 -25 9c-12 17 -18 41 -18 66c0 37 30 74 66 94c4 2 4 7 0 9l-4 2c-41 27 -69 71 -69 128c0 88 79 157 172 157c44 0 85 -14 116 -38c4 -3 6 -3 10 0c25 21 58 35 90 35
c11 1 14 -5 14 -15v-51c0 -11 -2 -12 -15 -11c-18 3 -34 1 -47 -4c-6 -1 -7 -4 -5 -8c11 -19 17 -41 17 -65c0 -92 -82 -158 -180 -158c-11 0 -19 -1 -23 -2c-34 -8 -65 -44 -67 -68c0 -4 2 -7 7 -5c37 9 87 12 109 12c92 0 199 -28 199 -130c0 -58 -53 -113 -105 -135
c-10 -5 -16 -2 -21 6l-22 34c-4 6 -2 12 6 17zM298 284c0 49 -38 92 -92 92c-60 0 -98 -43 -98 -92c0 -48 34 -91 92 -91c62 0 98 41 98 91zM353 526c6 -7 8 -14 -1 -21l-14 -12c-9 -8 -14 -5 -22 2l-91 80c-6 6 -10 6 -15 1l-88 -81c-7 -7 -13 -10 -22 -2l-14 12
c-9 7 -7 14 -1 21l96 117c6 7 11 11 22 11h32c11 0 16 -4 22 -11z" />
    <glyph glyph-name="Gbreve" unicode="&#x11e;" horiz-adv-x="480" 
d="M427 161c0 -98 -74 -167 -181 -167s-188 60 -188 169v292c0 105 83 170 189 170c65 0 136 -23 169 -81c5 -9 3 -13 -5 -20l-39 -31c-7 -5 -15 -1 -21 7c-28 39 -69 51 -103 51c-73 0 -106 -47 -106 -104v-283c0 -56 40 -97 104 -97c57 0 95 35 95 95v92c0 5 -1 8 -6 8
h-74c-8 0 -12 3 -12 11v51c0 8 4 12 12 12h153c7 0 13 -4 13 -12v-163zM128 767c0 7 2 11 12 11h21c11 0 11 -4 14 -13c12 -38 31 -59 69 -59c37 0 59 20 69 59c2 9 2 13 14 13h21c10 0 12 -4 12 -11c-3 -67 -48 -122 -117 -122c-64 0 -112 55 -115 122z" />
    <glyph glyph-name="gbreve" unicode="&#x11f;" horiz-adv-x="438" 
d="M283 -141c33 20 60 49 60 75c0 49 -64 62 -115 62c-43 0 -101 -8 -150 -16c-16 -2 -20 2 -25 9c-12 17 -18 41 -18 66c0 37 30 74 66 94c4 2 4 7 0 9l-4 2c-41 27 -69 71 -69 128c0 88 79 157 172 157c44 0 85 -14 116 -38c4 -3 6 -3 10 0c25 21 58 35 90 35
c11 1 14 -5 14 -15v-51c0 -11 -2 -12 -15 -11c-18 3 -34 1 -47 -4c-6 -1 -7 -4 -5 -8c11 -19 17 -41 17 -65c0 -92 -82 -158 -180 -158c-11 0 -19 -1 -23 -2c-34 -8 -65 -44 -67 -68c0 -4 2 -7 7 -5c37 9 87 12 109 12c92 0 199 -28 199 -130c0 -58 -53 -113 -105 -135
c-10 -5 -16 -2 -21 6l-22 34c-4 6 -2 12 6 17zM298 284c0 49 -38 92 -92 92c-60 0 -98 -43 -98 -92c0 -48 34 -91 92 -91c62 0 98 41 98 91zM90 614c0 7 1 11 12 11h21c11 0 11 -4 14 -13c12 -38 31 -59 69 -59c37 0 59 20 69 59c2 9 2 13 14 13h21c10 0 12 -4 12 -11
c-3 -67 -48 -122 -117 -122c-64 0 -112 55 -115 122z" />
    <glyph glyph-name="Gdotaccent" unicode="&#x120;" horiz-adv-x="480" 
d="M427 161c0 -98 -74 -167 -181 -167s-188 60 -188 169v292c0 105 83 170 189 170c65 0 136 -23 169 -81c5 -9 3 -13 -5 -20l-39 -31c-7 -5 -15 -1 -21 7c-28 39 -69 51 -103 51c-73 0 -106 -47 -106 -104v-283c0 -56 40 -97 104 -97c57 0 95 35 95 95v92c0 5 -1 8 -6 8
h-74c-8 0 -12 3 -12 11v51c0 8 4 12 12 12h153c7 0 13 -4 13 -12v-163zM292 703c0 -26 -21 -47 -46 -47c-27 0 -48 20 -48 46s21 47 47 47s47 -21 47 -46z" />
    <glyph glyph-name="gdotaccent" unicode="&#x121;" horiz-adv-x="438" 
d="M283 -141c33 20 60 49 60 75c0 49 -64 62 -115 62c-43 0 -101 -8 -150 -16c-16 -2 -20 2 -25 9c-12 17 -18 41 -18 66c0 37 30 74 66 94c4 2 4 7 0 9l-4 2c-41 27 -69 71 -69 128c0 88 79 157 172 157c44 0 85 -14 116 -38c4 -3 6 -3 10 0c25 21 58 35 90 35
c11 1 14 -5 14 -15v-51c0 -11 -2 -12 -15 -11c-18 3 -34 1 -47 -4c-6 -1 -7 -4 -5 -8c11 -19 17 -41 17 -65c0 -92 -82 -158 -180 -158c-11 0 -19 -1 -23 -2c-34 -8 -65 -44 -67 -68c0 -4 2 -7 7 -5c37 9 87 12 109 12c92 0 199 -28 199 -130c0 -58 -53 -113 -105 -135
c-10 -5 -16 -2 -21 6l-22 34c-4 6 -2 12 6 17zM298 284c0 49 -38 92 -92 92c-60 0 -98 -43 -98 -92c0 -48 34 -91 92 -91c62 0 98 41 98 91zM271 553c0 -26 -21 -47 -46 -47c-27 0 -48 20 -48 46s21 47 47 47s47 -21 47 -46z" />
    <glyph glyph-name="Gcommaaccent" unicode="&#x122;" horiz-adv-x="480" 
d="M427 161c0 -98 -74 -167 -181 -167s-188 60 -188 169v292c0 105 83 170 189 170c65 0 136 -23 169 -81c5 -9 3 -13 -5 -20l-39 -31c-7 -5 -15 -1 -21 7c-28 39 -69 51 -103 51c-73 0 -106 -47 -106 -104v-283c0 -56 40 -97 104 -97c57 0 95 35 95 95v92c0 5 -1 8 -6 8
h-74c-8 0 -12 3 -12 11v51c0 8 4 12 12 12h153c7 0 13 -4 13 -12v-163zM286 -59l-47 -158c-3 -8 -8 -12 -15 -12h-27c-9 0 -12 9 -11 17l10 157c1 9 6 16 15 16h62c13 0 17 -7 13 -20z" />
    <glyph glyph-name="gcommaaccent" unicode="&#x123;" horiz-adv-x="438" 
d="M283 -141c33 20 60 49 60 75c0 49 -64 62 -115 62c-43 0 -101 -8 -150 -16c-16 -2 -20 2 -25 9c-12 17 -18 41 -18 66c0 37 30 74 66 94c4 2 4 7 0 9l-4 2c-41 27 -69 71 -69 128c0 88 79 157 172 157c44 0 85 -14 116 -38c4 -3 6 -3 10 0c25 21 58 35 90 35
c11 1 14 -5 14 -15v-51c0 -11 -2 -12 -15 -11c-18 3 -34 1 -47 -4c-6 -1 -7 -4 -5 -8c11 -19 17 -41 17 -65c0 -92 -82 -158 -180 -158c-11 0 -19 -1 -23 -2c-34 -8 -65 -44 -67 -68c0 -4 2 -7 7 -5c37 9 87 12 109 12c92 0 199 -28 199 -130c0 -58 -53 -113 -105 -135
c-10 -5 -16 -2 -21 6l-22 34c-4 6 -2 12 6 17zM298 284c0 49 -38 92 -92 92c-60 0 -98 -43 -98 -92c0 -48 34 -91 92 -91c62 0 98 41 98 91zM162 511l47 158c3 8 8 12 15 12h27c9 0 12 -9 11 -17l-10 -157c-1 -9 -6 -16 -15 -16h-62c-13 0 -17 7 -13 20z" />
    <glyph glyph-name="Hcircumflex" unicode="&#x124;" horiz-adv-x="627" 
d="M461 12c0 -8 -4 -12 -12 -12h-61c-8 0 -12 4 -12 11v263c0 6 -2 9 -8 9h-213c-6 0 -8 -3 -8 -9v-262c0 -8 -4 -12 -11 -12h-61c-8 0 -12 4 -12 11v595c0 7 2 11 11 11h61c8 0 12 -4 12 -10v-243c0 -6 2 -9 8 -9h213c6 0 8 3 8 9v242c0 7 4 11 11 11h61c8 0 13 -4 13 -10
v-595zM120 675l96 99c6 6 11 9 22 9h32c11 0 16 -3 22 -9l96 -99c6 -5 8 -11 -1 -17l-14 -10c-9 -7 -15 -4 -22 1l-88 61c-5 5 -9 5 -15 0l-91 -61c-8 -5 -13 -8 -22 -1l-14 10c-9 6 -7 12 -1 17z" />
    <glyph glyph-name="hcircumflex" unicode="&#x125;" horiz-adv-x="466" 
d="M410 10c0 -7 -3 -10 -9 -10h-62c-7 0 -9 3 -9 9v267c0 57 -29 98 -96 98c-58 0 -96 -41 -96 -97v-267c0 -7 -3 -10 -10 -10h-61c-6 0 -10 3 -10 9v618c0 7 3 10 9 10h62c7 0 9 -3 9 -10v-211c0 -10 9 -12 15 -6c29 21 66 33 103 33c99 0 155 -67 155 -166v-267zM-35 675
l96 99c6 6 11 9 22 9h32c11 0 16 -3 22 -9l96 -99c6 -5 8 -11 -1 -17l-14 -10c-9 -7 -15 -4 -22 1l-88 61c-5 5 -9 5 -15 0l-91 -61c-8 -5 -13 -8 -22 -1l-14 10c-9 6 -7 12 -1 17z" />
    <glyph glyph-name="Itilde" unicode="&#x128;" horiz-adv-x="241" 
d="M162 12c0 -8 -4 -12 -12 -12h-62c-7 0 -12 4 -12 11v595c0 7 4 11 12 11h62c7 0 12 -4 12 -10v-595zM248 742c-21 -45 -53 -63 -78 -63c-43 0 -75 35 -109 35c-11 0 -27 -15 -36 -31c-4 -7 -10 -8 -17 -4l-27 16c-6 3 -3 11 -1 16c17 33 45 63 78 63c40 0 78 -37 108 -37
c14 0 27 17 36 33c2 4 4 8 11 4l32 -15c6 -2 7 -8 3 -17z" />
    <glyph glyph-name="itilde" unicode="&#x129;" horiz-adv-x="262" 
d="M91 9v419c0 7 3 10 9 10h62c7 0 10 -3 10 -10v-419c0 -7 -2 -9 -9 -9h-62c-6 0 -10 3 -10 9zM266 572c-21 -45 -53 -63 -78 -63c-43 0 -75 35 -109 35c-11 0 -27 -15 -36 -31c-4 -7 -10 -8 -17 -4l-27 16c-6 3 -3 11 -1 16c17 33 45 63 78 63c40 0 78 -37 108 -37
c14 0 27 17 36 33c2 4 4 8 11 4l32 -15c6 -2 7 -8 3 -17z" />
    <glyph glyph-name="Imacron" unicode="&#x12a;" horiz-adv-x="241" 
d="M162 12c0 -8 -4 -12 -12 -12h-62c-7 0 -12 4 -12 11v595c0 7 4 11 12 11h62c7 0 12 -4 12 -10v-595zM231 683c0 -6 -3 -10 -9 -10h-213c-7 0 -10 3 -10 10v41c0 7 3 10 9 10h213c6 0 10 -3 10 -9v-42z" />
    <glyph glyph-name="imacron" unicode="&#x12b;" horiz-adv-x="234" 
d="M79 9v419c0 7 3 10 9 10h62c7 0 10 -3 10 -10v-419c0 -7 -2 -9 -9 -9h-62c-6 0 -10 3 -10 9zM233 525c0 -6 -3 -10 -9 -10h-213c-7 0 -10 3 -10 10v41c0 7 3 10 9 10h213c6 0 10 -3 10 -9v-42z" />
    <glyph glyph-name="Ibreve" unicode="&#x12c;" horiz-adv-x="271" 
d="M16 767c0 7 2 11 12 11h21c11 0 11 -4 14 -13c12 -38 31 -59 69 -59c37 0 59 20 69 59c2 9 2 13 14 13h21c10 0 12 -4 12 -11c-3 -67 -48 -122 -117 -122c-64 0 -112 55 -115 122zM178 12c0 -8 -4 -12 -12 -12h-62c-7 0 -12 4 -12 11v595c0 7 4 11 12 11h62
c7 0 12 -4 12 -10v-595z" />
    <glyph glyph-name="ibreve" unicode="&#x12d;" horiz-adv-x="231" 
d="M73 9v419c0 7 3 10 9 10h62c7 0 10 -3 10 -10v-419c0 -7 -2 -9 -9 -9h-62c-6 0 -10 3 -10 9zM-2 620c0 7 1 11 12 11h21c11 0 11 -4 14 -13c12 -38 31 -59 69 -59c37 0 59 20 69 59c2 9 2 13 14 13h21c10 0 12 -4 12 -11c-3 -67 -48 -122 -117 -122
c-64 0 -112 55 -115 122z" />
    <glyph glyph-name="Idotaccent" unicode="&#x130;" horiz-adv-x="241" 
d="M162 12c0 -8 -4 -12 -12 -12h-62c-7 0 -12 4 -12 11v595c0 7 4 11 12 11h62c7 0 12 -4 12 -10v-595zM167 723c0 -26 -21 -47 -46 -47c-27 0 -48 20 -48 46s21 47 47 47s47 -21 47 -46z" />
    <glyph glyph-name="dotlessi" unicode="&#x131;" horiz-adv-x="203" 
d="M61 9v419c0 7 3 10 9 10h62c7 0 10 -3 10 -10v-419c0 -7 -2 -9 -9 -9h-62c-6 0 -10 3 -10 9z" />
    <glyph glyph-name="IJ" unicode="&#x132;" horiz-adv-x="461" 
d="M151 12c0 -8 -4 -12 -12 -12h-62c-7 0 -12 4 -12 11v595c0 7 4 11 12 11h62c7 0 12 -4 12 -10v-595zM194 -103l-13 40c-3 10 -5 17 10 22c73 29 123 57 123 163v482c0 9 6 13 15 13h52c10 0 15 -6 15 -13v-474c0 -125 -40 -208 -182 -247c-10 -3 -16 0 -20 14z" />
    <glyph glyph-name="ij" unicode="&#x133;" horiz-adv-x="399" 
d="M154 576c0 -27 -23 -50 -51 -50s-50 21 -50 50c0 27 22 49 49 49c29 0 52 -21 52 -49zM61 9v419c0 7 3 10 9 10h62c7 0 10 -3 10 -10v-419c0 -7 -2 -9 -9 -9h-62c-6 0 -10 3 -10 9zM346 576c0 -27 -23 -50 -51 -50s-50 21 -50 50c0 27 22 49 49 49c29 0 52 -21 52 -49z
M158 -164l9 49c1 6 6 9 17 7c9 -1 17 -2 24 -2c36 1 48 23 48 62v477c0 6 4 9 10 9h60c7 0 9 -5 9 -9v-486c0 -69 -32 -127 -116 -127c-24 0 -38 1 -50 4c-9 3 -13 6 -11 16z" />
    <glyph glyph-name="Jcircumflex" unicode="&#x134;" horiz-adv-x="269" 
d="M3 -102l-13 40c-3 10 -5 17 10 22c73 29 123 57 123 163v482c0 9 6 13 15 13h52c10 0 15 -6 15 -13v-474c0 -125 -40 -208 -182 -247c-10 -3 -16 0 -20 14zM26 677l96 99c6 6 11 9 22 9h32c11 0 16 -3 22 -9l96 -99c6 -5 8 -11 -1 -17l-14 -10c-9 -7 -15 -4 -22 1l-88 61
c-5 5 -9 5 -15 0l-91 -61c-8 -5 -13 -8 -22 -1l-14 10c-9 6 -7 12 -1 17z" />
    <glyph glyph-name="jcircumflex" unicode="&#x135;" horiz-adv-x="253" 
d="M-16 -164l9 49c1 6 6 9 17 7c9 -1 17 -2 24 -2c36 1 48 23 48 62v477c0 6 4 9 10 9h60c7 0 9 -5 9 -9v-486c0 -69 -32 -127 -116 -127c-24 0 -38 1 -50 4c-9 3 -13 6 -11 16zM255 526c6 -7 8 -14 -1 -21l-14 -12c-9 -8 -14 -5 -22 2l-91 80c-6 6 -10 6 -15 1l-88 -81
c-7 -7 -13 -10 -22 -2l-14 12c-9 7 -7 14 -1 21l96 117c6 7 11 11 22 11h32c11 0 16 -4 22 -11z" />
    <glyph glyph-name="Kcommaaccent" unicode="&#x136;" horiz-adv-x="499" 
d="M380 617h65c13 0 15 -7 10 -14l-185 -227c-5 -6 -1 -10 5 -10c10 0 19 1 28 0c91 -7 134 -67 141 -165l15 -191c0 -7 -3 -10 -10 -10h-58c-7 0 -11 3 -11 9l-12 180c-3 44 -15 113 -105 113c-76 0 -115 -49 -115 -119v-173c0 -7 -3 -10 -9 -10h-65c-8 0 -11 3 -11 9v598
c0 7 3 10 11 10h65c6 0 9 -3 9 -9v-248c0 -12 7 -8 11 -4l207 254c4 5 8 7 14 7zM281 -39l-47 -158c-3 -8 -8 -12 -15 -12h-27c-9 0 -12 9 -11 17l10 157c1 9 6 16 15 16h62c13 0 17 -7 13 -20z" />
    <glyph glyph-name="kcommaaccent" unicode="&#x137;" horiz-adv-x="437" 
d="M414 17c0 -12 -3 -17 -14 -17h-53c-11 0 -14 5 -14 14l-5 93c-3 52 -21 96 -94 96c-62 0 -96 -43 -96 -95v-98c0 -7 -3 -10 -10 -10h-61c-6 0 -10 3 -10 9v618c0 6 3 10 9 10h62c7 0 9 -3 9 -9v-354c0 -15 8 -17 15 -10l155 169c4 4 8 5 14 5h74c7 0 11 -4 11 -9
c0 -3 -3 -6 -5 -9l-132 -142c-5 -6 -3 -8 4 -10c9 -1 18 -2 26 -4c82 -19 107 -79 111 -156zM274 -59l-47 -158c-3 -8 -8 -12 -15 -12h-27c-9 0 -12 9 -11 17l10 157c1 9 6 16 15 16h62c13 0 17 -7 13 -20z" />
    <glyph glyph-name="kgreenlandic" unicode="&#x138;" horiz-adv-x="441" 
d="M414 17c0 -12 -3 -17 -14 -17h-53c-11 0 -14 5 -14 14l-5 93c-3 52 -21 96 -94 96c-62 0 -96 -43 -96 -95v-98c0 -7 -3 -10 -10 -10h-61c-6 0 -10 3 -10 9v421c0 6 3 10 9 10h62c7 0 9 -3 9 -9v-157c0 -15 8 -17 15 -10l155 169c4 4 8 5 14 5h74c7 0 11 -4 11 -9
c0 -3 -3 -6 -5 -9l-132 -142c-5 -6 -3 -8 4 -10c13 -1 24 -2 35 -5c75 -18 98 -81 102 -155z" />
    <glyph glyph-name="Lacute" unicode="&#x139;" horiz-adv-x="426" 
d="M407 12c0 -8 -4 -12 -11 -12h-318c-8 0 -12 4 -12 11v595c0 7 2 11 11 11h61c8 0 11 -4 11 -10v-525c0 -6 2 -9 8 -9h238c7 0 12 -4 12 -11v-50zM244 715l-132 -69c-6 -3 -16 -3 -21 4l-13 18c-5 7 -4 13 3 18l116 92c6 5 16 8 22 1l30 -44c8 -11 1 -17 -5 -20z" />
    <glyph glyph-name="lacute" unicode="&#x13a;" horiz-adv-x="221" 
d="M63 627c0 6 3 10 9 10h61c6 0 10 -3 10 -9v-504c0 -46 12 -55 44 -55h13c9 0 9 -8 9 -15v-47c0 -8 -4 -12 -10 -13c-8 -2 -22 -2 -28 -2c-90 0 -108 45 -108 133v502zM244 751l-132 -69c-6 -3 -16 -3 -21 4l-13 18c-5 7 -4 13 3 18l116 92c6 5 16 8 22 1l30 -44
c8 -11 1 -17 -5 -20z" />
    <glyph glyph-name="Lcommaaccent" unicode="&#x13b;" horiz-adv-x="426" 
d="M407 12c0 -8 -4 -12 -11 -12h-318c-8 0 -12 4 -12 11v595c0 7 2 11 11 11h61c8 0 11 -4 11 -10v-525c0 -6 2 -9 8 -9h238c7 0 12 -4 12 -11v-50zM261 -59l-47 -158c-3 -8 -8 -12 -15 -12h-27c-9 0 -12 9 -11 17l10 157c1 9 6 16 15 16h62c13 0 17 -7 13 -20z" />
    <glyph glyph-name="lcommaaccent" unicode="&#x13c;" horiz-adv-x="221" 
d="M63 627c0 6 3 10 9 10h61c6 0 10 -3 10 -9v-504c0 -46 12 -55 44 -55h13c9 0 9 -8 9 -15v-47c0 -8 -4 -12 -10 -13c-8 -2 -22 -2 -28 -2c-90 0 -108 45 -108 133v502zM168 -59l-47 -158c-3 -8 -8 -12 -15 -12h-27c-9 0 -12 9 -11 17l10 157c1 9 6 16 15 16h62
c13 0 17 -7 13 -20z" />
    <glyph glyph-name="Lcaron" unicode="&#x13d;" horiz-adv-x="426" 
d="M407 12c0 -8 -4 -12 -11 -12h-318c-8 0 -12 4 -12 11v595c0 7 2 11 11 11h61c8 0 11 -4 11 -10v-525c0 -6 2 -9 8 -9h238c7 0 12 -4 12 -11v-50zM339 597l-47 -158c-3 -8 -8 -12 -15 -12h-27c-9 0 -12 9 -11 17l10 157c1 9 6 16 15 16h62c13 0 17 -7 13 -20z" />
    <glyph glyph-name="lcaron" unicode="&#x13e;" horiz-adv-x="328" 
d="M320 610l-47 -158c-3 -8 -8 -12 -15 -12h-27c-9 0 -12 9 -11 17l10 157c1 9 6 16 15 16h62c13 0 17 -7 13 -20zM63 627c0 6 3 10 9 10h61c6 0 10 -3 10 -9v-504c0 -46 12 -55 44 -55h13c9 0 9 -8 9 -15v-47c0 -8 -4 -12 -10 -13c-8 -2 -22 -2 -28 -2
c-90 0 -108 45 -108 133v502z" />
    <glyph glyph-name="Ldot" unicode="&#x13f;" horiz-adv-x="426" 
d="M407 12c0 -8 -4 -12 -11 -12h-318c-8 0 -12 4 -12 11v595c0 7 2 11 11 11h61c8 0 11 -4 11 -10v-525c0 -6 2 -9 8 -9h238c7 0 12 -4 12 -11v-50zM328 303c0 -26 -21 -47 -46 -47c-27 0 -48 20 -48 46s21 47 47 47s47 -21 47 -46z" />
    <glyph glyph-name="ldot" unicode="&#x140;" horiz-adv-x="297" 
d="M288 343c0 -26 -21 -47 -46 -47c-27 0 -48 20 -48 46s21 47 47 47s47 -21 47 -46zM63 627c0 6 3 10 9 10h61c6 0 10 -3 10 -9v-504c0 -46 12 -55 44 -55h13c9 0 9 -8 9 -15v-47c0 -8 -4 -12 -10 -13c-8 -2 -22 -2 -28 -2c-90 0 -108 45 -108 133v502z" />
    <glyph glyph-name="Nacute" unicode="&#x143;" horiz-adv-x="519" 
d="M82 617h36c16 0 21 -7 27 -16l233 -429c1 -2 3 -3 3 -1v435c0 7 2 11 11 11h56c8 0 12 -4 12 -10v-587c0 -17 -11 -20 -19 -20h-38c-15 0 -21 5 -26 15l-233 428c-1 1 -3 2 -3 0v-431c0 -8 -2 -12 -11 -12h-57c-8 0 -12 4 -12 11v581c0 17 2 25 21 25zM397 715l-132 -69
c-6 -3 -16 -3 -21 4l-13 18c-5 7 -4 13 3 18l116 92c6 5 16 8 22 1l30 -44c8 -11 1 -17 -5 -20z" />
    <glyph glyph-name="nacute" unicode="&#x144;" horiz-adv-x="462" 
d="M408 10c0 -7 -3 -10 -9 -10h-62c-7 0 -9 3 -9 9v267c0 57 -32 99 -96 99c-58 0 -96 -41 -96 -98v-267c0 -7 -3 -10 -10 -10h-61c-6 0 -10 3 -10 9v419c0 7 3 10 9 10h58c7 0 9 -2 9 -9v-15c0 -6 3 -9 7 -9c3 0 5 2 8 4c29 24 62 35 100 35c100 0 162 -66 162 -167v-267z
M328 601l-99 -111c-4 -5 -13 -9 -21 -4l-19 12c-7 5 -7 11 -3 18l75 127c4 7 9 16 20 9l44 -29c11 -8 7 -17 3 -22z" />
    <glyph glyph-name="Ncommaaccent" unicode="&#x145;" horiz-adv-x="519" 
d="M82 617h36c16 0 21 -7 27 -16l233 -429c1 -2 3 -3 3 -1v435c0 7 2 11 11 11h56c8 0 12 -4 12 -10v-587c0 -17 -11 -20 -19 -20h-38c-15 0 -21 5 -26 15l-233 428c-1 1 -3 2 -3 0v-431c0 -8 -2 -12 -11 -12h-57c-8 0 -12 4 -12 11v581c0 17 2 25 21 25zM300 -39l-47 -158
c-3 -8 -8 -12 -15 -12h-27c-9 0 -12 9 -11 17l10 157c1 9 6 16 15 16h62c13 0 17 -7 13 -20z" />
    <glyph glyph-name="ncommaaccent" unicode="&#x146;" horiz-adv-x="462" 
d="M408 10c0 -7 -3 -10 -9 -10h-62c-7 0 -9 3 -9 9v267c0 57 -32 99 -96 99c-58 0 -96 -41 -96 -98v-267c0 -7 -3 -10 -10 -10h-61c-6 0 -10 3 -10 9v419c0 7 3 10 9 10h58c7 0 9 -2 9 -9v-15c0 -6 3 -9 7 -9c3 0 5 2 8 4c29 24 62 35 100 35c100 0 162 -66 162 -167v-267z
M274 -59l-47 -158c-3 -8 -8 -12 -15 -12h-27c-9 0 -12 9 -11 17l10 157c1 9 6 16 15 16h62c13 0 17 -7 13 -20z" />
    <glyph glyph-name="Ncaron" unicode="&#x147;" horiz-adv-x="519" 
d="M82 617h36c16 0 21 -7 27 -16l233 -429c1 -2 3 -3 3 -1v435c0 7 2 11 11 11h56c8 0 12 -4 12 -10v-587c0 -17 -11 -20 -19 -20h-38c-15 0 -21 5 -26 15l-233 428c-1 1 -3 2 -3 0v-431c0 -8 -2 -12 -11 -12h-57c-8 0 -12 4 -12 11v581c0 17 2 25 21 25zM132 752
c-6 5 -8 11 1 17l14 10c9 7 14 4 22 -1l91 -61c6 -5 10 -5 15 0l88 61c7 5 13 8 22 1l14 -10c9 -6 7 -12 1 -17l-96 -99c-6 -6 -11 -9 -22 -9h-32c-11 0 -16 3 -22 9z" />
    <glyph glyph-name="ncaron" unicode="&#x148;" horiz-adv-x="462" 
d="M408 10c0 -7 -3 -10 -9 -10h-62c-7 0 -9 3 -9 9v267c0 57 -32 99 -96 99c-58 0 -96 -41 -96 -98v-267c0 -7 -3 -10 -10 -10h-61c-6 0 -10 3 -10 9v419c0 7 3 10 9 10h58c7 0 9 -2 9 -9v-15c0 -6 3 -9 7 -9c3 0 5 2 8 4c29 24 62 35 100 35c100 0 162 -66 162 -167v-267z
M349 611l-96 -117c-6 -7 -11 -11 -22 -11h-32c-11 0 -16 4 -22 11l-96 117c-6 7 -8 14 1 21l14 12c9 8 15 5 22 -2l88 -81c5 -5 9 -5 15 1l91 80c8 7 13 10 22 2l14 -12c9 -7 7 -14 1 -21z" />
    <glyph glyph-name="napostrophe" unicode="&#x149;" horiz-adv-x="521" 
d="M467 10c0 -7 -3 -10 -9 -10h-62c-7 0 -9 3 -9 9v267c0 57 -32 99 -96 99c-58 0 -96 -41 -96 -98v-267c0 -7 -3 -10 -10 -10h-61c-6 0 -10 3 -10 9v419c0 7 3 10 9 10h58c7 0 9 -2 9 -9v-15c0 -6 3 -9 7 -9c3 0 5 2 8 4c29 24 62 35 100 35c100 0 162 -66 162 -167v-267z
M119 600l-47 -158c-3 -8 -8 -12 -15 -12h-27c-9 0 -12 9 -11 17l10 157c1 9 6 16 15 16h62c13 0 17 -7 13 -20z" />
    <glyph glyph-name="Omacron" unicode="&#x14c;" horiz-adv-x="497" 
d="M439 165c0 -108 -81 -171 -190 -171c-108 0 -191 59 -191 171v290c0 106 84 170 190 170c104 0 191 -60 191 -170v-290zM355 167v286c0 57 -43 99 -106 99c-65 0 -107 -43 -107 -99v-286c0 -59 39 -100 106 -100c66 0 107 40 107 100zM356 683c0 -6 -3 -10 -9 -10h-213
c-7 0 -10 3 -10 10v41c0 7 3 10 9 10h213c6 0 10 -3 10 -9v-42z" />
    <glyph glyph-name="omacron" unicode="&#x14d;" horiz-adv-x="448" 
d="M400 163c0 -108 -68 -169 -176 -169c-110 0 -176 60 -176 168v115c0 102 62 168 175 168c112 0 177 -62 177 -168v-114zM320 162v115c0 57 -31 98 -96 98c-58 0 -96 -40 -96 -98v-115c0 -57 27 -99 95 -99c67 0 96 41 97 99zM338 525c0 -6 -3 -10 -9 -10h-213
c-7 0 -10 3 -10 10v41c0 7 3 10 9 10h213c6 0 10 -3 10 -9v-42z" />
    <glyph glyph-name="Obreve" unicode="&#x14e;" horiz-adv-x="497" 
d="M439 165c0 -108 -81 -171 -190 -171c-108 0 -191 59 -191 171v290c0 106 84 170 190 170c104 0 191 -60 191 -170v-290zM355 167v286c0 57 -43 99 -106 99c-65 0 -107 -43 -107 -99v-286c0 -59 39 -100 106 -100c66 0 107 40 107 100zM133 767c0 7 2 11 12 11h21
c11 0 11 -4 14 -13c12 -38 31 -59 69 -59c37 0 59 20 69 59c2 9 2 13 14 13h21c10 0 12 -4 12 -11c-3 -67 -48 -122 -117 -122c-64 0 -112 55 -115 122z" />
    <glyph glyph-name="obreve" unicode="&#x14f;" horiz-adv-x="448" 
d="M400 163c0 -108 -68 -169 -176 -169c-110 0 -176 60 -176 168v115c0 102 62 168 175 168c112 0 177 -62 177 -168v-114zM320 162v115c0 57 -31 98 -96 98c-58 0 -96 -40 -96 -98v-115c0 -57 27 -99 95 -99c67 0 96 41 97 99zM112 614c0 7 1 11 12 11h21
c11 0 11 -4 14 -13c12 -38 31 -59 69 -59c37 0 59 20 69 59c2 9 2 13 14 13h21c10 0 12 -4 12 -11c-3 -67 -48 -122 -117 -122c-64 0 -112 55 -115 122z" />
    <glyph glyph-name="Ohungarumlaut" unicode="&#x150;" horiz-adv-x="497" 
d="M439 165c0 -108 -81 -171 -190 -171c-108 0 -191 59 -191 171v290c0 106 84 170 190 170c104 0 191 -60 191 -170v-290zM355 167v286c0 57 -43 99 -106 99c-65 0 -107 -43 -107 -99v-286c0 -59 39 -100 106 -100c66 0 107 40 107 100zM439 710l-132 -69
c-6 -3 -16 -3 -21 4l-13 18c-5 7 -4 13 3 18l116 92c6 5 16 8 22 1l30 -44c8 -11 1 -17 -5 -20zM287 710l-132 -69c-6 -3 -16 -3 -21 4l-13 18c-5 7 -4 13 3 18l116 92c6 5 16 8 22 1l30 -44c8 -11 1 -17 -5 -20z" />
    <glyph glyph-name="ohungarumlaut" unicode="&#x151;" horiz-adv-x="448" 
d="M400 163c0 -108 -68 -169 -176 -169c-110 0 -176 60 -176 168v115c0 102 62 168 175 168c112 0 177 -62 177 -168v-114zM320 162v115c0 57 -31 98 -96 98c-58 0 -96 -40 -96 -98v-115c0 -57 27 -99 95 -99c67 0 96 41 97 99zM279 601l-98 -111c-5 -5 -14 -9 -21 -4
l-19 12c-8 5 -8 11 -4 18l76 127c4 7 12 14 20 9l44 -29c11 -8 7 -17 2 -22zM399 601l-98 -111c-5 -5 -14 -9 -21 -4l-19 12c-8 5 -8 11 -4 18l76 127c4 7 12 14 20 9l44 -29c11 -8 7 -17 2 -22z" />
    <glyph glyph-name="Racute" unicode="&#x154;" horiz-adv-x="483" 
d="M437 444c0 -70 -48 -135 -92 -172c-3 -2 -4 -5 -3 -7c2 -4 5 -12 114 -243c8 -17 -3 -22 -11 -22h-52c-21 0 -26 7 -32 20l-102 225c-3 5 -6 9 -15 9h-88c-6 0 -8 -3 -8 -9v-233c0 -8 -4 -12 -12 -12h-60c-7 0 -12 4 -12 11v595c0 7 4 11 12 11h176
c125 0 185 -68 185 -173zM241 545h-85c-6 0 -9 -2 -9 -8v-203c0 -6 2 -9 8 -9h122c6 0 12 3 16 5c36 25 59 73 59 105c0 52 -21 110 -111 110zM347 715l-132 -69c-6 -3 -16 -3 -21 4l-13 18c-5 7 -4 13 3 18l116 92c6 5 16 8 22 1l30 -44c8 -11 1 -17 -5 -20z" />
    <glyph glyph-name="racute" unicode="&#x155;" horiz-adv-x="291" 
d="M68 438h52c7 0 10 -3 10 -9v-47c0 -7 6 -10 11 -3c23 32 64 65 117 65c8 0 23 -1 27 -3c10 -3 11 -7 9 -15l-12 -59c-2 -11 -8 -11 -13 -10c-10 2 -20 3 -29 3c-75 0 -100 -49 -100 -113v-237c0 -7 -3 -10 -9 -10h-62c-6 0 -10 3 -10 9v419c0 7 3 10 9 10zM257 601
l-99 -111c-4 -5 -13 -9 -21 -4l-19 12c-7 5 -7 11 -3 18l75 127c4 7 9 16 20 9l44 -29c11 -8 7 -17 3 -22z" />
    <glyph glyph-name="Rcaron" unicode="&#x158;" horiz-adv-x="483" 
d="M437 444c0 -70 -48 -135 -92 -172c-3 -2 -4 -5 -3 -7c2 -4 5 -12 114 -243c8 -17 -3 -22 -11 -22h-52c-21 0 -26 7 -32 20l-102 225c-3 5 -6 9 -15 9h-88c-6 0 -8 -3 -8 -9v-233c0 -8 -4 -12 -12 -12h-60c-7 0 -12 4 -12 11v595c0 7 4 11 12 11h176
c125 0 185 -68 185 -173zM241 545h-85c-6 0 -9 -2 -9 -8v-203c0 -6 2 -9 8 -9h122c6 0 12 3 16 5c36 25 59 73 59 105c0 52 -21 110 -111 110zM79 752c-6 5 -8 11 1 17l14 10c9 7 14 4 22 -1l91 -61c6 -5 10 -5 15 0l88 61c7 5 13 8 22 1l14 -10c9 -6 7 -12 1 -17l-96 -99
c-6 -6 -11 -9 -22 -9h-32c-11 0 -16 3 -22 9z" />
    <glyph glyph-name="rcaron" unicode="&#x159;" horiz-adv-x="291" 
d="M68 438h52c7 0 10 -3 10 -9v-47c0 -7 6 -10 11 -3c23 32 64 65 117 65c8 0 23 -1 27 -3c10 -3 11 -7 9 -15l-12 -59c-2 -11 -8 -11 -13 -10c-10 2 -20 3 -29 3c-75 0 -100 -49 -100 -113v-237c0 -7 -3 -10 -9 -10h-62c-6 0 -10 3 -10 9v419c0 7 3 10 9 10zM296 611
l-96 -117c-6 -7 -11 -11 -22 -11h-32c-11 0 -16 4 -22 11l-96 117c-6 7 -8 14 1 21l14 12c9 8 15 5 22 -2l88 -81c5 -5 9 -5 15 1l91 80c8 7 13 10 22 2l14 -12c9 -7 7 -14 1 -21z" />
    <glyph glyph-name="Sacute" unicode="&#x15a;" horiz-adv-x="453" 
d="M207 68c76 0 129 35 129 102s-61 89 -115 108c-78 27 -181 64 -181 177c0 107 80 170 181 170c48 0 112 -8 169 -50c12 -9 4 -17 1 -22l-24 -38c-6 -9 -17 -6 -25 -1c-45 26 -78 37 -112 37c-58 0 -107 -24 -107 -98c0 -54 62 -78 118 -99c89 -34 178 -64 178 -183
c0 -108 -87 -176 -211 -176c-76 0 -147 27 -183 77c-6 7 -6 12 4 20l37 34c8 6 13 2 22 -7c31 -33 74 -51 119 -51zM340 722l-132 -69c-6 -3 -16 -3 -21 4l-13 18c-5 7 -4 13 3 18l116 92c6 5 16 8 22 1l30 -44c8 -11 1 -17 -5 -20z" />
    </font>
</defs>
</svg>
