<?xml version="1.0" standalone="no"?>
<!DOCTYPE svg PUBLIC "-//W3C//DTD SVG 1.1//EN" "http://www.w3.org/Graphics/SVG/1.1/DTD/svg11.dtd" >
<svg>
<metadata>
Created by FontForge 20110222 at Tue Nov 22 10:59:04 2011
 By System Administrator
Copyright (c) 2005 Parachute :, www.parachute.gr.  All rights reserved.
</metadata>
<defs>
<font id="PFHandbookPro-ThinItalic" horiz-adv-x="1818" >
  <font-face 
    font-family="PF Handbook Pro Thin"
    font-weight="200"
    font-style="italic"
    font-stretch="normal"
    units-per-em="1000"
    panose-1="2 0 5 6 0 0 0 9 0 4"
    ascent="750"
    descent="-250"
    x-height="434"
    cap-height="617"
    bbox="-228 -204 1760 913"
    underline-thickness="50"
    underline-position="-50"
    slope="-12"
    stemh="37"
    stemv="65"
    unicode-range="U+0020-FB05"
  />
<missing-glyph horiz-adv-x="432" 
d="M0 0v700h432v-700h-432zM216 378l160 291h-320zM236 350l167 -301v604zM56 31h320l-160 291zM30 650v-599l166 299z" />
    <glyph glyph-name="fj" unicode="fj" horiz-adv-x="392" 
d="M371 427l-92 -491c-15 -76 -51 -115 -120 -115c-19 0 -37 2 -47 6c-5 1 -7 3 -4 9l9 22c2 4 5 6 11 5c9 -3 25 -4 35 -4c45 0 65 27 76 80l86 454c1 4 0 6 -5 6h-157c-5 -1 -7 -4 -8 -9l-74 -384c-1 -4 -3 -6 -8 -6h-29c-4 0 -7 2 -6 6l74 383c1 6 2 9 -3 10h-50
c-4 0 -6 1 -5 6l5 22c0 4 3 7 8 7h47c7 0 8 3 10 9l10 51c18 94 65 145 150 145c47 0 88 -15 112 -37c4 -4 4 -6 -1 -11l-15 -17c-6 -6 -9 -4 -12 -1c-20 16 -52 29 -87 29c-61 0 -93 -43 -104 -99l-11 -60c-2 -6 0 -9 5 -9h194c6 0 6 -3 6 -7z" />
    <glyph glyph-name="ffj" unicode="ffj" horiz-adv-x="610" 
d="M590 427l-92 -491c-15 -76 -44 -115 -118 -115c-19 0 -37 2 -47 6c-5 1 -7 3 -4 9l7 22c2 4 5 6 11 5c9 -3 25 -4 35 -4c43 0 65 27 76 80l85 454c1 4 0 6 -5 6h-156c-5 -1 -7 -4 -8 -9l-74 -384c-1 -4 -3 -6 -8 -6h-28c-5 0 -7 2 -6 6l74 383c1 6 1 9 -4 10h-158
c-5 -1 -7 -4 -8 -9l-74 -384c-1 -4 -3 -6 -8 -6h-28c-4 0 -7 2 -6 6l74 383c1 6 1 9 -4 10h-49c-4 0 -6 1 -5 6l5 22c0 4 2 7 7 7h47c7 0 9 3 11 9l9 48c17 89 80 133 159 133c38 0 67 -7 89 -19c1 0 3 -1 5 -1s3 0 4 1c29 25 67 39 103 39c45 0 89 -16 112 -38
c3 -2 4 -5 0 -11l-12 -17c-5 -7 -9 -4 -12 -1c-20 16 -53 29 -88 29c-63 0 -93 -42 -103 -95l-13 -68c-2 -6 1 -9 6 -9h193c6 0 6 -3 6 -7zM358 522c3 18 9 32 15 43l1 1c-1 2 -2 4 -6 6c-21 9 -46 15 -67 15c-75 0 -108 -41 -121 -104l-7 -40c-2 -6 1 -9 6 -9h154
c7 0 8 3 10 9z" />
    <glyph glyph-name="ff" unicode="ff" horiz-adv-x="476" 
d="M391 513l-13 -70c-1 -5 -1 -9 6 -9h118c5 0 5 -3 5 -7l-5 -22c-1 -5 -3 -6 -7 -6h-120c-5 -1 -7 -4 -8 -9l-106 -549c-1 -4 -3 -6 -7 -6h-29c-4 0 -7 2 -7 6l107 548c0 2 1 4 1 5c0 3 -1 4 -5 5h-158c-5 -1 -7 -4 -8 -9l-93 -477c0 -4 -2 -6 -7 -6h-28c-5 0 -7 2 -7 6
l93 476c0 2 1 4 1 5c0 3 -1 4 -5 5h-49c-3 0 -5 1 -5 4v2c2 8 3 15 4 22c0 4 3 7 8 7h47c7 0 8 3 10 9l10 52c18 87 80 131 160 131c31 0 70 -9 91 -21c4 -2 6 -3 9 0c31 29 70 40 106 40c39 0 69 -12 89 -27c4 -4 4 -6 1 -11l-11 -18c-3 -5 -6 -5 -10 -3
c-15 12 -38 22 -75 22c-56 0 -93 -40 -103 -95zM351 523c3 18 9 32 15 44c-1 2 -3 6 -9 8c-20 8 -44 13 -64 13c-74 0 -108 -41 -120 -103l-8 -42c-1 -6 2 -9 7 -9h154c7 0 8 3 10 9z" />
    <glyph glyph-name="fi" unicode="fi" horiz-adv-x="393" 
d="M177 504l-11 -60c-1 -6 1 -9 6 -9h192c8 0 8 -3 7 -10l-76 -419c-1 -4 -3 -6 -8 -6h-28c-4 0 -7 2 -6 6l70 387c1 4 0 6 -5 6h-155c-5 -1 -7 -4 -8 -9l-106 -549c-1 -4 -3 -6 -8 -6h-28c-4 0 -7 2 -6 6l106 549c1 5 1 8 -4 9h-49c-4 0 -6 2 -5 7l5 22c0 4 2 7 7 7h47
c7 0 9 2 11 9l13 68c18 90 82 128 153 128c51 0 86 -16 104 -36c4 -4 5 -6 0 -11l-15 -18c-4 -5 -7 -5 -12 -2c-14 15 -42 30 -85 30c-62 0 -95 -43 -106 -99z" />
    <glyph glyph-name="fl" unicode="fl" horiz-adv-x="420" 
d="M363 25l-4 -23c-1 -5 -4 -7 -9 -7h-19c-69 0 -71 49 -62 96l93 480c2 7 -1 8 -2 9c-20 15 -52 22 -80 22c-59 0 -92 -42 -103 -98l-11 -61c-2 -6 0 -9 5 -9h108c7 0 7 -2 6 -9l-3 -18c-2 -8 -5 -8 -10 -8h-109c-5 -1 -7 -4 -8 -9l-105 -545c-1 -4 -3 -6 -8 -6h-29
c-4 0 -7 2 -6 6l105 544c1 6 2 9 -3 10h-50c-4 0 -6 1 -5 6l5 22c0 4 3 7 8 7h47c7 0 8 3 10 9l13 69c18 90 83 128 150 128c40 0 67 -10 97 -22c7 2 16 8 23 8c5 0 7 -3 5 -10l-101 -521c-8 -40 -4 -61 36 -61h10c8 0 7 -4 6 -9z" />
    <glyph glyph-name="ffi" unicode="ffi" horiz-adv-x="612" 
d="M358 523c4 18 9 32 16 43v1c-1 2 -2 4 -6 6c-20 9 -46 15 -67 15c-75 0 -108 -41 -120 -104l-8 -41c-2 -6 1 -9 6 -9h154c7 0 8 3 10 9zM501 606c-57 0 -93 -42 -103 -95l-13 -68c-2 -6 1 -9 6 -9h197c8 0 8 -3 7 -10l-81 -418c-1 -4 -3 -6 -8 -6h-29c-4 0 -7 2 -6 6
l75 387c1 4 0 6 -5 6h-159c-5 -1 -7 -4 -8 -9l-105 -549c-1 -4 -3 -6 -8 -6h-28c-5 0 -7 2 -6 6l105 548c1 6 1 9 -4 10h-158c-5 -1 -7 -4 -8 -9l-92 -477c-1 -4 -3 -6 -8 -6h-28c-4 0 -7 2 -6 6l92 476c1 6 1 9 -4 10h-49c-4 0 -6 1 -5 6l5 22c0 4 2 7 7 7h47c7 0 9 3 11 9
l10 51c16 85 84 131 159 131c35 0 71 -8 94 -20c1 0 3 -1 5 -1s3 0 4 1c29 25 67 39 103 39c46 0 86 -18 105 -36c3 -3 4 -6 0 -11l-15 -18c-4 -5 -7 -5 -12 -2c-17 12 -48 29 -84 29z" />
    <glyph glyph-name="ffl" unicode="ffl" horiz-adv-x="631" 
d="M343 443l12 66c5 22 11 39 19 53c0 1 1 3 2 4c0 3 -1 5 -4 6c-23 11 -50 16 -73 16c-67 0 -106 -38 -118 -104l-8 -41c-2 -6 1 -9 6 -9h154c7 0 8 3 10 9zM509 644c40 0 67 -10 96 -22c8 2 17 8 24 8c5 0 6 -3 5 -10l-101 -521c-8 -40 -4 -61 36 -61h10c8 0 7 -4 6 -9
l-4 -23c-1 -5 -5 -7 -10 -7h-19c-69 0 -70 49 -61 96l93 480c2 7 -1 8 -2 9c-20 15 -53 23 -83 23c-59 0 -91 -43 -102 -99l-12 -65c-2 -6 0 -9 5 -9h108c7 0 7 -2 6 -9l-3 -18c-2 -8 -5 -8 -10 -8h-109c-5 -1 -7 -4 -8 -9l-107 -549c-1 -4 -3 -6 -8 -6h-29c-4 0 -7 2 -6 6
l107 548c1 6 2 9 -4 10h-157c-5 -1 -7 -4 -8 -9l-91 -477c-1 -4 -3 -6 -8 -6h-28c-4 0 -7 2 -6 6l91 476c1 6 1 9 -4 10h-49c-4 0 -6 1 -5 6l5 22c0 4 2 7 7 7h47c7 0 9 3 11 9l10 51c16 85 84 131 159 131c35 0 71 -8 94 -20c1 0 3 -1 5 -1s3 0 4 1c30 26 66 39 105 39z
" />
    <glyph glyph-name="ft" unicode="ft" horiz-adv-x="486" 
d="M382 443c-1 -5 -1 -8 4 -8h112c4 0 6 -2 5 -7l-5 -22c0 -4 -2 -7 -7 -7h-110c-5 0 -9 -3 -10 -9l-52 -270c-12 -61 4 -88 52 -88c18 0 47 4 62 9c7 2 8 -1 8 -5l1 -22c1 -7 -1 -8 -7 -10c-20 -6 -55 -9 -77 -9c-81 0 -94 53 -81 119l53 276c1 6 0 9 -6 9h-161
c-5 -1 -7 -4 -8 -9l-105 -549c-1 -4 -3 -6 -8 -6h-28c-4 0 -7 2 -6 6l105 549c1 5 1 8 -4 9h-49c-4 0 -6 2 -5 7l5 22c0 4 2 7 7 7h47c7 0 9 2 11 9l13 68c17 86 77 128 145 128c30 0 57 -7 74 -15c5 -2 7 -4 4 -10l-12 -23c-2 -4 -6 -5 -11 -3c-16 8 -36 13 -59 13
c-61 0 -91 -42 -101 -95l-12 -63c-1 -6 1 -9 6 -9h160c5 1 8 4 9 9l17 88c1 4 3 7 8 8l29 7c5 1 6 -3 5 -7z" />
    <glyph glyph-name=".notdef" horiz-adv-x="432" 
d="M0 0v700h432v-700h-432zM216 378l160 291h-320zM236 350l167 -301v604zM56 31h320l-160 291zM30 650v-599l166 299z" />
    <glyph glyph-name="exclam" unicode="!" horiz-adv-x="248" 
d="M226 607l-96 -442c-1 -5 -3 -8 -9 -8h-9c-6 0 -8 3 -7 8l71 442c1 6 5 9 12 9h30c7 0 10 -3 8 -9zM127 29c-4 -20 -22 -35 -43 -35c-19 0 -32 16 -28 35c3 19 22 35 41 35c21 0 34 -15 30 -35z" />
    <glyph glyph-name="quotedbl" unicode="&#x22;" horiz-adv-x="217" 
d="M243 617c5 0 6 -2 5 -6l-36 -185c0 -4 -3 -6 -7 -6h-23c-3 0 -7 1 -6 6l36 185c1 4 5 6 9 6h22zM158 617c5 0 7 -2 5 -6l-36 -185c0 -4 -3 -6 -7 -6h-22c-4 0 -7 1 -6 6l36 185c1 4 4 6 8 6h22z" />
    <glyph glyph-name="numbersign" unicode="#" horiz-adv-x="445" 
d="M467 419l-7 -16c-3 -5 -6 -7 -10 -7h-61c-7 0 -10 -2 -12 -7l-65 -158c-3 -8 -2 -10 6 -10h71c5 0 5 -3 4 -7l-8 -19c-2 -5 -5 -6 -9 -6h-74c-7 0 -8 -2 -10 -6l-55 -137c-2 -3 -5 -5 -9 -5h-19c-6 0 -7 3 -6 8l54 132c2 5 2 8 -6 8h-112c-6 0 -8 -1 -10 -6l-56 -137
c-2 -3 -4 -5 -9 -5h-19c-5 0 -7 3 -6 8c1 2 54 131 54 131c2 6 3 9 -5 9h-58c-5 0 -6 2 -5 5l8 20c2 4 6 7 11 7h59c5 0 8 2 10 7l65 159c3 7 3 9 -4 9h-69c-4 0 -5 2 -3 6c1 2 6 14 7 19c2 4 5 7 9 7h71c5 0 7 2 9 7l49 120c2 4 4 5 8 5h21c6 0 6 -3 5 -8l-47 -115
c-3 -6 -2 -9 5 -9h113c5 0 7 3 9 7l50 120c1 4 4 5 8 5h20c7 0 7 -3 5 -8l-47 -114c-3 -7 -2 -10 7 -10h59c6 0 5 -5 4 -9zM342 388c2 5 2 8 -6 8h-111c-5 0 -10 -3 -12 -8l-64 -159c-3 -6 -2 -8 5 -8h113c5 0 7 2 10 8z" />
    <glyph glyph-name="dollar" unicode="$" horiz-adv-x="445" 
d="M340 184c0 64 -58 97 -107 114c-59 21 -147 52 -147 141c0 98 75 160 174 163c6 0 9 2 10 7l11 55c1 5 5 7 9 7h17c5 0 6 -3 6 -7l-12 -55c-1 -5 1 -7 8 -8c43 -3 83 -18 111 -42c4 -3 2 -6 -1 -10l-18 -20c-4 -4 -8 -3 -11 0c-32 28 -81 37 -114 37
c-80 0 -147 -42 -147 -123c0 -61 65 -86 115 -106c83 -31 140 -67 140 -151c0 -100 -77 -157 -183 -168c-7 0 -14 -3 -15 -12l-13 -61c-1 -4 -3 -7 -8 -7h-17c-4 0 -7 1 -6 7l12 61c2 8 0 11 -11 12c-46 4 -87 17 -119 46c-3 3 -2 6 2 9l16 20c4 4 7 3 11 0
c25 -21 70 -39 116 -39c100 0 171 43 171 130z" />
    <glyph glyph-name="ampersand" unicode="&#x26;" horiz-adv-x="570" 
d="M303 548h134c6 0 9 -2 8 -7l-5 -22c-1 -6 -4 -8 -9 -8h-135c-76 0 -135 -49 -148 -120l-44 -217c-13 -71 11 -145 109 -145h12c112 0 144 67 158 138l24 124c1 3 2 8 -7 8h-140c-5 0 -7 1 -6 7l4 21c1 5 4 8 10 8h183c49 0 90 10 138 39c2 1 5 2 7 2s4 -1 5 -4l9 -17
c0 -2 1 -4 0 -6c0 -2 -2 -5 -5 -7c-57 -32 -96 -41 -144 -43c-8 0 -11 -4 -13 -11l-19 -100c-21 -106 -58 -194 -205 -194h-12c-117 0 -170 84 -149 188l43 210c18 90 97 156 197 156z" />
    <glyph glyph-name="quotesingle" unicode="'" horiz-adv-x="153" 
d="M167 617c5 0 6 -2 5 -6l-36 -185c0 -4 -3 -6 -7 -6h-23c-4 0 -7 1 -6 6l36 185c1 4 5 6 8 6h23z" />
    <glyph glyph-name="parenleft" unicode="(" horiz-adv-x="296" 
d="M191 -127c3 -4 0 -8 -4 -10l-16 -9c-5 -4 -10 -4 -13 1c-45 71 -82 182 -82 302c0 190 115 393 245 525c4 5 8 5 13 2l11 -6c3 -3 4 -7 1 -10c-121 -138 -222 -322 -222 -511c0 -110 30 -208 67 -284z" />
    <glyph glyph-name="parenright" unicode=")" horiz-adv-x="296" 
d="M26 -145c-5 -5 -9 -5 -13 -1l-13 9c-3 2 -4 6 0 10c124 141 219 315 220 505c1 105 -24 206 -65 290c-2 3 0 7 5 10l13 6c6 3 10 3 12 -2c41 -67 82 -190 82 -317c0 -187 -111 -383 -241 -510z" />
    <glyph glyph-name="asterisk" unicode="*" horiz-adv-x="352" 
d="M368 526l-104 -24c-5 -1 -6 -5 -4 -8l50 -78c4 -6 3 -11 -3 -15l-21 -12c-9 -6 -14 -5 -16 2l-36 87c-1 4 -4 4 -9 -1l-70 -86c-5 -7 -10 -8 -16 -2l-15 12c-6 4 -5 10 2 16l80 77c3 2 4 6 -1 7l-94 25c-7 2 -8 5 -5 13l11 21c4 8 10 10 16 7l87 -39c5 -2 6 -1 7 4
l11 103c1 7 5 11 14 11h21c10 0 11 -5 10 -11l-29 -102c-2 -6 0 -7 4 -5l103 38c8 3 12 2 13 -6l3 -21c1 -7 -2 -12 -9 -13z" />
    <glyph glyph-name="plus" unicode="+" horiz-adv-x="445" 
d="M411 228c-2 -6 -6 -9 -11 -9h-159c-5 0 -6 0 -7 -5l-32 -164c-2 -5 -4 -8 -10 -8h-20c-6 0 -9 2 -7 8l31 164c1 3 1 5 -4 5h-155c-5 0 -8 3 -7 8l4 20c1 5 4 9 10 9h155c5 0 6 1 7 6l31 164c2 5 6 8 11 8h20c6 0 8 -3 6 -8l-31 -165c-1 -5 0 -5 5 -5h159c5 0 8 -4 7 -9z
" />
    <glyph glyph-name="comma" unicode="," horiz-adv-x="167" 
d="M88 54l-67 -150c-2 -7 -6 -9 -12 -9h-15c-6 0 -7 4 -5 11l39 151c2 6 6 10 13 10h40c10 0 11 -4 7 -13z" />
    <glyph glyph-name="hyphen" unicode="-" horiz-adv-x="298" 
d="M241 225c-1 -5 -3 -7 -7 -7h-165c-5 0 -7 2 -6 7l5 27c1 4 3 7 8 7h165c5 0 6 -3 5 -7z" />
    <glyph glyph-name="period" unicode="." horiz-adv-x="165" 
d="M54 62c18 0 30 -11 30 -28c0 -22 -20 -40 -43 -40c-16 0 -28 11 -28 27c0 22 20 41 41 41z" />
    <glyph glyph-name="slash" unicode="/" horiz-adv-x="284" 
d="M367 666l-384 -725c-2 -5 -5 -8 -10 -8h-15c-5 0 -9 3 -6 8l384 725c3 6 6 8 12 8h15c4 0 7 -3 4 -8z" />
    <glyph glyph-name="zero" unicode="0" horiz-adv-x="445" 
d="M369 150c-19 -97 -77 -157 -186 -157c-102 0 -162 64 -142 164l61 312c19 94 84 155 186 155c99 0 160 -59 141 -156zM327 151l61 316c14 70 -25 120 -101 120c-73 0 -129 -50 -143 -120l-62 -316c-14 -71 26 -121 100 -121c75 0 129 42 145 121z" />
    <glyph glyph-name="one" unicode="1" horiz-adv-x="445" 
d="M221 7c-1 -6 -3 -7 -7 -7h-30c-4 0 -6 2 -5 6l107 549c1 4 -1 6 -6 3l-103 -60c-6 -3 -9 -1 -8 3l6 32c1 8 2 11 8 14l114 64c5 3 9 5 15 5h23c4 0 5 -1 4 -5z" />
    <glyph glyph-name="two" unicode="2" horiz-adv-x="445" 
d="M333 7c-2 -5 -3 -7 -8 -7h-324c-7 0 -10 2 -8 9l3 15c2 9 4 17 10 23l279 292c38 39 97 105 97 164c0 52 -39 84 -107 84c-40 0 -89 -20 -118 -49c-6 -5 -10 -8 -16 -4l-17 15c-4 3 -3 8 1 12c39 43 96 63 155 63c85 0 144 -38 144 -113c0 -76 -71 -153 -110 -194
l-259 -272c-6 -6 -4 -7 3 -7h273c6 0 7 -3 6 -7z" />
    <glyph glyph-name="three" unicode="3" horiz-adv-x="445" 
d="M226 357c73 0 134 65 134 136c0 53 -39 94 -100 94c-48 0 -91 -20 -119 -49c-5 -6 -10 -10 -16 -5l-19 17c-4 4 -2 7 2 12c41 47 99 62 156 62c83 0 139 -51 139 -125c0 -64 -43 -143 -118 -162c-2 0 -3 -1 -3 -2c0 -2 1 -3 3 -4c40 -13 64 -55 64 -114
c0 -136 -81 -223 -199 -223c-60 0 -117 22 -138 65c-2 5 -4 7 2 11l22 14c7 4 9 1 12 -4c20 -33 64 -51 104 -51c85 0 155 72 155 185c-1 67 -37 105 -95 105h-59c-4 0 -6 2 -6 6v1l5 24c0 4 2 7 7 7h67z" />
    <glyph glyph-name="four" unicode="4" horiz-adv-x="445" 
d="M352 617h27c7 0 9 -4 5 -11l-300 -411c-3 -4 -4 -9 3 -9h188c8 0 9 5 10 10l37 188c1 5 5 7 9 7h26c5 0 6 -3 5 -7l-36 -187c-2 -7 -1 -11 7 -11h75c5 0 7 -3 6 -7l-5 -22c0 -5 -4 -7 -8 -7h-75c-5 0 -9 0 -10 -8l-26 -135c-1 -4 -3 -7 -7 -7h-27c-4 0 -8 2 -8 7l26 135
c2 7 -1 8 -7 8h-227c-7 0 -10 2 -9 10l3 14c2 13 5 20 11 27l296 409c3 6 7 7 11 7z" />
    <glyph glyph-name="five" unicode="5" horiz-adv-x="445" 
d="M363 154c-20 -105 -84 -161 -191 -161c-67 0 -114 22 -138 67c-3 6 -3 8 5 13l20 12c6 4 7 3 12 -4c20 -34 54 -51 99 -51c77 0 135 44 151 120l16 85c14 70 -17 120 -99 120c-24 0 -60 -11 -80 -24c-11 -8 -18 -8 -24 -5l-20 13c-6 4 -7 7 -6 17c0 0 39 199 49 254
c1 4 5 7 9 7h267c5 0 7 -3 6 -7l-5 -24c-1 -5 -3 -6 -7 -6h-225c-5 0 -8 -1 -10 -7l-38 -197c-1 -8 3 -10 12 -5c32 17 59 22 82 22c100 0 150 -66 131 -155z" />
    <glyph glyph-name="six" unicode="6" horiz-adv-x="445" 
d="M382 150c-18 -98 -85 -157 -191 -157c-102 0 -161 58 -141 161l61 313c18 97 93 157 188 157c62 0 112 -21 134 -66c2 -5 1 -8 -4 -11l-22 -13c-6 -4 -9 -2 -11 3c-19 31 -50 50 -96 50c-72 0 -134 -50 -148 -122l-27 -136c-1 -7 3 -7 8 -3c38 37 81 55 132 55
c99 0 149 -67 133 -154zM341 153l14 71c15 75 -26 119 -104 119c-67 0 -133 -54 -146 -121l-14 -69c-14 -74 27 -124 101 -124c80 0 134 48 149 124z" />
    <glyph glyph-name="seven" unicode="7" horiz-adv-x="445" 
d="M459 592c-1 -7 -6 -15 -9 -19c0 0 -350 -553 -357 -565c-5 -7 -8 -8 -14 -8h-30c-7 0 -8 3 -4 9l357 562c4 7 2 9 -5 9h-220c-8 0 -10 -2 -11 -8l-11 -55c-1 -4 -3 -7 -8 -7h-25c-4 0 -6 2 -6 7l18 93c1 5 5 7 9 7h310c6 0 11 -2 9 -9z" />
    <glyph glyph-name="eight" unicode="8" horiz-adv-x="445" 
d="M294 624c90 0 143 -49 143 -124c0 -65 -37 -139 -112 -169c-3 -1 -5 -3 -5 -4c0 -2 1 -3 2 -4c7 -3 13 -6 19 -11c27 -20 46 -55 46 -103c0 -148 -102 -215 -212 -215c-81 0 -142 47 -142 135c0 94 62 177 123 194c4 1 5 3 5 5s-1 3 -3 4c-42 20 -61 64 -61 107
c0 105 89 185 197 185zM289 588c-79 0 -150 -64 -150 -146c0 -55 46 -96 104 -96c77 0 150 60 150 146c0 56 -35 96 -104 96zM234 308c-74 0 -158 -62 -158 -176c0 -67 44 -103 105 -103c76 0 163 52 163 171c0 70 -48 108 -110 108z" />
    <glyph glyph-name="nine" unicode="9" horiz-adv-x="445" 
d="M363 151c-20 -100 -94 -158 -190 -158c-64 0 -109 21 -133 66c-3 5 -1 9 3 12l21 13c6 3 10 2 13 -3c18 -31 49 -51 95 -51c75 0 134 51 148 123l27 136c1 7 -2 7 -8 3c-38 -37 -81 -55 -132 -55c-95 0 -150 65 -133 154l15 76c19 99 81 157 191 157
c106 0 162 -63 142 -165zM368 395l13 65c14 74 -23 128 -101 128c-84 0 -134 -48 -149 -123l-14 -72c-15 -74 21 -119 104 -119c67 0 133 54 147 121z" />
    <glyph glyph-name="colon" unicode=":" horiz-adv-x="165" 
d="M115 376c17 0 30 -12 30 -28c0 -21 -23 -40 -43 -40c-17 0 -28 13 -28 29c0 21 19 39 41 39zM54 61c18 0 30 -11 30 -27c0 -23 -22 -40 -43 -40c-17 0 -29 12 -29 27c0 22 21 40 42 40z" />
    <glyph glyph-name="semicolon" unicode=";" horiz-adv-x="173" 
d="M121 377c18 0 29 -11 29 -27c0 -22 -19 -41 -42 -41c-17 0 -29 12 -29 27c0 21 20 41 42 41zM87 54l-66 -150c-3 -7 -7 -9 -12 -9h-15c-6 0 -7 4 -5 11l38 151c2 6 6 10 13 10h41c9 0 10 -4 6 -13z" />
    <glyph glyph-name="less" unicode="&#x3c;" horiz-adv-x="445" 
d="M23 277l405 197c2 1 5 2 7 2c4 0 6 -2 5 -8l-2 -21c-1 -6 -3 -9 -12 -14l-367 -178c-3 -2 -6 -5 -1 -8l294 -175c7 -4 9 -9 8 -15l-3 -19c-1 -8 -9 -9 -15 -5l-327 195c-5 3 -11 9 -10 15l5 20c1 6 7 11 13 14z" />
    <glyph glyph-name="equal" unicode="=" horiz-adv-x="445" 
d="M428 329c-1 -6 -5 -9 -10 -9h-363c-5 0 -8 2 -7 8l4 18c1 5 4 9 10 9h363c6 0 8 -4 7 -9zM393 147v1c-1 -6 -5 -9 -10 -9h-363c-5 0 -8 3 -7 8l3 18c1 5 5 9 11 9h363c5 0 7 -4 6 -9z" />
    <glyph glyph-name="greater" unicode="&#x3e;" horiz-adv-x="445" 
d="M421 230l-405 -197c-2 -1 -5 -2 -7 -2c-4 0 -6 2 -5 8l2 21c1 6 3 9 12 14l367 178c3 2 6 5 1 8l-294 175c-7 4 -9 9 -8 15l3 19c1 8 9 9 15 5l327 -195c5 -3 11 -9 10 -15l-5 -20c-1 -6 -7 -11 -13 -14z" />
    <glyph glyph-name="question" unicode="?" horiz-adv-x="442" 
d="M304 321c-69 -39 -106 -74 -117 -130l-9 -46c0 -5 -2 -8 -7 -8h-28c-4 0 -7 1 -7 6v2l10 52c10 50 44 100 99 133c65 38 150 79 150 173c0 40 -31 85 -97 85c-49 0 -89 -22 -119 -52c-5 -5 -10 -7 -15 -3l-17 15c-4 3 -3 8 1 12c45 46 92 64 154 64
c70 0 137 -40 137 -116c0 -87 -66 -148 -135 -187zM139 61c18 0 30 -11 30 -27c0 -22 -20 -40 -43 -40c-17 0 -29 11 -29 26c0 21 21 41 42 41z" />
    <glyph glyph-name="at" unicode="@" horiz-adv-x="732" 
d="M380 420c-69 0 -95 -55 -105 -104l-13 -70c-9 -46 8 -90 65 -90c54 0 95 42 104 89l16 80c9 44 3 95 -67 95zM324 124c-75 0 -108 52 -94 126l15 81c14 70 67 119 135 119c34 0 66 -11 81 -31c1 -1 2 -2 3 -2c2 0 4 2 4 4l4 18c2 8 5 8 11 8h18c3 0 4 -2 4 -8l-45 -223
c-6 -30 -4 -56 40 -56c84 0 153 101 153 218c0 137 -98 207 -217 207c-190 0 -346 -148 -346 -348c0 -145 82 -237 241 -237c61 0 121 12 169 32c7 3 10 2 12 -5l5 -14c2 -6 -1 -9 -6 -11c-54 -23 -132 -33 -182 -33c-172 0 -272 100 -272 266c0 210 163 379 378 379
c144 0 252 -84 252 -230c0 -174 -108 -257 -192 -257c-20 0 -54 8 -66 35c0 2 -1 4 -3 4c-1 0 -2 -1 -5 -3c-30 -29 -70 -39 -97 -39z" />
    <glyph glyph-name="A" unicode="A" horiz-adv-x="441" 
d="M348 7l-15 145c0 4 -3 4 -5 4h-232c-2 0 -5 -1 -6 -4l-69 -145c-3 -5 -5 -7 -11 -7h-29c-9 0 -7 4 -5 10c96 198 194 402 291 600c2 4 5 7 9 7h45c6 0 8 -2 8 -7l62 -599c0 -5 0 -11 -8 -11h-26c-6 0 -8 0 -9 7zM116 193h208c4 0 6 0 6 6c-9 84 -16 168 -24 252
c-3 41 -7 80 -11 121c0 4 -2 3 -4 0c-22 -45 -42 -89 -63 -133c-39 -80 -77 -160 -115 -240c-2 -4 -2 -6 3 -6z" />
    <glyph glyph-name="B" unicode="B" horiz-adv-x="473" 
d="M230 0h-199c-5 0 -6 3 -6 7l117 602c1 4 2 8 8 8h176c83 0 137 -43 137 -124c0 -68 -37 -135 -112 -162c-2 -1 -3 -2 -1 -3c50 -25 79 -66 79 -125c0 -118 -84 -203 -199 -203zM275 310h-141c-5 0 -7 -2 -8 -7l-51 -259c0 -5 2 -6 6 -6h152c91 0 152 76 152 163
c0 62 -42 109 -110 109zM141 348h138c75 0 142 53 142 138c0 56 -37 93 -101 93h-135c-4 0 -7 -1 -8 -6l-42 -219c0 -4 0 -6 6 -6z" />
    <glyph glyph-name="C" unicode="C" horiz-adv-x="416" 
d="M363 55c-45 -46 -99 -61 -157 -61c-115 0 -177 72 -157 170l58 297c18 90 73 164 187 164c55 0 113 -22 145 -67c4 -4 1 -8 -3 -12l-16 -13c-7 -5 -8 -3 -14 3c-24 29 -66 50 -112 50c-79 0 -130 -55 -144 -126c-20 -101 -40 -201 -59 -301c-11 -69 25 -129 114 -129
c48 0 94 19 128 53c6 5 8 8 14 2l17 -15c6 -5 5 -9 -1 -15z" />
    <glyph glyph-name="D" unicode="D" horiz-adv-x="471" 
d="M464 447l-52 -280c-21 -110 -82 -167 -192 -167h-191c-5 0 -6 3 -6 7l117 602c1 4 3 8 9 8h180c113 0 152 -74 135 -170zM367 162c16 88 33 175 50 263c15 75 12 154 -95 154h-137c-5 0 -8 -1 -9 -6l-102 -530c0 -4 0 -5 6 -5h140c75 0 131 42 147 124z" />
    <glyph glyph-name="E" unicode="E" horiz-adv-x="430" 
d="M379 31l-5 -24c-1 -4 -3 -7 -9 -7h-336c-5 0 -6 3 -6 7l117 602c1 4 3 8 9 8h301c5 0 6 -4 6 -8l-4 -23c-1 -5 -4 -7 -9 -7h-258c-5 0 -8 -1 -9 -6l-45 -230c0 -4 0 -6 6 -6h233c5 0 6 -3 6 -8l-5 -24c-1 -4 -3 -6 -8 -6h-233c-4 0 -7 -2 -8 -7l-48 -249c0 -4 1 -5 6 -5
h292c5 0 8 -2 7 -7z" />
    <glyph glyph-name="F" unicode="F" horiz-adv-x="404" 
d="M465 609l-4 -23c-1 -5 -4 -7 -8 -7h-267c-4 0 -8 -1 -9 -6c-15 -77 -29 -154 -45 -231c0 -4 0 -6 6 -6h231c6 0 6 -3 5 -8l-4 -23c-1 -5 -3 -7 -8 -7h-231c-5 0 -7 -2 -8 -7l-56 -284c0 -5 -3 -7 -8 -7h-28c-5 0 -8 1 -8 6l118 603c1 4 4 8 10 8h308c5 0 7 -4 6 -8z" />
    <glyph glyph-name="G" unicode="G" horiz-adv-x="459" 
d="M297 625c57 0 116 -22 147 -67c3 -3 1 -8 -2 -10l-19 -15c-6 -4 -9 -2 -14 3c-23 29 -67 51 -113 51c-84 0 -133 -56 -147 -127l-59 -301c-14 -69 27 -128 115 -128c82 0 138 45 153 125l25 129c1 6 -3 7 -6 7h-87c-4 0 -7 1 -6 7l5 24c1 4 3 7 9 7h128c11 0 8 -6 7 -13
l-32 -162c-18 -94 -81 -161 -196 -161c-117 0 -175 73 -157 171l59 296c18 91 76 164 190 164z" />
    <glyph glyph-name="H" unicode="H" horiz-adv-x="500" 
d="M400 7c-1 -4 -3 -7 -8 -7h-28c-5 0 -8 2 -8 7l56 285c1 5 -1 7 -5 7h-278c-5 0 -7 -2 -8 -7l-56 -285c-1 -4 -3 -7 -8 -7h-28c-4 0 -8 2 -7 7l117 603c1 5 4 7 9 7h28c5 0 7 -3 6 -7l-52 -267c-1 -4 0 -6 6 -6h278c6 0 7 2 8 6l51 267c2 5 5 7 9 7h29c5 0 7 -3 6 -7z" />
    <glyph glyph-name="I" unicode="I" horiz-adv-x="198" 
d="M198 611l-117 -604c-1 -5 -3 -7 -8 -7h-29c-4 0 -7 2 -6 6l118 604c1 5 4 7 8 7h29c5 0 6 -2 5 -6z" />
    <glyph glyph-name="J" unicode="J" horiz-adv-x="238" 
d="M-84 -117l-2 23c-1 7 2 11 11 12c109 12 143 72 164 177l100 514c1 5 4 7 9 7h26c5 0 8 -2 7 -7l-99 -507c-23 -121 -56 -209 -204 -225c-6 -1 -11 0 -12 6z" />
    <glyph glyph-name="K" unicode="K" horiz-adv-x="470" 
d="M415 197l-22 -190c-1 -6 -3 -7 -8 -7h-26c-5 0 -6 2 -6 7l22 179c8 67 6 138 -105 138c-108 0 -158 -75 -170 -139l-35 -178c-1 -5 -3 -7 -7 -7h-30c-4 0 -7 2 -7 5v1l117 602c1 6 2 9 9 9h30c6 0 5 -5 5 -9l-56 -285c0 -7 4 -9 10 -3l311 290c6 5 9 6 16 6h31
c8 0 7 -5 3 -9l-259 -245c-8 -8 -6 -10 3 -9c12 3 36 5 52 5c113 -2 131 -82 122 -161z" />
    <glyph glyph-name="L" unicode="L" horiz-adv-x="389" 
d="M352 32l-5 -24c-1 -5 -3 -8 -8 -8h-314c-5 0 -8 3 -7 8l116 602c1 5 4 7 9 7h28c6 0 7 -3 6 -7l-109 -566c-1 -5 1 -5 6 -5h271c5 0 8 -2 7 -7z" />
    <glyph glyph-name="M" unicode="M" horiz-adv-x="599" 
d="M508 7c-1 -5 -3 -7 -7 -7h-28c-4 0 -6 2 -6 5v1c32 166 65 331 96 496c0 4 -2 6 -5 1c-40 -71 -81 -142 -122 -213c-49 -86 -99 -171 -149 -257c-3 -6 -7 -9 -13 -9h-22c-7 0 -10 1 -11 8c-14 78 -30 158 -44 237l-42 236c0 6 -3 4 -5 0l-16 -82l-81 -416
c-1 -4 -3 -7 -8 -7h-27c-4 0 -6 2 -6 4v2l116 598c1 6 4 13 13 13h22c9 0 11 -2 13 -9c22 -122 45 -243 66 -365l28 -160c2 -6 5 -4 8 0c26 46 51 92 78 138c73 130 147 258 220 388c4 5 8 8 15 8h24c12 0 9 -7 9 -13z" />
    <glyph glyph-name="N" unicode="N" horiz-adv-x="499" 
d="M149 617h23c8 0 11 -4 13 -9l185 -525c1 -3 3 -3 4 0l102 526c2 5 4 8 9 8h28c5 0 7 -3 6 -7l-116 -598c-2 -9 -8 -12 -14 -12h-22c-9 0 -12 3 -14 8c-16 45 -171 479 -186 523c-1 3 -3 2 -4 0l-101 -523c-1 -5 -3 -8 -9 -8h-27c-5 0 -7 3 -6 8l116 596c1 8 4 13 13 13z
" />
    <glyph glyph-name="O" unicode="O" horiz-adv-x="474" 
d="M462 450l-55 -290c-18 -96 -72 -167 -198 -167c-123 0 -176 87 -157 183l53 282c19 95 87 166 197 166c112 0 180 -73 160 -174zM419 452c13 69 -24 133 -120 133c-88 0 -138 -59 -151 -129l-54 -279c-13 -73 14 -146 118 -146c93 0 139 56 153 131z" />
    <glyph glyph-name="P" unicode="P" horiz-adv-x="448" 
d="M280 289h-150c-5 0 -7 -3 -8 -8l-54 -274c0 -5 -3 -7 -8 -7h-28c-4 0 -7 1 -7 6l117 602c1 5 5 9 11 9h171c80 0 151 -45 151 -133c0 -123 -85 -195 -195 -195zM327 579h-139c-7 0 -9 -2 -10 -7l-46 -237v-3c0 -3 1 -5 5 -5h145c88 0 150 61 150 150
c0 58 -33 102 -105 102z" />
    <glyph glyph-name="Q" unicode="Q" horiz-adv-x="474" 
d="M51 176l54 282c18 94 84 166 199 166c112 0 174 -78 157 -173l-54 -291c-18 -90 -69 -159 -184 -165c-7 0 -9 -4 -10 -9c-2 -12 -4 -23 -4 -34c0 -27 8 -42 47 -42c17 0 42 3 64 9c7 2 10 1 11 -6l3 -16c2 -8 -2 -11 -8 -13c-19 -8 -58 -13 -78 -13c-53 0 -80 26 -80 69
c0 15 2 30 5 48c1 5 1 8 -6 9c-94 12 -132 94 -116 179zM148 456l-55 -281c-14 -75 11 -144 118 -144c72 0 134 33 154 131l54 288c16 70 -28 135 -122 135c-89 0 -136 -61 -149 -129z" />
    <glyph glyph-name="R" unicode="R" horiz-adv-x="465" 
d="M150 616h174c102 0 149 -52 149 -132c0 -108 -63 -171 -134 -206c-3 -1 -5 -3 -3 -10l72 -257c2 -7 1 -11 -8 -11h-24c-9 0 -12 3 -14 10c-20 82 -45 167 -68 249c-2 8 -4 11 -14 11h-156c-5 0 -8 -2 -9 -7c-16 -86 -34 -171 -50 -256c0 -5 -2 -7 -8 -7h-28
c-4 0 -8 1 -8 6l117 602c1 4 5 8 12 8zM313 579h-127c-8 0 -11 -4 -12 -8l-49 -256c0 -4 1 -7 6 -7h168c11 0 18 3 22 5c72 32 109 100 109 163c0 52 -25 103 -117 103z" />
    <glyph glyph-name="S" unicode="S" horiz-adv-x="427" 
d="M347 177c0 67 -52 98 -111 124c-64 30 -153 65 -153 154c0 120 105 169 196 169c57 0 112 -15 147 -48c3 -3 3 -7 -1 -12c-3 -4 -11 -15 -14 -18c-4 -5 -8 -5 -13 0c-37 31 -83 40 -119 40c-62 0 -152 -32 -152 -127c0 -61 67 -93 121 -116c77 -34 145 -78 145 -160
c0 -131 -104 -189 -224 -189c-59 0 -128 20 -160 58c-4 5 -2 7 2 12l14 16c5 5 8 5 14 0c24 -26 83 -48 136 -48c91 0 172 50 172 145z" />
    <glyph glyph-name="T" unicode="T" horiz-adv-x="400" 
d="M461 586c0 -5 -4 -7 -9 -7h-152c-5 0 -8 0 -9 -6l-110 -566c-1 -4 -2 -7 -8 -7h-27c-5 0 -9 2 -8 7l110 566c1 5 -1 6 -6 6h-151c-5 0 -7 1 -6 7l4 23c2 5 4 8 9 8h362c5 0 7 -3 6 -7z" />
    <glyph glyph-name="U" unicode="U" horiz-adv-x="480" 
d="M409 159c-19 -96 -80 -166 -200 -166s-177 84 -157 184l84 433c1 5 4 7 9 7h29c4 0 6 -3 5 -7l-85 -437c-14 -72 16 -142 118 -142c93 0 140 58 154 130c29 145 72 367 88 449c1 5 4 7 9 7h28c5 0 7 -3 6 -7z" />
    <glyph glyph-name="V" unicode="V" horiz-adv-x="419" 
d="M487 605l-288 -599c-2 -5 -4 -6 -9 -6h-41c-4 0 -7 3 -8 7l-54 600c-1 7 2 10 8 10h29c5 0 8 -2 8 -7l29 -352l15 -201c1 -4 3 -4 4 0l96 204l165 349c3 6 5 7 11 7h30c8 0 8 -5 5 -12z" />
    <glyph glyph-name="W" unicode="W" horiz-adv-x="634" 
d="M705 607l-249 -601c-1 -5 -3 -6 -8 -6h-43c-2 0 -5 2 -6 5l-15 393l-4 142c-1 4 -3 4 -4 0l-60 -145l-162 -389c-2 -5 -4 -6 -9 -6h-41c-3 0 -6 2 -7 5l-18 604c-1 6 2 8 7 8h31c5 0 6 -3 6 -8l9 -381l2 -167c0 -4 4 -4 6 0l67 165l159 384c2 4 4 7 11 7h32
c4 0 7 -2 7 -8l16 -395l4 -153c0 -5 4 -4 6 0l62 157l157 392c3 6 5 7 10 7h30c7 0 7 -4 4 -10z" />
    <glyph glyph-name="X" unicode="X" horiz-adv-x="413" 
d="M256 315l109 -306c0 -5 3 -9 -6 -9h-26c-5 0 -9 0 -11 4c-28 83 -56 165 -95 271c-2 4 -4 4 -7 1l-200 -272c-4 -4 -7 -4 -12 -4h-29c-7 0 -8 4 -5 9l226 304c5 7 5 9 3 15l-99 279c-2 5 0 10 7 10h27c7 0 10 -1 11 -5l83 -245c1 -3 3 -5 7 0l179 245c4 4 6 5 12 5h30
c7 0 7 -6 4 -10l-206 -276c-5 -7 -4 -11 -2 -16z" />
    <glyph glyph-name="Y" unicode="Y" horiz-adv-x="398" 
d="M463 606l-231 -355c-7 -10 -7 -17 -9 -24l-43 -220c0 -5 -2 -7 -8 -7h-27c-5 0 -8 1 -8 6l43 217c2 9 2 15 0 24l-92 360c-2 6 0 10 7 10h26c6 0 9 -3 10 -8l77 -316c1 -4 4 -3 5 -1l201 316c5 7 6 9 14 9h31c9 0 8 -6 4 -11z" />
    <glyph glyph-name="Z" unicode="Z" horiz-adv-x="387" 
d="M334 8c-1 -5 -3 -8 -9 -8h-340c-7 0 -10 5 -9 9l3 16c1 7 4 13 8 19l398 528c4 4 2 7 -3 7h-273c-6 0 -7 3 -6 8l4 22c1 5 4 8 9 8h320c8 0 11 -3 10 -10l-3 -17c-1 -8 -6 -14 -9 -19l-395 -524c-3 -5 -3 -8 3 -8h290c6 0 7 -3 7 -8z" />
    <glyph glyph-name="bracketleft" unicode="[" horiz-adv-x="304" 
d="M166 -135c-1 -4 -3 -7 -7 -7h-126c-4 0 -6 2 -5 7l157 804c0 4 3 8 7 8h125c5 0 6 -3 5 -8l-4 -22c-1 -5 -3 -6 -7 -6h-82c-5 0 -9 -1 -10 -7l-143 -734c0 -6 3 -7 7 -7h82c4 0 6 -1 5 -6z" />
    <glyph glyph-name="backslash" unicode="\" horiz-adv-x="284" 
d="M228 -59c1 -5 -3 -8 -8 -8h-15c-6 0 -7 3 -8 8l-102 725c-1 5 3 8 8 8h14c6 0 8 -2 9 -8z" />
    <glyph glyph-name="bracketright" unicode="]" horiz-adv-x="305" 
d="M125 -136c-1 -4 -3 -7 -8 -7h-125c-5 0 -6 3 -5 7l4 22c1 5 3 7 7 7h82c5 0 8 1 9 7l143 734c1 5 -1 6 -7 6h-81c-4 0 -6 2 -5 7l4 22c1 4 3 7 8 7h125c5 0 6 -3 5 -7z" />
    <glyph glyph-name="asciicircum" unicode="^" horiz-adv-x="502" 
d="M466 386l-13 -9c-4 -3 -9 -1 -11 2l-110 182c-4 6 -5 6 -11 0l-188 -178c-3 -3 -8 -9 -13 -5l-10 10c-4 3 -4 6 -1 10l201 219c7 7 8 8 13 8h17c6 0 8 -3 11 -8l119 -219c2 -3 3 -7 -4 -12z" />
    <glyph glyph-name="underscore" unicode="_" horiz-adv-x="500" 
d="M443 -107c-1 -5 -4 -6 -8 -6h-494c-4 0 -6 1 -5 6l4 20c1 4 2 7 7 7h494c5 0 6 -3 6 -7z" />
    <glyph glyph-name="grave" unicode="`" horiz-adv-x="408" 
d="M301 503c2 -4 5 -9 -2 -12l-11 -6c-6 -3 -10 2 -13 6l-97 123c-5 6 -8 11 3 16l23 12c7 4 13 2 17 -6z" />
    <glyph glyph-name="a" unicode="a" horiz-adv-x="414" 
d="M225 405c-30 0 -71 -5 -110 -23c-4 -2 -8 0 -9 4l-8 21c-2 5 1 7 6 10c40 17 88 24 124 24c123 0 164 -65 145 -164l-52 -271c-1 -5 -4 -6 -8 -6h-26c-5 0 -5 2 -5 5c5 29 7 36 7 39c0 2 0 5 -2 5c-1 0 -3 -1 -6 -4c-46 -42 -89 -50 -129 -50c-79 0 -124 49 -124 122
c0 97 72 170 173 170c49 0 96 -21 115 -51c1 -2 3 -2 4 -2c3 0 5 2 6 6l10 51c13 65 -15 114 -111 114zM201 254c-79 0 -133 -60 -133 -133c0 -52 27 -92 90 -92c85 0 147 63 147 135c0 51 -34 90 -104 90z" />
    <glyph glyph-name="b" unicode="b" horiz-adv-x="411" 
d="M365 151c-17 -89 -76 -156 -181 -156c-49 0 -96 19 -114 48c-5 7 -8 5 -9 -2l-7 -34c-1 -5 -3 -7 -9 -7h-26c-5 0 -8 1 -6 6l121 624c1 5 4 7 9 7h28c5 0 6 -2 5 -6l-46 -236c-2 -8 1 -12 9 -5c31 32 69 50 121 50c108 0 145 -85 129 -165zM324 153l25 124
c13 67 -15 127 -97 127c-74 0 -133 -60 -146 -125l-24 -128c-13 -69 27 -121 98 -121c79 0 130 50 144 123z" />
    <glyph glyph-name="c" unicode="c" horiz-adv-x="371" 
d="M244 440c57 0 106 -23 128 -63c3 -5 1 -9 -3 -13l-19 -13c-5 -4 -10 -2 -12 2c-18 33 -59 51 -99 51c-69 0 -124 -50 -138 -122l-26 -129c-13 -73 17 -123 100 -123c45 0 82 20 113 52c4 5 8 5 12 2l17 -13c7 -5 5 -9 1 -14c-38 -42 -88 -62 -148 -62
c-102 0 -154 63 -135 158l24 128c19 96 81 159 185 159z" />
    <glyph glyph-name="d" unicode="d" horiz-adv-x="418" 
d="M334 6c-1 -4 -4 -6 -9 -6h-27c-5 0 -6 2 -5 7l6 34c2 6 -1 9 -8 3c-32 -28 -68 -49 -124 -49c-97 0 -147 67 -129 156l24 126c15 80 67 163 186 163c56 0 92 -25 108 -48c5 -8 9 -4 11 4l46 234c1 5 3 7 8 7h28c4 0 7 -2 6 -6zM320 151l25 128c14 68 -27 124 -100 124
c-83 0 -129 -59 -142 -126l-25 -124c-14 -74 20 -123 98 -123c71 0 131 52 144 121z" />
    <glyph glyph-name="e" unicode="e" horiz-adv-x="405" 
d="M177 -5c-93 0 -143 50 -143 122c0 10 1 20 3 31l22 119c23 124 101 173 204 173c74 0 126 -41 126 -108c0 -129 -141 -147 -293 -151c-8 0 -12 -2 -13 -9l-5 -27c-1 -8 -2 -17 -2 -24c0 -56 40 -92 109 -92c40 0 82 21 109 49c7 7 9 8 14 3l17 -15c2 -2 3 -4 3 -6
c0 -6 -8 -13 -12 -17c-35 -34 -81 -48 -139 -48zM255 404c-96 0 -139 -65 -152 -128l-9 -45v-3c0 -6 2 -10 13 -10c125 1 240 25 240 106c0 38 -22 80 -92 80z" />
    <glyph glyph-name="f" unicode="f" horiz-adv-x="257" 
d="M279 640c23 0 48 -3 65 -9c4 -2 8 -3 5 -11l-6 -20c-2 -5 -6 -6 -13 -5c-15 4 -30 9 -50 9c-68 0 -89 -40 -101 -99l-13 -61c-1 -6 1 -9 6 -9h111c5 0 7 -3 6 -8l-4 -21c-1 -5 -4 -7 -9 -7h-112c-6 -1 -7 -4 -8 -9l-85 -442c-17 -86 -41 -129 -120 -129
c-21 0 -47 3 -60 7c-5 2 -8 3 -5 11l7 21c2 5 6 7 14 6c10 -3 30 -7 41 -7c57 0 70 37 82 96l84 436c1 6 -1 9 -6 10h-52c-4 0 -6 2 -6 8l4 20c2 5 4 8 10 8h50c7 0 9 3 11 9l14 68c16 86 59 128 140 128z" />
    <glyph glyph-name="g" unicode="g" horiz-adv-x="418" 
d="M275 -36l15 76c1 6 -2 10 -8 4c-28 -32 -71 -49 -122 -49c-92 0 -132 62 -132 129c0 12 1 23 3 35l24 124c17 89 79 156 181 156c59 0 93 -22 113 -50c2 -3 4 -4 5 -4c2 0 4 2 4 6l8 37c2 4 3 6 8 6h27c6 0 5 -7 4 -13l-87 -459c-19 -101 -65 -143 -163 -143
c-54 0 -98 15 -119 26c-5 2 -8 5 -5 11c2 6 8 15 12 22s7 7 13 4c27 -14 65 -26 96 -26c79 0 110 42 123 108zM314 155c8 43 16 86 25 128c2 8 2 16 2 24c0 57 -41 97 -105 97c-73 0 -126 -50 -140 -123l-25 -124c-2 -10 -3 -20 -3 -29c0 -54 32 -98 100 -98
c74 0 133 60 146 125z" />
    <glyph glyph-name="h" unicode="h" horiz-adv-x="428" 
d="M391 276l-52 -269c0 -5 -3 -7 -7 -7h-29c-4 0 -7 2 -6 6l53 271c14 70 -10 127 -96 127c-72 0 -132 -58 -146 -127l-52 -270c0 -5 -3 -7 -8 -7h-28c-4 0 -7 2 -6 6l122 624c1 5 4 7 8 7h28c5 0 6 -2 5 -6l-46 -241c-2 -8 1 -10 7 -3c37 37 83 53 129 53
c114 0 141 -75 124 -164z" />
    <glyph glyph-name="i" unicode="i" horiz-adv-x="172" 
d="M65 6c-1 -4 -3 -6 -8 -6h-29c-2 0 -5 1 -5 4v2l81 422c2 4 5 6 8 6h29c4 0 6 -1 6 -4v-2c-28 -141 -55 -282 -82 -422zM183 561c-3 -17 -19 -30 -36 -30c-15 0 -25 11 -25 26v4c4 17 20 31 36 31c15 0 26 -10 26 -25c0 -2 -1 -4 -1 -6z" />
    <glyph glyph-name="j" unicode="j" horiz-adv-x="164" 
d="M182 562c-3 -17 -19 -31 -35 -31s-28 13 -25 31c4 17 20 30 37 30c16 0 27 -13 23 -30zM-127 -166l5 21c2 6 5 8 12 7c9 -3 29 -5 40 -5c54 0 71 34 82 91l93 480c1 4 4 7 8 7h29c4 0 6 -3 5 -7l-95 -489c-15 -80 -44 -121 -119 -121c-19 0 -46 3 -56 6c-5 2 -6 4 -4 10z
" />
    <glyph glyph-name="k" unicode="k" horiz-adv-x="406" 
d="M352 109l-15 -101c-1 -6 -3 -8 -10 -8h-25c-6 0 -8 2 -7 7l15 102c9 62 4 121 -94 121c-81 0 -129 -61 -140 -118l-21 -106c0 -4 -2 -6 -7 -6h-29c-4 0 -7 1 -7 6c41 208 81 416 121 624c2 5 5 7 9 7h28c5 0 6 -3 6 -7l-77 -399c-1 -6 1 -12 9 -4c81 68 163 135 245 202
c5 4 8 5 15 5h35c7 0 6 -6 2 -10c-62 -50 -123 -102 -185 -152c-4 -4 -7 -10 2 -9c15 1 22 1 32 0c94 -10 108 -88 98 -154z" />
    <glyph glyph-name="l" unicode="l" horiz-adv-x="195" 
d="M47 90l104 540c1 4 2 7 7 7h28c4 0 6 -1 6 -5v-2l-106 -542c-6 -33 -4 -54 39 -54h10c5 0 7 -2 7 -5l-5 -27c-1 -5 -4 -7 -11 -7h-17c-72 0 -71 47 -62 95z" />
    <glyph glyph-name="m" unicode="m" horiz-adv-x="664" 
d="M575 7c0 -5 -3 -7 -7 -7h-29c-4 0 -6 2 -5 6l54 283c13 67 -19 115 -88 115c-58 0 -117 -51 -130 -115c-26 -132 -35 -184 -55 -282c0 -5 -3 -7 -8 -7h-28c-4 0 -7 2 -6 6l55 283c13 64 -25 115 -85 115c-67 0 -121 -50 -133 -115l-56 -282c0 -5 -2 -7 -7 -7h-29
c-4 0 -7 2 -6 6l55 283c18 92 86 151 180 151c47 0 92 -19 114 -70c2 -4 5 -5 9 0c37 44 82 70 135 70c91 0 143 -58 125 -151c-25 -132 -35 -184 -55 -282z" />
    <glyph glyph-name="n" unicode="n" horiz-adv-x="427" 
d="M391 276l-52 -269c0 -5 -3 -7 -7 -7h-29c-4 0 -7 2 -6 6l53 271c13 68 -11 127 -96 127c-72 0 -132 -58 -146 -127l-52 -270c0 -5 -3 -7 -8 -7h-28c-4 0 -7 2 -6 6l82 422c1 5 4 7 8 7h28c5 0 6 -2 5 -7l-8 -39c-2 -9 2 -11 10 -4c33 36 82 55 128 55
c112 0 141 -79 124 -164z" />
    <glyph glyph-name="o" unicode="o" horiz-adv-x="421" 
d="M364 156c-20 -102 -79 -161 -183 -161c-106 0 -160 69 -141 165l22 122c19 93 79 158 180 158c98 0 161 -69 142 -167zM322 156l20 116c14 71 -23 130 -102 132c-74 2 -123 -52 -137 -123l-23 -126c-14 -76 29 -125 103 -125c73 0 123 47 139 126z" />
    <glyph glyph-name="p" unicode="p" horiz-adv-x="425" 
d="M98 428c1 5 4 7 8 7h27c5 0 6 -3 5 -7l-6 -35c-2 -6 1 -9 8 -3c30 30 80 50 126 50c98 0 146 -65 129 -157l-25 -124c-15 -80 -60 -164 -175 -164c-51 0 -95 20 -118 51c-6 8 -9 4 -11 -4l-43 -215c-1 -4 -3 -7 -8 -7h-28c-4 0 -7 2 -6 7zM110 283l-24 -127
c-13 -68 25 -125 102 -125c78 0 127 57 140 126l25 124c14 73 -17 123 -98 123c-71 0 -132 -51 -145 -121z" />
    <glyph glyph-name="q" unicode="q" horiz-adv-x="418" 
d="M56 283c17 90 78 157 181 157c58 0 93 -23 113 -51c5 -6 7 -4 9 3l8 36c1 4 3 7 8 7h27c4 0 7 -2 6 -7l-117 -601c-1 -5 -4 -7 -8 -7h-29c-5 0 -6 3 -5 7l42 213c1 8 -2 12 -9 4c-32 -31 -69 -49 -121 -49c-109 0 -145 85 -129 164zM96 281l-24 -124
c-13 -66 16 -126 97 -126c74 0 132 60 145 125l25 127c13 70 -31 122 -102 122c-73 0 -126 -50 -141 -124z" />
    <glyph glyph-name="r" unicode="r" horiz-adv-x="259" 
d="M108 435h25c5 0 5 -3 5 -7l-10 -49c-1 -8 1 -9 8 -2c34 40 87 70 152 62c6 -1 7 -4 4 -10l-11 -29c-3 -6 -8 -6 -12 -6c-88 3 -143 -44 -159 -125l-51 -262c-1 -5 -2 -7 -7 -7h-28c-4 0 -8 2 -7 6l82 422c1 5 5 7 9 7z" />
    <glyph glyph-name="s" unicode="s" horiz-adv-x="340" 
d="M144 -6c-63 0 -115 25 -137 80c-1 3 -1 7 4 9l23 10c5 3 8 0 9 -3c14 -36 54 -61 102 -61c60 0 111 29 111 89c0 45 -43 67 -84 84c-52 21 -121 45 -121 118c0 81 70 120 142 120c58 0 103 -19 131 -53c3 -3 1 -8 -2 -11l-17 -16c-4 -3 -10 -3 -13 2
c-20 25 -63 43 -101 43c-46 0 -97 -26 -97 -81c0 -48 52 -67 89 -82c55 -23 117 -55 117 -119c0 -87 -73 -129 -156 -129z" />
    <glyph glyph-name="t" unicode="t" horiz-adv-x="278" 
d="M147 -6c-82 0 -92 53 -79 120l53 276c2 6 1 9 -6 9h-54c-5 0 -7 3 -6 7l5 22c0 5 4 7 7 7h56c6 0 8 3 9 8l20 102c0 4 3 7 8 8l29 7c6 1 7 -3 6 -7l-21 -110c-2 -5 -1 -8 4 -8h112c4 0 5 -2 5 -7l-5 -22c-1 -4 -3 -7 -8 -7h-109c-5 0 -9 -3 -10 -9l-52 -269
c-12 -62 -3 -89 50 -89c18 0 49 5 65 9c8 2 10 -2 9 -7v-20c0 -7 -1 -8 -7 -10c-20 -8 -59 -10 -81 -10z" />
    <glyph glyph-name="u" unicode="u" horiz-adv-x="426" 
d="M42 159l52 269c1 4 3 7 8 7h29c4 0 5 -2 4 -7l-52 -271c-13 -67 11 -125 96 -125c72 0 132 58 145 126l52 270c1 4 4 7 9 7h28c4 0 7 -2 6 -7l-82 -421c-1 -5 -4 -7 -8 -7h-28c-5 0 -6 2 -5 6l7 40c3 8 -2 10 -8 3c-34 -34 -83 -54 -129 -54c-112 0 -141 79 -124 164z
" />
    <glyph glyph-name="v" unicode="v" horiz-adv-x="364" 
d="M159 58l130 251c23 51 22 71 22 113c0 7 2 12 11 12h20c11 0 12 -5 12 -13c0 -53 -4 -80 -30 -130l-145 -279c-5 -10 -10 -13 -20 -13h-25c-11 0 -12 2 -14 14l-82 412c-1 6 1 10 8 10h25c8 0 9 -4 10 -9l70 -366c1 -6 6 -7 8 -2z" />
    <glyph glyph-name="w" unicode="w" horiz-adv-x="570" 
d="M373 58l123 252c23 51 21 73 21 115c0 6 2 12 11 12h20c11 0 12 -5 12 -13c0 -53 -4 -81 -30 -132l-137 -280c-5 -10 -9 -13 -19 -13h-26c-10 0 -12 2 -14 14l-36 258c-2 7 -5 5 -7 0c-11 -22 -66 -133 -130 -259c-5 -10 -9 -13 -19 -13h-26c-10 0 -11 2 -13 14l-65 412
c-1 6 1 10 8 10h25c8 0 9 -4 10 -9l54 -368c1 -6 6 -7 8 -2l139 279c2 5 4 7 2 16l-10 74c-1 6 1 10 8 10h25c8 0 9 -4 10 -9l48 -366c1 -6 6 -7 8 -2z" />
    <glyph glyph-name="x" unicode="x" horiz-adv-x="352" 
d="M205 220l93 -211c3 -6 1 -9 -6 -9h-25c-8 0 -11 1 -15 9l-76 179c-1 6 -6 4 -9 0l-144 -179c-7 -8 -10 -9 -18 -9h-30c-7 0 -8 3 -3 9l171 208c9 10 9 13 5 22l-80 187c-3 4 0 9 7 9h24c9 0 11 0 14 -9l66 -157c1 -4 4 -5 8 1l126 156c7 9 9 9 18 9h29c7 0 7 -5 4 -9
l-155 -188c-8 -10 -5 -14 -4 -18z" />
    <glyph glyph-name="y" unicode="y" horiz-adv-x="369" 
d="M326 289l-245 -461c-3 -5 -7 -10 -16 -10h-22c-4 0 -7 2 -7 6c0 2 1 4 2 7l82 155c3 6 8 14 0 14h-3c-10 0 -11 1 -13 12l-61 412c0 6 1 10 7 10h23c8 0 11 -4 12 -9l56 -384c1 -5 5 -7 9 0l141 267c21 40 22 67 22 105c0 8 -2 21 10 21h20c12 0 12 -5 12 -12
c0 -54 -2 -82 -29 -133z" />
    <glyph glyph-name="z" unicode="z" horiz-adv-x="334" 
d="M279 7c-1 -5 -4 -7 -9 -7h-280c-7 0 -9 3 -8 9l3 14c2 7 3 12 7 16l293 351c5 6 3 9 -4 9h-207c-6 0 -7 3 -7 7l5 21c1 5 3 8 8 8h259c8 0 10 -3 9 -10l-3 -15c-1 -7 -4 -13 -7 -16l-292 -349c-5 -6 -3 -9 4 -9h226c6 0 8 -3 7 -7z" />
    <glyph glyph-name="braceleft" unicode="{" horiz-adv-x="301" 
d="M206 -142c-1 -4 -4 -7 -8 -7h-17c-88 -1 -115 47 -96 142l26 138c11 54 5 97 -46 119c-9 4 -13 6 -11 12l4 21c2 10 6 11 14 14c60 23 84 64 95 120l24 125c19 95 57 143 145 142h24c4 0 6 -3 5 -7l-5 -22c0 -5 -3 -6 -7 -6h-19c-61 0 -88 -33 -101 -98l-30 -155
c-10 -47 -43 -101 -96 -121c-6 -3 -6 -6 -2 -8c45 -18 59 -70 48 -128l-30 -155c-13 -65 2 -98 63 -98h19c4 0 6 -1 5 -6z" />
    <glyph glyph-name="bar" unicode="|" horiz-adv-x="197" 
d="M134 -106c0 -4 -1 -6 -6 -6h-21c-4 0 -7 1 -7 6v774c0 5 3 7 7 7h21c5 0 6 -3 6 -6v-775z" />
    <glyph glyph-name="braceright" unicode="}" horiz-adv-x="301" 
d="M276 262c-1 -6 -6 -8 -15 -12c-60 -22 -83 -65 -94 -119l-26 -138c-19 -94 -56 -143 -145 -142h-24c-4 0 -6 3 -5 7l4 22c2 5 4 7 8 7h19c61 0 88 32 101 98l31 159c11 58 46 110 97 129c5 1 7 4 2 7c-45 21 -58 75 -49 121l28 150c13 65 -1 98 -62 98h-19
c-4 0 -6 1 -5 6l4 22c1 4 4 7 8 7h16c88 1 116 -47 97 -142l-24 -125c-10 -56 -2 -96 48 -120c7 -3 11 -4 9 -14z" />
    <glyph glyph-name="asciitilde" unicode="~" horiz-adv-x="445" 
d="M424 307c-32 -40 -74 -61 -117 -61c-81 0 -131 56 -179 56c-27 0 -59 -14 -83 -38c-3 -3 -7 -8 -11 -3l-16 17c-3 3 -5 3 0 9c31 38 77 55 120 55c67 0 117 -56 173 -56c29 0 62 20 81 40c7 7 10 9 15 5l18 -15c3 -2 2 -7 -1 -9z" />
    <glyph glyph-name="dieresistonos" unicode="&#x385;" horiz-adv-x="429" 
d="M355 609l-111 -117c-4 -3 -9 -5 -14 -1l-7 6c-3 2 -5 6 0 13l91 125c5 6 10 9 19 3l20 -13c7 -5 7 -10 2 -16zM399 549c-3 -16 -19 -29 -35 -29c-14 0 -24 10 -24 24c0 19 18 35 35 35c14 0 25 -10 25 -24c0 -2 -1 -4 -1 -6zM218 549c-3 -16 -18 -29 -34 -29
c-14 0 -24 10 -24 24v5c4 17 20 30 36 30c13 0 23 -9 23 -23c0 -2 0 -4 -1 -7z" />
    <glyph glyph-name="tonos" unicode="&#x384;" horiz-adv-x="402" 
d="M384 609l-111 -117c-4 -3 -9 -5 -14 -1l-7 6c-3 2 -5 6 0 13l91 125c5 6 10 9 19 3l20 -13c7 -5 7 -10 2 -16z" />
    <glyph glyph-name="dieresis" unicode="&#xa8;" horiz-adv-x="407" 
d="M384 561c-3 -16 -19 -30 -35 -30s-27 14 -24 30c4 17 19 30 35 30s27 -13 24 -30zM230 561c-3 -17 -19 -30 -34 -30c-16 0 -27 14 -24 30c3 17 19 30 35 30c15 0 26 -13 23 -30z" />
    <glyph glyph-name="sterling" unicode="&#xa3;" horiz-adv-x="445" 
d="M490 559c2 -4 -1 -9 -5 -12l-19 -12c-5 -3 -10 -3 -12 1c-18 38 -55 53 -98 53c-81 0 -124 -51 -139 -124l-24 -127c-1 -6 2 -8 6 -8h122c4 0 6 -4 6 -6l-4 -21c-1 -5 -3 -6 -7 -6h-123c-4 0 -8 -3 -9 -8l-20 -105c-9 -44 -25 -112 -59 -142c-4 -4 -3 -6 1 -6h268
c6 0 6 -3 6 -6l-5 -24c-1 -4 -3 -6 -7 -6h-334c-4 0 -6 2 -5 6l4 19c1 5 7 9 11 11c33 17 58 49 74 134l23 119c1 5 0 8 -5 8h-44c-6 0 -7 2 -6 6l4 21c1 3 2 6 7 6h45c4 0 8 3 9 8c11 60 25 131 25 131c20 102 86 158 181 158c56 0 110 -20 133 -68z" />
    <glyph glyph-name="trademark" unicode="&#x2122;" horiz-adv-x="582" 
d="M561 313c0 -5 -3 -6 -6 -6h-18c-4 0 -6 2 -6 6v229l-2 1l-94 -206c-1 -2 -4 -6 -7 -6h-9c-4 0 -6 3 -7 6l-95 204l-3 -1v-227c0 -5 -3 -6 -6 -6h-19c-3 0 -5 2 -5 6v297c0 3 2 7 8 7h16c5 0 8 -1 10 -6l103 -225h4l100 224c2 4 3 7 9 7h20c4 0 7 -4 7 -8v-296zM248 597
c0 -2 -1 -6 -7 -6h-74c-4 0 -4 -1 -4 -5v-273c0 -5 -3 -7 -6 -7h-19c-4 0 -6 3 -6 6v274c0 5 -1 5 -3 5h-76c-5 0 -6 4 -6 6v14c0 4 2 6 6 6h189c4 0 6 -2 6 -6v-14z" />
    <glyph glyph-name="sfthyphen" unicode="&#xad;" horiz-adv-x="298" 
d="M241 225c-1 -5 -3 -7 -7 -7h-165c-5 0 -7 2 -6 7l5 27c1 4 3 7 8 7h165c5 0 6 -3 5 -7z" />
    <glyph glyph-name="dagger" unicode="&#x2020;" horiz-adv-x="443" 
d="M441 470c0 -5 -4 -9 -9 -9h-145c-3 0 -5 -2 -6 -4l-113 -581c-1 -5 -4 -8 -9 -8h-19c-5 0 -9 2 -7 7l112 581c1 3 0 5 -4 5h-142c-5 0 -8 4 -6 9c0 4 2 13 3 17c1 5 4 9 10 9h143c3 0 5 2 5 5l32 166c2 6 6 8 11 8h19c6 0 8 -3 6 -8l-32 -166c0 -3 0 -5 3 -5h145
c5 0 8 -4 7 -8z" />
    <glyph glyph-name="Gamma" unicode="&#x393;" horiz-adv-x="397" 
d="M465 586c-1 -5 -5 -7 -9 -7h-270c-4 0 -7 0 -8 -6l-111 -566c-1 -4 -2 -7 -8 -7h-28c-4 0 -8 2 -7 7l117 602c1 5 5 8 10 8h312c5 0 7 -3 6 -7z" />
    <glyph glyph-name="Delta" unicode="&#x394;" horiz-adv-x="441" 
d="M396 11c0 -6 -1 -11 -7 -11h-410c-8 0 -8 3 -5 8c97 199 199 404 296 602c3 4 5 7 9 7h44c7 0 8 -3 8 -7zM349 44c-13 121 -25 242 -37 362l-16 157c0 6 -3 5 -5 1l-93 -192l-158 -327c-2 -5 -1 -8 5 -8h296c5 0 8 2 8 7z" />
    <glyph glyph-name="Delta" unicode="&#x2206;" horiz-adv-x="441" 
d="M396 11c0 -6 -1 -11 -7 -11h-410c-8 0 -8 3 -5 8c97 199 199 404 296 602c3 4 5 7 9 7h44c7 0 8 -3 8 -7zM349 44c-13 121 -25 242 -37 362l-16 157c0 6 -3 5 -5 1l-93 -192l-158 -327c-2 -5 -1 -8 5 -8h296c5 0 8 2 8 7z" />
    <glyph glyph-name="Theta" unicode="&#x398;" horiz-adv-x="479" 
d="M472 444l-55 -284c-18 -97 -73 -166 -205 -166c-125 0 -181 81 -165 184l53 280c19 94 96 166 206 166c121 0 183 -81 166 -180zM375 162l54 287c16 72 -29 136 -126 136c-93 0 -147 -60 -159 -129l-55 -280c-15 -74 20 -145 125 -145c100 0 147 57 161 131zM361 299
h-207c-5 0 -5 6 -4 10l4 20c1 4 3 7 7 7h205c8 0 7 -6 6 -11l-4 -20c-1 -4 -4 -6 -7 -6z" />
    <glyph glyph-name="Lambda" unicode="&#x39b;" horiz-adv-x="440" 
d="M218 409c-66 -134 -130 -268 -195 -402c-3 -5 -5 -7 -11 -7h-32c-8 0 -9 4 -6 10c99 200 197 400 297 600c2 4 5 7 9 7h40c6 0 8 -2 9 -6l64 -600c0 -6 3 -11 -8 -11h-26c-6 0 -8 0 -9 6c-14 149 -30 296 -44 445l-12 109c0 3 -3 2 -4 0z" />
    <glyph glyph-name="Xi" unicode="&#x39e;" horiz-adv-x="434" 
d="M379 8c-2 -5 -4 -8 -9 -8h-370c-5 0 -7 3 -6 8l5 23c0 5 4 7 9 7h148c5 0 7 1 8 6l48 247c1 5 -1 7 -6 7h-110c-4 0 -7 2 -6 7l5 23c1 5 3 8 9 8h110c6 0 7 2 8 6l45 231c1 6 -2 6 -7 6h-148c-5 0 -6 2 -6 7l5 23c1 5 4 8 9 8h341c5 0 8 -3 7 -8l-5 -23c0 -5 -4 -7 -9 -7
h-138c-4 0 -7 0 -8 -6l-45 -231c-1 -4 -1 -6 5 -6h113c5 0 7 -3 6 -8l-5 -23c-1 -5 -4 -7 -8 -7h-113c-4 0 -7 -2 -8 -7l-48 -247c-1 -5 2 -6 7 -6h165c5 0 7 -2 6 -7z" />
    <glyph glyph-name="Pi" unicode="&#x3a0;" horiz-adv-x="503" 
d="M403 7c-1 -4 -3 -7 -8 -7h-29c-5 0 -7 2 -7 7l110 566c1 5 -1 6 -5 6h-281c-4 0 -7 -1 -8 -6l-110 -566c0 -4 -2 -7 -8 -7h-28c-4 0 -8 2 -7 7l117 603c1 5 5 7 9 7h366c5 0 7 -3 6 -7z" />
    <glyph glyph-name="germandbls" unicode="&#xdf;" horiz-adv-x="446" 
d="M380 142c-16 -80 -69 -152 -172 -152h-59c-5 0 -10 0 -8 7l4 19c1 9 5 8 10 8h40c82 0 132 52 145 121l16 72c14 73 -20 130 -84 130h-11c-4 0 -6 2 -5 7l4 21c1 4 3 6 8 6h11c64 0 115 55 115 116c0 51 -30 91 -96 91c-72 0 -123 -46 -138 -121l-90 -460
c0 -5 -3 -7 -8 -7h-27c-4 0 -7 2 -6 6l91 467c16 82 77 152 178 152c85 0 139 -47 139 -120c0 -62 -33 -117 -90 -141c-4 -2 -7 -6 0 -9c55 -27 57 -89 48 -138z" />
    <glyph glyph-name="registered" unicode="&#xae;" horiz-adv-x="402" 
d="M239 306c-97 0 -156 56 -156 130v79c0 75 59 130 156 130c95 0 158 -52 158 -130v-79c0 -77 -54 -130 -158 -130zM377 514c0 68 -51 112 -138 112s-137 -47 -137 -112v-77c0 -65 50 -113 137 -113s138 46 138 113v77zM249 568c37 0 55 -21 55 -50c0 -21 -18 -43 -33 -49
c-4 -2 -4 -3 -1 -9l36 -72c1 -3 0 -5 -5 -5h-11c-5 0 -6 3 -8 6l-34 70c-2 4 -3 5 -8 5h-25c-6 0 -7 -1 -7 -7v-68c0 -3 -1 -6 -5 -6h-9c-5 0 -7 2 -7 6v172c0 3 3 7 8 7h54zM251 549h-36c-3 0 -7 0 -7 -6v-56c0 -6 2 -6 7 -6h33c15 0 35 16 35 36c0 19 -13 32 -32 32z" />
    <glyph glyph-name="copyright" unicode="&#xa9;" horiz-adv-x="700" 
d="M495 425c2 -4 2 -7 -2 -9l-13 -9c-4 -3 -8 -4 -11 1c-17 24 -47 39 -82 39c-58 0 -96 -38 -96 -94v-104c0 -55 36 -95 97 -95c32 0 63 14 81 38c5 7 7 7 11 4l14 -10c5 -3 4 -6 2 -10c-24 -31 -61 -49 -108 -49c-76 0 -127 47 -127 120v107c0 70 52 120 127 120
c47 0 80 -18 107 -49zM382 0c-172 0 -288 93 -288 238v141c0 145 120 238 292 238c171 0 286 -87 286 -238v-141c0 -151 -119 -238 -290 -238zM647 382c0 120 -93 212 -262 212c-171 0 -265 -96 -265 -212v-147c0 -114 90 -212 261 -212c169 0 266 95 266 212v147z" />
    <glyph glyph-name="Sigma" unicode="&#x3a3;" horiz-adv-x="385" 
d="M348 8c-2 -5 -4 -8 -9 -8h-351c-7 0 -10 4 -8 9l2 17c2 7 4 13 9 19l188 263c4 6 9 13 5 21l-89 243c-2 4 -3 9 -2 17l3 18c1 7 5 10 13 10h311c5 0 8 -3 7 -7l-4 -23c-1 -5 -4 -8 -11 -8h-266c-6 0 -8 -3 -7 -7l91 -240c4 -10 1 -19 -5 -27l-183 -258c-4 -6 -2 -8 4 -8
h300c6 0 7 -3 6 -8z" />
    <glyph glyph-name="section" unicode="&#xa7;" horiz-adv-x="408" 
d="M286 614c-73 0 -113 -38 -113 -86c0 -29 23 -54 84 -79c70 -29 124 -56 124 -119c0 -57 -39 -99 -92 -118c-1 0 -3 -1 -5 -1c-3 0 -5 1 -7 5l-7 15c-1 2 -1 4 -1 6c0 5 4 7 8 10c30 17 61 40 61 81c0 39 -40 63 -99 87c-65 26 -106 57 -106 108c0 71 57 125 153 125
c50 0 97 -19 122 -51c2 -2 3 -3 3 -5s-2 -5 -5 -8l-14 -14c-1 -1 -4 -2 -7 -2s-6 1 -7 3c-20 26 -56 43 -92 43zM166 -35c55 0 126 27 126 95c0 44 -47 65 -107 88c-63 24 -111 59 -111 110c0 54 48 90 106 116c1 1 3 1 4 1c4 0 7 -2 8 -6l8 -17c1 -1 1 -3 1 -4
c0 -5 -5 -9 -10 -11c-41 -15 -75 -41 -75 -75c0 -30 26 -55 88 -79c72 -27 129 -54 129 -121c0 -78 -72 -131 -165 -131c-58 0 -114 23 -140 54c-1 1 -2 2 -2 4c0 3 2 5 5 8l14 13c2 2 5 3 7 3s4 -1 6 -4c21 -24 66 -44 108 -44z" />
    <glyph glyph-name="degree" unicode="&#xb0;" horiz-adv-x="302" 
d="M254 528c0 -54 -48 -97 -105 -97s-102 41 -102 97s45 99 101 99c70 0 106 -43 106 -99zM148 601c-38 0 -70 -31 -70 -73c0 -39 29 -72 70 -72c40 0 75 31 75 72s-29 73 -75 73z" />
    <glyph glyph-name="plusminus" unicode="&#xb1;" horiz-adv-x="445" 
d="M440 327c0 -6 -4 -8 -10 -8h-159c-4 0 -7 -1 -8 -6l-31 -164c-1 -5 -4 -8 -10 -8h-20c-5 0 -8 2 -7 8l31 164c1 4 1 6 -4 6h-155c-5 0 -8 2 -7 8l4 19c1 5 4 9 10 9h156c5 0 5 1 6 6l32 164c1 6 5 8 10 8h20c6 0 8 -3 7 -8l-32 -164c-1 -5 0 -6 5 -6h159c6 0 9 -4 7 -9z
M392 54c-1 -6 -4 -8 -10 -8h-375c-5 0 -8 2 -7 8l4 19c1 5 4 9 10 9h375c6 0 8 -4 7 -9z" />
    <glyph glyph-name="yen" unicode="&#xa5;" horiz-adv-x="445" 
d="M410 283h-338c-4 0 -6 2 -6 5v2c1 6 3 11 3 17c1 5 4 7 8 7h117c7 0 8 8 7 13l-83 281v4c0 4 2 5 7 5h26c6 0 8 -3 10 -8c14 -50 29 -100 44 -151l35 -125c1 -3 2 -5 3 -5s2 2 4 4l80 121l106 155c5 7 6 9 14 9h29c4 0 6 -1 6 -4c0 -1 0 -4 -2 -6l-192 -280
c-3 -5 -8 -13 2 -13h126c3 0 5 -1 5 -4v-2l-3 -18c-1 -4 -3 -7 -8 -7zM63 238h338c3 0 5 -1 5 -4v-2l-3 -18c-1 -4 -4 -7 -7 -7h-144c-6 0 -10 -3 -11 -10l-38 -191c0 -4 -2 -6 -7 -6h-28c-4 0 -7 1 -7 6l38 191c0 1 1 2 1 4c0 3 -2 6 -8 6h-135c-4 0 -5 2 -5 5v2l3 18
c1 4 3 6 8 6z" />
    <glyph glyph-name="Phi" unicode="&#x3a6;" horiz-adv-x="542" 
d="M496 232c-17 -93 -72 -173 -224 -175c-7 0 -9 -5 -10 -9l-8 -41c-1 -5 -2 -7 -8 -7h-28c-5 0 -7 2 -7 7l8 41c1 4 0 8 -5 9c-125 7 -172 93 -154 187l30 157c19 97 83 179 225 183c6 0 9 2 10 7l4 19c1 5 4 7 9 7h27c5 0 7 -2 6 -7l-4 -18c-1 -5 2 -7 8 -8
c115 -7 173 -90 154 -187zM454 231l35 172c13 71 -26 141 -122 144c-6 0 -9 -2 -10 -8l-86 -439c-1 -4 2 -7 7 -7c120 2 162 65 176 138zM229 99l86 440c1 6 0 8 -7 8c-110 -1 -163 -74 -176 -143l-32 -167c-13 -64 11 -137 121 -144c5 0 7 2 8 6z" />
    <glyph glyph-name="Psi" unicode="&#x3a8;" horiz-adv-x="547" 
d="M511 308c-18 -94 -88 -173 -224 -176c-7 0 -9 -4 -10 -8l-23 -117c-1 -4 -3 -7 -8 -7h-28c-5 0 -7 2 -7 7l23 117c1 4 0 8 -5 8c-121 6 -174 92 -157 181l60 302c1 5 5 7 9 7h28c5 0 7 -3 6 -6c-7 -35 -54 -271 -60 -306c-13 -64 14 -135 121 -139c5 -1 7 2 8 6l86 441
c1 5 4 8 9 8h28c6 0 7 -3 6 -8l-86 -440c-1 -5 2 -7 7 -7c103 3 159 64 175 138c6 34 53 272 59 306c1 5 4 7 9 7h28c5 0 7 -2 6 -6z" />
    <glyph glyph-name="Omega" unicode="&#x3a9;" horiz-adv-x="490" 
d="M422 31l-5 -24c-1 -5 -3 -7 -8 -7h-134c-6 0 -8 2 -7 7l6 32c1 6 3 8 13 11c60 19 86 59 96 114l53 284c16 73 -31 138 -123 138c-99 0 -149 -63 -163 -133l-53 -282c-9 -50 3 -100 53 -120c9 -4 9 -6 8 -13l-5 -31c-1 -6 -3 -7 -9 -7h-129c-5 0 -7 3 -6 7l4 24
c1 4 3 7 9 7h69c2 0 4 1 4 3c0 1 -1 2 -3 3c-48 32 -43 104 -33 157l46 242c16 103 92 181 214 181c109 0 178 -78 160 -175l-52 -278c-12 -54 -29 -106 -79 -129c-4 -2 -3 -4 0 -4h67c6 0 8 -3 7 -7z" />
    <glyph glyph-name="approxequal" unicode="&#x2248;" horiz-adv-x="445" 
d="M446 350c-32 -40 -74 -61 -117 -61c-81 0 -131 56 -179 56c-27 0 -59 -14 -83 -38c-3 -3 -7 -8 -11 -3l-16 17c-3 3 -5 3 0 9c31 38 77 55 120 55c67 0 117 -56 173 -56c29 0 62 20 81 40c7 7 10 9 15 5l18 -15c3 -2 2 -7 -1 -9zM402 166c-32 -40 -74 -61 -117 -61
c-81 0 -131 56 -179 56c-27 0 -59 -14 -83 -38c-3 -3 -7 -8 -11 -3l-16 17c-3 3 -5 3 0 9c31 38 77 55 120 55c67 0 117 -56 173 -56c29 0 62 20 81 40c7 7 10 9 15 5l18 -15c3 -2 2 -7 -1 -9z" />
    <glyph glyph-name="guillemotleft" unicode="&#xab;" horiz-adv-x="447" 
d="M117 201c-6 -6 -5 -7 -3 -11l97 -159c4 -6 -1 -11 -6 -11h-25c-8 0 -12 1 -17 9l-94 157c-5 9 -4 15 4 23l156 154c6 7 9 9 19 9h27c9 0 10 -5 4 -11zM262 201c-6 -6 -4 -7 -2 -11l96 -159c4 -6 0 -11 -6 -11h-24c-8 0 -12 1 -17 9l-95 157c-4 9 -4 15 4 23l156 154
c7 7 10 9 20 9h27c8 0 9 -5 3 -11z" />
    <glyph glyph-name="guillemotright" unicode="&#xbb;" horiz-adv-x="447" 
d="M333 194c5 5 6 6 3 11l-98 155c-4 6 0 11 7 11h24c9 0 12 -1 17 -9l95 -153c5 -9 3 -16 -4 -23l-157 -159c-6 -6 -10 -8 -19 -8h-27c-7 0 -10 4 -3 11zM188 194c5 5 5 6 2 11l-97 155c-4 6 0 11 6 11h25c9 0 11 -1 16 -9l96 -153c5 -9 2 -16 -4 -23l-157 -159
c-6 -6 -11 -8 -19 -8h-28c-7 0 -10 4 -3 11z" />
    <glyph glyph-name="ellipsis" unicode="&#x2026;" horiz-adv-x="567" 
d="M443 62c19 0 32 -14 28 -34c-4 -19 -21 -34 -41 -34c-19 0 -32 15 -28 34c3 19 22 34 41 34zM252 62c20 0 32 -14 29 -34c-4 -19 -22 -34 -42 -34c-19 0 -31 15 -27 34c3 19 21 34 40 34zM63 62c20 0 32 -14 28 -34c-4 -19 -21 -34 -41 -34c-19 0 -31 15 -27 34
c3 19 22 34 40 34z" />
    <glyph glyph-name="oe" unicode="&#x153;" horiz-adv-x="689" 
d="M461 -5c-69 0 -114 27 -133 70c-31 -45 -80 -70 -147 -70c-106 0 -160 69 -141 165l22 122c19 93 79 158 180 158c65 0 115 -31 135 -81c38 57 98 81 170 81c74 0 126 -41 126 -108c0 -129 -141 -147 -293 -151c-8 0 -12 -2 -13 -9l-5 -27c-1 -8 -2 -17 -2 -24
c0 -56 40 -92 109 -92c40 0 82 21 109 49c7 7 9 8 14 3l17 -15c2 -2 3 -4 3 -6c0 -6 -8 -13 -12 -17c-35 -34 -81 -48 -139 -48zM322 156l20 116c14 71 -23 130 -102 132c-74 2 -123 -52 -137 -123l-23 -126c-14 -76 29 -125 103 -125c73 0 123 47 139 126zM539 404
c-96 0 -139 -65 -152 -128l-9 -45v-3c0 -6 2 -10 13 -10c125 1 240 25 240 106c0 38 -22 80 -92 80z" />
    <glyph glyph-name="endash" unicode="&#x2013;" horiz-adv-x="500" 
d="M479 225c-1 -5 -4 -7 -8 -7h-439c-4 0 -6 2 -5 7l4 19c0 4 3 8 8 8h439c4 0 5 -4 5 -8z" />
    <glyph glyph-name="afii00208" unicode="&#x2015;" horiz-adv-x="1000" 
d="M974 225c-1 -5 -3 -7 -8 -7h-934c-4 0 -6 2 -5 7l4 19c0 4 3 8 8 8h934c5 0 6 -4 5 -8z" />
    <glyph glyph-name="quotedblleft" unicode="&#x201c;" horiz-adv-x="254" 
d="M285 625l-40 -158c-1 -6 -5 -10 -12 -10h-39c-9 0 -11 4 -7 13l67 157c3 7 5 9 11 9h15c6 0 7 -4 5 -11zM188 625l-40 -158c-1 -6 -5 -10 -12 -10h-39c-9 0 -11 4 -7 13l67 157c3 7 5 9 11 9h15c6 0 7 -4 5 -11z" />
    <glyph glyph-name="quotedblright" unicode="&#x201d;" horiz-adv-x="254" 
d="M296 623l-66 -157c-3 -6 -6 -9 -12 -9h-15c-6 0 -7 4 -5 12l40 158c1 5 6 9 12 9h39c10 0 11 -3 7 -13zM199 623l-66 -157c-3 -6 -6 -9 -12 -9h-15c-6 0 -7 5 -5 12l40 158c1 5 6 9 12 9h40c9 0 10 -3 6 -13z" />
    <glyph glyph-name="quoteleft" unicode="&#x2018;" horiz-adv-x="174" 
d="M197 625l-40 -158c-2 -6 -6 -10 -13 -10h-39c-9 0 -11 4 -7 13l67 157c3 7 6 9 11 9h15c6 0 7 -4 6 -11z" />
    <glyph glyph-name="quoteright" unicode="&#x2019;" horiz-adv-x="175" 
d="M205 623l-67 -157c-3 -6 -6 -9 -12 -9h-15c-6 0 -7 5 -5 12l40 158c1 5 6 9 12 9h40c9 0 11 -3 7 -13z" />
    <glyph glyph-name="divide" unicode="&#xf7;" horiz-adv-x="445" 
d="M420 265l-3 -20c-2 -7 -5 -8 -12 -8h-373c-6 0 -9 0 -9 5v2c2 6 2 14 4 21s4 8 12 8h373c6 0 9 0 9 -4c0 -1 0 -2 -1 -4zM288 424c-4 -20 -22 -35 -43 -35c-17 0 -29 11 -29 28c0 22 22 43 43 43c18 0 30 -12 30 -28c0 -3 0 -5 -1 -8zM221 81c-4 -20 -22 -36 -43 -36
c-17 0 -29 12 -29 29c0 22 22 42 43 42c18 0 30 -11 30 -27c0 -3 0 -5 -1 -8z" />
    <glyph glyph-name="alpha" unicode="&#x3b1;" horiz-adv-x="429" 
d="M334 6v1c-1 -5 -4 -7 -8 -7h-29c-5 0 -6 2 -5 6l7 34c1 9 -2 11 -10 4c-32 -32 -76 -48 -122 -48c-99 0 -145 72 -128 161l25 127c17 89 76 156 183 156c49 0 95 -19 112 -48c4 -6 9 -5 10 2l7 34c1 5 2 7 7 7h27c4 0 7 -2 6 -7zM321 154l26 130c13 67 -27 120 -98 120
c-77 0 -130 -50 -145 -122l-24 -127c-13 -69 19 -125 97 -125c72 0 131 56 144 124z" />
    <glyph glyph-name="beta" unicode="&#x3b2;" horiz-adv-x="429" 
d="M370 154c-16 -88 -84 -158 -181 -158c-49 0 -87 17 -112 54c-4 6 -7 6 -9 -2l-37 -185c-1 -4 -3 -6 -8 -6h-28c-4 0 -7 1 -6 6l118 617c17 89 82 162 187 162c88 0 135 -49 135 -121c0 -63 -40 -129 -101 -149c-6 -2 -8 -6 -1 -9c54 -20 65 -77 57 -124
c-2 -9 -12 -76 -14 -85zM328 155l13 75c13 73 -18 123 -102 123h-38c-5 0 -6 3 -5 7l4 21c1 5 4 7 8 7h45c66 0 134 52 134 125c0 54 -36 92 -94 92c-76 0 -129 -52 -142 -120l-63 -330c-13 -67 27 -124 97 -124c72 0 129 49 143 124z" />
    <glyph glyph-name="psi" unicode="&#x3c8;" horiz-adv-x="512" 
d="M456 164c-21 -106 -93 -165 -211 -171c-6 0 -9 -2 -10 -8l-31 -159c-1 -4 -3 -6 -8 -6h-28c-5 0 -7 1 -6 6l31 160c0 5 -1 7 -7 7c-99 5 -166 67 -145 175l51 260c1 5 4 7 8 7h28c5 0 7 -3 6 -7l-51 -263c-17 -84 30 -130 111 -134c6 0 7 1 8 7l81 415c1 5 4 7 9 7h28
c5 0 6 -3 6 -7l-82 -414c-1 -6 2 -8 9 -8c84 7 145 50 161 135c12 59 41 207 51 262c1 5 4 7 8 7h29c4 0 6 -3 6 -7z" />
    <glyph glyph-name="delta" unicode="&#x3b4;" horiz-adv-x="423" 
d="M201 443c-37 18 -58 52 -58 87c0 82 85 111 151 111c42 0 89 -9 117 -23c7 -4 6 -6 4 -10l-10 -22c-3 -6 -7 -8 -12 -5c-29 16 -66 24 -100 24c-42 0 -105 -16 -105 -71c0 -52 79 -79 129 -99c47 -18 76 -61 76 -114c0 -12 -4 -36 -7 -50l-22 -117
c-20 -102 -84 -159 -185 -159c-91 0 -141 51 -141 125c0 20 4 39 7 58l21 107c14 71 60 135 133 150c4 2 5 4 5 5s-1 2 -3 3zM323 155l24 125c3 12 4 24 4 35c0 44 -22 81 -85 98c-6 2 -10 2 -14 2s-9 0 -17 -2c-75 -12 -117 -69 -129 -134c-9 -42 -17 -85 -25 -127
c-2 -10 -3 -20 -3 -29c0 -57 40 -93 101 -93c74 0 129 45 144 125z" />
    <glyph glyph-name="epsilon" unicode="&#x3b5;" horiz-adv-x="366" 
d="M102 247h149c6 0 6 -3 5 -7l-4 -21c-1 -5 -3 -7 -8 -7h-147c-5 0 -11 -3 -12 -8l-10 -51c-13 -73 17 -123 100 -123c47 0 82 20 113 52c4 5 8 5 12 2l17 -13c6 -5 4 -8 0 -13c-37 -42 -87 -63 -147 -63c-102 0 -154 63 -135 158l24 128c18 92 68 159 180 159
c57 0 108 -22 130 -63c3 -5 1 -9 -3 -12l-19 -14c-5 -4 -10 -1 -12 3c-18 32 -60 50 -102 50c-74 0 -118 -50 -132 -122l-5 -25c-2 -7 0 -10 6 -10z" />
    <glyph glyph-name="phi" unicode="&#x3c6;" horiz-adv-x="510" 
d="M457 166c-22 -111 -86 -166 -214 -173c-6 0 -8 -3 -9 -8l-31 -159c-1 -4 -3 -6 -8 -6h-28c-4 0 -7 1 -6 6l31 159c1 6 -1 8 -6 8c-96 4 -165 71 -144 182l21 113c12 61 52 115 110 140c5 2 10 2 13 -5l8 -20c4 -7 -2 -9 -7 -11c-44 -22 -74 -62 -83 -107l-21 -115
c-16 -80 29 -135 109 -139c6 -1 8 2 9 6l77 393c1 6 6 12 15 12h39c97 0 163 -71 145 -164zM414 167l20 108c15 73 -28 127 -98 129c-1 0 -10 1 -11 1c-10 0 -11 -4 -12 -10l-70 -357c-1 -5 1 -7 7 -7c95 6 147 45 164 136z" />
    <glyph glyph-name="gamma" unicode="&#x3b3;" horiz-adv-x="353" 
d="M80 425l57 -331c1 -7 5 -7 9 -1l129 211c28 48 25 76 25 118c0 7 1 12 10 12h21c11 0 12 -5 12 -13c0 -53 1 -82 -29 -130l-158 -253c-8 -13 -12 -29 -14 -39l-34 -172c0 -4 -3 -7 -9 -7h-27c-6 0 -8 2 -7 7l39 196c2 11 2 19 0 32l-68 369c-1 6 1 10 8 10h25
c9 0 10 -3 11 -9z" />
    <glyph glyph-name="eta" unicode="&#x3b7;" horiz-adv-x="427" 
d="M391 276l-81 -415c0 -5 -3 -7 -7 -7h-29c-4 0 -7 2 -6 6l82 417c13 68 -11 127 -96 127c-72 0 -132 -58 -146 -127l-52 -270c0 -5 -3 -7 -8 -7h-28c-4 0 -7 2 -6 6l82 422c1 5 4 7 8 7h28c5 0 6 -2 5 -7l-8 -39c-2 -9 2 -11 10 -4c33 36 82 55 128 55
c112 0 141 -79 124 -164z" />
    <glyph glyph-name="iota" unicode="&#x3b9;" horiz-adv-x="180" 
d="M125 0c-1 -4 -4 -5 -8 -5c-3 0 -9 0 -13 1c-62 7 -70 57 -60 108l63 324c0 3 2 6 7 6h28c5 0 6 -2 6 -6l-62 -321c-7 -37 -9 -67 38 -74c7 -1 8 -5 6 -10z" />
    <glyph glyph-name="xi" unicode="&#x3be;" horiz-adv-x="335" 
d="M421 631c7 0 11 -2 10 -9l-3 -18c-1 -7 -5 -11 -11 -13c-102 -26 -286 -84 -286 -174c0 -52 80 -77 127 -77h67c7 0 10 -3 9 -9l-3 -16c-1 -7 -5 -10 -13 -10h-65c-78 0 -190 -74 -190 -163c0 -77 94 -91 154 -111c32 -9 85 -23 85 -60c0 -18 -8 -52 -67 -124
c-4 -5 -8 -6 -13 -3l-16 9c-4 2 -5 6 -1 13c36 52 46 78 48 89c3 23 -37 34 -59 41c-68 20 -175 39 -175 144c0 79 72 154 147 176c3 2 6 3 6 4s-2 2 -5 3c-62 15 -79 58 -79 91c0 95 136 147 213 174c3 1 4 2 4 3s-1 2 -4 2h-182c-9 0 -10 4 -9 10l3 19c1 6 6 9 13 9h295z
" />
    <glyph glyph-name="kappa" unicode="&#x3ba;" horiz-adv-x="406" 
d="M352 109l-15 -101c-1 -6 -3 -8 -10 -8h-25c-6 0 -8 2 -7 7l15 102c9 62 4 121 -94 121c-81 0 -129 -61 -140 -118l-21 -106c0 -4 -2 -6 -7 -6h-29c-4 0 -7 1 -7 6c41 208 44 216 84 424c2 5 5 7 9 7h28c5 0 6 -3 6 -7l-40 -199c-1 -6 1 -12 9 -4c81 68 163 135 245 202
c5 4 8 5 15 5h35c7 0 6 -6 2 -10c-62 -50 -123 -102 -185 -152c-4 -4 -7 -10 2 -9c15 1 22 1 32 0c94 -10 108 -88 98 -154z" />
    <glyph glyph-name="lambda" unicode="&#x3bb;" horiz-adv-x="438" 
d="M340 7c-1 -5 -5 -7 -9 -7h-28c-5 0 -7 2 -5 6l51 271c14 68 -30 126 -100 126c-85 0 -128 -61 -141 -127l-51 -269c-1 -5 -5 -7 -9 -7h-28c-5 0 -6 2 -5 6l50 268c17 84 69 164 180 164c42 0 85 -11 116 -47c7 -8 10 -4 10 2l19 87c14 73 -23 121 -97 121
c-29 0 -66 -10 -98 -24c-6 -2 -10 -2 -12 4l-7 19c-1 6 2 10 8 12c32 18 79 25 113 25c95 0 154 -58 135 -155c0 0 -28 -142 -92 -475z" />
    <glyph glyph-name="mu" unicode="&#xb5;" horiz-adv-x="431" 
d="M339 6c-1 -4 -4 -6 -8 -6h-27c-5 0 -7 2 -5 6l7 37c1 7 -3 10 -9 4c-35 -34 -77 -52 -126 -52c-52 0 -80 19 -97 49c-5 6 -8 4 -9 -1l-44 -217c0 -4 -2 -6 -7 -6h-28c-5 0 -8 1 -7 6l117 602c1 4 4 6 9 6h28c4 0 6 -1 5 -6l-53 -272c-13 -66 19 -124 97 -124
c70 0 130 55 144 122l53 274c1 4 3 6 8 6h29c4 0 6 -1 5 -6z" />
    <glyph glyph-name="mu" unicode="&#x3bc;" horiz-adv-x="431" 
d="M339 6c-1 -4 -4 -6 -8 -6h-27c-5 0 -7 2 -5 6l7 37c1 7 -3 10 -9 4c-35 -34 -77 -52 -126 -52c-52 0 -80 19 -97 49c-5 6 -8 4 -9 -1l-44 -217c0 -4 -2 -6 -7 -6h-28c-5 0 -8 1 -7 6l117 602c1 4 4 6 9 6h28c4 0 6 -1 5 -6l-53 -272c-13 -66 19 -124 97 -124
c70 0 130 55 144 122l53 274c1 4 3 6 8 6h29c4 0 6 -1 5 -6z" />
    <glyph glyph-name="nu" unicode="&#x3bd;" horiz-adv-x="364" 
d="M159 58l130 251c23 51 22 71 22 113c0 7 2 12 11 12h20c11 0 12 -5 12 -13c0 -53 -4 -80 -30 -130l-145 -279c-5 -10 -10 -13 -20 -13h-25c-11 0 -12 2 -14 14l-82 412c-1 6 1 10 8 10h25c8 0 9 -4 10 -9l70 -366c1 -6 6 -7 8 -2z" />
    <glyph glyph-name="omicron" unicode="&#x3bf;" horiz-adv-x="421" 
d="M364 156c-20 -102 -79 -161 -183 -161c-106 0 -160 69 -141 165l24 122c19 93 79 158 180 158c98 0 161 -69 142 -167zM322 156l23 116c14 71 -24 130 -103 132c-74 2 -123 -52 -137 -123l-25 -126c-14 -76 29 -125 103 -125c73 0 123 47 139 126z" />
    <glyph glyph-name="pi" unicode="&#x3c0;" horiz-adv-x="436" 
d="M342 7c0 -5 -3 -7 -7 -7h-29c-4 0 -6 2 -5 6l74 383c1 6 -1 9 -6 9h-226c-5 0 -7 -3 -8 -8l-75 -383c-1 -5 -3 -7 -8 -7h-28c-4 0 -7 2 -6 6c26 137 77 398 81 422c1 5 4 7 8 7h312c4 0 6 -2 5 -7c-3 -14 -71 -368 -82 -421z" />
    <glyph glyph-name="rho" unicode="&#x3c1;" horiz-adv-x="422" 
d="M369 162c-18 -92 -71 -168 -186 -168c-46 0 -84 17 -109 54c-5 7 -8 6 -10 -2l-43 -220c0 -4 -3 -6 -8 -6h-28c-4 0 -7 1 -6 6l88 455c19 96 80 159 188 159c97 0 155 -62 137 -157zM326 157l24 123c13 71 -24 124 -98 124c-81 0 -130 -53 -143 -123l-25 -125
c-13 -68 29 -126 100 -126c78 0 129 56 142 127z" />
    <glyph glyph-name="sigma" unicode="&#x3c3;" horiz-adv-x="422" 
d="M443 405c0 -3 -3 -6 -8 -6h-73c-7 0 -11 -3 -4 -10c28 -27 35 -69 27 -113l-24 -124c-20 -99 -81 -157 -189 -157c-101 0 -153 65 -135 157l23 124c16 87 81 158 187 158h195c4 0 6 -2 5 -6zM320 157l23 122c14 75 -31 118 -101 118c-68 0 -127 -51 -141 -125l-21 -115
c-13 -68 13 -126 91 -126c88 0 135 57 149 126z" />
    <glyph glyph-name="tau" unicode="&#x3c4;" horiz-adv-x="299" 
d="M173 -5c-78 0 -100 51 -88 117l55 278c1 6 -1 9 -7 9h-77c-5 0 -6 3 -5 7l4 22c1 5 4 7 7 7h248c4 0 6 -2 5 -7l-4 -22c-1 -4 -3 -7 -8 -7h-113c-5 0 -8 -3 -9 -9l-53 -272c-11 -60 10 -86 58 -86c18 0 38 4 52 9c7 2 9 -1 9 -5l2 -23c1 -6 -2 -8 -7 -9
c-20 -7 -47 -9 -69 -9z" />
    <glyph glyph-name="theta" unicode="&#x3b8;" horiz-adv-x="426" 
d="M367 155c-19 -99 -83 -160 -186 -160c-106 0 -157 67 -138 161l62 326c19 93 88 157 187 157s157 -63 138 -158zM364 358l25 122c13 69 -26 123 -97 123c-72 0 -131 -53 -145 -122c-1 -4 -24 -121 -24 -121c-1 -7 1 -10 8 -10h224c6 0 9 3 9 8zM326 155l29 151
c1 6 -1 8 -7 8h-225c-6 0 -9 -3 -10 -8c-2 -8 -29 -153 -29 -153c-14 -74 25 -123 98 -123c74 0 129 50 144 125z" />
    <glyph glyph-name="omega" unicode="&#x3c9;" horiz-adv-x="598" 
d="M566 282l-25 -127c-18 -99 -69 -160 -156 -160c-55 0 -98 27 -108 72c-2 5 -4 6 -8 1c-35 -50 -74 -73 -128 -73c-84 0 -122 64 -102 162l24 126c18 92 83 153 168 156c6 0 10 -1 9 -7l-4 -23c-1 -6 -4 -7 -9 -7c-59 -6 -111 -52 -124 -120l-24 -125
c-14 -73 8 -127 70 -127c64 0 107 69 116 114c0 0 17 86 29 149c1 5 4 6 9 6h28c5 0 6 -2 5 -6c-12 -63 -29 -149 -29 -149c-9 -46 10 -113 76 -113c58 0 102 50 117 126l25 125c13 68 -19 110 -77 120c-5 0 -8 0 -7 7l5 23c1 7 6 7 11 7c76 -10 126 -64 109 -157z" />
    <glyph glyph-name="sigma1" unicode="&#x3c2;" horiz-adv-x="342" 
d="M319 407l-10 -20c-2 -6 -8 -6 -13 -3c-30 13 -60 20 -93 20c-52 0 -103 -25 -103 -82c0 -46 51 -66 88 -82c58 -26 122 -53 122 -118c0 -84 -67 -128 -156 -128c-65 0 -124 29 -142 80c-1 3 0 7 5 9l23 10c5 3 7 0 9 -3c15 -38 66 -61 105 -61c62 0 112 29 112 89
c0 44 -54 68 -87 82c-47 19 -121 46 -121 118c0 88 75 123 143 123c41 0 83 -8 113 -23c5 -2 8 -5 5 -11z" />
    <glyph glyph-name="upsilon" unicode="&#x3c5;" horiz-adv-x="424" 
d="M365 153c-19 -99 -83 -160 -184 -160c-104 0 -159 64 -141 159c12 57 44 222 54 276c1 5 4 7 9 7h27c5 0 7 -3 6 -7c-12 -62 -41 -213 -54 -276c-14 -74 25 -123 98 -123c74 0 128 49 143 125c12 61 41 212 52 274c2 5 5 7 9 7h29c4 0 6 -3 5 -7
c-13 -64 -35 -181 -53 -275z" />
    <glyph glyph-name="zeta" unicode="&#x3b6;" horiz-adv-x="324" 
d="M473 616c7 0 12 -2 10 -9l-4 -16c-2 -8 -5 -13 -10 -16c-120 -66 -393 -275 -393 -421c0 -77 53 -99 126 -123c43 -14 104 -27 104 -67c0 -27 -20 -68 -65 -127c-4 -5 -7 -7 -13 -4l-18 11c-5 3 -5 8 -2 13c34 48 49 81 49 92c0 20 -36 30 -71 42
c-70 24 -153 51 -153 151c0 161 244 360 369 431c3 2 5 3 5 4s-2 2 -6 2h-235c-8 0 -9 6 -8 12l3 16c1 6 5 9 12 9h300z" />
    <glyph glyph-name="Euro" unicode="&#x20ac;" horiz-adv-x="445" 
d="M41 286h271c4 0 7 -2 6 -7l-4 -17c0 -5 -4 -8 -8 -8h-178c-6 0 -8 -1 -9 -6l-19 -97c-14 -71 22 -121 97 -121c42 0 87 18 117 49c8 9 12 10 17 5l17 -16c5 -4 4 -8 0 -13c-40 -43 -94 -62 -157 -62c-93 0 -153 60 -133 162l19 92c1 5 0 8 -5 8h-38c-4 0 -5 2 -5 7l4 18
c1 4 4 6 8 6zM326 353h-272c-5 0 -7 3 -5 7l3 18c1 5 4 7 8 7h37c6 0 7 4 8 9l14 74c19 92 80 156 180 156c63 0 116 -21 141 -65c3 -4 1 -8 -5 -12l-19 -13c-6 -3 -10 -3 -13 3c-20 31 -57 50 -102 50c-75 0 -125 -49 -139 -120l-15 -75c-1 -5 0 -8 7 -8h178c4 0 6 -1 5 -6
l-3 -18c-1 -4 -4 -7 -8 -7z" />
    <glyph glyph-name="emdash" unicode="&#x2014;" horiz-adv-x="1000" 
d="M974 225c-1 -5 -3 -7 -8 -7h-934c-4 0 -6 2 -5 7l4 19c0 4 3 8 8 8h934c5 0 6 -4 5 -8z" />
    <glyph glyph-name="AE" unicode="&#xc6;" horiz-adv-x="654" 
d="M640 31l-3 -25c-1 -5 -2 -6 -7 -6h-334c-4 0 -6 3 -7 7l16 141c0 6 1 12 -10 12h-175c-5 0 -7 -2 -8 -5l-67 -148c-1 -5 -4 -7 -9 -7h-31c-5 0 -7 3 -4 9l276 600c1 3 5 8 12 8h362c5 0 9 -3 7 -7l-3 -23c0 -5 -4 -7 -8 -7h-247c-5 0 -9 -1 -9 -6l-24 -232
c-1 -5 1 -6 8 -6h220c5 0 6 -3 5 -8l-3 -23c-1 -6 -3 -6 -7 -6h-220c-5 0 -7 -2 -9 -8l-25 -247c0 -6 3 -7 8 -7h291c4 0 5 -2 5 -6zM341 580h-29c-6 0 -9 -3 -12 -7l-165 -369c-2 -5 -3 -7 4 -7h160c8 0 12 4 11 11l40 366c1 4 -2 6 -9 6z" />
    <glyph glyph-name="Eth" unicode="&#xd0;" horiz-adv-x="471" 
d="M464 447l-52 -280c-21 -110 -82 -167 -192 -167h-191c-5 0 -6 3 -6 7l56 292c1 7 0 9 -7 9h-36c-5 0 -7 2 -6 7l3 17c1 4 3 7 8 7h37c7 0 9 1 11 10l51 260c1 4 3 8 9 8h180c113 0 152 -74 135 -170zM367 162c16 88 33 175 50 263c15 75 12 154 -95 154h-137
c-5 0 -8 -1 -9 -6l-44 -227c0 -5 2 -7 8 -7h119c5 0 6 -3 5 -7l-3 -17c-1 -5 -3 -7 -7 -7h-120c-7 0 -9 -2 -10 -9l-50 -256c0 -4 0 -5 6 -5h140c75 0 131 42 147 124z" />
    <glyph glyph-name="Oslash" unicode="&#xd8;" horiz-adv-x="474" 
d="M462 450l-55 -290c-18 -96 -72 -167 -198 -167c-49 0 -87 13 -114 35c-3 2 -8 8 -13 1l-23 -33c-4 -6 -6 -6 -10 -4l-18 11c-3 2 -4 4 -1 8l30 44c8 11 4 14 3 17c-15 30 -18 66 -11 104l53 282c19 95 87 166 197 166c50 0 91 -15 119 -40c2 -2 6 -5 11 2l26 37
c2 3 5 5 8 3l19 -12c2 -1 4 -3 0 -9l-32 -45c-7 -9 -2 -13 -1 -16c12 -28 16 -59 10 -94zM94 177c-4 -21 -5 -43 -1 -62c1 -3 4 -10 8 -4l295 424c6 8 2 10 1 12c-20 23 -52 38 -98 38c-88 0 -138 -59 -151 -129zM419 452c3 16 3 36 0 48c-1 3 -3 7 -8 -1l-294 -419
c-7 -9 -1 -14 1 -16c19 -21 50 -33 94 -33c93 0 139 56 153 131z" />
    <glyph glyph-name="Thorn" unicode="&#xde;" horiz-adv-x="423" 
d="M241 145h-139c-6 0 -9 -3 -10 -9l-26 -129c0 -5 -2 -7 -7 -7h-28c-5 0 -7 2 -7 6l118 604c1 4 3 7 8 7h28c4 0 7 -2 6 -6l-26 -129c-1 -10 4 -10 11 -10h124c90 0 145 -55 143 -138c-4 -109 -79 -190 -195 -189zM291 435h-132c-5 0 -9 -2 -11 -9l-47 -236
c-1 -5 2 -8 7 -8h135c87 0 151 68 151 155c-1 55 -45 98 -103 98z" />
    <glyph glyph-name="thorn" unicode="&#xfe;" horiz-adv-x="425" 
d="M137 630c1 5 4 6 9 6h27c4 0 6 -2 5 -6l-46 -237c-2 -6 1 -9 8 -3c30 30 80 50 126 50c98 0 146 -65 129 -157l-25 -124c-15 -80 -67 -164 -181 -164c-51 0 -94 20 -112 51c-6 8 -9 4 -11 -4l-43 -215c-1 -4 -3 -7 -8 -7h-28c-4 0 -7 2 -6 7zM112 283l-26 -127
c-13 -68 25 -125 102 -125c78 0 127 57 140 126l25 124c14 73 -17 123 -98 123c-71 0 -130 -51 -143 -121z" />
    <glyph glyph-name="ae" unicode="&#xe6;" horiz-adv-x="684" 
d="M380 373c1 -2 2 -3 5 0c36 47 90 66 153 66c71 0 121 -40 121 -106c0 -132 -156 -161 -281 -149c-8 1 -9 -2 -11 -10c-3 -17 -8 -40 -8 -58c0 -56 37 -83 97 -83c50 0 89 30 109 50c9 8 13 4 14 3l17 -18c6 -5 2 -10 -3 -15c-50 -46 -89 -58 -145 -58
c-73 0 -111 28 -126 67c-1 3 -3 4 -6 1c-43 -58 -101 -68 -148 -68c-73 0 -135 48 -135 118c0 94 62 161 148 161c57 0 90 -18 141 -38c5 -2 11 -2 13 6c6 18 12 45 12 66c0 43 -27 97 -101 97c-30 0 -73 -5 -101 -16c-10 -5 -17 -6 -20 8l-3 13c-2 7 2 10 7 13
c38 15 85 19 122 19c69 0 113 -22 129 -69zM313 139l9 42c1 7 0 13 -9 17c-52 20 -85 38 -128 38c-59 0 -111 -50 -111 -119c0 -48 41 -86 95 -86c60 0 128 53 144 108zM531 401c-78 0 -128 -49 -141 -110l-13 -61c-2 -7 0 -8 6 -9c112 -15 234 16 234 102
c0 38 -25 78 -86 78z" />
    <glyph glyph-name="oslash" unicode="&#xf8;" horiz-adv-x="414" 
d="M42 2c-4 -6 -8 -4 -10 -3l-16 12c-3 2 -2 6 0 9l28 31c8 7 5 10 5 12c-12 25 -15 55 -8 90l25 128c18 92 88 157 184 157c40 0 78 -12 101 -33c1 -1 6 -2 11 4l24 28c2 3 7 5 11 2l15 -11c1 -2 4 -4 -1 -10l-31 -35c-5 -6 -4 -10 -3 -13c12 -25 15 -55 8 -90l-24 -125
c-20 -100 -85 -160 -187 -160c-43 0 -79 14 -102 35c-1 1 -3 3 -10 -5zM319 155l24 125c4 19 3 37 0 53c-1 5 -3 4 -8 -1l-232 -260c-5 -6 -6 -9 -2 -13c20 -21 46 -29 78 -29c68 0 126 56 140 125zM83 153c-3 -18 -5 -38 -1 -53c1 -2 2 -5 7 2l232 262c4 4 3 8 1 9
c-17 18 -41 28 -72 28c-70 0 -129 -52 -142 -120z" />
    <glyph glyph-name="OE" unicode="&#x152;" horiz-adv-x="625" 
d="M588 7c0 -4 -3 -7 -8 -7h-324c-18 -5 -41 -7 -63 -7c-120 0 -163 70 -144 168l61 308c18 94 77 155 190 155c20 0 43 -3 61 -7h290c5 0 6 -3 6 -7l-5 -23c-1 -5 -3 -7 -8 -7h-247c-5 0 -9 -1 -10 -6l-45 -232c-1 -5 0 -6 6 -6h220c5 0 6 -3 5 -8l-4 -23
c-1 -5 -3 -6 -7 -6h-221c-5 0 -8 -2 -9 -8l-48 -247c-1 -6 1 -7 6 -7h297c4 0 7 -2 6 -6zM195 30c15 0 31 2 45 5l106 546c-12 4 -27 6 -43 6c-97 0 -138 -51 -152 -120l-63 -306c-13 -72 12 -131 107 -131z" />
    <glyph glyph-name="tilde" unicode="&#x2dc;" horiz-adv-x="420" 
d="M402 579c3 -2 3 -6 -1 -11c-26 -35 -59 -43 -83 -43c-42 0 -69 35 -105 35c-16 0 -33 -11 -45 -27c-3 -4 -8 -6 -12 -3l-13 9c-4 3 -2 7 1 11c22 29 48 43 76 43c39 0 70 -35 102 -35c20 0 39 9 54 27c3 4 6 5 10 2z" />
    <glyph glyph-name="guilsinglright" unicode="&#x203a;" horiz-adv-x="279" 
d="M188 194c5 5 5 6 2 11l-97 155c-4 6 0 11 6 11h25c9 0 11 -1 16 -9l96 -153c5 -9 2 -16 -4 -23l-157 -159c-6 -6 -11 -8 -19 -8h-28c-7 0 -10 4 -3 11z" />
    <glyph glyph-name="guilsinglleft" unicode="&#x2039;" horiz-adv-x="279" 
d="M76 197c-5 -5 -6 -6 -3 -11l98 -155c4 -6 0 -12 -7 -12h-24c-9 0 -12 2 -17 10l-95 153c-6 9 -3 16 3 23l157 158c7 7 11 8 20 8h27c7 0 10 -4 3 -10z" />
    <glyph glyph-name="cent" unicode="&#xa2;" horiz-adv-x="445" 
d="M282 509l-11 -59c-2 -11 8 -12 12 -13c43 -7 78 -27 96 -60c3 -5 1 -9 -3 -13l-19 -13c-5 -4 -10 -2 -12 2c-18 33 -59 51 -99 51c-69 0 -124 -50 -138 -122l-26 -129c-13 -73 17 -123 100 -123c45 0 82 20 113 52c4 5 8 5 12 2l17 -13c7 -5 5 -9 1 -14
c-35 -38 -78 -57 -130 -61c-4 0 -11 0 -14 -15l-11 -60c-1 -4 -3 -7 -7 -7h-20c-4 0 -6 2 -5 6l12 66c2 11 -5 11 -8 12c-78 12 -117 71 -100 155l24 128c17 87 68 146 155 157c4 1 13 -1 16 12l12 59c1 5 5 7 10 7h17c7 0 7 -3 6 -7z" />
    <glyph glyph-name="questiondown" unicode="&#xbf;" horiz-adv-x="374" 
d="M120 106c69 39 106 74 117 130l9 46c0 5 2 8 7 8h28c4 0 7 -1 7 -6v-2l-10 -52c-10 -50 -44 -100 -99 -133c-65 -38 -150 -79 -150 -173c0 -40 31 -85 97 -85c49 0 89 22 119 52c5 5 10 7 15 3l17 -15c4 -3 3 -8 -1 -12c-45 -46 -92 -64 -154 -64c-70 0 -137 40 -137 116
c0 87 66 148 135 187zM285 366c-18 0 -30 11 -30 27c0 22 20 40 43 40c17 0 29 -11 29 -26c0 -21 -21 -41 -42 -41z" />
    <glyph glyph-name="exclamdown" unicode="&#xa1;" horiz-adv-x="246" 
d="M52 -180l98 462c1 5 3 7 7 7h16c3 0 5 -1 5 -4v-2l-78 -463c-1 -5 -3 -8 -10 -8h-32c-5 0 -6 2 -6 5v3zM153 400c3 19 20 34 41 34c17 0 29 -11 29 -27c0 -21 -21 -41 -42 -41c-17 0 -29 11 -29 27c0 2 1 5 1 7z" />
    <glyph glyph-name="Dcroat" unicode="&#x110;" horiz-adv-x="471" 
d="M464 447l-52 -280c-21 -110 -82 -167 -192 -167h-191c-5 0 -6 3 -6 7l56 292c1 7 0 9 -7 9h-36c-5 0 -7 2 -6 7l3 17c1 4 3 7 8 7h37c7 0 9 1 11 10l51 260c1 4 3 8 9 8h180c113 0 152 -74 135 -170zM367 162c16 88 33 175 50 263c15 75 12 154 -95 154h-137
c-5 0 -8 -1 -9 -6l-44 -227c0 -5 2 -7 8 -7h119c5 0 6 -3 5 -7l-3 -17c-1 -5 -3 -7 -7 -7h-120c-7 0 -9 -2 -10 -9l-50 -256c0 -4 0 -5 6 -5h140c75 0 131 42 147 124z" />
    <glyph glyph-name="Lslash" unicode="&#x141;" horiz-adv-x="411" 
d="M96 275l65 335c1 5 4 7 8 7h29c5 0 6 -2 5 -6l-60 -312c-1 -6 -1 -9 4 -6l104 54c4 2 6 1 8 -3l5 -16c2 -5 0 -7 -3 -9l-120 -62c-5 -3 -7 -8 -8 -14l-39 -199c-2 -5 1 -6 6 -6h263c4 0 7 -2 6 -7l-5 -24c-1 -4 -3 -7 -7 -7h-306c-5 0 -8 3 -7 7l41 211c1 6 0 9 -8 5
l-63 -33c-4 -2 -7 -1 -9 2l-5 16c-2 5 -1 7 2 9l82 43c6 3 11 7 12 15z" />
    <glyph glyph-name="lslash" unicode="&#x142;" horiz-adv-x="249" 
d="M70 90l35 182c1 5 0 7 -5 4l-71 -36c-4 -2 -5 -2 -7 2l-7 16c-2 5 1 8 4 9l89 45c3 2 5 4 6 9l60 309c1 4 2 7 7 7h28c4 0 6 -1 6 -5v-2l-56 -285c-1 -5 0 -7 4 -5l73 38c4 2 7 1 8 -2l7 -16c2 -4 0 -7 -4 -9l-91 -46c-5 -3 -5 -6 -6 -10l-41 -207c-6 -33 -4 -54 39 -54
h10c5 0 7 -2 7 -5l-5 -27c-1 -5 -4 -7 -11 -7h-17c-72 0 -71 47 -62 95z" />
    <glyph glyph-name="dcroat" unicode="&#x111;" horiz-adv-x="469" 
d="M320 151l25 128c14 68 -27 124 -100 124c-83 0 -129 -59 -142 -126l-25 -124c-14 -74 20 -123 98 -123c71 0 131 52 144 121zM428 490l-94 -484c-1 -4 -4 -6 -9 -6h-27c-5 0 -6 2 -5 7l6 34c2 6 -1 9 -8 3c-32 -28 -68 -49 -124 -49c-97 0 -147 67 -129 156l24 126
c15 80 67 163 186 163c56 0 92 -24 107 -54c5 -8 9 -4 11 4l20 100c1 6 1 9 -6 9h-100c-5 0 -6 4 -5 8l3 17c1 4 4 6 8 6h99c6 0 9 2 10 9l14 71c1 5 3 7 8 7h28c4 0 7 -2 6 -6l-14 -72c-1 -7 1 -9 8 -9h36c4 0 6 -2 5 -7l-3 -16c-1 -5 -3 -8 -8 -8h-37c-7 0 -9 -2 -10 -9z
" />
    <glyph glyph-name="dotaccent" unicode="&#x2d9;" horiz-adv-x="429" 
d="M307 561c-3 -17 -18 -30 -34 -30s-27 14 -24 30c4 17 20 30 36 30c15 0 26 -13 22 -30z" />
    <glyph glyph-name="currency" unicode="&#xa4;" horiz-adv-x="487" 
d="M160 126c-6 4 -11 1 -15 -3l-44 -44c-3 -3 -8 -4 -11 -1l-16 17c-2 3 -3 8 0 11l47 47c4 8 -1 12 -4 19c-15 22 -22 48 -22 75c0 30 9 57 25 81c6 6 6 10 0 16l-45 47c-2 3 -4 6 0 9l19 18c3 3 5 2 8 -1l44 -46c5 -5 9 -8 15 -3c24 17 48 24 79 24c29 0 57 -8 80 -24
c8 -5 10 -7 17 0l47 47c3 3 7 4 9 0l18 -17c3 -3 3 -6 0 -9l-48 -48c-6 -6 -7 -10 -1 -16c16 -23 25 -50 25 -78c0 -29 -8 -55 -23 -78c-4 -6 -6 -10 0 -15l46 -45c3 -3 3 -6 0 -9l-17 -17c-3 -3 -7 -4 -10 -1l-46 44c-6 6 -7 5 -14 1c-23 -17 -52 -27 -82 -27
s-57 10 -81 26zM130 247c0 -61 50 -111 111 -111c62 0 111 50 111 111c0 62 -49 111 -111 111c-61 0 -111 -49 -111 -111z" />
    <glyph glyph-name="brokenbar" unicode="&#xa6;" horiz-adv-x="197" 
d="M134 -106c0 -4 -1 -6 -6 -6h-21c-4 0 -7 1 -7 6v363c0 5 3 7 7 7h21c5 0 7 -3 7 -6zM134 304c0 -4 -1 -6 -6 -6h-21c-4 0 -7 1 -7 6v364c0 5 3 7 7 7h21c5 0 6 -3 6 -6v-365z" />
    <glyph glyph-name="logicalnot" unicode="&#xac;" horiz-adv-x="445" 
d="M415 247l-39 -197c-1 -6 -5 -8 -10 -8h-20c-6 0 -8 3 -7 8l32 162c1 5 1 7 -6 7h-328c-5 0 -8 3 -7 8l4 20c1 5 4 9 10 9h364c6 0 7 -4 7 -9z" />
    <glyph glyph-name="paragraph" unicode="&#xb6;" horiz-adv-x="403" 
d="M291 324h-77c-86 0 -129 60 -126 141c4 104 80 167 172 167h91c4 0 6 -3 6 -7l-58 -295c-1 -4 -4 -6 -8 -6zM428 625l-109 -563c-20 -99 -43 -156 -177 -163c-4 0 -7 2 -7 6l2 20c0 3 3 7 7 7c114 7 127 60 139 128l111 565c0 4 3 7 7 7h21c4 0 6 -3 6 -7z" />
    <glyph glyph-name="ordfeminine" unicode="&#xaa;" horiz-adv-x="292" 
d="M187 499c-20 0 -50 -4 -74 -13c-5 -2 -10 -1 -11 4l-4 14c-1 3 -2 8 7 11c26 10 57 14 83 14c85 0 120 -39 106 -103l-35 -178c-1 -4 -2 -7 -7 -7h-21c-7 0 -7 4 -6 8l4 17c1 4 -2 3 -3 2c-22 -20 -55 -31 -84 -31c-62 0 -91 37 -91 87c0 62 48 108 122 108
c34 0 59 -10 76 -28c2 -2 6 -6 7 1l6 31c9 43 -16 63 -75 63zM174 404c-58 0 -89 -37 -89 -81c0 -31 16 -57 61 -57c52 0 92 38 92 82c0 31 -24 56 -64 56z" />
    <glyph glyph-name="ordmasculine" unicode="&#xba;" horiz-adv-x="287" 
d="M297 415l-15 -75c-12 -66 -57 -103 -124 -103c-73 0 -111 44 -99 110l12 70c11 64 49 110 128 110c75 0 110 -49 98 -112zM248 343l13 73c9 46 -12 79 -66 79c-55 0 -79 -34 -88 -79l-15 -76c-7 -43 18 -73 67 -73c47 0 79 26 89 76z" />
    <glyph glyph-name="quotesinglbase" unicode="&#x201a;" horiz-adv-x="167" 
d="M112 54l-67 -150c-3 -7 -7 -9 -12 -9h-15c-6 0 -7 4 -5 11l38 151c2 6 6 10 13 10h41c9 0 11 -4 7 -13z" />
    <glyph glyph-name="quotedblbase" unicode="&#x201e;" horiz-adv-x="258" 
d="M111 54l-66 -150c-3 -7 -7 -9 -13 -9h-15c-6 0 -7 4 -4 11l38 151c2 6 6 10 13 10h41c9 0 11 -4 6 -13zM211 54l-67 -150c-3 -7 -6 -9 -12 -9h-15c-6 0 -7 4 -4 11l38 151c2 6 6 10 12 10h41c10 0 11 -4 7 -13z" />
    <glyph glyph-name="eth" unicode="&#xf0;" horiz-adv-x="421" 
d="M229 644c69 0 117 -19 148 -58c2 -2 4 -4 8 -1l50 41c4 4 6 4 9 1l11 -13c2 -3 1 -6 -3 -9l-52 -41c-3 -3 -4 -4 -2 -8c14 -21 18 -57 18 -88c0 -35 -9 -92 -19 -139c-12 -61 -24 -122 -37 -183c-21 -97 -81 -151 -183 -151c-91 0 -141 50 -141 125c0 29 13 88 21 130
l5 24c21 93 80 151 177 151c54 0 103 -26 120 -65c0 -1 1 -1 1 -1c1 0 2 1 3 3c9 43 14 76 14 104c0 24 -4 43 -13 62c-3 3 -6 2 -9 -1l-55 -45c-3 -3 -7 -2 -9 0l-10 11c-2 4 -1 7 2 10l59 47c3 3 5 7 2 10c-25 35 -68 47 -122 48c-5 0 -9 2 -8 7l4 22c1 5 5 7 11 7z
M321 155c7 37 15 71 22 110c1 8 3 16 3 24c0 58 -45 100 -110 100c-76 0 -121 -52 -135 -124c-23 -122 -24 -132 -24 -142c0 -58 37 -93 105 -93c74 0 124 47 139 125z" />
    <glyph glyph-name="daggerdbl" unicode="&#x2021;" horiz-adv-x="443" 
d="M132 -125l56 288c0 3 0 5 -4 5h-142c-6 0 -7 4 -7 9l4 18c1 5 4 8 10 8h142c3 0 5 2 5 5l49 248c1 3 0 5 -4 5h-142c-6 0 -8 4 -7 9l4 17c0 5 4 9 9 9h143c4 0 5 2 6 5l32 166c1 6 5 8 10 8h19c6 0 8 -3 7 -8l-32 -166c-1 -3 0 -5 3 -5h145c5 0 7 -4 7 -8l-4 -18
c-1 -5 -4 -9 -10 -9h-145c-3 0 -4 -2 -5 -4l-49 -249c0 -3 0 -5 3 -5h146c6 0 8 -4 6 -9l-3 -17c0 -5 -4 -9 -9 -9h-146c-3 0 -5 -2 -5 -5l-56 -287c-2 -5 -4 -8 -10 -8h-18c-6 0 -10 2 -8 7z" />
    <glyph glyph-name="circumflex" unicode="&#x2c6;" horiz-adv-x="421" 
d="M318 632l69 -117c3 -5 3 -9 -3 -13l-7 -5c-6 -5 -9 -2 -12 1l-74 96c-3 4 -5 4 -10 0l-118 -96c-6 -4 -9 -6 -13 -2l-7 7c-4 5 -3 7 2 12l117 117c6 6 10 8 17 8h25c7 0 9 -2 14 -8z" />
    <glyph glyph-name="acute" unicode="&#xb4;" horiz-adv-x="402" 
d="M368 609l-111 -117c-4 -3 -9 -5 -14 -1l-7 6c-3 2 -5 6 0 13l91 125c5 6 10 9 19 3l20 -13c7 -5 7 -10 2 -16z" />
    <glyph glyph-name="florin" unicode="&#x192;" horiz-adv-x="445" 
d="M147 55c21 87 43 174 65 261c0 2 1 4 1 5c0 3 -1 4 -4 4h-81c-3 0 -7 1 -7 5c0 8 1 17 1 23c1 5 4 8 10 8h83c7 0 9 2 10 8l24 102c25 101 77 152 151 152c20 0 44 -2 64 -9c5 -1 7 -3 7 -6c0 -1 0 -2 -1 -4c-3 -9 -7 -16 -10 -25c-2 -3 -3 -5 -6 -5c-2 0 -4 0 -6 1
c-14 6 -33 8 -50 8c-71 0 -92 -58 -110 -130c-7 -28 -14 -56 -20 -84c0 -1 -1 -2 -1 -3c0 -3 2 -5 6 -5h90c6 0 8 -3 8 -8l-2 -21c-1 -5 -3 -7 -8 -7h-97c-6 0 -9 -4 -10 -9l-56 -230c-29 -125 -64 -187 -150 -187c-26 0 -46 3 -61 9c-4 1 -6 3 -6 6c0 1 0 2 1 4l10 25
c2 3 3 5 6 5c1 0 3 0 5 -1c12 -4 23 -8 41 -8c56 0 81 29 103 116z" />
    <glyph glyph-name="multiply" unicode="&#xd7;" horiz-adv-x="445" 
d="M56 109c-3 3 -1 8 3 11l135 114c4 3 5 5 2 9l-89 109c-3 3 -2 8 2 11l16 13c4 4 7 4 11 0l89 -109c2 -3 4 -3 9 0l131 110c4 4 8 5 12 1l12 -16c2 -3 3 -8 -2 -12l-133 -112c-3 -3 -3 -3 0 -7l90 -112c3 -4 2 -9 -3 -12l-14 -13c-5 -4 -10 -3 -12 0l-90 113
c-4 3 -6 3 -9 -1l-135 -113c-5 -4 -10 -4 -13 0z" />
    <glyph glyph-name="cedilla" unicode="&#xb8;" horiz-adv-x="372" 
d="M155 11h17c2 0 5 -2 2 -8l-23 -48c-1 -3 -2 -5 -2 -7c0 -3 2 -4 7 -4h11c42 0 69 -21 69 -57c0 -49 -36 -81 -94 -81c-25 0 -52 7 -66 19c-1 1 -3 3 -3 5c0 1 0 2 1 3l7 11c2 2 4 5 7 5c1 0 2 0 3 -1c15 -9 32 -16 52 -16c40 0 62 19 62 50c0 19 -12 35 -45 35h-25
c-10 0 -22 2 -22 12c0 2 1 5 2 8l31 65c2 4 4 9 9 9z" />
    <glyph glyph-name="macron" unicode="&#xaf;" horiz-adv-x="429" 
d="M405 541c-1 -5 -4 -7 -8 -7h-221c-5 0 -7 2 -6 7l4 20c1 4 3 7 8 7h222c4 0 6 -3 5 -7z" />
    <glyph glyph-name="ogonek" unicode="&#x2db;" horiz-adv-x="365" 
d="M254 11l-13 -10c-45 -34 -78 -82 -78 -120c0 -20 13 -31 38 -31c19 0 40 11 60 22c2 1 4 2 5 2c2 0 3 -1 4 -3l6 -9c1 -2 2 -3 2 -4c0 -2 -2 -4 -4 -6c-23 -18 -54 -32 -83 -32c-42 0 -64 20 -64 54c0 48 44 109 86 135c7 5 13 7 18 7h20c3 0 4 -1 4 -2s0 -2 -1 -3z" />
    <glyph glyph-name="hungarumlaut" unicode="&#x2dd;" horiz-adv-x="421" 
d="M325 609l-111 -117c-4 -3 -9 -5 -14 -1l-7 6c-3 2 -5 6 0 13l91 125c5 6 10 9 19 3l20 -13c7 -5 7 -10 2 -16zM438 609l-111 -117c-4 -3 -9 -5 -14 -1l-7 6c-3 2 -5 6 0 13l91 125c5 6 10 9 19 3l20 -13c7 -5 7 -10 2 -16z" />
    <glyph glyph-name="caron" unicode="&#x2c7;" horiz-adv-x="429" 
d="M168 615c-4 5 -3 9 2 13l9 7c7 5 10 2 13 -1l73 -96c3 -4 6 -4 10 0l118 96c6 4 9 6 13 2l7 -7c5 -5 3 -7 -1 -12l-117 -117c-7 -6 -10 -8 -18 -8h-25c-6 0 -9 2 -13 8z" />
    <glyph glyph-name="breve" unicode="&#x2d8;" horiz-adv-x="418" 
d="M178 611c0 4 3 8 8 8h12c7 0 6 -3 6 -9c0 -44 27 -72 69 -72c38 0 83 26 98 70c3 9 2 11 9 11h15c6 0 5 -5 4 -10c-15 -66 -70 -106 -132 -106c-55 0 -91 40 -89 108z" />
    <glyph glyph-name="Hbar" unicode="&#x126;" horiz-adv-x="513" 
d="M417 343l26 134c1 7 1 10 -6 10h-271c-6 0 -9 -3 -10 -10l-25 -134c-1 -5 -1 -7 6 -7h272c6 0 7 2 8 7zM485 477l-91 -470c-1 -5 -2 -7 -7 -7h-28c-5 0 -8 2 -7 6l56 286c1 6 -1 8 -6 8h-272c-5 0 -8 -2 -9 -8l-56 -285c0 -5 -2 -7 -7 -7h-28c-4 0 -7 2 -7 6l91 471
c2 7 0 10 -8 10h-34c-4 0 -7 2 -5 7l2 14c1 4 3 7 8 7h35c7 0 10 3 12 11l17 84c1 5 4 7 8 7h28c5 0 7 -2 6 -6l-17 -85c-2 -6 -1 -11 6 -11h269c8 0 10 5 11 11l17 84c1 5 4 7 8 7h28c5 0 7 -2 6 -6l-17 -85c-2 -8 1 -11 8 -11h35c5 0 6 -3 5 -7l-2 -14c-2 -5 -4 -7 -8 -7
h-34c-8 0 -12 -3 -13 -10z" />
    <glyph glyph-name="hbar" unicode="&#x127;" horiz-adv-x="428" 
d="M14 6l98 499c1 7 -1 10 -9 10h-34c-4 0 -6 2 -5 7l3 15c1 4 3 7 7 7h35c7 0 10 3 12 11l14 75c1 5 4 7 8 7h29c5 0 6 -2 4 -7l-13 -75c-1 -6 -1 -11 7 -11h183c5 0 7 -3 6 -7l-3 -15c-1 -5 -4 -7 -8 -7h-184c-7 0 -10 -3 -11 -10l-22 -115c-2 -8 2 -9 9 -2
c36 36 81 52 127 52c114 0 141 -80 124 -164l-52 -269c-1 -5 -1 -7 -6 -7h-29c-5 0 -7 2 -7 6l53 271c13 68 -5 127 -95 127c-72 0 -132 -56 -146 -125l-53 -272c0 -5 -2 -7 -7 -7h-28c-5 0 -7 2 -7 6z" />
    <glyph glyph-name="eng" unicode="&#x14b;" horiz-adv-x="427" 
d="M391 276l-71 -362c-9 -45 -21 -91 -99 -91c-14 0 -37 4 -53 12c-5 3 -5 6 -4 10l7 15c3 6 7 10 14 8c16 -6 24 -8 36 -8c45 0 54 32 62 75l66 342c14 68 -18 127 -96 127c-71 0 -131 -56 -144 -125l-53 -272c-1 -5 -3 -7 -8 -7h-28c-4 0 -7 2 -6 6l82 422c1 5 4 7 8 7h27
c5 0 6 -2 5 -7l-7 -37c-2 -8 2 -10 9 -3c37 35 79 52 126 52c112 0 144 -79 127 -164z" />
    <glyph glyph-name="Eng" unicode="&#x14a;" horiz-adv-x="484" 
d="M509 610l-135 -696c-9 -45 -25 -91 -97 -91c-14 0 -39 4 -55 12c-5 3 -5 6 -4 10l7 15c3 6 6 10 14 8c16 -6 31 -8 40 -8c45 0 48 23 59 80l6 31c2 13 4 30 -1 43l-179 512c-1 5 -5 3 -5 0l-101 -519c-1 -4 -3 -7 -7 -7h-28c-5 0 -7 2 -6 7l117 603c1 4 3 7 8 7h27
c8 0 11 -4 13 -9l180 -518c1 -4 4 -3 5 0l101 520c1 4 3 7 8 7h28c5 0 6 -2 5 -7z" />
    <glyph glyph-name="Tbar" unicode="&#x166;" horiz-adv-x="400" 
d="M137 6c22 111 44 222 65 333v4c0 4 -1 6 -7 6h-104c-3 0 -5 1 -5 4v2l3 15c1 4 3 7 7 7h104c8 0 11 2 12 11c0 3 1 5 1 7l35 177v2c0 4 -2 5 -6 5h-151c-5 0 -6 1 -6 6c2 8 3 17 4 24c2 4 3 8 8 8h365c4 0 6 -2 6 -5v-2l-5 -25c0 -5 -4 -6 -8 -6h-156c-5 0 -9 -1 -10 -7
c0 -5 -2 -10 -2 -15l-32 -169c0 -2 -1 -4 -1 -5c0 -4 2 -6 7 -6h105c3 0 5 -2 5 -5v-2l-3 -15c-1 -4 -3 -6 -7 -6h-106c-7 0 -9 -4 -10 -10l-3 -16c-21 -106 -43 -211 -63 -317c0 -4 -2 -6 -7 -6h-27c-5 0 -8 1 -8 6z" />
    <glyph glyph-name="tbar" unicode="&#x167;" horiz-adv-x="281" 
d="M75 112l34 174c1 6 0 8 -8 8h-56c-4 0 -6 2 -5 7l2 15c2 5 3 8 8 8h56c7 0 10 2 12 10l11 56c2 6 0 9 -7 9h-57c-5 0 -6 3 -6 7l5 22c1 5 4 7 7 7h60c5 0 8 3 9 8l20 103c1 4 3 7 7 7l31 7c5 1 6 -2 5 -6l-22 -111c-1 -5 -1 -8 4 -8h112c4 0 6 -2 5 -7l-4 -22
c-1 -4 -3 -7 -8 -7h-110c-5 0 -8 -3 -9 -9l-11 -57c-1 -6 -1 -9 6 -9h109c5 0 7 -3 6 -7l-3 -16c-1 -5 -4 -7 -8 -7h-109c-6 0 -8 -2 -10 -8l-33 -168c-10 -60 -1 -86 52 -86c18 0 46 5 61 10c7 1 9 -2 9 -5l3 -23c0 -7 -2 -8 -8 -10c-20 -6 -56 -9 -78 -9
c-80 0 -95 52 -82 117z" />
    <glyph glyph-name="space" unicode=" " horiz-adv-x="200" 
 />
    <glyph glyph-name="afii10028" unicode="&#x41a;" horiz-adv-x="470" 
d="M415 197l-22 -190c-1 -6 -3 -7 -8 -7h-26c-5 0 -6 2 -6 7l22 179c8 67 6 138 -105 138c-108 0 -158 -75 -170 -139l-35 -178c-1 -5 -3 -7 -7 -7h-30c-4 0 -7 2 -7 5v1l117 602c1 6 2 9 9 9h30c6 0 5 -5 5 -9l-56 -285c0 -7 4 -9 10 -3l311 290c6 5 9 6 16 6h31
c8 0 7 -5 3 -9l-259 -245c-8 -8 -6 -10 3 -9c12 3 36 5 52 5c113 -2 131 -82 122 -161z" />
    <glyph glyph-name="afii10065" unicode="&#x430;" horiz-adv-x="414" 
d="M225 405c-30 0 -71 -5 -110 -23c-4 -2 -8 0 -9 4l-8 21c-2 5 1 7 6 10c40 17 88 24 124 24c123 0 164 -65 145 -164l-52 -271c-1 -5 -4 -6 -8 -6h-26c-5 0 -5 2 -5 5c5 29 7 36 7 39c0 2 0 5 -2 5c-1 0 -3 -1 -6 -4c-46 -42 -89 -50 -129 -50c-79 0 -124 49 -124 122
c0 97 72 170 173 170c49 0 96 -21 115 -51c1 -2 3 -2 4 -2c3 0 5 2 6 6l10 51c13 65 -15 114 -111 114zM201 254c-79 0 -133 -60 -133 -133c0 -52 27 -92 90 -92c85 0 147 63 147 135c0 51 -34 90 -104 90z" />
    <glyph glyph-name="afii10070" unicode="&#x435;" horiz-adv-x="405" 
d="M177 -5c-93 0 -143 50 -143 122c0 10 1 20 3 31l22 119c23 124 101 173 204 173c74 0 126 -41 126 -108c0 -129 -141 -147 -293 -151c-8 0 -12 -2 -13 -9l-5 -27c-1 -8 -2 -17 -2 -24c0 -56 40 -92 109 -92c40 0 82 21 109 49c7 7 9 8 14 3l17 -15c2 -2 3 -4 3 -6
c0 -6 -8 -13 -12 -17c-35 -34 -81 -48 -139 -48zM255 404c-96 0 -139 -65 -152 -128l-9 -45v-3c0 -6 2 -10 13 -10c125 1 240 25 240 106c0 38 -22 80 -92 80z" />
    <glyph glyph-name="afii10084" unicode="&#x442;" horiz-adv-x="664" 
d="M575 7c0 -5 -3 -7 -7 -7h-29c-4 0 -6 2 -5 6l54 283c13 67 -19 115 -88 115c-58 0 -117 -51 -130 -115c-26 -132 -35 -184 -55 -282c0 -5 -3 -7 -8 -7h-28c-4 0 -7 2 -6 6l55 283c13 64 -25 115 -85 115c-67 0 -121 -50 -133 -115l-56 -282c0 -5 -2 -7 -7 -7h-29
c-4 0 -7 2 -6 6l55 283c18 92 86 151 180 151c47 0 92 -19 114 -70c2 -4 5 -5 9 0c37 44 82 70 135 70c91 0 143 -58 125 -151c-25 -132 -35 -184 -55 -282z" />
    <glyph glyph-name="afii10038" unicode="&#x424;" horiz-adv-x="542" 
d="M496 232c-17 -93 -72 -173 -224 -175c-7 0 -9 -5 -10 -9l-8 -41c-1 -5 -2 -7 -8 -7h-28c-5 0 -7 2 -7 7l8 41c1 4 0 8 -5 9c-125 7 -172 93 -154 187l30 157c19 97 83 179 225 183c6 0 9 2 10 7l4 19c1 5 4 7 9 7h27c5 0 7 -2 6 -7l-4 -18c-1 -5 2 -7 8 -8
c115 -7 173 -90 154 -187zM454 231l35 172c13 71 -26 141 -122 144c-6 0 -9 -2 -10 -8l-86 -439c-1 -4 2 -7 7 -7c120 2 162 65 176 138zM229 99l86 440c1 6 0 8 -7 8c-110 -1 -163 -74 -176 -143l-32 -167c-13 -64 11 -137 121 -144c5 0 7 2 8 6z" />
    <glyph glyph-name="afii10081" unicode="&#x43f;" horiz-adv-x="427" 
d="M391 276l-52 -269c0 -5 -3 -7 -7 -7h-29c-4 0 -7 2 -6 6l53 271c13 68 -11 127 -96 127c-72 0 -132 -58 -146 -127l-52 -270c0 -5 -3 -7 -8 -7h-28c-4 0 -7 2 -6 6l82 422c1 5 4 7 8 7h28c5 0 6 -2 5 -7l-8 -39c-2 -9 2 -11 10 -4c33 36 82 55 128 55
c112 0 141 -79 124 -164z" />
    <glyph glyph-name="afii10051" unicode="&#x402;" horiz-adv-x="587" 
d="M497 224c15 81 1 145 -109 145c-52 0 -111 -25 -148 -60c-8 -7 -10 -12 -11 -20l-56 -282c-1 -4 -2 -7 -7 -7h-27c-5 0 -9 2 -8 7l110 566c1 5 -1 6 -6 6h-135c-4 0 -6 1 -5 7l4 23c1 5 3 8 9 8h422c5 0 7 -3 6 -7l-4 -24c-1 -5 -5 -7 -9 -7h-230c-5 0 -8 0 -9 -6
l-41 -211c-2 -9 1 -8 7 -3c53 35 108 48 153 48c125 0 156 -82 137 -178l-17 -88c-13 -68 -48 -163 -201 -161c-7 0 -11 2 -10 9l3 22c1 8 6 9 13 9c103 -1 140 55 153 122z" />
    <glyph glyph-name="afii10100" unicode="&#x453;" horiz-adv-x="340" 
d="M126 -6c-76 0 -120 44 -120 97c0 78 72 118 143 144c52 19 138 43 138 103c0 50 -51 67 -89 67c-37 0 -82 -19 -111 -45c-7 -7 -11 -4 -14 -1l-13 16c-3 4 -3 7 1 11c41 35 88 53 144 53c63 0 123 -32 123 -95c0 -88 -101 -117 -162 -141c-53 -20 -118 -47 -118 -106
c0 -43 37 -70 86 -70c40 0 94 30 123 63c8 9 11 4 13 2l17 -13c5 -3 3 -9 -1 -13c-39 -42 -95 -72 -160 -72zM324 609l-111 -117c-4 -3 -9 -5 -14 -1l-7 6c-3 2 -5 6 0 13l91 125c5 6 10 9 19 3l20 -13c7 -5 7 -10 2 -16z" />
    <glyph glyph-name="afii10058" unicode="&#x409;" horiz-adv-x="761" 
d="M210 617h276c6 -1 7 -3 7 -7l-50 -262c0 -3 2 -6 6 -6h137c98 0 152 -56 152 -142c0 -110 -77 -200 -199 -200h-197c-6 0 -9 4 -9 9l110 564c0 4 -3 6 -6 6h-194c-5 0 -7 -1 -8 -6l-18 -94c-72 -369 -115 -452 -232 -490c-8 -2 -10 1 -12 5l-4 20c0 4 1 8 8 11
c93 35 133 115 199 453c3 18 21 116 25 133c1 4 4 6 9 6zM391 38h148c104 0 155 82 155 158c0 66 -35 107 -114 107h-138c-5 0 -8 -3 -9 -8l-50 -250c0 -4 1 -7 8 -7z" />
    <glyph glyph-name="afii10059" unicode="&#x40a;" horiz-adv-x="742" 
d="M314 9l55 284c1 3 1 10 -7 10h-233c-5 0 -7 -1 -8 -7l-56 -289c-1 -4 -3 -7 -8 -7h-28c-4 0 -8 2 -7 7l117 604c1 4 4 6 9 6h28c5 0 7 -3 6 -7l-51 -262c0 -4 -1 -7 5 -7h234c5 0 9 3 10 9l51 260c1 5 5 7 9 7h27c5 0 7 -2 7 -7l-51 -260c0 -4 2 -8 6 -8h134
c97 0 156 -60 156 -146c0 -109 -76 -196 -199 -196h-198c-6 0 -9 4 -8 9zM372 38h148c105 0 155 78 155 154c0 66 -41 112 -119 112h-134c-5 0 -8 -3 -9 -8l-49 -251c0 -4 1 -7 8 -7z" />
    <glyph glyph-name="afii10060" unicode="&#x40b;" horiz-adv-x="595" 
d="M242 360c-2 -8 1 -7 8 -3c52 36 105 50 154 50c122 0 156 -79 138 -175l-45 -225c0 -4 -2 -7 -7 -7h-29c-5 0 -8 2 -7 7l43 217c15 81 2 144 -109 144c-58 0 -111 -24 -148 -59c-8 -7 -10 -12 -12 -20l-55 -282c-1 -4 -2 -7 -8 -7h-26c-5 0 -9 2 -9 7l111 566
c1 5 -1 6 -6 6h-135c-5 0 -6 1 -6 7l5 23c1 5 3 8 8 8h423c5 0 7 -3 6 -7l-5 -24c0 -5 -4 -7 -9 -7h-230c-4 0 -7 0 -8 -6z" />
    <glyph glyph-name="afii10145" unicode="&#x40f;" horiz-adv-x="503" 
d="M232 -7l-26 -131c-2 -10 -6 -12 -11 -12h-27c-6 0 -7 3 -6 12l26 131c0 5 -1 7 -8 7h-150c-5 0 -8 2 -8 7l117 603c2 5 5 7 10 7h28c5 0 7 -3 6 -7l-110 -565c-1 -6 1 -7 6 -7h280c5 0 7 1 8 7l110 565c1 5 4 7 9 7h28c5 0 7 -3 6 -7l-117 -603c-1 -4 -3 -7 -8 -7h-153
c-5 0 -9 -2 -10 -7z" />
    <glyph glyph-name="afii10099" unicode="&#x452;" horiz-adv-x="457" 
d="M350 136l26 141c14 71 -7 127 -94 127c-80 0 -135 -69 -149 -143l-49 -255c-1 -4 -2 -6 -7 -6h-28c-3 0 -7 1 -7 5v1l96 494c0 5 -1 7 -7 7h-57c-5 0 -6 3 -6 6l4 20c1 5 4 7 8 7h59c5 1 8 4 9 9c6 28 10 54 15 81c1 4 4 7 8 7h28c6 0 5 -3 5 -7l-15 -83c0 -3 0 -7 6 -7
h163c4 0 6 -2 5 -6l-4 -20c-1 -4 -3 -7 -8 -7h-162c-5 0 -8 -2 -9 -8l-22 -109c-2 -9 2 -11 9 -2c33 33 78 51 126 51c114 0 140 -78 124 -164l-22 -126c-14 -76 -35 -179 -192 -178c-8 0 -15 0 -15 9l3 19c1 7 7 8 13 8c113 -2 135 71 146 129z" />
    <glyph glyph-name="afii10106" unicode="&#x459;" horiz-adv-x="660" 
d="M204 399c-5 0 -7 -3 -8 -7l-21 -104c-48 -251 -105 -280 -170 -301c-6 -1 -8 1 -9 5l-5 19c-1 4 0 7 8 10c51 23 91 37 136 266l27 139c1 5 6 8 11 8h215c6 0 8 -1 8 -5v-2l-31 -157c0 -4 0 -7 5 -7h139c62 0 126 -29 126 -107c0 -76 -63 -161 -188 -161
c-119 0 -161 69 -146 158c14 79 29 157 45 238v3c0 3 -1 5 -7 5h-135zM452 30c95 0 142 71 142 119c0 52 -34 77 -104 77h-122c-9 0 -11 -3 -12 -8c-5 -22 -9 -45 -13 -67c-12 -65 19 -121 109 -121z" />
    <glyph glyph-name="afii10107" unicode="&#x45a;" horiz-adv-x="627" 
d="M363 427c-10 -51 -20 -104 -31 -157c0 -4 0 -7 5 -7h139c62 0 126 -29 126 -107c0 -76 -63 -161 -188 -161c-119 0 -161 69 -146 158l12 71c0 2 1 6 -6 6h-173c-7 0 -7 -4 -8 -6l-42 -215c-1 -7 -4 -9 -10 -9h-24c-4 0 -8 2 -8 6v2l81 418c0 6 6 9 12 9h22c7 0 9 -3 9 -8
v-1c-12 -57 -19 -97 -30 -154c0 -3 -2 -6 5 -6h174c6 0 6 3 7 6c11 51 21 102 31 154c1 5 6 8 11 8h24c6 0 8 -2 8 -7zM419 30c95 0 142 71 142 119c0 52 -34 77 -104 77h-122c-9 0 -11 -3 -12 -8c-5 -22 -9 -45 -13 -67c-12 -65 19 -121 109 -121z" />
    <glyph glyph-name="afii10108" unicode="&#x45b;" horiz-adv-x="428" 
d="M14 6l98 499c1 7 -1 10 -9 10h-34c-4 0 -6 2 -5 7l3 15c1 4 3 7 7 7h35c7 0 10 3 12 11l14 75c1 5 4 7 8 7h29c5 0 6 -2 4 -7l-13 -75c-1 -6 -1 -11 7 -11h183c5 0 7 -3 6 -7l-3 -15c-1 -5 -4 -7 -8 -7h-184c-7 0 -10 -3 -11 -10l-22 -115c-2 -8 2 -9 9 -2
c36 36 81 52 127 52c114 0 141 -80 124 -164l-52 -269c-1 -5 -1 -7 -6 -7h-29c-5 0 -7 2 -7 6l53 271c13 68 -5 127 -95 127c-72 0 -132 -56 -146 -125l-53 -272c0 -5 -2 -7 -7 -7h-28c-5 0 -7 2 -7 6z" />
    <glyph glyph-name="afii10050" unicode="&#x490;" horiz-adv-x="396" 
d="M154 617h264c4 0 9 1 10 5l34 109c2 8 6 11 11 11h11c8 0 6 -6 5 -11l-28 -145c-1 -5 -4 -6 -8 -6h-263c-5 0 -9 -1 -10 -7c-62 -321 -47 -243 -111 -567c0 -4 -2 -6 -7 -6h-28c-4 0 -7 1 -7 6l117 603c2 4 5 8 10 8z" />
    <glyph glyph-name="afii10053" unicode="&#x404;" horiz-adv-x="416" 
d="M363 55c-45 -46 -99 -61 -157 -61c-115 0 -177 72 -157 170c15 79 43 230 58 297c18 90 73 164 187 164c55 0 113 -22 145 -67c4 -4 1 -8 -3 -12l-16 -13c-7 -5 -8 -3 -14 3c-24 29 -66 50 -112 50c-79 0 -130 -55 -144 -126c-6 -27 -11 -54 -23 -119c-1 -4 1 -5 5 -5
h199c5 0 7 -3 5 -8l-4 -23c-1 -5 -3 -6 -7 -6h-200c-3 0 -7 -2 -8 -7l-26 -133c-11 -69 25 -129 114 -129c48 0 94 19 128 53c6 5 8 8 14 2l17 -15c6 -5 5 -9 -1 -15z" />
    <glyph glyph-name="afii10098" unicode="&#x491;" horiz-adv-x="321" 
d="M322 443l24 85c2 8 3 10 12 10h12c4 0 8 0 6 -8l-24 -122c-1 -7 -4 -9 -10 -9h-201c-7 0 -9 -3 -10 -8l-75 -382c-1 -7 -4 -9 -10 -9h-26c-4 0 -8 2 -8 6v2l81 417c1 5 6 9 12 9h204c11 0 11 4 13 9z" />
    <glyph glyph-name="afii10101" unicode="&#x454;" horiz-adv-x="371" 
d="M102 242h171c3 0 5 -2 4 -6l-5 -24c-1 -2 -3 -6 -7 -6h-169c-7 0 -11 -3 -12 -8l-9 -45c-14 -73 17 -123 100 -123c47 0 83 20 113 52c4 5 8 6 12 2l17 -13c7 -5 4 -8 0 -13c-38 -42 -87 -63 -147 -63c-103 0 -154 63 -135 158l24 128c18 96 79 159 181 159
c57 0 108 -22 130 -63c3 -5 2 -9 -3 -12l-19 -14c-6 -4 -9 -1 -12 3c-18 32 -60 50 -101 50c-77 0 -122 -56 -134 -122l-6 -30c-2 -8 2 -10 7 -10z" />
    <glyph glyph-name="afii10018" unicode="&#x411;" horiz-adv-x="457" 
d="M21 8l117 600c1 5 3 9 12 9h279c4 0 6 -2 6 -7l-5 -24c0 -5 -3 -7 -8 -7h-242c-3 0 -5 -1 -6 -5l-44 -227c0 -3 1 -6 6 -6h137c97 0 153 -61 153 -146c0 -107 -71 -195 -199 -195h-198c-5 0 -8 2 -8 8zM267 303h-138c-5 0 -8 -3 -9 -8c-17 -84 -32 -168 -49 -252
c0 -3 2 -5 8 -5h148c107 0 156 79 156 150c0 64 -35 115 -116 115z" />
    <glyph glyph-name="afii10021" unicode="&#x414;" horiz-adv-x="530" 
d="M469 578h-219c-4 0 -7 -2 -8 -7c-7 -31 -87 -346 -95 -373c-16 -60 -40 -114 -80 -153c-3 -4 -3 -7 5 -7h294c4 0 7 1 8 7l102 526c2 6 -1 7 -7 7zM4 -8l-22 -116c-2 -10 -5 -11 -10 -11h-23c-7 0 -8 2 -6 10l28 148c1 10 4 12 12 15c2 0 23 2 25 3c48 27 79 84 100 161
c9 26 85 331 103 405c2 7 6 9 12 9h296c7 0 9 -2 8 -9l-109 -561c-1 -3 0 -7 5 -8h28c7 -1 8 -4 7 -11l-29 -151c-3 -10 -6 -11 -11 -11h-24c-6 0 -7 2 -6 11l23 117c1 6 -2 7 -7 7h-389c-7 0 -9 -1 -11 -8z" />
    <glyph glyph-name="afii10024" unicode="&#x416;" horiz-adv-x="696" 
d="M-26 7l53 194c23 83 77 155 191 155c15 0 37 -2 47 -5c6 -2 8 5 6 8l-167 248c-1 5 -2 9 7 9h26c4 0 7 -1 11 -6l196 -285c3 -4 7 -8 9 1l54 282c1 6 2 9 8 9h29c7 0 8 -3 7 -9l-54 -275c-1 -5 2 -7 7 -3l293 280c6 5 9 6 13 6h35c9 0 6 -4 3 -9l-259 -248
c-8 -8 -6 -10 4 -8c13 3 34 5 49 5c111 0 133 -78 124 -159l-22 -190c0 -1 0 -1 -1 -2c0 -4 -3 -5 -7 -5h-26c-5 0 -7 1 -6 7l19 176c9 82 -2 139 -95 139c-107 0 -145 -61 -158 -130l-36 -186c-1 -4 -4 -6 -9 -6h-29c-5 0 -7 2 -6 7l36 188c14 72 2 127 -107 127
c-102 0 -142 -76 -158 -136l-47 -179c-1 -6 -3 -7 -8 -7h-26c-4 0 -7 1 -7 5c1 1 1 1 1 2z" />
    <glyph glyph-name="afii10026" unicode="&#x418;" horiz-adv-x="500" 
d="M19 7l117 602c1 5 3 8 9 8h27c5 0 6 -4 6 -8l-100 -519c-1 -3 1 -2 3 0l390 518c5 5 8 9 16 9h24c4 0 8 -2 7 -11l-116 -599c-1 -5 -3 -7 -9 -7h-27c-5 0 -6 3 -6 7l100 518c-2 2 -3 1 -4 0c-129 -172 -261 -345 -390 -517c-4 -6 -6 -8 -15 -8h-25c-6 0 -7 2 -7 7z" />
    <glyph glyph-name="afii10029" unicode="&#x41b;" horiz-adv-x="495" 
d="M460 580h-220c-5 0 -8 -2 -9 -7l-18 -94c-72 -368 -116 -455 -232 -490c-7 -2 -9 1 -11 5l-4 19c0 4 3 8 10 11c92 36 129 106 197 455l25 131c1 5 4 7 9 7h303c5 0 6 -2 5 -6l-117 -604c-1 -5 -2 -7 -7 -7h-29c-4 0 -7 2 -6 6l110 567c1 5 -1 7 -6 7z" />
    <glyph glyph-name="afii10040" unicode="&#x426;" horiz-adv-x="509" 
d="M520 610l-110 -564c-1 -4 1 -8 6 -8h30c9 0 8 -7 7 -13l-28 -145c-2 -10 -6 -12 -11 -12h-22c-5 0 -8 1 -6 12l22 113c1 6 -2 7 -7 7h-372c-4 0 -8 2 -7 7l117 603c1 5 5 7 9 7h28c6 0 8 -3 6 -7l-109 -565c-1 -6 1 -7 5 -7h281c4 0 7 1 8 7l109 565c2 5 4 7 9 7h29
c5 0 7 -3 6 -7z" />
    <glyph glyph-name="afii10037" unicode="&#x423;" horiz-adv-x="410" 
d="M473 606l-284 -523c-40 -69 -68 -91 -132 -91h-17c-7 0 -7 3 -6 8l4 20c2 8 3 10 8 10h24c31 0 53 18 71 49l18 31c15 27 15 36 10 60l-82 437c0 5 0 10 8 10h26c6 0 9 -1 10 -8l73 -406c1 -3 3 -3 5 0l218 406c4 7 7 8 15 8h27c9 0 8 -5 4 -11z" />
    <glyph glyph-name="afii10042" unicode="&#x428;" horiz-adv-x="739" 
d="M464 610c-36 -189 -72 -378 -109 -567v-2c0 -3 2 -4 4 -4h236c4 0 7 1 8 7l110 566c1 5 4 7 8 7h28c5 0 7 -2 7 -5c0 -1 0 -2 -1 -3c-38 -200 -78 -402 -117 -603c0 -4 -2 -6 -7 -6h-602c-5 0 -8 2 -8 7l118 603c1 5 4 7 9 7h28c5 0 7 -2 7 -5c0 -1 0 -2 -1 -3v1
c-37 -189 -73 -378 -109 -567v-2c0 -3 2 -4 5 -4h228c3 0 5 3 6 8v-1l110 566c1 5 4 7 9 7h27c5 0 7 -2 7 -5c0 -1 0 -2 -1 -3v1z" />
    <glyph glyph-name="afii10043" unicode="&#x429;" horiz-adv-x="747" 
d="M639 0h-610c-4 0 -8 2 -7 7l117 603c1 5 5 7 9 7h28c5 0 7 -3 6 -7l-109 -565c-1 -6 0 -7 5 -7h228c3 0 5 2 6 7l110 565c1 5 4 7 9 7h28c5 0 7 -3 6 -7l-110 -565c-1 -5 1 -7 4 -7h236c5 0 7 1 8 7l110 565c1 5 4 7 9 7h28c5 0 7 -3 6 -7l-109 -564c-1 -4 0 -8 6 -8h31
c9 0 8 -7 7 -13l-28 -145c-2 -10 -6 -12 -11 -12h-22c-6 0 -8 2 -6 12l21 113c1 6 -2 7 -6 7z" />
    <glyph glyph-name="afii10044" unicode="&#x42a;" horiz-adv-x="577" 
d="M205 38h149c104 0 155 75 155 151c0 66 -38 114 -115 114h-138c-5 0 -8 -3 -9 -8l-50 -251c0 -4 2 -6 8 -6zM148 9l109 565c1 3 0 5 -4 5h-187c-4 0 -6 1 -6 7l4 24c2 4 4 7 9 7h228c6 0 7 -3 6 -7l-50 -262c0 -3 1 -6 6 -6h137c98 0 152 -64 152 -149
c0 -110 -76 -193 -199 -193h-197c-5 0 -8 3 -8 9z" />
    <glyph glyph-name="afii10045" unicode="&#x42b;" horiz-adv-x="609" 
d="M137 341h137c97 0 152 -63 152 -149c0 -110 -76 -192 -199 -192h-197c-5 0 -8 2 -8 8l116 602c1 5 5 7 9 7h27c5 0 7 -2 7 -7c-17 -88 -34 -175 -50 -262c0 -4 1 -7 6 -7zM268 303h-138c-6 0 -9 -3 -10 -8c-16 -84 -32 -168 -49 -252c0 -3 2 -5 8 -5h148
c105 0 156 74 156 150c0 66 -38 115 -115 115zM507 7c0 -5 -2 -7 -7 -7h-29c-4 0 -8 1 -8 6l118 604c1 5 4 7 9 7h28c4 0 7 -2 7 -5v-2z" />
    <glyph glyph-name="afii10046" unicode="&#x42c;" horiz-adv-x="452" 
d="M80 38h149c104 0 155 75 155 151c0 66 -38 114 -115 114h-138c-6 0 -9 -3 -10 -8l-49 -251c0 -4 2 -6 8 -6zM24 9l115 601c1 5 5 7 9 7h27c5 0 7 -2 7 -7l-50 -262c0 -3 1 -6 6 -6h137c98 0 152 -64 152 -149c0 -110 -76 -193 -199 -193h-196c-5 0 -9 2 -8 9z" />
    <glyph glyph-name="afii10047" unicode="&#x42d;" horiz-adv-x="398" 
d="M324 341c3 0 7 2 8 7l20 108c13 67 -27 130 -107 130c-48 0 -85 -14 -120 -47c-9 -9 -11 -10 -17 -5l-16 15c-5 4 -4 8 0 12c44 44 95 62 147 62c115 0 171 -75 152 -174l-55 -296c-17 -100 -82 -160 -188 -160c-61 0 -116 22 -141 65c-3 4 0 8 4 11l18 13
c6 4 11 4 13 -2c19 -31 59 -50 105 -50c80 0 131 46 147 124l29 145c1 4 -1 5 -5 5h-200c-5 0 -7 3 -5 8l4 23c1 5 3 6 7 6h200z" />
    <glyph glyph-name="afii10048" unicode="&#x42e;" horiz-adv-x="626" 
d="M559 150c-19 -99 -80 -156 -193 -156c-110 0 -169 71 -150 168l25 128c0 5 -1 9 -8 9h-105c-5 0 -7 -2 -8 -7c-18 -95 -38 -190 -56 -285c0 -5 -2 -7 -7 -7h-28c-5 0 -8 1 -8 6l117 604c1 5 4 7 9 7h28c6 0 7 -3 7 -7c-18 -89 -35 -178 -52 -267c0 -3 -1 -7 5 -7h107
c5 0 7 2 8 8l23 113c22 106 81 167 191 167c105 0 169 -65 151 -165zM516 152l58 314c13 68 -32 120 -112 120c-85 0 -130 -48 -145 -120l-60 -302c-15 -73 22 -133 109 -133c82 0 133 38 150 121z" />
    <glyph glyph-name="afii10049" unicode="&#x42f;" horiz-adv-x="476" 
d="M-6 11l167 255c2 3 3 4 3 6c0 3 -4 6 -5 7c-37 31 -62 82 -62 146c0 108 76 191 195 191h193c6 0 10 -4 9 -8l-117 -602c-1 -5 -4 -6 -8 -6h-29c-4 0 -6 2 -6 6l52 256c1 5 1 9 -6 9h-153c-12 0 -16 -4 -22 -13l-163 -248c-5 -8 -8 -10 -17 -10h-26c-9 0 -8 6 -5 11z
M211 306h175c6 0 9 4 10 9c16 86 33 171 50 256v3c0 3 -3 6 -10 6h-133c-115 0 -163 -81 -163 -149c0 -40 11 -84 45 -116c5 -4 13 -9 26 -9z" />
    <glyph glyph-name="afii10025" unicode="&#x417;" horiz-adv-x="426" 
d="M159 -6c-62 0 -134 23 -159 67c-3 6 -1 8 3 11l16 13c6 5 8 2 13 -4c22 -27 72 -51 131 -51c97 0 168 69 168 175c0 81 -61 114 -131 114h-55c-4 0 -5 2 -5 6v1l4 24c1 4 4 7 9 7h71c83 0 145 59 145 130c0 57 -39 97 -112 97c-41 0 -91 -13 -129 -45
c-6 -6 -11 -8 -15 -4l-17 17c-3 3 -4 7 1 11c45 41 102 60 164 60c90 0 152 -50 152 -131c0 -78 -64 -141 -118 -152c-6 0 -6 -5 -2 -7c50 -18 81 -63 81 -125c0 -130 -85 -214 -215 -214z" />
    <glyph glyph-name="afii10041" unicode="&#x427;" horiz-adv-x="457" 
d="M316 7l56 290c2 9 -1 8 -8 3c-42 -29 -98 -45 -146 -45c-118 0 -159 77 -140 173l35 183c1 4 4 7 9 7h28c5 0 7 -2 6 -7l-34 -174c-16 -81 6 -142 107 -142c53 0 109 20 146 54c7 6 10 12 12 21l47 241c1 4 3 7 9 7h27c5 0 8 -2 7 -7l-118 -604c0 -5 -4 -7 -8 -7h-28
c-6 0 -8 3 -7 7z" />
    <glyph glyph-name="afii10074" unicode="&#x438;" horiz-adv-x="426" 
d="M42 159l52 269c1 4 3 7 8 7h29c4 0 5 -2 4 -7l-52 -271c-13 -67 11 -125 96 -125c72 0 132 58 145 126l52 270c1 4 4 7 9 7h28c4 0 7 -2 6 -7l-82 -421c-1 -5 -4 -7 -8 -7h-28c-5 0 -6 2 -5 6l7 40c3 8 -2 10 -8 3c-34 -34 -83 -54 -129 -54c-112 0 -141 79 -124 164z
" />
    <glyph glyph-name="afii10075" unicode="&#x439;" horiz-adv-x="426" 
d="M42 159l52 269c1 4 3 7 8 7h29c4 0 5 -2 4 -7l-52 -271c-13 -67 11 -125 96 -125c72 0 132 58 145 126l52 270c1 4 4 7 9 7h28c4 0 7 -2 6 -7l-82 -421c-1 -5 -4 -7 -8 -7h-28c-5 0 -6 2 -5 6l7 40c3 8 -2 10 -8 3c-34 -34 -83 -54 -129 -54c-112 0 -141 79 -124 164z
M171 610c1 4 3 8 8 8h13c6 0 5 -3 5 -9c-1 -44 26 -72 69 -72c38 0 82 27 98 71c3 6 5 10 11 10h12c6 0 6 -5 5 -10c-15 -65 -69 -105 -131 -105c-58 0 -102 42 -90 107z" />
    <glyph glyph-name="afii10193" unicode="&#x45f;" horiz-adv-x="420" 
d="M234 -38l-28 -113c-2 -8 -5 -12 -12 -12h-17c-6 0 -8 4 -7 11l22 114c1 6 4 7 8 7h27c6 0 7 -4 7 -7zM42 159l52 269c1 4 3 7 8 7h29c4 0 5 -2 4 -7l-52 -271c-13 -67 11 -125 96 -125c72 0 132 58 145 126l52 270c1 4 4 7 9 7h28c4 0 7 -2 6 -7l-82 -421
c-1 -5 -4 -7 -8 -7h-28c-5 0 -6 2 -5 6l7 40c3 8 -2 10 -8 3c-34 -34 -83 -54 -129 -54c-112 0 -141 79 -124 164z" />
    <glyph glyph-name="afii10090" unicode="&#x448;" horiz-adv-x="667" 
d="M356 429c0 4 4 8 9 8h29c4 0 5 -2 4 -7l-52 -273c-11 -58 -1 -125 84 -125c72 0 122 58 135 126l52 272c1 4 4 7 9 7h28c4 0 7 -2 6 -7l-82 -423c-1 -5 -4 -7 -8 -7h-28c-5 0 -6 2 -5 6l7 40c3 8 -2 10 -8 3c-34 -34 -73 -54 -119 -54c-62 0 -90 28 -105 66
c-2 7 -7 7 -10 1c-30 -46 -85 -68 -136 -68c-91 0 -143 58 -125 151c25 132 35 186 55 284c0 5 3 7 7 7h29c4 0 6 -2 5 -6l-54 -285c-13 -67 19 -115 88 -115c58 0 117 51 130 115c26 132 35 186 55 284z" />
    <glyph glyph-name="afii10091" unicode="&#x449;" horiz-adv-x="664" 
d="M545 44c-1 5 -3 6 -7 2c-26 -27 -73 -53 -113 -53c-52 0 -90 28 -112 73c-5 10 -9 3 -11 0c-31 -44 -80 -73 -138 -73c-88 0 -142 70 -125 156l56 280c1 6 3 7 7 7h31c3 0 5 -2 4 -6l-55 -281c-12 -64 20 -118 89 -118c53 0 118 55 130 118l55 280c1 6 3 7 7 7h32
c3 0 5 -2 4 -6l-55 -281c-14 -72 29 -118 82 -118c70 0 123 63 133 118l55 280c1 6 4 7 7 7h31c4 0 6 -2 5 -6l-71 -358c-8 -44 28 -42 22 -68l-24 -104c-2 -8 -5 -11 -12 -11h-14c-8 0 -9 4 -8 11l18 93c1 6 1 10 -3 13c-11 8 -18 26 -20 38z" />
    <glyph glyph-name="afii10067" unicode="&#x432;" horiz-adv-x="434" 
d="M63 279c15 76 77 161 195 161c88 0 146 -47 146 -101c0 -35 -19 -65 -53 -84c-8 -4 -17 -8 -27 -10c-1 0 -2 -1 -2 -2s1 -1 3 -2c34 -8 62 -39 62 -79c0 -73 -62 -167 -195 -167c-101 0 -170 58 -154 155zM196 255c1 4 4 5 8 5h41c61 0 118 24 118 74
c0 40 -37 69 -106 69c-84 0 -140 -63 -152 -122c-9 -43 -17 -85 -25 -128c-14 -72 29 -123 115 -123c106 0 149 82 149 129s-40 68 -109 68h-38c-4 0 -5 2 -5 5c1 8 2 16 4 23z" />
    <glyph glyph-name="afii10068" unicode="&#x433;" horiz-adv-x="334" 
d="M126 -6c-76 0 -120 44 -120 97c0 78 72 118 143 144c52 19 138 43 138 103c0 50 -51 67 -89 67c-37 0 -82 -19 -111 -45c-7 -7 -11 -4 -14 -1l-13 16c-3 4 -3 7 1 11c41 35 88 53 144 53c63 0 123 -32 123 -95c0 -88 -101 -117 -162 -141c-53 -20 -118 -47 -118 -106
c0 -43 37 -70 86 -70c40 0 94 30 123 63c8 9 11 4 13 2l17 -13c5 -3 3 -9 -1 -13c-39 -42 -95 -72 -160 -72z" />
    <glyph glyph-name="afii10066" unicode="&#x431;" horiz-adv-x="421" 
d="M40 165l59 289c18 91 61 164 187 177l102 10c6 0 12 3 12 -6l2 -21c0 -5 -4 -7 -10 -8c-45 -5 -64 -6 -106 -11c-85 -11 -127 -51 -144 -128l-21 -96c0 -1 0 -3 1 -3s1 1 2 1c39 41 86 56 129 56c97 0 144 -63 131 -144l-21 -127c-16 -94 -80 -159 -188 -159
c-117 0 -154 76 -135 170zM101 266l-21 -111c-12 -70 10 -125 99 -125c80 0 128 49 143 127l21 109c13 66 -2 123 -100 123c-70 0 -128 -53 -142 -123z" />
    <glyph glyph-name="afii10072" unicode="&#x436;" horiz-adv-x="667" 
d="M0 8l28 114c20 81 71 145 173 145c4 0 10 0 14 -1c4 0 6 1 7 3c0 2 0 4 -3 7c-40 51 -84 97 -125 148c0 2 -1 4 -1 6s3 4 7 4h27c7 0 9 -1 12 -5c53 -67 114 -130 167 -197c3 -4 9 -7 11 3l37 194c1 4 2 6 7 6h30c5 0 6 -2 6 -6l-36 -188c-2 -8 5 -7 9 -3l233 191
c4 4 6 5 13 5h36c4 0 4 -2 4 -4s-1 -4 -3 -6l-182 -148c-3 -3 -5 -5 -5 -7c-1 -2 1 -3 5 -3c4 1 11 1 16 1c102 -2 127 -72 115 -153l-16 -106c-1 -6 -3 -8 -9 -8h-26c-5 0 -8 2 -7 7l16 105c10 66 -1 120 -92 120c-63 0 -119 -45 -130 -101l-24 -125c-1 -4 -3 -6 -8 -6h-28
c-5 0 -7 2 -6 6l24 124c11 57 -28 102 -93 102c-77 0 -119 -54 -135 -118l-26 -107c-1 -5 -3 -7 -9 -7h-25c-7 0 -9 2 -8 8z" />
    <glyph glyph-name="afii10077" unicode="&#x43b;" horiz-adv-x="428" 
d="M136 427c1 5 6 8 11 8h264c5 0 6 -3 6 -8l-82 -420c-1 -5 -4 -8 -9 -8h-27c-5 0 -7 2 -7 8l76 385c1 5 -2 7 -6 7h-184c-5 0 -7 -3 -8 -7l-21 -104c-48 -251 -105 -280 -170 -301c-6 -1 -8 1 -9 5l-6 20c-1 5 0 7 8 11c51 23 93 39 137 264z" />
    <glyph glyph-name="afii10078" unicode="&#x43c;" horiz-adv-x="515" 
d="M126 434c9 0 10 -3 12 -8l55 -212l33 -136c1 -1 1 -2 2 -2s2 1 3 2l80 123l145 224c6 7 9 9 16 9h26c6 0 7 -2 7 -6v-3l-81 -416c-1 -7 -4 -9 -10 -9h-23c-6 0 -9 2 -9 6v2l65 328c2 8 -2 7 -6 1l-49 -74l-147 -223c-3 -5 -6 -9 -14 -9h-19c-8 0 -8 2 -11 9l-56 211
l-23 92c0 2 -1 5 -2 5s-2 -1 -3 -5l-63 -334c-2 -6 -4 -9 -11 -9h-22c-6 0 -9 2 -9 6v2l81 417c1 6 5 9 12 9h21z" />
    <glyph glyph-name="afii10079" unicode="&#x43d;" horiz-adv-x="418" 
d="M328 9c-2 -7 -5 -9 -12 -9h-22c-6 0 -10 2 -9 8l37 190c1 6 -1 9 -7 9h-212c-6 0 -10 -3 -11 -9l-37 -189c-1 -7 -5 -9 -11 -9h-22c-6 0 -10 2 -9 8l81 419c1 5 6 8 12 8h23c7 0 8 -2 8 -8l-35 -176c-2 -7 2 -10 7 -10h212c5 0 10 3 11 10l35 176c0 5 5 8 11 8h22
c7 0 10 -2 9 -8z" />
    <glyph glyph-name="afii10089" unicode="&#x447;" horiz-adv-x="400" 
d="M76 429c1 4 3 6 7 6h29c4 0 7 -1 6 -6l-18 -92c-14 -73 -4 -127 91 -127c42 0 99 26 123 57c3 4 7 10 11 27l26 135c1 4 2 6 7 6h28c4 0 8 -1 7 -6l-82 -423c-1 -5 -4 -6 -8 -6h-29c-5 0 -6 2 -5 6l40 208c1 5 1 7 -1 7c-1 0 -3 -1 -5 -2c-35 -27 -82 -46 -126 -46
c-115 0 -136 77 -119 166z" />
    <glyph glyph-name="afii10092" unicode="&#x44a;" horiz-adv-x="501" 
d="M236 424l-30 -154c0 -4 0 -7 5 -7h139c62 0 126 -29 126 -107c0 -76 -63 -161 -188 -161c-119 0 -161 69 -146 158c7 43 15 86 45 237c0 6 0 9 -8 9h-131c-8 0 -10 3 -9 9l3 18c1 5 5 8 13 8h170c7 0 14 -2 11 -10zM293 30c95 0 142 71 142 119c0 52 -34 77 -104 77h-122
c-9 0 -11 -3 -12 -8c-5 -22 -9 -45 -13 -67c-12 -65 19 -121 109 -121z" />
    <glyph glyph-name="afii10093" unicode="&#x44b;" horiz-adv-x="537" 
d="M123 427c-10 -51 -20 -104 -31 -157c0 -4 0 -7 5 -7h139c62 0 126 -29 126 -107c0 -76 -63 -161 -188 -161c-119 0 -161 69 -146 158c15 91 35 182 52 273c1 5 6 8 11 8h24c6 0 8 -2 8 -7zM179 30c95 0 142 71 142 119c0 52 -34 77 -104 77h-122c-9 0 -11 -3 -12 -8
c-5 -22 -9 -45 -13 -67c-12 -65 19 -121 109 -121zM523 426l-81 -417c-2 -7 -3 -9 -11 -9h-22c-5 0 -10 2 -10 7v1l82 418c0 5 6 8 12 8h22c6 0 8 -1 8 -5v-3z" />
    <glyph glyph-name="afii10094" unicode="&#x44c;" horiz-adv-x="387" 
d="M123 427c-10 -51 -20 -104 -31 -157c0 -4 0 -7 5 -7h139c62 0 126 -29 126 -107c0 -76 -63 -161 -188 -161c-119 0 -161 69 -146 158c15 91 35 182 52 273c1 5 6 8 11 8h24c6 0 8 -2 8 -7zM179 30c95 0 142 71 142 119c0 52 -34 77 -104 77h-122c-9 0 -11 -3 -12 -8
c-5 -22 -9 -45 -13 -67c-12 -65 19 -121 109 -121z" />
    <glyph glyph-name="afii10095" unicode="&#x44d;" horiz-adv-x="374" 
d="M20 70l21 14c1 1 8 6 13 -3c11 -20 40 -50 95 -50c80 0 123 52 136 120l9 49c1 5 -2 8 -7 8h-165c-4 0 -6 3 -5 6l4 23c1 4 4 6 8 6h164c4 0 10 3 11 10l4 25c10 70 -25 122 -98 122c-41 0 -74 -14 -106 -47c-5 -6 -11 -7 -14 -4l-19 17c-3 2 -2 6 1 9
c29 38 81 64 141 64c110 0 151 -79 135 -169l-20 -118c-16 -87 -67 -158 -175 -158c-62 0 -109 15 -135 63c-3 6 -3 9 2 13z" />
    <glyph glyph-name="afii10096" unicode="&#x44e;" horiz-adv-x="524" 
d="M462 155c-20 -102 -70 -160 -180 -160c-87 0 -128 50 -128 122c0 21 4 42 8 63c2 7 3 13 4 20c0 4 -1 7 -6 7h-57c-9 0 -10 -3 -11 -8c-13 -63 -25 -127 -37 -191c-1 -6 -4 -8 -10 -8h-23c-5 0 -9 3 -8 8l81 418c1 5 6 8 11 8h23c8 0 7 -2 7 -8l-35 -178v-2
c0 -3 3 -4 7 -4h62c4 0 6 5 6 8l6 31c18 93 72 159 178 159c102 0 145 -70 126 -159zM420 155c8 42 17 84 24 125c12 66 -8 123 -87 123c-74 0 -120 -52 -133 -122c-9 -42 -17 -85 -25 -127c-2 -13 -4 -25 -4 -36c0 -55 31 -88 93 -88c76 0 117 48 132 125z" />
    <glyph glyph-name="afii10097" unicode="&#x44f;" horiz-adv-x="401" 
d="M-7 11c36 58 74 115 111 173c2 3 3 5 3 6s0 2 -2 3c-27 24 -46 60 -46 102c0 87 65 140 145 140h172c13 0 17 -6 14 -24l-78 -402c-1 -7 -4 -9 -9 -9h-25c-6 0 -8 1 -8 6v4l33 166c1 6 0 6 -5 6h-140c-5 0 -8 -2 -12 -7l-106 -165c-5 -7 -7 -10 -17 -10h-26
c-4 0 -7 1 -7 4c0 2 1 4 3 7zM197 399c-72 -1 -96 -56 -96 -98c0 -26 8 -59 32 -78c5 -4 8 -4 16 -4h156c4 0 7 2 8 7l32 164v2c0 4 -2 7 -7 7h-141z" />
    <glyph glyph-name="afii10086" unicode="&#x444;" horiz-adv-x="511" 
d="M231 -18l-31 -155c-1 -5 -2 -7 -7 -7h-29c-4 0 -7 2 -6 6l30 155c3 9 0 15 -10 15c-104 6 -151 89 -131 192l15 85c16 88 76 168 205 168c6 0 11 2 13 12l34 175c1 4 2 9 8 9h30c8 0 6 -4 5 -9l-34 -174c-2 -9 1 -12 9 -13c108 -11 150 -92 136 -185
c-5 -32 -8 -50 -14 -82c-19 -101 -85 -174 -206 -179c-7 -1 -15 -3 -17 -13zM413 174l13 70c14 72 -3 150 -102 158c-6 0 -12 0 -14 -12l-67 -346c-2 -12 4 -11 14 -11c92 6 141 67 156 141zM103 271l-15 -78c-14 -74 2 -151 99 -160c7 0 10 -1 13 11l67 345
c2 10 -1 12 -9 12c-99 0 -141 -59 -155 -130z" />
    <glyph glyph-name="afii10088" unicode="&#x446;" horiz-adv-x="426" 
d="M294 50c-35 -30 -68 -53 -125 -53c-105 0 -146 74 -129 157l53 276c1 6 3 7 7 7h31c3 0 5 -2 4 -6l-53 -277c-13 -66 17 -121 95 -121c66 0 132 56 145 121l53 276c1 6 4 7 7 7h31c4 0 6 -2 5 -6l-70 -359c-8 -44 28 -42 22 -68l-24 -104c-2 -8 -5 -11 -12 -11h-14
c-8 0 -9 4 -8 11l18 93c1 6 1 10 -3 13c-13 10 -23 27 -24 42c0 5 -5 6 -9 2z" />
    <glyph glyph-name="afii10073" unicode="&#x437;" horiz-adv-x="365" 
d="M127 -6c-62 0 -114 20 -133 65c-1 2 -1 3 -1 4c0 3 1 6 6 8l20 13c2 1 3 1 5 1s4 -1 5 -4c16 -28 50 -51 98 -51c58 0 131 31 131 108c0 48 -32 74 -69 74h-64c-5 0 -6 3 -6 7l4 21c1 4 2 7 8 7h68c38 0 89 22 89 83c0 55 -46 72 -89 72c-38 0 -80 -16 -110 -46
c-3 -3 -6 -5 -9 -5c-2 0 -3 1 -5 2l-17 16c-2 1 -2 3 -2 5s1 4 3 7c39 37 84 59 143 59c86 0 132 -41 132 -106c0 -35 -27 -88 -77 -103c-4 -1 -6 -3 -6 -4s1 -2 4 -4c38 -19 47 -53 47 -79c0 -90 -71 -150 -175 -150z" />
    <glyph glyph-name="afii10069" unicode="&#x434;" horiz-adv-x="421" 
d="M321 156l21 103c14 72 -32 124 -109 124c-78 0 -119 -52 -133 -123l-21 -105c-15 -76 28 -125 108 -125c73 0 117 44 134 126zM251 638c130 0 185 -82 157 -234l-46 -248c-18 -99 -73 -161 -178 -161c-109 0 -164 69 -145 165l20 100c19 98 74 159 174 159
c50 0 103 -27 123 -65c2 -3 4 -2 5 2l11 64c19 106 -11 181 -123 181c-26 0 -54 -3 -88 -12c-4 -1 -9 -2 -10 6l-4 19c-1 5 0 8 7 11c35 9 68 13 97 13z" />
    <glyph glyph-name="Circumflex" unicode="&#xf6c0;" horiz-adv-x="409" 
d="M398 652l-11 -7c-4 -2 -7 -2 -11 2l-73 72c-3 3 -7 2 -10 0l-112 -73c-6 -4 -9 -5 -13 -1l-9 10c-3 4 -2 6 2 9l112 90c7 6 13 8 22 8h18c10 0 14 -2 18 -8l69 -91c3 -4 3 -8 -2 -11z" />
    <glyph glyph-name="commaaccent" unicode="&#xf6c3;" horiz-adv-x="432" 
d="M201 -58l-61 -138c-3 -6 -6 -8 -11 -8h-13c-6 0 -7 4 -5 11l35 139c2 5 6 9 11 9h38c8 0 11 -4 6 -13z" />
    <glyph glyph-name="Acute" unicode="&#xf6c9;" horiz-adv-x="409" 
d="M430 720l-140 -74c-5 -3 -10 -4 -13 1l-6 9c-4 6 -2 8 5 13l127 90c6 4 11 5 16 -2l16 -22c4 -6 1 -12 -5 -15z" />
    <glyph glyph-name="Caron" unicode="&#xf6ca;" horiz-adv-x="411" 
d="M202 756l11 7c4 2 7 2 11 -2l73 -72c3 -3 7 -2 10 0l112 73c5 3 9 2 12 0l10 -9c4 -3 2 -6 -2 -9l-112 -90c-7 -6 -13 -8 -22 -8h-18c-10 0 -14 2 -18 8l-69 91c-3 4 -3 8 2 11z" />
    <glyph glyph-name="Dieresis" unicode="&#xf6cb;" horiz-adv-x="403" 
d="M408 707c-2 -18 -18 -33 -35 -33c-16 0 -25 12 -24 27c2 18 18 33 35 33c15 0 25 -12 24 -27zM254 707c-2 -18 -19 -33 -35 -33c-14 0 -25 12 -24 27c2 18 19 33 36 33c15 0 25 -12 23 -27z" />
    <glyph glyph-name="DieresisAcute" unicode="&#xf6cc;" horiz-adv-x="410" 
d="M195 668c-15 0 -24 10 -24 23c0 20 17 36 35 36c13 0 23 -8 24 -20c0 -20 -13 -39 -35 -39zM374 668c-14 0 -24 13 -24 27c0 18 21 32 36 32c13 0 22 -8 24 -20c0 -20 -14 -39 -36 -39zM378 745l-129 -92c-5 -3 -9 -4 -13 0l-7 8c-5 5 -3 7 3 13l114 106c6 5 11 6 16 0
l19 -20c5 -5 3 -11 -3 -15z" />
    <glyph glyph-name="DieresisGrave" unicode="&#xf6cd;" horiz-adv-x="399" 
d="M196 668c-14 0 -23 11 -23 25c0 19 18 35 35 35c14 0 24 -10 24 -24c0 -18 -18 -36 -36 -36zM365 668c-14 0 -23 11 -23 25c0 19 18 35 35 35c14 0 24 -10 24 -24c0 -18 -18 -36 -36 -36zM315 662l-107 87c-5 4 -10 8 -1 17l19 19c6 6 7 8 15 1l93 -102c3 -3 8 -9 3 -14
l-9 -9c-4 -5 -9 -2 -13 1z" />
    <glyph glyph-name="Grave" unicode="&#xf6ce;" horiz-adv-x="409" 
d="M285 649l-140 74c-6 3 -9 9 -5 15l16 22c5 7 10 6 16 2l127 -90c7 -5 9 -7 5 -13l-6 -9c-3 -5 -8 -4 -13 -1z" />
    <glyph glyph-name="Hungarumlaut" unicode="&#xf6cf;" horiz-adv-x="463" 
d="M378 721l-140 -74c-5 -3 -10 -4 -13 1l-6 9c-4 6 -2 8 5 13l127 90c6 4 11 5 16 -2l16 -22c4 -6 1 -12 -5 -15zM501 724l-140 -74c-5 -3 -10 -4 -13 1l-6 9c-4 6 -2 8 5 13l127 90c6 4 11 5 16 -2l16 -22c4 -6 1 -12 -5 -15z" />
    <glyph glyph-name="Macron" unicode="&#xf6d0;" horiz-adv-x="409" 
d="M391 688c-1 -4 -4 -6 -8 -6h-181c-5 0 -7 1 -6 6l4 21c1 4 3 7 8 7h181c5 0 6 -3 6 -7z" />
    <glyph glyph-name="cyrBreve" unicode="&#xf6d1;" horiz-adv-x="409" 
d="M201 753c0 4 2 8 8 8h12c6 0 5 -3 5 -9c-1 -44 23 -74 69 -74c42 0 81 29 97 73c3 6 5 10 11 10h12c6 0 6 -5 5 -10c-15 -65 -68 -105 -129 -105c-59 0 -101 42 -90 107z" />
    <glyph glyph-name="cyrbreve" unicode="&#xf6d4;" horiz-adv-x="424" 
d="M182 610c1 4 3 8 8 8h13c6 0 5 -3 5 -9c-1 -44 26 -72 69 -72c38 0 82 27 98 71c3 6 5 10 11 10h12c6 0 6 -5 5 -10c-15 -65 -69 -105 -131 -105c-58 0 -102 42 -90 107z" />
    <glyph glyph-name="ring" unicode="&#x2da;" horiz-adv-x="429" 
d="M270 495c-34 0 -58 27 -58 56c0 49 36 85 80 85c34 0 61 -24 61 -59c0 -49 -39 -82 -83 -82zM274 521c26 0 52 23 52 53c0 22 -16 36 -36 36c-27 0 -51 -23 -51 -53c0 -20 15 -36 35 -36z" />
    <glyph glyph-name="Scaron" unicode="&#x160;" horiz-adv-x="427" 
d="M347 177c0 67 -52 98 -111 124c-64 30 -153 65 -153 154c0 120 105 169 196 169c57 0 112 -15 147 -48c3 -3 3 -7 -1 -12c-3 -4 -11 -15 -14 -18c-4 -5 -8 -5 -13 0c-37 31 -83 40 -119 40c-62 0 -152 -32 -152 -127c0 -61 67 -93 121 -116c77 -34 145 -78 145 -160
c0 -131 -104 -189 -224 -189c-59 0 -128 20 -160 58c-4 5 -2 7 2 12l14 16c5 5 8 5 14 0c24 -26 83 -48 136 -48c91 0 172 50 172 145zM196 771l11 7c4 2 7 2 11 -2l73 -72c3 -3 7 -2 10 0l112 73c5 3 9 2 12 0l10 -9c4 -3 2 -6 -2 -9l-112 -90c-7 -6 -13 -8 -22 -8h-18
c-10 0 -14 2 -18 8l-69 91c-3 4 -3 8 2 11z" />
    <glyph glyph-name="Zcaron" unicode="&#x17d;" horiz-adv-x="387" 
d="M334 8c-1 -5 -3 -8 -9 -8h-340c-7 0 -10 5 -9 9l3 16c1 7 4 13 8 19l398 528c4 4 2 7 -3 7h-273c-6 0 -7 3 -6 8l4 22c1 5 4 8 9 8h320c8 0 11 -3 10 -10l-3 -17c-1 -8 -6 -14 -9 -19l-395 -524c-3 -5 -3 -8 3 -8h290c6 0 7 -3 7 -8zM182 756l11 7c4 2 7 2 11 -2l73 -72
c3 -3 7 -2 10 0l112 73c5 3 9 2 12 0l10 -9c4 -3 2 -6 -2 -9l-112 -90c-7 -6 -13 -8 -22 -8h-18c-10 0 -14 2 -18 8l-69 91c-3 4 -3 8 2 11z" />
    <glyph glyph-name="scaron" unicode="&#x161;" horiz-adv-x="340" 
d="M144 -6c-63 0 -115 25 -137 80c-1 3 -1 7 4 9l23 10c5 3 8 0 9 -3c14 -36 54 -61 102 -61c60 0 111 29 111 89c0 45 -43 67 -84 84c-52 21 -121 45 -121 118c0 81 70 120 142 120c58 0 103 -19 131 -53c3 -3 1 -8 -2 -11l-17 -16c-4 -3 -10 -3 -13 2
c-20 25 -63 43 -101 43c-46 0 -97 -26 -97 -81c0 -48 52 -67 89 -82c55 -23 117 -55 117 -119c0 -87 -73 -129 -156 -129zM129 615c-4 5 -3 9 2 13l9 7c7 5 10 2 13 -1l73 -96c3 -4 6 -4 10 0l118 96c6 4 9 6 13 2l7 -7c5 -5 3 -7 -1 -12l-117 -117c-7 -6 -10 -8 -18 -8h-25
c-6 0 -9 2 -13 8z" />
    <glyph glyph-name="zcaron" unicode="&#x17e;" horiz-adv-x="334" 
d="M279 7c-1 -5 -4 -7 -9 -7h-280c-7 0 -9 3 -8 9l3 14c2 7 3 12 7 16l293 351c5 6 3 9 -4 9h-207c-6 0 -7 3 -7 7l5 21c1 5 3 8 8 8h259c8 0 10 -3 9 -10l-3 -15c-1 -7 -4 -13 -7 -16l-292 -349c-5 -6 -3 -9 4 -9h226c6 0 8 -3 7 -7zM130 615c-4 5 -3 9 2 13l9 7
c7 5 10 2 13 -1l73 -96c3 -4 6 -4 10 0l118 96c6 4 9 6 13 2l7 -7c5 -5 3 -7 -1 -12l-117 -117c-7 -6 -10 -8 -18 -8h-25c-6 0 -9 2 -13 8z" />
    <glyph glyph-name="Ydieresis" unicode="&#x178;" horiz-adv-x="398" 
d="M463 606l-231 -355c-7 -10 -7 -17 -9 -24l-43 -220c0 -5 -2 -7 -8 -7h-27c-5 0 -8 1 -8 6l43 217c2 9 2 15 0 24l-92 360c-2 6 0 10 7 10h26c6 0 9 -3 10 -8l77 -316c1 -4 4 -3 5 -1l201 316c5 7 6 9 14 9h31c9 0 8 -6 4 -11zM396 707c-2 -18 -18 -33 -35 -33
c-16 0 -25 12 -24 27c2 18 18 33 35 33c15 0 25 -12 24 -27zM242 707c-2 -18 -19 -33 -35 -33c-14 0 -25 12 -24 27c2 18 19 33 36 33c15 0 25 -12 23 -27z" />
    <glyph glyph-name="Agrave" unicode="&#xc0;" horiz-adv-x="441" 
d="M348 7l-15 145c0 4 -3 4 -5 4h-232c-2 0 -5 -1 -6 -4l-69 -145c-3 -5 -5 -7 -11 -7h-29c-9 0 -7 4 -5 10c96 198 194 402 291 600c2 4 5 7 9 7h45c6 0 8 -2 8 -7l62 -599c0 -5 0 -11 -8 -11h-26c-6 0 -8 0 -9 7zM116 193h208c4 0 6 0 6 6c-9 84 -16 168 -24 252
c-3 41 -7 80 -11 121c0 4 -2 3 -4 0c-22 -45 -42 -89 -63 -133c-39 -80 -77 -160 -115 -240c-2 -4 -2 -6 3 -6zM303 649l-140 74c-6 3 -9 9 -5 15l16 22c5 7 10 6 16 2l127 -90c7 -5 9 -7 5 -13l-6 -9c-3 -5 -8 -4 -13 -1z" />
    <glyph glyph-name="Aacute" unicode="&#xc1;" horiz-adv-x="441" 
d="M348 7l-15 145c0 4 -3 4 -5 4h-232c-2 0 -5 -1 -6 -4l-69 -145c-3 -5 -5 -7 -11 -7h-29c-9 0 -7 4 -5 10c96 198 194 402 291 600c2 4 5 7 9 7h45c6 0 8 -2 8 -7l62 -599c0 -5 0 -11 -8 -11h-26c-6 0 -8 0 -9 7zM116 193h208c4 0 6 0 6 6c-9 84 -16 168 -24 252
c-3 41 -7 80 -11 121c0 4 -2 3 -4 0c-22 -45 -42 -89 -63 -133c-39 -80 -77 -160 -115 -240c-2 -4 -2 -6 3 -6zM442 722l-140 -74c-5 -3 -10 -4 -13 1l-6 9c-4 6 -2 8 5 13l127 90c6 4 11 5 16 -2l16 -22c4 -6 1 -12 -5 -15z" />
    <glyph glyph-name="Acircumflex" unicode="&#xc2;" horiz-adv-x="441" 
d="M348 7l-15 145c0 4 -3 4 -5 4h-232c-2 0 -5 -1 -6 -4l-69 -145c-3 -5 -5 -7 -11 -7h-29c-9 0 -7 4 -5 10c96 198 194 402 291 600c2 4 5 7 9 7h45c6 0 8 -2 8 -7l62 -599c0 -5 0 -11 -8 -11h-26c-6 0 -8 0 -9 7zM116 193h208c4 0 6 0 6 6c-9 84 -16 168 -24 252
c-3 41 -7 80 -11 121c0 4 -2 3 -4 0c-22 -45 -42 -89 -63 -133c-39 -80 -77 -160 -115 -240c-2 -4 -2 -6 3 -6zM418 659l-11 -7c-4 -2 -7 -2 -11 2l-73 72c-3 3 -7 2 -10 0l-112 -73c-6 -4 -9 -5 -13 -1l-9 10c-3 4 -2 6 2 9l112 90c7 6 13 8 22 8h18c10 0 14 -2 18 -8
l69 -91c3 -4 3 -8 -2 -11z" />
    <glyph glyph-name="Atilde" unicode="&#xc3;" horiz-adv-x="441" 
d="M348 7l-15 145c0 4 -3 4 -5 4h-232c-2 0 -5 -1 -6 -4l-69 -145c-3 -5 -5 -7 -11 -7h-29c-9 0 -7 4 -5 10c96 198 194 402 291 600c2 4 5 7 9 7h45c6 0 8 -2 8 -7l62 -599c0 -5 0 -11 -8 -11h-26c-6 0 -8 0 -9 7zM116 193h208c4 0 6 0 6 6c-9 84 -16 168 -24 252
c-3 41 -7 80 -11 121c0 4 -2 3 -4 0c-22 -45 -42 -89 -63 -133c-39 -80 -77 -160 -115 -240c-2 -4 -2 -6 3 -6zM439 726c3 -2 3 -6 -1 -11c-26 -35 -59 -43 -83 -43c-42 0 -69 35 -105 35c-16 0 -33 -11 -45 -27c-3 -4 -8 -6 -12 -3l-13 9c-4 3 -2 7 1 11c22 29 48 43 76 43
c39 0 70 -35 102 -35c20 0 39 9 54 27c3 4 6 5 10 2z" />
    <glyph glyph-name="Adieresis" unicode="&#xc4;" horiz-adv-x="441" 
d="M348 7l-15 145c0 4 -3 4 -5 4h-232c-2 0 -5 -1 -6 -4l-69 -145c-3 -5 -5 -7 -11 -7h-29c-9 0 -7 4 -5 10c96 198 194 402 291 600c2 4 5 7 9 7h45c6 0 8 -2 8 -7l62 -599c0 -5 0 -11 -8 -11h-26c-6 0 -8 0 -9 7zM116 193h208c4 0 6 0 6 6c-9 84 -16 168 -24 252
c-3 41 -7 80 -11 121c0 4 -2 3 -4 0c-22 -45 -42 -89 -63 -133c-39 -80 -77 -160 -115 -240c-2 -4 -2 -6 3 -6zM417 711c-2 -18 -18 -33 -35 -33c-16 0 -25 12 -24 27c2 18 18 33 35 33c15 0 25 -12 24 -27zM263 711c-2 -18 -19 -33 -35 -33c-14 0 -25 12 -24 27
c2 18 19 33 36 33c15 0 25 -12 23 -27z" />
    <glyph glyph-name="Aring" unicode="&#xc5;" horiz-adv-x="441" 
d="M348 7l-15 145c0 4 -3 4 -5 4h-232c-2 0 -5 -1 -6 -4l-69 -145c-3 -5 -5 -7 -11 -7h-29c-9 0 -7 4 -5 10c96 198 194 402 291 600c2 4 5 7 9 7h45c6 0 8 -2 8 -7l62 -599c0 -5 0 -11 -8 -11h-26c-6 0 -8 0 -9 7zM116 193h208c4 0 6 0 6 6c-9 84 -16 168 -24 252
c-3 41 -7 80 -11 121c0 4 -2 3 -4 0c-22 -45 -42 -89 -63 -133c-39 -80 -77 -160 -115 -240c-2 -4 -2 -6 3 -6zM309 659c-34 0 -58 27 -58 56c0 49 36 85 80 85c34 0 61 -24 61 -59c0 -49 -39 -82 -83 -82zM313 685c26 0 52 23 52 53c0 22 -16 36 -36 36
c-27 0 -51 -23 -51 -53c0 -20 15 -36 35 -36z" />
    <glyph glyph-name="Egrave" unicode="&#xc8;" horiz-adv-x="430" 
d="M379 31l-5 -24c-1 -4 -3 -7 -9 -7h-336c-5 0 -6 3 -6 7l117 602c1 4 3 8 9 8h301c5 0 6 -4 6 -8l-4 -23c-1 -5 -4 -7 -9 -7h-258c-5 0 -8 -1 -9 -6l-45 -230c0 -4 0 -6 6 -6h233c5 0 6 -3 6 -8l-5 -24c-1 -4 -3 -6 -8 -6h-233c-4 0 -7 -2 -8 -7l-48 -249c0 -4 1 -5 6 -5
h292c5 0 8 -2 7 -7zM318 649l-140 74c-6 3 -9 9 -5 15l16 22c5 7 10 6 16 2l127 -90c7 -5 9 -7 5 -13l-6 -9c-3 -5 -8 -4 -13 -1z" />
    <glyph glyph-name="Eacute" unicode="&#xc9;" horiz-adv-x="430" 
d="M379 31l-5 -24c-1 -4 -3 -7 -9 -7h-336c-5 0 -6 3 -6 7l117 602c1 4 3 8 9 8h301c5 0 6 -4 6 -8l-4 -23c-1 -5 -4 -7 -9 -7h-258c-5 0 -8 -1 -9 -6l-45 -230c0 -4 0 -6 6 -6h233c5 0 6 -3 6 -8l-5 -24c-1 -4 -3 -6 -8 -6h-233c-4 0 -7 -2 -8 -7l-48 -249c0 -4 1 -5 6 -5
h292c5 0 8 -2 7 -7zM414 720l-140 -74c-5 -3 -10 -4 -13 1l-6 9c-4 6 -2 8 5 13l127 90c6 4 11 5 16 -2l16 -22c4 -6 1 -12 -5 -15z" />
    <glyph glyph-name="Ecircumflex" unicode="&#xca;" horiz-adv-x="430" 
d="M379 31l-5 -24c-1 -4 -3 -7 -9 -7h-336c-5 0 -6 3 -6 7l117 602c1 4 3 8 9 8h301c5 0 6 -4 6 -8l-4 -23c-1 -5 -4 -7 -9 -7h-258c-5 0 -8 -1 -9 -6l-45 -230c0 -4 0 -6 6 -6h233c5 0 6 -3 6 -8l-5 -24c-1 -4 -3 -6 -8 -6h-233c-4 0 -7 -2 -8 -7l-48 -249c0 -4 1 -5 6 -5
h292c5 0 8 -2 7 -7zM412 652l-11 -7c-4 -2 -7 -2 -11 2l-73 72c-3 3 -7 2 -10 0l-112 -73c-6 -4 -9 -5 -13 -1l-9 10c-3 4 -2 6 2 9l112 90c7 6 13 8 22 8h18c10 0 14 -2 18 -8l69 -91c3 -4 3 -8 -2 -11z" />
    <glyph glyph-name="Edieresis" unicode="&#xcb;" horiz-adv-x="430" 
d="M379 31l-5 -24c-1 -4 -3 -7 -9 -7h-336c-5 0 -6 3 -6 7l117 602c1 4 3 8 9 8h301c5 0 6 -4 6 -8l-4 -23c-1 -5 -4 -7 -9 -7h-258c-5 0 -8 -1 -9 -6l-45 -230c0 -4 0 -6 6 -6h233c5 0 6 -3 6 -8l-5 -24c-1 -4 -3 -6 -8 -6h-233c-4 0 -7 -2 -8 -7l-48 -249c0 -4 1 -5 6 -5
h292c5 0 8 -2 7 -7zM424 707c-2 -18 -18 -33 -35 -33c-16 0 -25 12 -24 27c2 18 18 33 35 33c15 0 25 -12 24 -27zM270 707c-2 -18 -19 -33 -35 -33c-14 0 -25 12 -24 27c2 18 19 33 36 33c15 0 25 -12 23 -27z" />
    <glyph glyph-name="Igrave" unicode="&#xcc;" horiz-adv-x="198" 
d="M198 611l-117 -604c-1 -5 -3 -7 -8 -7h-29c-4 0 -7 2 -6 6l118 604c1 5 4 7 8 7h29c5 0 6 -2 5 -6zM182 657l-140 74c-6 3 -9 9 -5 15l16 22c5 7 10 6 16 2l127 -90c7 -5 9 -7 5 -13l-6 -9c-3 -5 -8 -4 -13 -1z" />
    <glyph glyph-name="Iacute" unicode="&#xcd;" horiz-adv-x="198" 
d="M198 611l-117 -604c-1 -5 -3 -7 -8 -7h-29c-4 0 -7 2 -6 6l118 604c1 5 4 7 8 7h29c5 0 6 -2 5 -6zM329 730l-140 -74c-5 -3 -10 -4 -13 1l-6 9c-4 6 -2 8 5 13l127 90c6 4 11 5 16 -2l16 -22c4 -6 1 -12 -5 -15z" />
    <glyph glyph-name="Icircumflex" unicode="&#xce;" horiz-adv-x="198" 
d="M198 611l-117 -604c-1 -5 -3 -7 -8 -7h-29c-4 0 -7 2 -6 6l118 604c1 5 4 7 8 7h29c5 0 6 -2 5 -6zM302 654l-11 -7c-4 -2 -7 -2 -11 2l-73 72c-3 3 -7 2 -10 0l-112 -73c-6 -4 -9 -5 -13 -1l-9 10c-3 4 -2 6 2 9l112 90c7 6 13 8 22 8h18c10 0 14 -2 18 -8l69 -91
c3 -4 3 -8 -2 -11z" />
    <glyph glyph-name="Idieresis" unicode="&#xcf;" horiz-adv-x="198" 
d="M198 611l-117 -604c-1 -5 -3 -7 -8 -7h-29c-4 0 -7 2 -6 6l118 604c1 5 4 7 8 7h29c5 0 6 -2 5 -6zM303 707c-2 -18 -18 -33 -35 -33c-16 0 -25 12 -24 27c2 18 18 33 35 33c15 0 25 -12 24 -27zM149 707c-2 -18 -19 -33 -35 -33c-14 0 -25 12 -24 27c2 18 19 33 36 33
c15 0 25 -12 23 -27z" />
    <glyph glyph-name="Ntilde" unicode="&#xd1;" horiz-adv-x="499" 
d="M149 617h23c8 0 11 -4 13 -9l185 -525c1 -3 3 -3 4 0l102 526c2 5 4 8 9 8h28c5 0 7 -3 6 -7l-116 -598c-2 -9 -8 -12 -14 -12h-22c-9 0 -12 3 -14 8c-16 45 -171 479 -186 523c-1 3 -3 2 -4 0l-101 -523c-1 -5 -3 -8 -9 -8h-27c-5 0 -7 3 -6 8l116 596c1 8 4 13 13 13z
M474 719c3 -2 3 -6 -1 -11c-26 -35 -59 -43 -83 -43c-42 0 -69 35 -105 35c-16 0 -33 -11 -45 -27c-3 -4 -8 -6 -12 -3l-13 9c-4 3 -2 7 1 11c22 29 48 43 76 43c39 0 70 -35 102 -35c20 0 39 9 54 27c3 4 6 5 10 2z" />
    <glyph glyph-name="Ograve" unicode="&#xd2;" horiz-adv-x="474" 
d="M462 450l-55 -290c-18 -96 -72 -167 -198 -167c-123 0 -176 87 -157 183l53 282c19 95 87 166 197 166c112 0 180 -73 160 -174zM419 452c13 69 -24 133 -120 133c-88 0 -138 -59 -151 -129l-54 -279c-13 -73 14 -146 118 -146c93 0 139 56 153 131zM347 661l-140 74
c-6 3 -9 9 -5 15l16 22c5 7 10 6 16 2l127 -90c7 -5 9 -7 5 -13l-6 -9c-3 -5 -8 -4 -13 -1z" />
    <glyph glyph-name="Oacute" unicode="&#xd3;" horiz-adv-x="474" 
d="M462 450l-55 -290c-18 -96 -72 -167 -198 -167c-123 0 -176 87 -157 183l53 282c19 95 87 166 197 166c112 0 180 -73 160 -174zM419 452c13 69 -24 133 -120 133c-88 0 -138 -59 -151 -129l-54 -279c-13 -73 14 -146 118 -146c93 0 139 56 153 131zM466 735l-140 -74
c-5 -3 -10 -4 -13 1l-6 9c-4 6 -2 8 5 13l127 90c6 4 11 5 16 -2l16 -22c4 -6 1 -12 -5 -15z" />
    <glyph glyph-name="Ocircumflex" unicode="&#xd4;" horiz-adv-x="474" 
d="M462 450l-55 -290c-18 -96 -72 -167 -198 -167c-123 0 -176 87 -157 183l53 282c19 95 87 166 197 166c112 0 180 -73 160 -174zM419 452c13 69 -24 133 -120 133c-88 0 -138 -59 -151 -129l-54 -279c-13 -73 14 -146 118 -146c93 0 139 56 153 131zM454 660l-11 -7
c-4 -2 -7 -2 -11 2l-73 72c-3 3 -7 2 -10 0l-112 -73c-6 -4 -9 -5 -13 -1l-9 10c-3 4 -2 6 2 9l112 90c7 6 13 8 22 8h18c10 0 14 -2 18 -8l69 -91c3 -4 3 -8 -2 -11z" />
    <glyph glyph-name="Otilde" unicode="&#xd5;" horiz-adv-x="474" 
d="M462 450l-55 -290c-18 -96 -72 -167 -198 -167c-123 0 -176 87 -157 183l53 282c19 95 87 166 197 166c112 0 180 -73 160 -174zM419 452c13 69 -24 133 -120 133c-88 0 -138 -59 -151 -129l-54 -279c-13 -73 14 -146 118 -146c93 0 139 56 153 131zM474 733
c3 -2 3 -6 -1 -11c-26 -35 -59 -43 -83 -43c-42 0 -69 35 -105 35c-16 0 -33 -11 -45 -27c-3 -4 -8 -6 -12 -3l-13 9c-4 3 -2 7 1 11c22 29 48 43 76 43c39 0 70 -35 102 -35c20 0 39 9 54 27c3 4 6 5 10 2z" />
    <glyph glyph-name="Odieresis" unicode="&#xd6;" horiz-adv-x="474" 
d="M462 450l-55 -290c-18 -96 -72 -167 -198 -167c-123 0 -176 87 -157 183l53 282c19 95 87 166 197 166c112 0 180 -73 160 -174zM419 452c13 69 -24 133 -120 133c-88 0 -138 -59 -151 -129l-54 -279c-13 -73 14 -146 118 -146c93 0 139 56 153 131zM454 708
c-2 -18 -18 -33 -35 -33c-16 0 -25 12 -24 27c2 18 18 33 35 33c15 0 25 -12 24 -27zM300 708c-2 -18 -19 -33 -35 -33c-14 0 -25 12 -24 27c2 18 19 33 36 33c15 0 25 -12 23 -27z" />
    <glyph glyph-name="Ugrave" unicode="&#xd9;" horiz-adv-x="480" 
d="M409 159c-19 -96 -80 -166 -200 -166s-177 84 -157 184l84 433c1 5 4 7 9 7h29c4 0 6 -3 5 -7l-85 -437c-14 -72 16 -142 118 -142c93 0 140 58 154 130c29 145 72 367 88 449c1 5 4 7 9 7h28c5 0 7 -3 6 -7zM335 653l-140 74c-6 3 -9 9 -5 15l16 22c5 7 10 6 16 2
l127 -90c7 -5 9 -7 5 -13l-6 -9c-3 -5 -8 -4 -13 -1z" />
    <glyph glyph-name="Uacute" unicode="&#xda;" horiz-adv-x="480" 
d="M409 159c-19 -96 -80 -166 -200 -166s-177 84 -157 184l84 433c1 5 4 7 9 7h29c4 0 6 -3 5 -7l-85 -437c-14 -72 16 -142 118 -142c93 0 140 58 154 130c29 145 72 367 88 449c1 5 4 7 9 7h28c5 0 7 -3 6 -7zM438 728l-140 -74c-5 -3 -10 -4 -13 1l-6 9c-4 6 -2 8 5 13
l127 90c6 4 11 5 16 -2l16 -22c4 -6 1 -12 -5 -15z" />
    <glyph glyph-name="Ucircumflex" unicode="&#xdb;" horiz-adv-x="480" 
d="M409 159c-19 -96 -80 -166 -200 -166s-177 84 -157 184l84 433c1 5 4 7 9 7h29c4 0 6 -3 5 -7l-85 -437c-14 -72 16 -142 118 -142c93 0 140 58 154 130c29 145 72 367 88 449c1 5 4 7 9 7h28c5 0 7 -3 6 -7zM444 666l-11 -7c-4 -2 -7 -2 -11 2l-73 72c-3 3 -7 2 -10 0
l-112 -73c-6 -4 -9 -5 -13 -1l-9 10c-3 4 -2 6 2 9l112 90c7 6 13 8 22 8h18c10 0 14 -2 18 -8l69 -91c3 -4 3 -8 -2 -11z" />
    <glyph glyph-name="Udieresis" unicode="&#xdc;" horiz-adv-x="480" 
d="M409 159c-19 -96 -80 -166 -200 -166s-177 84 -157 184l84 433c1 5 4 7 9 7h29c4 0 6 -3 5 -7l-85 -437c-14 -72 16 -142 118 -142c93 0 140 58 154 130c29 145 72 367 88 449c1 5 4 7 9 7h28c5 0 7 -3 6 -7zM437 707c-2 -18 -18 -33 -35 -33c-16 0 -25 12 -24 27
c2 18 18 33 35 33c15 0 25 -12 24 -27zM283 707c-2 -18 -19 -33 -35 -33c-14 0 -25 12 -24 27c2 18 19 33 36 33c15 0 25 -12 23 -27z" />
    <glyph glyph-name="Yacute" unicode="&#xdd;" horiz-adv-x="398" 
d="M463 606l-231 -355c-7 -10 -7 -17 -9 -24l-43 -220c0 -5 -2 -7 -8 -7h-27c-5 0 -8 1 -8 6l43 217c2 9 2 15 0 24l-92 360c-2 6 0 10 7 10h26c6 0 9 -3 10 -8l77 -316c1 -4 4 -3 5 -1l201 316c5 7 6 9 14 9h31c9 0 8 -6 4 -11zM395 726l-140 -74c-5 -3 -10 -4 -13 1l-6 9
c-4 6 -2 8 5 13l127 90c6 4 11 5 16 -2l16 -22c4 -6 1 -12 -5 -15z" />
    <glyph glyph-name="agrave" unicode="&#xe0;" horiz-adv-x="414" 
d="M225 405c-30 0 -71 -5 -110 -23c-4 -2 -8 0 -9 4l-8 21c-2 5 1 7 6 10c40 17 88 24 124 24c123 0 164 -65 145 -164l-52 -271c-1 -5 -4 -6 -8 -6h-26c-5 0 -5 2 -5 5c5 29 7 36 7 39c0 2 0 5 -2 5c-1 0 -3 -1 -6 -4c-46 -42 -89 -50 -129 -50c-79 0 -124 49 -124 122
c0 97 72 170 173 170c49 0 96 -21 115 -51c1 -2 3 -2 4 -2c3 0 5 2 6 6l10 51c13 65 -15 114 -111 114zM201 254c-79 0 -133 -60 -133 -133c0 -52 27 -92 90 -92c85 0 147 63 147 135c0 51 -34 90 -104 90zM289 503c2 -4 5 -9 -2 -12l-11 -6c-6 -3 -10 2 -13 6l-97 123
c-5 6 -8 11 3 16l23 12c7 4 13 2 17 -6z" />
    <glyph glyph-name="aacute" unicode="&#xe1;" horiz-adv-x="414" 
d="M225 405c-30 0 -71 -5 -110 -23c-4 -2 -8 0 -9 4l-8 21c-2 5 1 7 6 10c40 17 88 24 124 24c123 0 164 -65 145 -164l-52 -271c-1 -5 -4 -6 -8 -6h-26c-5 0 -5 2 -5 5c5 29 7 36 7 39c0 2 0 5 -2 5c-1 0 -3 -1 -6 -4c-46 -42 -89 -50 -129 -50c-79 0 -124 49 -124 122
c0 97 72 170 173 170c49 0 96 -21 115 -51c1 -2 3 -2 4 -2c3 0 5 2 6 6l10 51c13 65 -15 114 -111 114zM201 254c-79 0 -133 -60 -133 -133c0 -52 27 -92 90 -92c85 0 147 63 147 135c0 51 -34 90 -104 90zM362 609l-111 -117c-4 -3 -9 -5 -14 -1l-7 6c-3 2 -5 6 0 13
l91 125c5 6 10 9 19 3l20 -13c7 -5 7 -10 2 -16z" />
    <glyph glyph-name="acircumflex" unicode="&#xe2;" horiz-adv-x="414" 
d="M225 405c-30 0 -71 -5 -110 -23c-4 -2 -8 0 -9 4l-8 21c-2 5 1 7 6 10c40 17 88 24 124 24c123 0 164 -65 145 -164l-52 -271c-1 -5 -4 -6 -8 -6h-26c-5 0 -5 2 -5 5c5 29 7 36 7 39c0 2 0 5 -2 5c-1 0 -3 -1 -6 -4c-46 -42 -89 -50 -129 -50c-79 0 -124 49 -124 122
c0 97 72 170 173 170c49 0 96 -21 115 -51c1 -2 3 -2 4 -2c3 0 5 2 6 6l10 51c13 65 -15 114 -111 114zM201 254c-79 0 -133 -60 -133 -133c0 -52 27 -92 90 -92c85 0 147 63 147 135c0 51 -34 90 -104 90zM312 632l69 -117c3 -5 3 -9 -3 -13l-7 -5c-6 -5 -9 -2 -12 1
l-74 96c-3 4 -5 4 -10 0l-118 -96c-6 -4 -9 -6 -13 -2l-7 7c-4 5 -3 7 2 12l117 117c6 6 10 8 17 8h25c7 0 9 -2 14 -8z" />
    <glyph glyph-name="atilde" unicode="&#xe3;" horiz-adv-x="414" 
d="M225 405c-30 0 -71 -5 -110 -23c-4 -2 -8 0 -9 4l-8 21c-2 5 1 7 6 10c40 17 88 24 124 24c123 0 164 -65 145 -164l-52 -271c-1 -5 -4 -6 -8 -6h-26c-5 0 -5 2 -5 5c5 29 7 36 7 39c0 2 0 5 -2 5c-1 0 -3 -1 -6 -4c-46 -42 -89 -50 -129 -50c-79 0 -124 49 -124 122
c0 97 72 170 173 170c49 0 96 -21 115 -51c1 -2 3 -2 4 -2c3 0 5 2 6 6l10 51c13 65 -15 114 -111 114zM201 254c-79 0 -133 -60 -133 -133c0 -52 27 -92 90 -92c85 0 147 63 147 135c0 51 -34 90 -104 90zM407 579c3 -2 3 -6 -1 -11c-26 -35 -59 -43 -83 -43
c-42 0 -69 35 -105 35c-16 0 -33 -11 -45 -27c-3 -4 -8 -6 -12 -3l-13 9c-4 3 -2 7 1 11c22 29 48 43 76 43c39 0 70 -35 102 -35c20 0 39 9 54 27c3 4 6 5 10 2z" />
    <glyph glyph-name="adieresis" unicode="&#xe4;" horiz-adv-x="414" 
d="M225 405c-30 0 -71 -5 -110 -23c-4 -2 -8 0 -9 4l-8 21c-2 5 1 7 6 10c40 17 88 24 124 24c123 0 164 -65 145 -164l-52 -271c-1 -5 -4 -6 -8 -6h-26c-5 0 -5 2 -5 5c5 29 7 36 7 39c0 2 0 5 -2 5c-1 0 -3 -1 -6 -4c-46 -42 -89 -50 -129 -50c-79 0 -124 49 -124 122
c0 97 72 170 173 170c49 0 96 -21 115 -51c1 -2 3 -2 4 -2c3 0 5 2 6 6l10 51c13 65 -15 114 -111 114zM201 254c-79 0 -133 -60 -133 -133c0 -52 27 -92 90 -92c85 0 147 63 147 135c0 51 -34 90 -104 90zM375 561c-3 -16 -19 -30 -35 -30s-27 14 -24 30c4 17 19 30 35 30
s27 -13 24 -30zM221 561c-3 -17 -19 -30 -34 -30c-16 0 -27 14 -24 30c3 17 19 30 35 30c15 0 26 -13 23 -30z" />
    <glyph glyph-name="aring" unicode="&#xe5;" horiz-adv-x="414" 
d="M225 405c-30 0 -71 -5 -110 -23c-4 -2 -8 0 -9 4l-8 21c-2 5 1 7 6 10c40 17 88 24 124 24c123 0 164 -65 145 -164l-52 -271c-1 -5 -4 -6 -8 -6h-26c-5 0 -5 2 -5 5c5 29 7 36 7 39c0 2 0 5 -2 5c-1 0 -3 -1 -6 -4c-46 -42 -89 -50 -129 -50c-79 0 -124 49 -124 122
c0 97 72 170 173 170c49 0 96 -21 115 -51c1 -2 3 -2 4 -2c3 0 5 2 6 6l10 51c13 65 -15 114 -111 114zM201 254c-79 0 -133 -60 -133 -133c0 -52 27 -92 90 -92c85 0 147 63 147 135c0 51 -34 90 -104 90zM270 495c-34 0 -58 27 -58 56c0 49 36 85 80 85
c34 0 61 -24 61 -59c0 -49 -39 -82 -83 -82zM274 521c26 0 52 23 52 53c0 22 -16 36 -36 36c-27 0 -51 -23 -51 -53c0 -20 15 -36 35 -36z" />
    <glyph glyph-name="egrave" unicode="&#xe8;" horiz-adv-x="405" 
d="M177 -5c-93 0 -143 50 -143 122c0 10 1 20 3 31l22 119c23 124 101 173 204 173c74 0 126 -41 126 -108c0 -129 -141 -147 -293 -151c-8 0 -12 -2 -13 -9l-5 -27c-1 -8 -2 -17 -2 -24c0 -56 40 -92 109 -92c40 0 82 21 109 49c7 7 9 8 14 3l17 -15c2 -2 3 -4 3 -6
c0 -6 -8 -13 -12 -17c-35 -34 -81 -48 -139 -48zM255 404c-96 0 -139 -65 -152 -128l-9 -45v-3c0 -6 2 -10 13 -10c125 1 240 25 240 106c0 38 -22 80 -92 80zM293 503c2 -4 5 -9 -2 -12l-11 -6c-6 -3 -10 2 -13 6l-97 123c-5 6 -8 11 3 16l23 12c7 4 13 2 17 -6z" />
    <glyph glyph-name="eacute" unicode="&#xe9;" horiz-adv-x="405" 
d="M177 -5c-93 0 -143 50 -143 122c0 10 1 20 3 31l22 119c23 124 101 173 204 173c74 0 126 -41 126 -108c0 -129 -141 -147 -293 -151c-8 0 -12 -2 -13 -9l-5 -27c-1 -8 -2 -17 -2 -24c0 -56 40 -92 109 -92c40 0 82 21 109 49c7 7 9 8 14 3l17 -15c2 -2 3 -4 3 -6
c0 -6 -8 -13 -12 -17c-35 -34 -81 -48 -139 -48zM255 404c-96 0 -139 -65 -152 -128l-9 -45v-3c0 -6 2 -10 13 -10c125 1 240 25 240 106c0 38 -22 80 -92 80zM369 609l-111 -117c-4 -3 -9 -5 -14 -1l-7 6c-3 2 -5 6 0 13l91 125c5 6 10 9 19 3l20 -13c7 -5 7 -10 2 -16z
" />
    <glyph glyph-name="ecircumflex" unicode="&#xea;" horiz-adv-x="405" 
d="M177 -5c-93 0 -143 50 -143 122c0 10 1 20 3 31l22 119c23 124 101 173 204 173c74 0 126 -41 126 -108c0 -129 -141 -147 -293 -151c-8 0 -12 -2 -13 -9l-5 -27c-1 -8 -2 -17 -2 -24c0 -56 40 -92 109 -92c40 0 82 21 109 49c7 7 9 8 14 3l17 -15c2 -2 3 -4 3 -6
c0 -6 -8 -13 -12 -17c-35 -34 -81 -48 -139 -48zM255 404c-96 0 -139 -65 -152 -128l-9 -45v-3c0 -6 2 -10 13 -10c125 1 240 25 240 106c0 38 -22 80 -92 80zM315 632l69 -117c3 -5 3 -9 -3 -13l-7 -5c-6 -5 -9 -2 -12 1l-74 96c-3 4 -5 4 -10 0l-118 -96
c-6 -4 -9 -6 -13 -2l-7 7c-4 5 -3 7 2 12l117 117c6 6 10 8 17 8h25c7 0 9 -2 14 -8z" />
    <glyph glyph-name="edieresis" unicode="&#xeb;" horiz-adv-x="405" 
d="M177 -5c-93 0 -143 50 -143 122c0 10 1 20 3 31l22 119c23 124 101 173 204 173c74 0 126 -41 126 -108c0 -129 -141 -147 -293 -151c-8 0 -12 -2 -13 -9l-5 -27c-1 -8 -2 -17 -2 -24c0 -56 40 -92 109 -92c40 0 82 21 109 49c7 7 9 8 14 3l17 -15c2 -2 3 -4 3 -6
c0 -6 -8 -13 -12 -17c-35 -34 -81 -48 -139 -48zM255 404c-96 0 -139 -65 -152 -128l-9 -45v-3c0 -6 2 -10 13 -10c125 1 240 25 240 106c0 38 -22 80 -92 80zM387 561c-3 -16 -19 -30 -35 -30s-27 14 -24 30c4 17 19 30 35 30s27 -13 24 -30zM233 561
c-3 -17 -19 -30 -34 -30c-16 0 -27 14 -24 30c3 17 19 30 35 30c15 0 26 -13 23 -30z" />
    <glyph glyph-name="igrave" unicode="&#xec;" horiz-adv-x="172" 
d="M65 6c-1 -4 -3 -6 -8 -6h-29c-2 0 -5 1 -5 4v2l81 422c2 4 5 6 8 6h29c4 0 6 -1 6 -4v-2c-28 -141 -55 -282 -82 -422zM160 503c2 -4 5 -9 -2 -12l-11 -6c-6 -3 -10 2 -13 6l-97 123c-5 6 -8 11 3 16l23 12c7 4 13 2 17 -6z" />
    <glyph glyph-name="iacute" unicode="&#xed;" horiz-adv-x="172" 
d="M65 6c-1 -4 -3 -6 -8 -6h-29c-2 0 -5 1 -5 4v2l81 422c2 4 5 6 8 6h29c4 0 6 -1 6 -4v-2c-28 -141 -55 -282 -82 -422zM256 609l-111 -117c-4 -3 -9 -5 -14 -1l-7 6c-3 2 -5 6 0 13l91 125c5 6 10 9 19 3l20 -13c7 -5 7 -10 2 -16z" />
    <glyph glyph-name="icircumflex" unicode="&#xee;" horiz-adv-x="172" 
d="M65 6c-1 -4 -3 -6 -8 -6h-29c-2 0 -5 1 -5 4v2l81 422c2 4 5 6 8 6h29c4 0 6 -1 6 -4v-2c-28 -141 -55 -282 -82 -422zM191 632l69 -117c3 -5 3 -9 -3 -13l-7 -5c-6 -5 -9 -2 -12 1l-74 96c-3 4 -5 4 -10 0l-118 -96c-6 -4 -9 -6 -13 -2l-7 7c-4 5 -3 7 2 12l117 117
c6 6 10 8 17 8h25c7 0 9 -2 14 -8z" />
    <glyph glyph-name="idieresis" unicode="&#xef;" horiz-adv-x="172" 
d="M65 6c-1 -4 -3 -6 -8 -6h-29c-2 0 -5 1 -5 4v2l81 422c2 4 5 6 8 6h29c4 0 6 -1 6 -4v-2c-28 -141 -55 -282 -82 -422zM259 561c-3 -16 -19 -30 -35 -30s-27 14 -24 30c4 17 19 30 35 30s27 -13 24 -30zM105 561c-3 -17 -19 -30 -34 -30c-16 0 -27 14 -24 30
c3 17 19 30 35 30c15 0 26 -13 23 -30z" />
    <glyph glyph-name="ntilde" unicode="&#xf1;" horiz-adv-x="427" 
d="M391 276l-52 -269c0 -5 -3 -7 -7 -7h-29c-4 0 -7 2 -6 6l53 271c13 68 -11 127 -96 127c-72 0 -132 -58 -146 -127l-52 -270c0 -5 -3 -7 -8 -7h-28c-4 0 -7 2 -6 6l82 422c1 5 4 7 8 7h28c5 0 6 -2 5 -7l-8 -39c-2 -9 2 -11 10 -4c33 36 82 55 128 55
c112 0 141 -79 124 -164zM405 579c3 -2 3 -6 -1 -11c-26 -35 -59 -43 -83 -43c-42 0 -69 35 -105 35c-16 0 -33 -11 -45 -27c-3 -4 -8 -6 -12 -3l-13 9c-4 3 -2 7 1 11c22 29 48 43 76 43c39 0 70 -35 102 -35c20 0 39 9 54 27c3 4 6 5 10 2z" />
    <glyph glyph-name="ograve" unicode="&#xf2;" horiz-adv-x="421" 
d="M364 156c-20 -102 -79 -161 -183 -161c-106 0 -160 69 -141 165l22 122c19 93 79 158 180 158c98 0 161 -69 142 -167zM322 156l20 116c14 71 -23 130 -102 132c-74 2 -123 -52 -137 -123l-23 -126c-14 -76 29 -125 103 -125c73 0 123 47 139 126zM303 503
c2 -4 5 -9 -2 -12l-11 -6c-6 -3 -10 2 -13 6l-97 123c-5 6 -8 11 3 16l23 12c7 4 13 2 17 -6z" />
    <glyph glyph-name="oacute" unicode="&#xf3;" horiz-adv-x="421" 
d="M364 156c-20 -102 -79 -161 -183 -161c-106 0 -160 69 -141 165l22 122c19 93 79 158 180 158c98 0 161 -69 142 -167zM322 156l20 116c14 71 -23 130 -102 132c-74 2 -123 -52 -137 -123l-23 -126c-14 -76 29 -125 103 -125c73 0 123 47 139 126zM366 609l-111 -117
c-4 -3 -9 -5 -14 -1l-7 6c-3 2 -5 6 0 13l91 125c5 6 10 9 19 3l20 -13c7 -5 7 -10 2 -16z" />
    <glyph glyph-name="ocircumflex" unicode="&#xf4;" horiz-adv-x="421" 
d="M364 156c-20 -102 -79 -161 -183 -161c-106 0 -160 69 -141 165l22 122c19 93 79 158 180 158c98 0 161 -69 142 -167zM322 156l20 116c14 71 -23 130 -102 132c-74 2 -123 -52 -137 -123l-23 -126c-14 -76 29 -125 103 -125c73 0 123 47 139 126zM318 632l69 -117
c3 -5 3 -9 -3 -13l-7 -5c-6 -5 -9 -2 -12 1l-74 96c-3 4 -5 4 -10 0l-118 -96c-6 -4 -9 -6 -13 -2l-7 7c-4 5 -3 7 2 12l117 117c6 6 10 8 17 8h25c7 0 9 -2 14 -8z" />
    <glyph glyph-name="otilde" unicode="&#xf5;" horiz-adv-x="421" 
d="M364 156c-20 -102 -79 -161 -183 -161c-106 0 -160 69 -141 165l22 122c19 93 79 158 180 158c98 0 161 -69 142 -167zM322 156l20 116c14 71 -23 130 -102 132c-74 2 -123 -52 -137 -123l-23 -126c-14 -76 29 -125 103 -125c73 0 123 47 139 126zM409 579
c3 -2 3 -6 -1 -11c-26 -35 -59 -43 -83 -43c-42 0 -69 35 -105 35c-16 0 -33 -11 -45 -27c-3 -4 -8 -6 -12 -3l-13 9c-4 3 -2 7 1 11c22 29 48 43 76 43c39 0 70 -35 102 -35c20 0 39 9 54 27c3 4 6 5 10 2z" />
    <glyph glyph-name="odieresis" unicode="&#xf6;" horiz-adv-x="421" 
d="M364 156c-20 -102 -79 -161 -183 -161c-106 0 -160 69 -141 165l22 122c19 93 79 158 180 158c98 0 161 -69 142 -167zM322 156l20 116c14 71 -23 130 -102 132c-74 2 -123 -52 -137 -123l-23 -126c-14 -76 29 -125 103 -125c73 0 123 47 139 126zM384 561
c-3 -16 -19 -30 -35 -30s-27 14 -24 30c4 17 19 30 35 30s27 -13 24 -30zM230 561c-3 -17 -19 -30 -34 -30c-16 0 -27 14 -24 30c3 17 19 30 35 30c15 0 26 -13 23 -30z" />
    <glyph glyph-name="ugrave" unicode="&#xf9;" horiz-adv-x="426" 
d="M42 159l52 269c1 4 3 7 8 7h29c4 0 5 -2 4 -7l-52 -271c-13 -67 11 -125 96 -125c72 0 132 58 145 126l52 270c1 4 4 7 9 7h28c4 0 7 -2 6 -7l-82 -421c-1 -5 -4 -7 -8 -7h-28c-5 0 -6 2 -5 6l7 40c3 8 -2 10 -8 3c-34 -34 -83 -54 -129 -54c-112 0 -141 79 -124 164z
M303 503c2 -4 5 -9 -2 -12l-11 -6c-6 -3 -10 2 -13 6l-97 123c-5 6 -8 11 3 16l23 12c7 4 13 2 17 -6z" />
    <glyph glyph-name="uacute" unicode="&#xfa;" horiz-adv-x="426" 
d="M42 159l52 269c1 4 3 7 8 7h29c4 0 5 -2 4 -7l-52 -271c-13 -67 11 -125 96 -125c72 0 132 58 145 126l52 270c1 4 4 7 9 7h28c4 0 7 -2 6 -7l-82 -421c-1 -5 -4 -7 -8 -7h-28c-5 0 -6 2 -5 6l7 40c3 8 -2 10 -8 3c-34 -34 -83 -54 -129 -54c-112 0 -141 79 -124 164z
M379 609l-111 -117c-4 -3 -9 -5 -14 -1l-7 6c-3 2 -5 6 0 13l91 125c5 6 10 9 19 3l20 -13c7 -5 7 -10 2 -16z" />
    <glyph glyph-name="ucircumflex" unicode="&#xfb;" horiz-adv-x="426" 
d="M42 159l52 269c1 4 3 7 8 7h29c4 0 5 -2 4 -7l-52 -271c-13 -67 11 -125 96 -125c72 0 132 58 145 126l52 270c1 4 4 7 9 7h28c4 0 7 -2 6 -7l-82 -421c-1 -5 -4 -7 -8 -7h-28c-5 0 -6 2 -5 6l7 40c3 8 -2 10 -8 3c-34 -34 -83 -54 -129 -54c-112 0 -141 79 -124 164z
M311 632l69 -117c3 -5 3 -9 -3 -13l-7 -5c-6 -5 -9 -2 -12 1l-74 96c-3 4 -5 4 -10 0l-118 -96c-6 -4 -9 -6 -13 -2l-7 7c-4 5 -3 7 2 12l117 117c6 6 10 8 17 8h25c7 0 9 -2 14 -8z" />
    <glyph glyph-name="udieresis" unicode="&#xfc;" horiz-adv-x="426" 
d="M42 159l52 269c1 4 3 7 8 7h29c4 0 5 -2 4 -7l-52 -271c-13 -67 11 -125 96 -125c72 0 132 58 145 126l52 270c1 4 4 7 9 7h28c4 0 7 -2 6 -7l-82 -421c-1 -5 -4 -7 -8 -7h-28c-5 0 -6 2 -5 6l7 40c3 8 -2 10 -8 3c-34 -34 -83 -54 -129 -54c-112 0 -141 79 -124 164z
M392 561c-3 -16 -19 -30 -35 -30s-27 14 -24 30c4 17 19 30 35 30s27 -13 24 -30zM238 561c-3 -17 -19 -30 -34 -30c-16 0 -27 14 -24 30c3 17 19 30 35 30c15 0 26 -13 23 -30z" />
    <glyph glyph-name="yacute" unicode="&#xfd;" horiz-adv-x="369" 
d="M326 289l-245 -461c-3 -5 -7 -10 -16 -10h-22c-4 0 -7 2 -7 6c0 2 1 4 2 7l82 155c3 6 8 14 0 14h-3c-10 0 -11 1 -13 12l-61 412c0 6 1 10 7 10h23c8 0 11 -4 12 -9l56 -384c1 -5 5 -7 9 0l141 267c21 40 22 67 22 105c0 8 -2 21 10 21h20c12 0 12 -5 12 -12
c0 -54 -2 -82 -29 -133zM321 609l-111 -117c-4 -3 -9 -5 -14 -1l-7 6c-3 2 -5 6 0 13l91 125c5 6 10 9 19 3l20 -13c7 -5 7 -10 2 -16z" />
    <glyph glyph-name="ydieresis" unicode="&#xff;" horiz-adv-x="369" 
d="M326 289l-245 -461c-3 -5 -7 -10 -16 -10h-22c-4 0 -7 2 -7 6c0 2 1 4 2 7l82 155c3 6 8 14 0 14h-3c-10 0 -11 1 -13 12l-61 412c0 6 1 10 7 10h23c8 0 11 -4 12 -9l56 -384c1 -5 5 -7 9 0l141 267c21 40 22 67 22 105c0 8 -2 21 10 21h20c12 0 12 -5 12 -12
c0 -54 -2 -82 -29 -133zM324 561c-3 -16 -19 -30 -35 -30s-27 14 -24 30c4 17 19 30 35 30s27 -13 24 -30zM170 561c-3 -17 -19 -30 -34 -30c-16 0 -27 14 -24 30c3 17 19 30 35 30c15 0 26 -13 23 -30z" />
    <glyph glyph-name="Amacron" unicode="&#x100;" horiz-adv-x="441" 
d="M348 7l-15 145c0 4 -3 4 -5 4h-232c-2 0 -5 -1 -6 -4l-69 -145c-3 -5 -5 -7 -11 -7h-29c-9 0 -7 4 -5 10c96 198 194 402 291 600c2 4 5 7 9 7h45c6 0 8 -2 8 -7l62 -599c0 -5 0 -11 -8 -11h-26c-6 0 -8 0 -9 7zM116 193h208c4 0 6 0 6 6c-9 84 -16 168 -24 252
c-3 41 -7 80 -11 121c0 4 -2 3 -4 0c-22 -45 -42 -89 -63 -133c-39 -80 -77 -160 -115 -240c-2 -4 -2 -6 3 -6zM414 696c-1 -4 -4 -6 -8 -6h-181c-5 0 -7 1 -6 6l4 21c1 4 3 7 8 7h181c5 0 6 -3 6 -7z" />
    <glyph glyph-name="amacron" unicode="&#x101;" horiz-adv-x="414" 
d="M225 405c-30 0 -71 -5 -110 -23c-4 -2 -8 0 -9 4l-8 21c-2 5 1 7 6 10c40 17 88 24 124 24c123 0 164 -65 145 -164l-52 -271c-1 -5 -4 -6 -8 -6h-26c-5 0 -5 2 -5 5c5 29 7 36 7 39c0 2 0 5 -2 5c-1 0 -3 -1 -6 -4c-46 -42 -89 -50 -129 -50c-79 0 -124 49 -124 122
c0 97 72 170 173 170c49 0 96 -21 115 -51c1 -2 3 -2 4 -2c3 0 5 2 6 6l10 51c13 65 -15 114 -111 114zM201 254c-79 0 -133 -60 -133 -133c0 -52 27 -92 90 -92c85 0 147 63 147 135c0 51 -34 90 -104 90zM400 541c-1 -5 -4 -7 -8 -7h-221c-5 0 -7 2 -6 7l4 20c1 4 3 7 8 7
h222c4 0 6 -3 5 -7z" />
    <glyph glyph-name="Abreve" unicode="&#x102;" horiz-adv-x="441" 
d="M348 7l-15 145c0 4 -3 4 -5 4h-232c-2 0 -5 -1 -6 -4l-69 -145c-3 -5 -5 -7 -11 -7h-29c-9 0 -7 4 -5 10c96 198 194 402 291 600c2 4 5 7 9 7h45c6 0 8 -2 8 -7l62 -599c0 -5 0 -11 -8 -11h-26c-6 0 -8 0 -9 7zM116 193h208c4 0 6 0 6 6c-9 84 -16 168 -24 252
c-3 41 -7 80 -11 121c0 4 -2 3 -4 0c-22 -45 -42 -89 -63 -133c-39 -80 -77 -160 -115 -240c-2 -4 -2 -6 3 -6zM216 760c0 4 2 8 8 8h12c6 0 5 -3 5 -9c-1 -44 23 -74 69 -74c42 0 81 29 97 73c3 6 5 10 11 10h12c6 0 6 -5 5 -10c-15 -65 -68 -105 -129 -105
c-59 0 -101 42 -90 107z" />
    <glyph glyph-name="abreve" unicode="&#x103;" horiz-adv-x="414" 
d="M225 405c-30 0 -71 -5 -110 -23c-4 -2 -8 0 -9 4l-8 21c-2 5 1 7 6 10c40 17 88 24 124 24c123 0 164 -65 145 -164l-52 -271c-1 -5 -4 -6 -8 -6h-26c-5 0 -5 2 -5 5c5 29 7 36 7 39c0 2 0 5 -2 5c-1 0 -3 -1 -6 -4c-46 -42 -89 -50 -129 -50c-79 0 -124 49 -124 122
c0 97 72 170 173 170c49 0 96 -21 115 -51c1 -2 3 -2 4 -2c3 0 5 2 6 6l10 51c13 65 -15 114 -111 114zM201 254c-79 0 -133 -60 -133 -133c0 -52 27 -92 90 -92c85 0 147 63 147 135c0 51 -34 90 -104 90zM173 611c0 4 3 8 8 8h12c7 0 6 -3 6 -9c0 -44 27 -72 69 -72
c38 0 83 26 98 70c3 9 2 11 9 11h15c6 0 5 -5 4 -10c-15 -66 -70 -106 -132 -106c-55 0 -91 40 -89 108z" />
    <glyph glyph-name="Cacute" unicode="&#x106;" horiz-adv-x="416" 
d="M363 55c-45 -46 -99 -61 -157 -61c-115 0 -177 72 -157 170l58 297c18 90 73 164 187 164c55 0 113 -22 145 -67c4 -4 1 -8 -3 -12l-16 -13c-7 -5 -8 -3 -14 3c-24 29 -66 50 -112 50c-79 0 -130 -55 -144 -126c-20 -101 -40 -201 -59 -301c-11 -69 25 -129 114 -129
c48 0 94 19 128 53c6 5 8 8 14 2l17 -15c6 -5 5 -9 -1 -15zM451 733l-140 -74c-5 -3 -10 -4 -13 1l-6 9c-4 6 -2 8 5 13l127 90c6 4 11 5 16 -2l16 -22c4 -6 1 -12 -5 -15z" />
    <glyph glyph-name="cacute" unicode="&#x107;" horiz-adv-x="371" 
d="M244 440c57 0 106 -23 128 -63c3 -5 1 -9 -3 -13l-19 -13c-5 -4 -10 -2 -12 2c-18 33 -59 51 -99 51c-69 0 -124 -50 -138 -122l-26 -129c-13 -73 17 -123 100 -123c45 0 82 20 113 52c4 5 8 5 12 2l17 -13c7 -5 5 -9 1 -14c-38 -42 -88 -62 -148 -62
c-102 0 -154 63 -135 158l24 128c19 96 81 159 185 159zM355 609l-111 -117c-4 -3 -9 -5 -14 -1l-7 6c-3 2 -5 6 0 13l91 125c5 6 10 9 19 3l20 -13c7 -5 7 -10 2 -16z" />
    <glyph glyph-name="Ccircumflex" unicode="&#x108;" horiz-adv-x="416" 
d="M363 55c-45 -46 -99 -61 -157 -61c-115 0 -177 72 -157 170l58 297c18 90 73 164 187 164c55 0 113 -22 145 -67c4 -4 1 -8 -3 -12l-16 -13c-7 -5 -8 -3 -14 3c-24 29 -66 50 -112 50c-79 0 -130 -55 -144 -126c-20 -101 -40 -201 -59 -301c-11 -69 25 -129 114 -129
c48 0 94 19 128 53c6 5 8 8 14 2l17 -15c6 -5 5 -9 -1 -15zM430 663l-11 -7c-4 -2 -7 -2 -11 2l-73 72c-3 3 -7 2 -10 0l-112 -73c-6 -4 -9 -5 -13 -1l-9 10c-3 4 -2 6 2 9l112 90c7 6 13 8 22 8h18c10 0 14 -2 18 -8l69 -91c3 -4 3 -8 -2 -11z" />
    <glyph glyph-name="ccircumflex" unicode="&#x109;" horiz-adv-x="371" 
d="M244 440c57 0 106 -23 128 -63c3 -5 1 -9 -3 -13l-19 -13c-5 -4 -10 -2 -12 2c-18 33 -59 51 -99 51c-69 0 -124 -50 -138 -122l-26 -129c-13 -73 17 -123 100 -123c45 0 82 20 113 52c4 5 8 5 12 2l17 -13c7 -5 5 -9 1 -14c-38 -42 -88 -62 -148 -62
c-102 0 -154 63 -135 158l24 128c19 96 81 159 185 159zM310 632l69 -117c3 -5 3 -9 -3 -13l-7 -5c-6 -5 -9 -2 -12 1l-74 96c-3 4 -5 4 -10 0l-118 -96c-6 -4 -9 -6 -13 -2l-7 7c-4 5 -3 7 2 12l117 117c6 6 10 8 17 8h25c7 0 9 -2 14 -8z" />
    <glyph glyph-name="Cdotaccent" unicode="&#x10a;" horiz-adv-x="416" 
d="M363 55c-45 -46 -99 -61 -157 -61c-115 0 -177 72 -157 170l58 297c18 90 73 164 187 164c55 0 113 -22 145 -67c4 -4 1 -8 -3 -12l-16 -13c-7 -5 -8 -3 -14 3c-24 29 -66 50 -112 50c-79 0 -130 -55 -144 -126c-20 -101 -40 -201 -59 -301c-11 -69 25 -129 114 -129
c48 0 94 19 128 53c6 5 8 8 14 2l17 -15c6 -5 5 -9 -1 -15zM357 718c-3 -17 -18 -30 -34 -30s-27 14 -24 30c4 17 20 30 36 30c15 0 26 -13 22 -30z" />
    <glyph glyph-name="cdotaccent" unicode="&#x10b;" horiz-adv-x="371" 
d="M244 440c57 0 106 -23 128 -63c3 -5 1 -9 -3 -13l-19 -13c-5 -4 -10 -2 -12 2c-18 33 -59 51 -99 51c-69 0 -124 -50 -138 -122l-26 -129c-13 -73 17 -123 100 -123c45 0 82 20 113 52c4 5 8 5 12 2l17 -13c7 -5 5 -9 1 -14c-38 -42 -88 -62 -148 -62
c-102 0 -154 63 -135 158l24 128c19 96 81 159 185 159zM298 561c-3 -17 -18 -30 -34 -30s-27 14 -24 30c4 17 20 30 36 30c15 0 26 -13 22 -30z" />
    <glyph glyph-name="Ccaron" unicode="&#x10c;" horiz-adv-x="416" 
d="M363 55c-45 -46 -99 -61 -157 -61c-115 0 -177 72 -157 170l58 297c18 90 73 164 187 164c55 0 113 -22 145 -67c4 -4 1 -8 -3 -12l-16 -13c-7 -5 -8 -3 -14 3c-24 29 -66 50 -112 50c-79 0 -130 -55 -144 -126c-20 -101 -40 -201 -59 -301c-11 -69 25 -129 114 -129
c48 0 94 19 128 53c6 5 8 8 14 2l17 -15c6 -5 5 -9 -1 -15zM219 769l11 7c4 2 7 2 11 -2l73 -72c3 -3 7 -2 10 0l112 73c5 3 9 2 12 0l10 -9c4 -3 2 -6 -2 -9l-112 -90c-7 -6 -13 -8 -22 -8h-18c-10 0 -14 2 -18 8l-69 91c-3 4 -3 8 2 11z" />
    <glyph glyph-name="ccaron" unicode="&#x10d;" horiz-adv-x="371" 
d="M244 440c57 0 106 -23 128 -63c3 -5 1 -9 -3 -13l-19 -13c-5 -4 -10 -2 -12 2c-18 33 -59 51 -99 51c-69 0 -124 -50 -138 -122l-26 -129c-13 -73 17 -123 100 -123c45 0 82 20 113 52c4 5 8 5 12 2l17 -13c7 -5 5 -9 1 -14c-38 -42 -88 -62 -148 -62
c-102 0 -154 63 -135 158l24 128c19 96 81 159 185 159zM166 615c-4 5 -3 9 2 13l9 7c7 5 10 2 13 -1l73 -96c3 -4 6 -4 10 0l118 96c6 4 9 6 13 2l7 -7c5 -5 3 -7 -1 -12l-117 -117c-7 -6 -10 -8 -18 -8h-25c-6 0 -9 2 -13 8z" />
    <glyph glyph-name="Dcaron" unicode="&#x10e;" horiz-adv-x="471" 
d="M464 447l-52 -280c-21 -110 -82 -167 -192 -167h-191c-5 0 -6 3 -6 7l117 602c1 4 3 8 9 8h180c113 0 152 -74 135 -170zM367 162c16 88 33 175 50 263c15 75 12 154 -95 154h-137c-5 0 -8 -1 -9 -6l-102 -530c0 -4 0 -5 6 -5h140c75 0 131 42 147 124zM203 763l11 7
c4 2 7 2 11 -2l73 -72c3 -3 7 -2 10 0l112 73c5 3 9 2 12 0l10 -9c4 -3 2 -6 -2 -9l-112 -90c-7 -6 -13 -8 -22 -8h-18c-10 0 -14 2 -18 8l-69 91c-3 4 -3 8 2 11z" />
    <glyph glyph-name="dcaron" unicode="&#x10f;" horiz-adv-x="495" 
d="M577 625l-61 -138c-3 -6 -6 -8 -11 -8h-13c-6 0 -7 4 -5 11l35 139c2 5 6 9 11 9h38c8 0 11 -4 6 -13zM334 6c-1 -4 -4 -6 -9 -6h-27c-5 0 -6 2 -5 7l6 34c2 6 -1 9 -8 3c-32 -28 -68 -49 -124 -49c-97 0 -147 67 -129 156l24 126c15 80 67 163 186 163
c56 0 92 -25 108 -48c5 -8 9 -4 11 4l46 234c1 5 3 7 8 7h28c4 0 7 -2 6 -6zM320 151l25 128c14 68 -27 124 -100 124c-83 0 -129 -59 -142 -126l-25 -124c-14 -74 20 -123 98 -123c71 0 131 52 144 121z" />
    <glyph glyph-name="Emacron" unicode="&#x112;" horiz-adv-x="430" 
d="M379 31l-5 -24c-1 -4 -3 -7 -9 -7h-336c-5 0 -6 3 -6 7l117 602c1 4 3 8 9 8h301c5 0 6 -4 6 -8l-4 -23c-1 -5 -4 -7 -9 -7h-258c-5 0 -8 -1 -9 -6l-45 -230c0 -4 0 -6 6 -6h233c5 0 6 -3 6 -8l-5 -24c-1 -4 -3 -6 -8 -6h-233c-4 0 -7 -2 -8 -7l-48 -249c0 -4 1 -5 6 -5
h292c5 0 8 -2 7 -7zM405 688c-1 -4 -4 -6 -8 -6h-181c-5 0 -7 1 -6 6l4 21c1 4 3 7 8 7h181c5 0 6 -3 6 -7z" />
    <glyph glyph-name="emacron" unicode="&#x113;" horiz-adv-x="405" 
d="M177 -5c-93 0 -143 50 -143 122c0 10 1 20 3 31l22 119c23 124 101 173 204 173c74 0 126 -41 126 -108c0 -129 -141 -147 -293 -151c-8 0 -12 -2 -13 -9l-5 -27c-1 -8 -2 -17 -2 -24c0 -56 40 -92 109 -92c40 0 82 21 109 49c7 7 9 8 14 3l17 -15c2 -2 3 -4 3 -6
c0 -6 -8 -13 -12 -17c-35 -34 -81 -48 -139 -48zM255 404c-96 0 -139 -65 -152 -128l-9 -45v-3c0 -6 2 -10 13 -10c125 1 240 25 240 106c0 38 -22 80 -92 80zM408 541c-1 -5 -4 -7 -8 -7h-221c-5 0 -7 2 -6 7l4 20c1 4 3 7 8 7h222c4 0 6 -3 5 -7z" />
    <glyph glyph-name="Ebreve" unicode="&#x114;" horiz-adv-x="430" 
d="M379 31l-5 -24c-1 -4 -3 -7 -9 -7h-336c-5 0 -6 3 -6 7l117 602c1 4 3 8 9 8h301c5 0 6 -4 6 -8l-4 -23c-1 -5 -4 -7 -9 -7h-258c-5 0 -8 -1 -9 -6l-45 -230c0 -4 0 -6 6 -6h233c5 0 6 -3 6 -8l-5 -24c-1 -4 -3 -6 -8 -6h-233c-4 0 -7 -2 -8 -7l-48 -249c0 -4 1 -5 6 -5
h292c5 0 8 -2 7 -7zM220 761c0 4 2 8 8 8h12c6 0 5 -3 5 -9c-1 -44 23 -74 69 -74c42 0 81 29 97 73c3 6 5 10 11 10h12c6 0 6 -5 5 -10c-15 -65 -68 -105 -129 -105c-59 0 -101 42 -90 107z" />
    <glyph glyph-name="ebreve" unicode="&#x115;" horiz-adv-x="405" 
d="M177 -5c-93 0 -143 50 -143 122c0 10 1 20 3 31l22 119c23 124 101 173 204 173c74 0 126 -41 126 -108c0 -129 -141 -147 -293 -151c-8 0 -12 -2 -13 -9l-5 -27c-1 -8 -2 -17 -2 -24c0 -56 40 -92 109 -92c40 0 82 21 109 49c7 7 9 8 14 3l17 -15c2 -2 3 -4 3 -6
c0 -6 -8 -13 -12 -17c-35 -34 -81 -48 -139 -48zM255 404c-96 0 -139 -65 -152 -128l-9 -45v-3c0 -6 2 -10 13 -10c125 1 240 25 240 106c0 38 -22 80 -92 80zM180 611c0 4 3 8 8 8h12c7 0 6 -3 6 -9c0 -44 27 -72 69 -72c38 0 83 26 98 70c3 9 2 11 9 11h15c6 0 5 -5 4 -10
c-15 -66 -70 -106 -132 -106c-55 0 -91 40 -89 108z" />
    <glyph glyph-name="Edotaccent" unicode="&#x116;" horiz-adv-x="430" 
d="M379 31l-5 -24c-1 -4 -3 -7 -9 -7h-336c-5 0 -6 3 -6 7l117 602c1 4 3 8 9 8h301c5 0 6 -4 6 -8l-4 -23c-1 -5 -4 -7 -9 -7h-258c-5 0 -8 -1 -9 -6l-45 -230c0 -4 0 -6 6 -6h233c5 0 6 -3 6 -8l-5 -24c-1 -4 -3 -6 -8 -6h-233c-4 0 -7 -2 -8 -7l-48 -249c0 -4 1 -5 6 -5
h292c5 0 8 -2 7 -7zM335 711c-3 -17 -18 -30 -34 -30s-27 14 -24 30c4 17 20 30 36 30c15 0 26 -13 22 -30z" />
    <glyph glyph-name="edotaccent" unicode="&#x117;" horiz-adv-x="405" 
d="M177 -5c-93 0 -143 50 -143 122c0 10 1 20 3 31l22 119c23 124 101 173 204 173c74 0 126 -41 126 -108c0 -129 -141 -147 -293 -151c-8 0 -12 -2 -13 -9l-5 -27c-1 -8 -2 -17 -2 -24c0 -56 40 -92 109 -92c40 0 82 21 109 49c7 7 9 8 14 3l17 -15c2 -2 3 -4 3 -6
c0 -6 -8 -13 -12 -17c-35 -34 -81 -48 -139 -48zM255 404c-96 0 -139 -65 -152 -128l-9 -45v-3c0 -6 2 -10 13 -10c125 1 240 25 240 106c0 38 -22 80 -92 80zM308 561c-3 -17 -18 -30 -34 -30s-27 14 -24 30c4 17 20 30 36 30c15 0 26 -13 22 -30z" />
    <glyph glyph-name="Ecaron" unicode="&#x11a;" horiz-adv-x="430" 
d="M379 31l-5 -24c-1 -4 -3 -7 -9 -7h-336c-5 0 -6 3 -6 7l117 602c1 4 3 8 9 8h301c5 0 6 -4 6 -8l-4 -23c-1 -5 -4 -7 -9 -7h-258c-5 0 -8 -1 -9 -6l-45 -230c0 -4 0 -6 6 -6h233c5 0 6 -3 6 -8l-5 -24c-1 -4 -3 -6 -8 -6h-233c-4 0 -7 -2 -8 -7l-48 -249c0 -4 1 -5 6 -5
h292c5 0 8 -2 7 -7zM207 767l11 7c4 2 7 2 11 -2l73 -72c3 -3 7 -2 10 0l112 73c5 3 9 2 12 0l10 -9c4 -3 2 -6 -2 -9l-112 -90c-7 -6 -13 -8 -22 -8h-18c-10 0 -14 2 -18 8l-69 91c-3 4 -3 8 2 11z" />
    <glyph glyph-name="ecaron" unicode="&#x11b;" horiz-adv-x="405" 
d="M177 -5c-93 0 -143 50 -143 122c0 10 1 20 3 31l22 119c23 124 101 173 204 173c74 0 126 -41 126 -108c0 -129 -141 -147 -293 -151c-8 0 -12 -2 -13 -9l-5 -27c-1 -8 -2 -17 -2 -24c0 -56 40 -92 109 -92c40 0 82 21 109 49c7 7 9 8 14 3l17 -15c2 -2 3 -4 3 -6
c0 -6 -8 -13 -12 -17c-35 -34 -81 -48 -139 -48zM255 404c-96 0 -139 -65 -152 -128l-9 -45v-3c0 -6 2 -10 13 -10c125 1 240 25 240 106c0 38 -22 80 -92 80zM164 615c-4 5 -3 9 2 13l9 7c7 5 10 2 13 -1l73 -96c3 -4 6 -4 10 0l118 96c6 4 9 6 13 2l7 -7c5 -5 3 -7 -1 -12
l-117 -117c-7 -6 -10 -8 -18 -8h-25c-6 0 -9 2 -13 8z" />
    <glyph glyph-name="Gcircumflex" unicode="&#x11c;" horiz-adv-x="459" 
d="M297 625c57 0 116 -22 147 -67c3 -3 1 -8 -2 -10l-19 -15c-6 -4 -9 -2 -14 3c-23 29 -67 51 -113 51c-84 0 -133 -56 -147 -127l-59 -301c-14 -69 27 -128 115 -128c82 0 138 45 153 125l25 129c1 6 -3 7 -6 7h-87c-4 0 -7 1 -6 7l5 24c1 4 3 7 9 7h128c11 0 8 -6 7 -13
l-32 -162c-18 -94 -81 -161 -196 -161c-117 0 -175 73 -157 171l59 296c18 91 76 164 190 164zM431 667l-11 -7c-4 -2 -7 -2 -11 2l-73 72c-3 3 -7 2 -10 0l-112 -73c-6 -4 -9 -5 -13 -1l-9 10c-3 4 -2 6 2 9l112 90c7 6 13 8 22 8h18c10 0 14 -2 18 -8l69 -91
c3 -4 3 -8 -2 -11z" />
    <glyph glyph-name="gcircumflex" unicode="&#x11d;" horiz-adv-x="418" 
d="M275 -36l15 76c1 6 -2 10 -8 4c-28 -32 -71 -49 -122 -49c-92 0 -132 62 -132 129c0 12 1 23 3 35l24 124c17 89 79 156 181 156c59 0 93 -22 113 -50c2 -3 4 -4 5 -4c2 0 4 2 4 6l8 37c2 4 3 6 8 6h27c6 0 5 -7 4 -13l-87 -459c-19 -101 -65 -143 -163 -143
c-54 0 -98 15 -119 26c-5 2 -8 5 -5 11c2 6 8 15 12 22s7 7 13 4c27 -14 65 -26 96 -26c79 0 110 42 123 108zM314 155c8 43 16 86 25 128c2 8 2 16 2 24c0 57 -41 97 -105 97c-73 0 -126 -50 -140 -123l-25 -124c-2 -10 -3 -20 -3 -29c0 -54 32 -98 100 -98
c74 0 133 60 146 125zM311 632l69 -117c3 -5 3 -9 -3 -13l-7 -5c-6 -5 -9 -2 -12 1l-74 96c-3 4 -5 4 -10 0l-118 -96c-6 -4 -9 -6 -13 -2l-7 7c-4 5 -3 7 2 12l117 117c6 6 10 8 17 8h25c7 0 9 -2 14 -8z" />
    <glyph glyph-name="Gbreve" unicode="&#x11e;" horiz-adv-x="459" 
d="M297 625c57 0 116 -22 147 -67c3 -3 1 -8 -2 -10l-19 -15c-6 -4 -9 -2 -14 3c-23 29 -67 51 -113 51c-84 0 -133 -56 -147 -127l-59 -301c-14 -69 27 -128 115 -128c82 0 138 45 153 125l25 129c1 6 -3 7 -6 7h-87c-4 0 -7 1 -6 7l5 24c1 4 3 7 9 7h128c11 0 8 -6 7 -13
l-32 -162c-18 -94 -81 -161 -196 -161c-117 0 -175 73 -157 171l59 296c18 91 76 164 190 164zM228 765c0 4 2 8 8 8h12c6 0 5 -3 5 -9c-1 -44 23 -74 69 -74c42 0 81 29 97 73c3 6 5 10 11 10h12c6 0 6 -5 5 -10c-15 -65 -68 -105 -129 -105c-59 0 -101 42 -90 107z" />
    <glyph glyph-name="gbreve" unicode="&#x11f;" horiz-adv-x="418" 
d="M275 -36l15 76c1 6 -2 10 -8 4c-28 -32 -71 -49 -122 -49c-92 0 -132 62 -132 129c0 12 1 23 3 35l24 124c17 89 79 156 181 156c59 0 93 -22 113 -50c2 -3 4 -4 5 -4c2 0 4 2 4 6l8 37c2 4 3 6 8 6h27c6 0 5 -7 4 -13l-87 -459c-19 -101 -65 -143 -163 -143
c-54 0 -98 15 -119 26c-5 2 -8 5 -5 11c2 6 8 15 12 22s7 7 13 4c27 -14 65 -26 96 -26c79 0 110 42 123 108zM314 155c8 43 16 86 25 128c2 8 2 16 2 24c0 57 -41 97 -105 97c-73 0 -126 -50 -140 -123l-25 -124c-2 -10 -3 -20 -3 -29c0 -54 32 -98 100 -98
c74 0 133 60 146 125zM175 611c0 4 3 8 8 8h12c7 0 6 -3 6 -9c0 -44 27 -72 69 -72c38 0 83 26 98 70c3 9 2 11 9 11h15c6 0 5 -5 4 -10c-15 -66 -70 -106 -132 -106c-55 0 -91 40 -89 108z" />
    <glyph glyph-name="Gdotaccent" unicode="&#x120;" horiz-adv-x="459" 
d="M297 625c57 0 116 -22 147 -67c3 -3 1 -8 -2 -10l-19 -15c-6 -4 -9 -2 -14 3c-23 29 -67 51 -113 51c-84 0 -133 -56 -147 -127l-59 -301c-14 -69 27 -128 115 -128c82 0 138 45 153 125l25 129c1 6 -3 7 -6 7h-87c-4 0 -7 1 -6 7l5 24c1 4 3 7 9 7h128c11 0 8 -6 7 -13
l-32 -162c-18 -94 -81 -161 -196 -161c-117 0 -175 73 -157 171l59 296c18 91 76 164 190 164zM351 711c-3 -17 -18 -30 -34 -30s-27 14 -24 30c4 17 20 30 36 30c15 0 26 -13 22 -30z" />
    <glyph glyph-name="gdotaccent" unicode="&#x121;" horiz-adv-x="418" 
d="M275 -36l15 76c1 6 -2 10 -8 4c-28 -32 -71 -49 -122 -49c-92 0 -132 62 -132 129c0 12 1 23 3 35l24 124c17 89 79 156 181 156c59 0 93 -22 113 -50c2 -3 4 -4 5 -4c2 0 4 2 4 6l8 37c2 4 3 6 8 6h27c6 0 5 -7 4 -13l-87 -459c-19 -101 -65 -143 -163 -143
c-54 0 -98 15 -119 26c-5 2 -8 5 -5 11c2 6 8 15 12 22s7 7 13 4c27 -14 65 -26 96 -26c79 0 110 42 123 108zM314 155c8 43 16 86 25 128c2 8 2 16 2 24c0 57 -41 97 -105 97c-73 0 -126 -50 -140 -123l-25 -124c-2 -10 -3 -20 -3 -29c0 -54 32 -98 100 -98
c74 0 133 60 146 125zM308 561c-3 -17 -18 -30 -34 -30s-27 14 -24 30c4 17 20 30 36 30c15 0 26 -13 22 -30z" />
    <glyph glyph-name="Gcommaaccent" unicode="&#x122;" horiz-adv-x="459" 
d="M297 625c57 0 116 -22 147 -67c3 -3 1 -8 -2 -10l-19 -15c-6 -4 -9 -2 -14 3c-23 29 -67 51 -113 51c-84 0 -133 -56 -147 -127l-59 -301c-14 -69 27 -128 115 -128c82 0 138 45 153 125l25 129c1 6 -3 7 -6 7h-87c-4 0 -7 1 -6 7l5 24c1 4 3 7 9 7h128c11 0 8 -6 7 -13
l-32 -162c-18 -94 -81 -161 -196 -161c-117 0 -175 73 -157 171l59 296c18 91 76 164 190 164zM200 -58l-61 -138c-3 -6 -6 -8 -11 -8h-13c-6 0 -7 4 -5 11l35 139c2 5 6 9 11 9h38c8 0 11 -4 6 -13z" />
    <glyph glyph-name="gcommaaccent" unicode="&#x123;" horiz-adv-x="421" 
d="M275 -36l15 76c1 6 -2 10 -8 4c-28 -32 -71 -49 -122 -49c-92 0 -132 62 -132 129c0 12 1 23 3 35l24 124c17 89 79 156 181 156c59 0 93 -22 113 -50c2 -3 4 -4 5 -4c2 0 4 2 4 6l8 37c2 4 3 6 8 6h27c6 0 5 -7 4 -13l-87 -459c-19 -101 -65 -143 -163 -143
c-54 0 -98 15 -119 26c-5 2 -8 5 -5 11c2 6 8 15 12 22s7 7 13 4c27 -14 65 -26 96 -26c79 0 110 42 123 108zM314 155c8 43 16 86 25 128c2 8 2 16 2 24c0 57 -41 97 -105 97c-73 0 -126 -50 -140 -123l-25 -124c-2 -10 -3 -20 -3 -29c0 -54 32 -98 100 -98
c74 0 133 60 146 125zM228 506l61 138c3 6 5 8 10 8h14c4 0 6 -2 6 -5c0 -1 -1 -3 -2 -6l-34 -139c-2 -5 -6 -9 -12 -9h-38c-5 0 -8 2 -8 5c0 2 1 5 3 8z" />
    <glyph glyph-name="Hcircumflex" unicode="&#x124;" horiz-adv-x="500" 
d="M400 7c-1 -4 -3 -7 -8 -7h-28c-5 0 -8 2 -8 7l56 285c1 5 -1 7 -5 7h-278c-5 0 -7 -2 -8 -7l-56 -285c-1 -4 -3 -7 -8 -7h-28c-4 0 -8 2 -7 7l117 603c1 5 4 7 9 7h28c5 0 7 -3 6 -7l-52 -267c-1 -4 0 -6 6 -6h278c6 0 7 2 8 6l51 267c2 5 5 7 9 7h29c5 0 7 -3 6 -7z
M448 661l-11 -7c-4 -2 -7 -2 -11 2l-73 72c-3 3 -7 2 -10 0l-112 -73c-6 -4 -9 -5 -13 -1l-9 10c-3 4 -2 6 2 9l112 90c7 6 13 8 22 8h18c10 0 14 -2 18 -8l69 -91c3 -4 3 -8 -2 -11z" />
    <glyph glyph-name="hcircumflex" unicode="&#x125;" horiz-adv-x="428" 
d="M391 276l-52 -269c0 -5 -3 -7 -7 -7h-29c-4 0 -7 2 -6 6l53 271c14 70 -10 127 -96 127c-72 0 -132 -58 -146 -127l-52 -270c0 -5 -3 -7 -8 -7h-28c-4 0 -7 2 -6 6l122 624c1 5 4 7 8 7h28c5 0 6 -2 5 -6l-46 -241c-2 -8 1 -10 7 -3c37 37 83 53 129 53
c114 0 141 -75 124 -164zM273 652l-11 -7c-4 -2 -7 -2 -11 2l-73 72c-3 3 -7 2 -10 0l-112 -73c-6 -4 -9 -5 -13 -1l-9 10c-3 4 -2 6 2 9l112 90c7 6 13 8 22 8h18c10 0 14 -2 18 -8l69 -91c3 -4 3 -8 -2 -11z" />
    <glyph glyph-name="Itilde" unicode="&#x128;" horiz-adv-x="198" 
d="M198 611l-117 -604c-1 -5 -3 -7 -8 -7h-29c-4 0 -7 2 -6 6l118 604c1 5 4 7 8 7h29c5 0 6 -2 5 -6zM313 749c3 -2 3 -6 -1 -11c-26 -35 -59 -43 -83 -43c-42 0 -69 35 -105 35c-16 0 -33 -11 -45 -27c-3 -4 -8 -6 -12 -3l-13 9c-4 3 -2 7 1 11c22 29 48 43 76 43
c39 0 70 -35 102 -35c20 0 39 9 54 27c3 4 6 5 10 2z" />
    <glyph glyph-name="itilde" unicode="&#x129;" horiz-adv-x="204" 
d="M94 6c-1 -4 -3 -6 -8 -6h-29c-2 0 -5 1 -5 4v2l81 422c2 4 5 6 8 6h29c4 0 6 -1 6 -4v-2c-28 -141 -55 -282 -82 -422zM300 579c3 -2 3 -6 -1 -11c-26 -35 -59 -43 -83 -43c-42 0 -69 35 -105 35c-16 0 -33 -11 -45 -27c-3 -4 -8 -6 -12 -3l-13 9c-4 3 -2 7 1 11
c22 29 48 43 76 43c39 0 70 -35 102 -35c20 0 39 9 54 27c3 4 6 5 10 2z" />
    <glyph glyph-name="Imacron" unicode="&#x12a;" horiz-adv-x="198" 
d="M198 611l-117 -604c-1 -5 -3 -7 -8 -7h-29c-4 0 -7 2 -6 6l118 604c1 5 4 7 8 7h29c5 0 6 -2 5 -6zM286 688c-1 -4 -4 -6 -8 -6h-181c-5 0 -7 1 -6 6l4 21c1 4 3 7 8 7h181c5 0 6 -3 6 -7z" />
    <glyph glyph-name="imacron" unicode="&#x12b;" horiz-adv-x="192" 
d="M85 6c-1 -4 -3 -6 -8 -6h-29c-2 0 -5 1 -5 4v2l81 422c2 4 5 6 8 6h29c4 0 6 -1 6 -4v-2c-28 -141 -55 -282 -82 -422zM277 541c-1 -5 -4 -7 -8 -7h-221c-5 0 -7 2 -6 7l4 20c1 4 3 7 8 7h222c4 0 6 -3 5 -7z" />
    <glyph glyph-name="Ibreve" unicode="&#x12c;" horiz-adv-x="198" 
d="M198 611l-117 -604c-1 -5 -3 -7 -8 -7h-29c-4 0 -7 2 -6 6l118 604c1 5 4 7 8 7h29c5 0 6 -2 5 -6zM92 755c0 4 3 8 8 8h12c7 0 6 -3 6 -9c0 -44 27 -72 69 -72c38 0 83 26 98 70c3 9 2 11 9 11h15c6 0 5 -5 4 -10c-15 -66 -70 -106 -132 -106c-55 0 -91 40 -89 108z" />
    <glyph glyph-name="ibreve" unicode="&#x12d;" horiz-adv-x="189" 
d="M82 6c-1 -4 -3 -6 -8 -6h-29c-2 0 -5 1 -5 4v2l81 422c2 4 5 6 8 6h29c4 0 6 -1 6 -4v-2c-28 -141 -55 -282 -82 -422zM59 612c0 4 3 8 8 8h12c7 0 6 -3 6 -9c0 -44 27 -72 69 -72c38 0 83 26 98 70c3 9 2 11 9 11h15c6 0 5 -5 4 -10c-15 -66 -70 -106 -132 -106
c-55 0 -91 40 -89 108z" />
    <glyph glyph-name="Idotaccent" unicode="&#x130;" horiz-adv-x="198" 
d="M198 611l-117 -604c-1 -5 -3 -7 -8 -7h-29c-4 0 -7 2 -6 6l118 604c1 5 4 7 8 7h29c5 0 6 -2 5 -6zM228 717c-3 -17 -18 -30 -34 -30s-27 14 -24 30c4 17 20 30 36 30c15 0 26 -13 22 -30z" />
    <glyph glyph-name="dotlessi" unicode="&#x131;" horiz-adv-x="172" 
d="M65 6c-1 -4 -3 -6 -8 -6h-29c-2 0 -5 1 -5 4v2l81 422c2 4 5 6 8 6h29c4 0 6 -1 6 -4v-2c-28 -141 -55 -282 -82 -422z" />
    <glyph glyph-name="IJ" unicode="&#x132;" horiz-adv-x="424" 
d="M198 611l-117 -604c-1 -5 -3 -7 -8 -7h-29c-4 0 -7 2 -6 6l118 604c1 5 4 7 8 7h29c5 0 6 -2 5 -6zM115 -117l-2 23c-1 7 2 11 11 12c109 12 143 72 164 177l100 514c1 5 4 7 9 7h26c5 0 8 -2 7 -7l-99 -507c-23 -121 -56 -209 -204 -225c-6 -1 -11 0 -12 6z" />
    <glyph glyph-name="ij" unicode="&#x133;" horiz-adv-x="328" 
d="M45 -166l5 21c2 6 5 8 12 7c9 -3 29 -5 40 -5c54 0 71 34 82 91l93 480c1 4 4 7 8 7h29c4 0 6 -3 5 -7l-95 -489c-15 -80 -44 -121 -119 -121c-19 0 -46 3 -56 6c-5 2 -6 4 -4 10zM65 6c-1 -4 -3 -6 -8 -6h-29c-2 0 -5 1 -5 4v2l81 422c2 4 5 6 8 6h29c4 0 6 -1 6 -4v-2
c-28 -141 -55 -282 -82 -422zM183 561c-3 -17 -19 -30 -36 -30c-15 0 -25 11 -25 26v4c4 17 20 31 36 31c15 0 26 -10 26 -25c0 -2 -1 -4 -1 -6zM354 562c-3 -17 -19 -31 -35 -31s-28 13 -25 31c4 17 20 30 37 30c16 0 27 -13 23 -30z" />
    <glyph glyph-name="Jcircumflex" unicode="&#x134;" horiz-adv-x="238" 
d="M-84 -116l-2 23c-1 7 2 11 11 12c109 12 143 72 164 177l100 514c1 5 4 7 9 7h26c5 0 8 -2 7 -7l-99 -507c-23 -121 -56 -209 -204 -225c-6 -1 -11 0 -12 6zM331 654l-11 -7c-4 -2 -7 -2 -11 2l-73 72c-3 3 -7 2 -10 0l-112 -73c-6 -4 -9 -5 -13 -1l-9 10c-3 4 -2 6 2 9
l112 90c7 6 13 8 22 8h18c10 0 14 -2 18 -8l69 -91c3 -4 3 -8 -2 -11z" />
    <glyph glyph-name="jcircumflex" unicode="&#x135;" horiz-adv-x="215" 
d="M134 428c1 4 2 7 7 7h29c4 0 7 -2 6 -7l-93 -480c-17 -85 -55 -129 -130 -129c-20 0 -37 2 -49 6c-5 2 -6 4 -4 10l9 23c1 4 5 7 11 5c10 -3 20 -6 33 -6c61 0 78 41 89 99zM286 517c3 -5 3 -9 -3 -13l-9 -7c-6 -5 -9 -2 -12 1l-73 96c-3 4 -6 4 -11 0l-118 -96
c-5 -4 -9 -6 -12 -2l-8 7c-4 5 -2 7 2 12l117 117c6 6 10 8 17 8h25c7 0 9 -2 14 -8z" />
    <glyph glyph-name="Kcommaaccent" unicode="&#x136;" horiz-adv-x="470" 
d="M415 197l-22 -190c-1 -6 -3 -7 -8 -7h-26c-5 0 -6 2 -6 7l22 179c8 67 6 138 -105 138c-108 0 -158 -75 -170 -139l-35 -178c-1 -5 -3 -7 -7 -7h-30c-4 0 -7 2 -7 5v1l117 602c1 6 2 9 9 9h30c6 0 5 -5 5 -9l-56 -285c0 -7 4 -9 10 -3l311 290c6 5 9 6 16 6h31
c8 0 7 -5 3 -9l-259 -245c-8 -8 -6 -10 3 -9c12 3 36 5 52 5c113 -2 131 -82 122 -161zM239 -38l-61 -138c-3 -6 -6 -8 -11 -8h-13c-6 0 -7 4 -5 11l35 139c2 5 6 9 11 9h38c8 0 11 -4 6 -13z" />
    <glyph glyph-name="kcommaaccent" unicode="&#x137;" horiz-adv-x="406" 
d="M352 109l-15 -101c-1 -6 -3 -8 -10 -8h-25c-6 0 -8 2 -7 7l15 102c9 62 4 121 -94 121c-81 0 -129 -61 -140 -118l-21 -106c0 -4 -2 -6 -7 -6h-29c-4 0 -7 1 -7 6c41 208 81 416 121 624c2 5 5 7 9 7h28c5 0 6 -3 6 -7l-77 -399c-1 -6 1 -12 9 -4c81 68 163 135 245 202
c5 4 8 5 15 5h35c7 0 6 -6 2 -10c-62 -50 -123 -102 -185 -152c-4 -4 -7 -10 2 -9c15 1 22 1 32 0c94 -10 108 -88 98 -154zM201 -58l-61 -138c-3 -6 -6 -8 -11 -8h-13c-6 0 -7 4 -5 11l35 139c2 5 6 9 11 9h38c8 0 11 -4 6 -13z" />
    <glyph glyph-name="Lacute" unicode="&#x139;" horiz-adv-x="389" 
d="M352 32l-5 -24c-1 -5 -3 -8 -8 -8h-314c-5 0 -8 3 -7 8l116 602c1 5 4 7 9 7h28c6 0 7 -3 6 -7l-109 -566c-1 -5 1 -5 6 -5h271c5 0 8 -2 7 -7zM307 720l-140 -74c-5 -3 -10 -4 -13 1l-6 9c-4 6 -2 8 5 13l127 90c6 4 11 5 16 -2l16 -22c4 -6 1 -12 -5 -15z" />
    <glyph glyph-name="lacute" unicode="&#x13a;" horiz-adv-x="195" 
d="M47 90l104 540c1 4 2 7 7 7h28c4 0 6 -1 6 -5v-2l-106 -542c-6 -33 -4 -54 39 -54h10c5 0 7 -2 7 -5l-5 -27c-1 -5 -4 -7 -11 -7h-17c-72 0 -71 47 -62 95zM325 749l-140 -74c-5 -3 -10 -4 -13 1l-6 9c-4 6 -2 8 5 13l127 90c6 4 11 5 16 -2l16 -22c4 -6 1 -12 -5 -15z
" />
    <glyph glyph-name="Lcommaaccent" unicode="&#x13b;" horiz-adv-x="389" 
d="M352 32l-5 -24c-1 -5 -3 -8 -8 -8h-314c-5 0 -8 3 -7 8l116 602c1 5 4 7 9 7h28c6 0 7 -3 6 -7l-109 -566c-1 -5 1 -5 6 -5h271c5 0 8 -2 7 -7zM175 -58l-61 -138c-3 -6 -6 -8 -11 -8h-13c-6 0 -7 4 -5 11l35 139c2 5 6 9 11 9h38c8 0 11 -4 6 -13z" />
    <glyph glyph-name="lcommaaccent" unicode="&#x13c;" horiz-adv-x="195" 
d="M47 90l104 540c1 4 2 7 7 7h28c4 0 6 -1 6 -5v-2l-106 -542c-6 -33 -4 -54 39 -54h10c5 0 7 -2 7 -5l-5 -27c-1 -5 -4 -7 -11 -7h-17c-72 0 -71 47 -62 95zM81 -58l-61 -138c-3 -6 -6 -8 -11 -8h-13c-6 0 -7 4 -5 11l35 139c2 5 6 9 11 9h38c8 0 11 -4 6 -13z" />
    <glyph glyph-name="Lcaron" unicode="&#x13d;" horiz-adv-x="389" 
d="M352 32l-5 -24c-1 -5 -3 -8 -8 -8h-314c-5 0 -8 3 -7 8l116 602c1 5 4 7 9 7h28c6 0 7 -3 6 -7l-109 -566c-1 -5 1 -5 6 -5h271c5 0 8 -2 7 -7zM341 606l-61 -138c-3 -6 -6 -8 -11 -8h-13c-6 0 -7 4 -5 11l35 139c2 5 6 9 11 9h38c8 0 11 -4 6 -13z" />
    <glyph glyph-name="lcaron" unicode="&#x13e;" horiz-adv-x="257" 
d="M48 90l104 540c1 4 2 7 7 7h28c4 0 6 -1 6 -5v-2l-106 -542c-6 -33 -4 -54 39 -54h10c5 0 7 -2 7 -5l-5 -27c-1 -5 -4 -7 -11 -7h-17c-72 0 -71 47 -62 95zM327 624l-61 -138c-3 -6 -6 -8 -11 -8h-13c-6 0 -7 4 -5 11l35 139c2 5 6 9 11 9h38c8 0 11 -4 6 -13z" />
    <glyph glyph-name="Ldot" unicode="&#x13f;" horiz-adv-x="389" 
d="M352 32l-5 -24c-1 -5 -3 -8 -8 -8h-314c-5 0 -8 3 -7 8l116 602c1 5 4 7 9 7h28c6 0 7 -3 6 -7l-109 -566c-1 -5 1 -5 6 -5h271c5 0 8 -2 7 -7zM298 321c-3 -17 -18 -30 -34 -30s-27 14 -24 30c4 17 20 30 36 30c15 0 26 -13 22 -30z" />
    <glyph glyph-name="ldot" unicode="&#x140;" horiz-adv-x="257" 
d="M48 90l104 540c1 4 2 7 7 7h28c4 0 6 -1 6 -5v-2l-106 -542c-6 -33 -4 -54 39 -54h10c5 0 7 -2 7 -5l-5 -27c-1 -5 -4 -7 -11 -7h-17c-72 0 -71 47 -62 95zM254 353c-3 -17 -18 -30 -34 -30s-27 14 -24 30c4 17 20 30 36 30c15 0 26 -13 22 -30z" />
    <glyph glyph-name="Nacute" unicode="&#x143;" horiz-adv-x="499" 
d="M149 617h23c8 0 11 -4 13 -9l185 -525c1 -3 3 -3 4 0l102 526c2 5 4 8 9 8h28c5 0 7 -3 6 -7l-116 -598c-2 -9 -8 -12 -14 -12h-22c-9 0 -12 3 -14 8c-16 45 -171 479 -186 523c-1 3 -3 2 -4 0l-101 -523c-1 -5 -3 -8 -9 -8h-27c-5 0 -7 3 -6 8l116 596c1 8 4 13 13 13z
M451 720l-140 -74c-5 -3 -10 -4 -13 1l-6 9c-4 6 -2 8 5 13l127 90c6 4 11 5 16 -2l16 -22c4 -6 1 -12 -5 -15z" />
    <glyph glyph-name="nacute" unicode="&#x144;" horiz-adv-x="427" 
d="M391 276l-52 -269c0 -5 -3 -7 -7 -7h-29c-4 0 -7 2 -6 6l53 271c13 68 -11 127 -96 127c-72 0 -132 -58 -146 -127l-52 -270c0 -5 -3 -7 -8 -7h-28c-4 0 -7 2 -6 6l82 422c1 5 4 7 8 7h28c5 0 6 -2 5 -7l-8 -39c-2 -9 2 -11 10 -4c33 36 82 55 128 55
c112 0 141 -79 124 -164zM361 609l-111 -117c-4 -3 -9 -5 -14 -1l-7 6c-3 2 -5 6 0 13l91 125c5 6 10 9 19 3l20 -13c7 -5 7 -10 2 -16z" />
    <glyph glyph-name="Ncommaaccent" unicode="&#x145;" horiz-adv-x="499" 
d="M149 617h23c8 0 11 -4 13 -9l185 -525c1 -3 3 -3 4 0l102 526c2 5 4 8 9 8h28c5 0 7 -3 6 -7l-116 -598c-2 -9 -8 -12 -14 -12h-22c-9 0 -12 3 -14 8c-16 45 -171 479 -186 523c-1 3 -3 2 -4 0l-101 -523c-1 -5 -3 -8 -9 -8h-27c-5 0 -7 3 -6 8l116 596c1 8 4 13 13 13z
M216 -38l-61 -138c-3 -6 -6 -8 -11 -8h-13c-6 0 -7 4 -5 11l35 139c2 5 6 9 11 9h38c8 0 11 -4 6 -13z" />
    <glyph glyph-name="ncommaaccent" unicode="&#x146;" horiz-adv-x="427" 
d="M391 276l-52 -269c0 -5 -3 -7 -7 -7h-29c-4 0 -7 2 -6 6l53 271c13 68 -11 127 -96 127c-72 0 -132 -58 -146 -127l-52 -270c0 -5 -3 -7 -8 -7h-28c-4 0 -7 2 -6 6l82 422c1 5 4 7 8 7h28c5 0 6 -2 5 -7l-8 -39c-2 -9 2 -11 10 -4c33 36 82 55 128 55
c112 0 141 -79 124 -164zM190 -58l-61 -138c-3 -6 -6 -8 -11 -8h-13c-6 0 -7 4 -5 11l35 139c2 5 6 9 11 9h38c8 0 11 -4 6 -13z" />
    <glyph glyph-name="Ncaron" unicode="&#x147;" horiz-adv-x="499" 
d="M149 617h23c8 0 11 -4 13 -9l185 -525c1 -3 3 -3 4 0l102 526c2 5 4 8 9 8h28c5 0 7 -3 6 -7l-116 -598c-2 -9 -8 -12 -14 -12h-22c-9 0 -12 3 -14 8c-16 45 -171 479 -186 523c-1 3 -3 2 -4 0l-101 -523c-1 -5 -3 -8 -9 -8h-27c-5 0 -7 3 -6 8l116 596c1 8 4 13 13 13z
M240 757l11 7c4 2 7 2 11 -2l73 -72c3 -3 7 -2 10 0l112 73c5 3 9 2 12 0l10 -9c4 -3 2 -6 -2 -9l-112 -90c-7 -6 -13 -8 -22 -8h-18c-10 0 -14 2 -18 8l-69 91c-3 4 -3 8 2 11z" />
    <glyph glyph-name="ncaron" unicode="&#x148;" horiz-adv-x="427" 
d="M391 276l-52 -269c0 -5 -3 -7 -7 -7h-29c-4 0 -7 2 -6 6l53 271c13 68 -11 127 -96 127c-72 0 -132 -58 -146 -127l-52 -270c0 -5 -3 -7 -8 -7h-28c-4 0 -7 2 -6 6l82 422c1 5 4 7 8 7h28c5 0 6 -2 5 -7l-8 -39c-2 -9 2 -11 10 -4c33 36 82 55 128 55
c112 0 141 -79 124 -164zM153 615c-4 5 -3 9 2 13l9 7c7 5 10 2 13 -1l73 -96c3 -4 6 -4 10 0l118 96c6 4 9 6 13 2l7 -7c5 -5 3 -7 -1 -12l-117 -117c-7 -6 -10 -8 -18 -8h-25c-6 0 -9 2 -13 8z" />
    <glyph glyph-name="napostrophe" unicode="&#x149;" horiz-adv-x="471" 
d="M435 276l-52 -269c0 -5 -3 -7 -7 -7h-29c-4 0 -7 2 -6 6l53 271c13 68 -11 127 -96 127c-72 0 -132 -58 -146 -127l-52 -270c0 -5 -3 -7 -8 -7h-28c-4 0 -7 2 -6 6l82 422c1 5 4 7 8 7h28c5 0 6 -2 5 -7l-8 -39c-2 -9 2 -11 10 -4c33 36 82 55 128 55
c112 0 141 -79 124 -164zM152 601l-61 -138c-3 -6 -6 -8 -11 -8h-13c-6 0 -7 4 -5 11l35 139c2 5 6 9 11 9h38c8 0 11 -4 6 -13z" />
    <glyph glyph-name="Omacron" unicode="&#x14c;" horiz-adv-x="474" 
d="M462 450l-55 -290c-18 -96 -72 -167 -198 -167c-123 0 -176 87 -157 183l53 282c19 95 87 166 197 166c112 0 180 -73 160 -174zM419 452c13 69 -24 133 -120 133c-88 0 -138 -59 -151 -129l-54 -279c-13 -73 14 -146 118 -146c93 0 139 56 153 131zM415 688
c-1 -4 -4 -6 -8 -6h-181c-5 0 -7 1 -6 6l4 21c1 4 3 7 8 7h181c5 0 6 -3 6 -7z" />
    <glyph glyph-name="omacron" unicode="&#x14d;" horiz-adv-x="421" 
d="M364 156c-20 -102 -79 -161 -183 -161c-106 0 -160 69 -141 165l22 122c19 93 79 158 180 158c98 0 161 -69 142 -167zM322 156l20 116c14 71 -23 130 -102 132c-74 2 -123 -52 -137 -123l-23 -126c-14 -76 29 -125 103 -125c73 0 123 47 139 126zM382 541
c-1 -5 -4 -7 -8 -7h-221c-5 0 -7 2 -6 7l4 20c1 4 3 7 8 7h222c4 0 6 -3 5 -7z" />
    <glyph glyph-name="Obreve" unicode="&#x14e;" horiz-adv-x="474" 
d="M462 450l-55 -290c-18 -96 -72 -167 -198 -167c-123 0 -176 87 -157 183l53 282c19 95 87 166 197 166c112 0 180 -73 160 -174zM419 452c13 69 -24 133 -120 133c-88 0 -138 -59 -151 -129l-54 -279c-13 -73 14 -146 118 -146c93 0 139 56 153 131zM244 759c0 4 2 8 8 8
h12c6 0 5 -3 5 -9c-1 -44 23 -74 69 -74c42 0 81 29 97 73c3 6 5 10 11 10h12c6 0 6 -5 5 -10c-15 -65 -68 -105 -129 -105c-59 0 -101 42 -90 107z" />
    <glyph glyph-name="obreve" unicode="&#x14f;" horiz-adv-x="421" 
d="M364 156c-20 -102 -79 -161 -183 -161c-106 0 -160 69 -141 165l22 122c19 93 79 158 180 158c98 0 161 -69 142 -167zM322 156l20 116c14 71 -23 130 -102 132c-74 2 -123 -52 -137 -123l-23 -126c-14 -76 29 -125 103 -125c73 0 123 47 139 126zM188 611c0 4 3 8 8 8
h12c7 0 6 -3 6 -9c0 -44 27 -72 69 -72c38 0 83 26 98 70c3 9 2 11 9 11h15c6 0 5 -5 4 -10c-15 -66 -70 -106 -132 -106c-55 0 -91 40 -89 108z" />
    <glyph glyph-name="Ohungarumlaut" unicode="&#x150;" horiz-adv-x="474" 
d="M462 450l-55 -290c-18 -96 -72 -167 -198 -167c-123 0 -176 87 -157 183l53 282c19 95 87 166 197 166c112 0 180 -73 160 -174zM419 452c13 69 -24 133 -120 133c-88 0 -138 -59 -151 -129l-54 -279c-13 -73 14 -146 118 -146c93 0 139 56 153 131zM399 729l-140 -74
c-5 -3 -10 -4 -13 1l-6 9c-4 6 -2 8 5 13l127 90c6 4 11 5 16 -2l16 -22c4 -6 1 -12 -5 -15zM522 732l-140 -74c-5 -3 -10 -4 -13 1l-6 9c-4 6 -2 8 5 13l127 90c6 4 11 5 16 -2l16 -22c4 -6 1 -12 -5 -15z" />
    <glyph glyph-name="ohungarumlaut" unicode="&#x151;" horiz-adv-x="421" 
d="M364 156c-20 -102 -79 -161 -183 -161c-106 0 -160 69 -141 165l22 122c19 93 79 158 180 158c98 0 161 -69 142 -167zM322 156l20 116c14 71 -23 130 -102 132c-74 2 -123 -52 -137 -123l-23 -126c-14 -76 29 -125 103 -125c73 0 123 47 139 126zM331 609l-111 -117
c-4 -3 -9 -5 -14 -1l-7 6c-3 2 -5 6 0 13l91 125c5 6 10 9 19 3l20 -13c7 -5 7 -10 2 -16zM444 609l-111 -117c-4 -3 -9 -5 -14 -1l-7 6c-3 2 -5 6 0 13l91 125c5 6 10 9 19 3l20 -13c7 -5 7 -10 2 -16z" />
    <glyph glyph-name="Racute" unicode="&#x154;" horiz-adv-x="465" 
d="M150 616h174c102 0 149 -52 149 -132c0 -108 -63 -171 -134 -206c-3 -1 -5 -3 -3 -10l72 -257c2 -7 1 -11 -8 -11h-24c-9 0 -12 3 -14 10c-20 82 -45 167 -68 249c-2 8 -4 11 -14 11h-156c-5 0 -8 -2 -9 -7c-16 -86 -34 -171 -50 -256c0 -5 -2 -7 -8 -7h-28
c-4 0 -8 1 -8 6l117 602c1 4 5 8 12 8zM313 579h-127c-8 0 -11 -4 -12 -8l-49 -256c0 -4 1 -7 6 -7h168c11 0 18 3 22 5c72 32 109 100 109 163c0 52 -25 103 -117 103zM425 733l-140 -74c-5 -3 -10 -4 -13 1l-6 9c-4 6 -2 8 5 13l127 90c6 4 11 5 16 -2l16 -22
c4 -6 1 -12 -5 -15z" />
    <glyph glyph-name="racute" unicode="&#x155;" horiz-adv-x="259" 
d="M108 435h25c5 0 5 -3 5 -7l-10 -49c-1 -8 1 -9 8 -2c34 40 87 70 152 62c6 -1 7 -4 4 -10l-11 -29c-3 -6 -8 -6 -12 -6c-88 3 -143 -44 -159 -125l-51 -262c-1 -5 -2 -7 -7 -7h-28c-4 0 -8 2 -7 6l82 422c1 5 5 7 9 7zM303 609l-111 -117c-4 -3 -9 -5 -14 -1l-7 6
c-3 2 -5 6 0 13l91 125c5 6 10 9 19 3l20 -13c7 -5 7 -10 2 -16z" />
    <glyph glyph-name="Rcaron" unicode="&#x158;" horiz-adv-x="465" 
d="M150 616h174c102 0 149 -52 149 -132c0 -108 -63 -171 -134 -206c-3 -1 -5 -3 -3 -10l72 -257c2 -7 1 -11 -8 -11h-24c-9 0 -12 3 -14 10c-20 82 -45 167 -68 249c-2 8 -4 11 -14 11h-156c-5 0 -8 -2 -9 -7c-16 -86 -34 -171 -50 -256c0 -5 -2 -7 -8 -7h-28
c-4 0 -8 1 -8 6l117 602c1 4 5 8 12 8zM313 579h-127c-8 0 -11 -4 -12 -8l-49 -256c0 -4 1 -7 6 -7h168c11 0 18 3 22 5c72 32 109 100 109 163c0 52 -25 103 -117 103zM199 766l11 7c4 2 7 2 11 -2l73 -72c3 -3 7 -2 10 0l112 73c5 3 9 2 12 0l10 -9c4 -3 2 -6 -2 -9
l-112 -90c-7 -6 -13 -8 -22 -8h-18c-10 0 -14 2 -18 8l-69 91c-3 4 -3 8 2 11z" />
    <glyph glyph-name="rcaron" unicode="&#x159;" horiz-adv-x="259" 
d="M108 435h25c5 0 5 -3 5 -7l-10 -49c-1 -8 1 -9 8 -2c34 40 87 70 152 62c6 -1 7 -4 4 -10l-11 -29c-3 -6 -8 -6 -12 -6c-88 3 -143 -44 -159 -125l-51 -262c-1 -5 -2 -7 -7 -7h-28c-4 0 -8 2 -7 6l82 422c1 5 5 7 9 7zM80 615c-4 5 -3 9 2 13l9 7c7 5 10 2 13 -1l73 -96
c3 -4 6 -4 10 0l118 96c6 4 9 6 13 2l7 -7c5 -5 3 -7 -1 -12l-117 -117c-7 -6 -10 -8 -18 -8h-25c-6 0 -9 2 -13 8z" />
    <glyph glyph-name="Sacute" unicode="&#x15a;" horiz-adv-x="427" 
d="M347 177c0 67 -52 98 -111 124c-64 30 -153 65 -153 154c0 120 105 169 196 169c57 0 112 -15 147 -48c3 -3 3 -7 -1 -12c-3 -4 -11 -15 -14 -18c-4 -5 -8 -5 -13 0c-37 31 -83 40 -119 40c-62 0 -152 -32 -152 -127c0 -61 67 -93 121 -116c77 -34 145 -78 145 -160
c0 -131 -104 -189 -224 -189c-59 0 -128 20 -160 58c-4 5 -2 7 2 12l14 16c5 5 8 5 14 0c24 -26 83 -48 136 -48c91 0 172 50 172 145zM408 735l-140 -74c-5 -3 -10 -4 -13 1l-6 9c-4 6 -2 8 5 13l127 90c6 4 11 5 16 -2l16 -22c4 -6 1 -12 -5 -15z" />
    <glyph glyph-name="sacute" unicode="&#x15b;" horiz-adv-x="340" 
d="M144 -6c-63 0 -115 25 -137 80c-1 3 -1 7 4 9l23 10c5 3 8 0 9 -3c14 -36 54 -61 102 -61c60 0 111 29 111 89c0 45 -43 67 -84 84c-52 21 -121 45 -121 118c0 81 70 120 142 120c58 0 103 -19 131 -53c3 -3 1 -8 -2 -11l-17 -16c-4 -3 -10 -3 -13 2
c-20 25 -63 43 -101 43c-46 0 -97 -26 -97 -81c0 -48 52 -67 89 -82c55 -23 117 -55 117 -119c0 -87 -73 -129 -156 -129zM309 612l-111 -117c-4 -3 -9 -5 -14 -1l-7 6c-3 2 -5 6 0 13l91 125c5 6 10 9 19 3l20 -13c7 -5 7 -10 2 -16z" />
    <glyph glyph-name="Scircumflex" unicode="&#x15c;" horiz-adv-x="427" 
d="M347 177c0 67 -52 98 -111 124c-64 30 -153 65 -153 154c0 120 105 169 196 169c57 0 112 -15 147 -48c3 -3 3 -7 -1 -12c-3 -4 -11 -15 -14 -18c-4 -5 -8 -5 -13 0c-37 31 -83 40 -119 40c-62 0 -152 -32 -152 -127c0 -61 67 -93 121 -116c77 -34 145 -78 145 -160
c0 -131 -104 -189 -224 -189c-59 0 -128 20 -160 58c-4 5 -2 7 2 12l14 16c5 5 8 5 14 0c24 -26 83 -48 136 -48c91 0 172 50 172 145zM401 664l-11 -7c-4 -2 -7 -2 -11 2l-73 72c-3 3 -7 2 -10 0l-112 -73c-6 -4 -9 -5 -13 -1l-9 10c-3 4 -2 6 2 9l112 90c7 6 13 8 22 8h18
c10 0 14 -2 18 -8l69 -91c3 -4 3 -8 -2 -11z" />
    <glyph glyph-name="scircumflex" unicode="&#x15d;" horiz-adv-x="340" 
d="M144 -6c-63 0 -115 25 -137 80c-1 3 -1 7 4 9l23 10c5 3 8 0 9 -3c14 -36 54 -61 102 -61c60 0 111 29 111 89c0 45 -43 67 -84 84c-52 21 -121 45 -121 118c0 81 70 120 142 120c58 0 103 -19 131 -53c3 -3 1 -8 -2 -11l-17 -16c-4 -3 -10 -3 -13 2
c-20 25 -63 43 -101 43c-46 0 -97 -26 -97 -81c0 -48 52 -67 89 -82c55 -23 117 -55 117 -119c0 -87 -73 -129 -156 -129zM268 632l69 -117c3 -5 3 -9 -3 -13l-7 -5c-6 -5 -9 -2 -12 1l-74 96c-3 4 -5 4 -10 0l-118 -96c-6 -4 -9 -6 -13 -2l-7 7c-4 5 -3 7 2 12l117 117
c6 6 10 8 17 8h25c7 0 9 -2 14 -8z" />
    <glyph glyph-name="Tcommaaccent" unicode="&#x162;" horiz-adv-x="400" 
d="M461 586c0 -5 -4 -7 -9 -7h-152c-5 0 -8 0 -9 -6l-110 -566c-1 -4 -2 -7 -8 -7h-27c-5 0 -9 2 -8 7l110 566c1 5 -1 6 -6 6h-151c-5 0 -7 1 -6 7l4 23c2 5 4 8 9 8h362c5 0 7 -3 6 -7zM177 -58l-61 -138c-3 -6 -6 -8 -11 -8h-13c-6 0 -7 4 -5 11l35 139c2 5 6 9 11 9h38
c8 0 11 -4 6 -13z" />
    <glyph glyph-name="tcommaaccent" unicode="&#x163;" horiz-adv-x="278" 
d="M147 -6c-82 0 -92 53 -79 120l53 276c2 6 1 9 -6 9h-54c-5 0 -7 3 -6 7l5 22c0 5 4 7 7 7h56c6 0 8 3 9 8l20 102c0 4 3 7 8 8l29 7c6 1 7 -3 6 -7l-21 -110c-2 -5 -1 -8 4 -8h112c4 0 5 -2 5 -7l-5 -22c-1 -4 -3 -7 -8 -7h-109c-5 0 -9 -3 -10 -9l-52 -269
c-12 -62 -3 -89 50 -89c18 0 49 5 65 9c8 2 10 -2 9 -7v-20c0 -7 -1 -8 -7 -10c-20 -8 -59 -10 -81 -10zM119 -58l-61 -138c-3 -6 -6 -8 -11 -8h-13c-6 0 -7 4 -5 11l35 139c2 5 6 9 11 9h38c8 0 11 -4 6 -13z" />
    <glyph glyph-name="Tcaron" unicode="&#x164;" horiz-adv-x="400" 
d="M461 586c0 -5 -4 -7 -9 -7h-152c-5 0 -8 0 -9 -6l-110 -566c-1 -4 -2 -7 -8 -7h-27c-5 0 -9 2 -8 7l110 566c1 5 -1 6 -6 6h-151c-5 0 -7 1 -6 7l4 23c2 5 4 8 9 8h362c5 0 7 -3 6 -7zM185 767l11 7c4 2 7 2 11 -2l73 -72c3 -3 7 -2 10 0l112 73c5 3 9 2 12 0l10 -9
c4 -3 2 -6 -2 -9l-112 -90c-7 -6 -13 -8 -22 -8h-18c-10 0 -14 2 -18 8l-69 91c-3 4 -3 8 2 11z" />
    <glyph glyph-name="tcaron" unicode="&#x165;" horiz-adv-x="302" 
d="M360 644l-61 -138c-3 -6 -6 -8 -11 -8h-13c-6 0 -7 4 -5 11l35 139c2 5 6 9 11 9h38c8 0 11 -4 6 -13zM147 -6c-82 0 -92 53 -79 120l53 276c2 6 1 9 -6 9h-54c-5 0 -7 3 -6 7l5 22c0 5 4 7 7 7h56c6 0 8 3 9 8l20 102c0 4 3 7 8 8l29 7c6 1 7 -3 6 -7l-21 -110
c-2 -5 -1 -8 4 -8h112c4 0 5 -2 5 -7l-5 -22c-1 -4 -3 -7 -8 -7h-109c-5 0 -9 -3 -10 -9l-52 -269c-12 -62 -3 -89 50 -89c18 0 49 5 65 9c8 2 10 -2 9 -7v-20c0 -7 -1 -8 -7 -10c-20 -8 -59 -10 -81 -10z" />
    <glyph glyph-name="Utilde" unicode="&#x168;" horiz-adv-x="480" 
d="M409 159c-19 -96 -80 -166 -200 -166s-177 84 -157 184l84 433c1 5 4 7 9 7h29c4 0 6 -3 5 -7l-85 -437c-14 -72 16 -142 118 -142c93 0 140 58 154 130c29 145 72 367 88 449c1 5 4 7 9 7h28c5 0 7 -3 6 -7zM456 729c3 -2 3 -6 -1 -11c-26 -35 -59 -43 -83 -43
c-42 0 -69 35 -105 35c-16 0 -33 -11 -45 -27c-3 -4 -8 -6 -12 -3l-13 9c-4 3 -2 7 1 11c22 29 48 43 76 43c39 0 70 -35 102 -35c20 0 39 9 54 27c3 4 6 5 10 2z" />
    <glyph glyph-name="utilde" unicode="&#x169;" horiz-adv-x="426" 
d="M42 159l52 269c1 4 3 7 8 7h29c4 0 5 -2 4 -7l-52 -271c-13 -67 11 -125 96 -125c72 0 132 58 145 126l52 270c1 4 4 7 9 7h28c4 0 7 -2 6 -7l-82 -421c-1 -5 -4 -7 -8 -7h-28c-5 0 -6 2 -5 6l7 40c3 8 -2 10 -8 3c-34 -34 -83 -54 -129 -54c-112 0 -141 79 -124 164z
M404 579c3 -2 3 -6 -1 -11c-26 -35 -59 -43 -83 -43c-42 0 -69 35 -105 35c-16 0 -33 -11 -45 -27c-3 -4 -8 -6 -12 -3l-13 9c-4 3 -2 7 1 11c22 29 48 43 76 43c39 0 70 -35 102 -35c20 0 39 9 54 27c3 4 6 5 10 2z" />
    <glyph glyph-name="Umacron" unicode="&#x16a;" horiz-adv-x="480" 
d="M409 159c-19 -96 -80 -166 -200 -166s-177 84 -157 184l84 433c1 5 4 7 9 7h29c4 0 6 -3 5 -7l-85 -437c-14 -72 16 -142 118 -142c93 0 140 58 154 130c29 145 72 367 88 449c1 5 4 7 9 7h28c5 0 7 -3 6 -7zM420 688c-1 -4 -4 -6 -8 -6h-181c-5 0 -7 1 -6 6l4 21
c1 4 3 7 8 7h181c5 0 6 -3 6 -7z" />
    <glyph glyph-name="umacron" unicode="&#x16b;" horiz-adv-x="426" 
d="M42 159l52 269c1 4 3 7 8 7h29c4 0 5 -2 4 -7l-52 -271c-13 -67 11 -125 96 -125c72 0 132 58 145 126l52 270c1 4 4 7 9 7h28c4 0 7 -2 6 -7l-82 -421c-1 -5 -4 -7 -8 -7h-28c-5 0 -6 2 -5 6l7 40c3 8 -2 10 -8 3c-34 -34 -83 -54 -129 -54c-112 0 -141 79 -124 164z
M399 541c-1 -5 -4 -7 -8 -7h-221c-5 0 -7 2 -6 7l4 20c1 4 3 7 8 7h222c4 0 6 -3 5 -7z" />
    <glyph glyph-name="Ubreve" unicode="&#x16c;" horiz-adv-x="480" 
d="M409 159c-19 -96 -80 -166 -200 -166s-177 84 -157 184l84 433c1 5 4 7 9 7h29c4 0 6 -3 5 -7l-85 -437c-14 -72 16 -142 118 -142c93 0 140 58 154 130c29 145 72 367 88 449c1 5 4 7 9 7h28c5 0 7 -3 6 -7zM220 761c0 4 3 8 8 8h12c7 0 6 -3 6 -9c0 -44 27 -72 69 -72
c38 0 83 26 98 70c3 9 2 11 9 11h15c6 0 5 -5 4 -10c-15 -66 -70 -106 -132 -106c-55 0 -91 40 -89 108z" />
    <glyph glyph-name="ubreve" unicode="&#x16d;" horiz-adv-x="426" 
d="M42 159l52 269c1 4 3 7 8 7h29c4 0 5 -2 4 -7l-52 -271c-13 -67 11 -125 96 -125c72 0 132 58 145 126l52 270c1 4 4 7 9 7h28c4 0 7 -2 6 -7l-82 -421c-1 -5 -4 -7 -8 -7h-28c-5 0 -6 2 -5 6l7 40c3 8 -2 10 -8 3c-34 -34 -83 -54 -129 -54c-112 0 -141 79 -124 164z
M173 611c0 4 3 8 8 8h12c7 0 6 -3 6 -9c0 -44 27 -72 69 -72c38 0 83 26 98 70c3 9 2 11 9 11h15c6 0 5 -5 4 -10c-15 -66 -70 -106 -132 -106c-55 0 -91 40 -89 108z" />
    <glyph glyph-name="Uring" unicode="&#x16e;" horiz-adv-x="480" 
d="M409 159c-19 -96 -80 -166 -200 -166s-177 84 -157 184l84 433c1 5 4 7 9 7h29c4 0 6 -3 5 -7l-85 -437c-14 -72 16 -142 118 -142c93 0 140 58 154 130c29 145 72 367 88 449c1 5 4 7 9 7h28c5 0 7 -3 6 -7zM308 657c-34 0 -58 27 -58 56c0 49 36 85 80 85
c34 0 61 -24 61 -59c0 -49 -39 -82 -83 -82zM312 683c26 0 52 23 52 53c0 22 -16 36 -36 36c-27 0 -51 -23 -51 -53c0 -20 15 -36 35 -36z" />
    <glyph glyph-name="uring" unicode="&#x16f;" horiz-adv-x="426" 
d="M42 159l52 269c1 4 3 7 8 7h29c4 0 5 -2 4 -7l-52 -271c-13 -67 11 -125 96 -125c72 0 132 58 145 126l52 270c1 4 4 7 9 7h28c4 0 7 -2 6 -7l-82 -421c-1 -5 -4 -7 -8 -7h-28c-5 0 -6 2 -5 6l7 40c3 8 -2 10 -8 3c-34 -34 -83 -54 -129 -54c-112 0 -141 79 -124 164z
M264 495c-34 0 -58 27 -58 56c0 49 36 85 80 85c34 0 61 -24 61 -59c0 -49 -39 -82 -83 -82zM268 521c26 0 52 23 52 53c0 22 -16 36 -36 36c-27 0 -51 -23 -51 -53c0 -20 15 -36 35 -36z" />
    <glyph glyph-name="Uhungarumlaut" unicode="&#x170;" horiz-adv-x="480" 
d="M409 159c-19 -96 -80 -166 -200 -166s-177 84 -157 184l84 433c1 5 4 7 9 7h29c4 0 6 -3 5 -7l-85 -437c-14 -72 16 -142 118 -142c93 0 140 58 154 130c29 145 72 367 88 449c1 5 4 7 9 7h28c5 0 7 -3 6 -7zM494 732l-140 -74c-5 -3 -10 -4 -13 1l-6 9c-4 6 -2 8 5 13
l127 90c6 4 11 5 16 -2l16 -22c4 -6 1 -12 -5 -15zM371 729l-140 -74c-5 -3 -10 -4 -13 1l-6 9c-4 6 -2 8 5 13l127 90c6 4 11 5 16 -2l16 -22c4 -6 1 -12 -5 -15z" />
    <glyph glyph-name="uhungarumlaut" unicode="&#x171;" horiz-adv-x="426" 
d="M42 159l52 269c1 4 3 7 8 7h29c4 0 5 -2 4 -7l-52 -271c-13 -67 11 -125 96 -125c72 0 132 58 145 126l52 270c1 4 4 7 9 7h28c4 0 7 -2 6 -7l-82 -421c-1 -5 -4 -7 -8 -7h-28c-5 0 -6 2 -5 6l7 40c3 8 -2 10 -8 3c-34 -34 -83 -54 -129 -54c-112 0 -141 79 -124 164z
M308 609l-111 -117c-4 -3 -9 -5 -14 -1l-7 6c-3 2 -5 6 0 13l91 125c5 6 10 9 19 3l20 -13c7 -5 7 -10 2 -16zM421 609l-111 -117c-4 -3 -9 -5 -14 -1l-7 6c-3 2 -5 6 0 13l91 125c5 6 10 9 19 3l20 -13c7 -5 7 -10 2 -16z" />
    <glyph glyph-name="Wcircumflex" unicode="&#x174;" horiz-adv-x="634" 
d="M705 607l-249 -601c-1 -5 -3 -6 -8 -6h-43c-2 0 -5 2 -6 5l-15 393l-4 142c-1 4 -3 4 -4 0l-60 -145l-162 -389c-2 -5 -4 -6 -9 -6h-41c-3 0 -6 2 -7 5l-18 604c-1 6 2 8 7 8h31c5 0 6 -3 6 -8l9 -381l2 -167c0 -4 4 -4 6 0l67 165l159 384c2 4 4 7 11 7h32
c4 0 7 -2 7 -8l16 -395l4 -153c0 -5 4 -4 6 0l62 157l157 392c3 6 5 7 10 7h30c7 0 7 -4 4 -10zM509 652l-11 -7c-4 -2 -7 -2 -11 2l-73 72c-3 3 -7 2 -10 0l-112 -73c-6 -4 -9 -5 -13 -1l-9 10c-3 4 -2 6 2 9l112 90c7 6 13 8 22 8h18c10 0 14 -2 18 -8l69 -91
c3 -4 3 -8 -2 -11z" />
    <glyph glyph-name="wcircumflex" unicode="&#x175;" horiz-adv-x="570" 
d="M373 58l123 252c23 51 21 73 21 115c0 6 2 12 11 12h20c11 0 12 -5 12 -13c0 -53 -4 -81 -30 -132l-137 -280c-5 -10 -9 -13 -19 -13h-26c-10 0 -12 2 -14 14l-36 258c-2 7 -5 5 -7 0c-11 -22 -66 -133 -130 -259c-5 -10 -9 -13 -19 -13h-26c-10 0 -11 2 -13 14l-65 412
c-1 6 1 10 8 10h25c8 0 9 -4 10 -9l54 -368c1 -6 6 -7 8 -2l139 279c2 5 4 7 2 16l-10 74c-1 6 1 10 8 10h25c8 0 9 -4 10 -9l48 -366c1 -6 6 -7 8 -2zM360 632l69 -117c3 -5 3 -9 -3 -13l-7 -5c-6 -5 -9 -2 -12 1l-74 96c-3 4 -5 4 -10 0l-118 -96c-6 -4 -9 -6 -13 -2l-7 7
c-4 5 -3 7 2 12l117 117c6 6 10 8 17 8h25c7 0 9 -2 14 -8z" />
    <glyph glyph-name="Ycircumflex" unicode="&#x176;" horiz-adv-x="398" 
d="M463 606l-231 -355c-7 -10 -7 -17 -9 -24l-43 -220c0 -5 -2 -7 -8 -7h-27c-5 0 -8 1 -8 6l43 217c2 9 2 15 0 24l-92 360c-2 6 0 10 7 10h26c6 0 9 -3 10 -8l77 -316c1 -4 4 -3 5 -1l201 316c5 7 6 9 14 9h31c9 0 8 -6 4 -11zM398 652l-11 -7c-4 -2 -7 -2 -11 2l-73 72
c-3 3 -7 2 -10 0l-112 -73c-6 -4 -9 -5 -13 -1l-9 10c-3 4 -2 6 2 9l112 90c7 6 13 8 22 8h18c10 0 14 -2 18 -8l69 -91c3 -4 3 -8 -2 -11z" />
    <glyph glyph-name="ycircumflex" unicode="&#x177;" horiz-adv-x="369" 
d="M326 289l-245 -461c-3 -5 -7 -10 -16 -10h-22c-4 0 -7 2 -7 6c0 2 1 4 2 7l82 155c3 6 8 14 0 14h-3c-10 0 -11 1 -13 12l-61 412c0 6 1 10 7 10h23c8 0 11 -4 12 -9l56 -384c1 -5 5 -7 9 0l141 267c21 40 22 67 22 105c0 8 -2 21 10 21h20c12 0 12 -5 12 -12
c0 -54 -2 -82 -29 -133zM275 632l69 -117c3 -5 3 -9 -3 -13l-7 -5c-6 -5 -9 -2 -12 1l-74 96c-3 4 -5 4 -10 0l-118 -96c-6 -4 -9 -6 -13 -2l-7 7c-4 5 -3 7 2 12l117 117c6 6 10 8 17 8h25c7 0 9 -2 14 -8z" />
    <glyph glyph-name="Zacute" unicode="&#x179;" horiz-adv-x="387" 
d="M334 8c-1 -5 -3 -8 -9 -8h-340c-7 0 -10 5 -9 9l3 16c1 7 4 13 8 19l398 528c4 4 2 7 -3 7h-273c-6 0 -7 3 -6 8l4 22c1 5 4 8 9 8h320c8 0 11 -3 10 -10l-3 -17c-1 -8 -6 -14 -9 -19l-395 -524c-3 -5 -3 -8 3 -8h290c6 0 7 -3 7 -8zM393 734l-140 -74
c-5 -3 -10 -4 -13 1l-6 9c-4 6 -2 8 5 13l127 90c6 4 11 5 16 -2l16 -22c4 -6 1 -12 -5 -15z" />
    <glyph glyph-name="zacute" unicode="&#x17a;" horiz-adv-x="334" 
d="M279 7c-1 -5 -4 -7 -9 -7h-280c-7 0 -9 3 -8 9l3 14c2 7 3 12 7 16l293 351c5 6 3 9 -4 9h-207c-6 0 -7 3 -7 7l5 21c1 5 3 8 8 8h259c8 0 10 -3 9 -10l-3 -15c-1 -7 -4 -13 -7 -16l-292 -349c-5 -6 -3 -9 4 -9h226c6 0 8 -3 7 -7zM326 609l-111 -117c-4 -3 -9 -5 -14 -1
l-7 6c-3 2 -5 6 0 13l91 125c5 6 10 9 19 3l20 -13c7 -5 7 -10 2 -16z" />
    <glyph glyph-name="Zdotaccent" unicode="&#x17b;" horiz-adv-x="387" 
d="M334 8c-1 -5 -3 -8 -9 -8h-340c-7 0 -10 5 -9 9l3 16c1 7 4 13 8 19l398 528c4 4 2 7 -3 7h-273c-6 0 -7 3 -6 8l4 22c1 5 4 8 9 8h320c8 0 11 -3 10 -10l-3 -17c-1 -8 -6 -14 -9 -19l-395 -524c-3 -5 -3 -8 3 -8h290c6 0 7 -3 7 -8zM314 712c-3 -17 -18 -30 -34 -30
s-27 14 -24 30c4 17 20 30 36 30c15 0 26 -13 22 -30z" />
    <glyph glyph-name="zdotaccent" unicode="&#x17c;" horiz-adv-x="334" 
d="M279 7c-1 -5 -4 -7 -9 -7h-280c-7 0 -9 3 -8 9l3 14c2 7 3 12 7 16l293 351c5 6 3 9 -4 9h-207c-6 0 -7 3 -7 7l5 21c1 5 3 8 8 8h259c8 0 10 -3 9 -10l-3 -15c-1 -7 -4 -13 -7 -16l-292 -349c-5 -6 -3 -9 4 -9h226c6 0 8 -3 7 -7zM263 561c-3 -17 -18 -30 -34 -30
s-27 14 -24 30c4 17 20 30 36 30c15 0 26 -13 22 -30z" />
    <glyph glyph-name="AEacute" unicode="&#x1fc;" horiz-adv-x="654" 
d="M640 31l-3 -25c-1 -5 -2 -6 -7 -6h-334c-4 0 -6 3 -7 7l16 141c0 6 1 12 -10 12h-175c-5 0 -7 -2 -8 -5l-67 -148c-1 -5 -4 -7 -9 -7h-31c-5 0 -7 3 -4 9l276 600c1 3 5 8 12 8h362c5 0 9 -3 7 -7l-3 -23c0 -5 -4 -7 -8 -7h-247c-5 0 -9 -1 -9 -6l-24 -232
c-1 -5 1 -6 8 -6h220c5 0 6 -3 5 -8l-3 -23c-1 -6 -3 -6 -7 -6h-220c-5 0 -7 -2 -9 -8l-25 -247c0 -6 3 -7 8 -7h291c4 0 5 -2 5 -6zM341 580h-29c-6 0 -9 -3 -12 -7l-165 -369c-2 -5 -3 -7 4 -7h160c8 0 12 4 11 11l40 366c1 4 -2 6 -9 6zM583 743l-140 -74
c-5 -3 -10 -4 -13 1l-6 9c-4 6 -2 8 5 13l127 90c6 4 11 5 16 -2l16 -22c4 -6 1 -12 -5 -15z" />
    <glyph glyph-name="oslashacute" unicode="&#x1ff;" horiz-adv-x="414" 
d="M42 2c-4 -6 -8 -4 -10 -3l-16 12c-3 2 -2 6 0 9l28 31c8 7 5 10 5 12c-12 25 -15 55 -8 90l25 128c18 92 88 157 184 157c40 0 78 -12 101 -33c1 -1 6 -2 11 4l24 28c2 3 7 5 11 2l15 -11c1 -2 4 -4 -1 -10l-31 -35c-5 -6 -4 -10 -3 -13c12 -25 15 -55 8 -90l-24 -125
c-20 -100 -85 -160 -187 -160c-43 0 -79 14 -102 35c-1 1 -3 3 -10 -5zM319 155l24 125c4 19 3 37 0 53c-1 5 -3 4 -8 -1l-232 -260c-5 -6 -6 -9 -2 -13c20 -21 46 -29 78 -29c68 0 126 56 140 125zM83 153c-3 -18 -5 -38 -1 -53c1 -2 2 -5 7 2l232 262c4 4 3 8 1 9
c-17 18 -41 28 -72 28c-70 0 -129 -52 -142 -120zM375 609l-111 -117c-4 -3 -9 -5 -14 -1l-7 6c-3 2 -5 6 0 13l91 125c5 6 10 9 19 3l20 -13c7 -5 7 -10 2 -16z" />
    <glyph glyph-name="Alphatonos" unicode="&#x386;" horiz-adv-x="441" 
d="M348 7l-15 145c0 4 -3 4 -5 4h-232c-2 0 -5 -1 -6 -4l-69 -145c-3 -5 -5 -7 -11 -7h-29c-9 0 -7 4 -5 10c96 198 194 402 291 600c2 4 5 7 9 7h45c6 0 8 -2 8 -7l62 -599c0 -5 0 -11 -8 -11h-26c-6 0 -8 0 -9 7zM116 193h208c4 0 6 0 6 6c-9 84 -16 168 -24 252
c-3 41 -7 80 -11 121c0 4 -2 3 -4 0c-22 -45 -42 -89 -63 -133c-39 -80 -77 -160 -115 -240c-2 -4 -2 -6 3 -6zM154 585l-111 -117c-4 -3 -9 -5 -14 -1l-7 6c-3 2 -5 6 0 13l91 125c5 6 10 9 19 3l20 -13c7 -5 7 -10 2 -16z" />
    <glyph glyph-name="Epsilontonos" unicode="&#x388;" horiz-adv-x="430" 
d="M379 31l-5 -24c-1 -4 -3 -7 -9 -7h-336c-5 0 -6 3 -6 7l117 602c1 4 3 8 9 8h301c5 0 6 -4 6 -8l-4 -23c-1 -5 -4 -7 -9 -7h-258c-5 0 -8 -1 -9 -6l-45 -230c0 -4 0 -6 6 -6h233c5 0 6 -3 6 -8l-5 -24c-1 -4 -3 -6 -8 -6h-233c-4 0 -7 -2 -8 -7l-48 -249c0 -4 1 -5 6 -5
h292c5 0 8 -2 7 -7zM79 586l-111 -117c-4 -3 -9 -5 -14 -1l-7 6c-3 2 -5 6 0 13l91 125c5 6 10 9 19 3l20 -13c7 -5 7 -10 2 -16z" />
    <glyph glyph-name="Etatonos" unicode="&#x389;" horiz-adv-x="500" 
d="M400 7c-1 -4 -3 -7 -8 -7h-28c-5 0 -8 2 -8 7l56 285c1 5 -1 7 -5 7h-278c-5 0 -7 -2 -8 -7l-56 -285c-1 -4 -3 -7 -8 -7h-28c-4 0 -8 2 -7 7l117 603c1 5 4 7 9 7h28c5 0 7 -3 6 -7l-52 -267c-1 -4 0 -6 6 -6h278c6 0 7 2 8 6l51 267c2 5 5 7 9 7h29c5 0 7 -3 6 -7z
M91 585l-111 -117c-4 -3 -9 -5 -14 -1l-7 6c-3 2 -5 6 0 13l91 125c5 6 10 9 19 3l20 -13c7 -5 7 -10 2 -16z" />
    <glyph glyph-name="Iotatonos" unicode="&#x38a;" horiz-adv-x="198" 
d="M198 611l-117 -604c-1 -5 -3 -7 -8 -7h-29c-4 0 -7 2 -6 6l118 604c1 5 4 7 8 7h29c5 0 6 -2 5 -6zM91 585l-111 -117c-4 -3 -9 -5 -14 -1l-7 6c-3 2 -5 6 0 13l91 125c5 6 10 9 19 3l20 -13c7 -5 7 -10 2 -16z" />
    <glyph glyph-name="Omicrontonos" unicode="&#x38c;" horiz-adv-x="474" 
d="M462 450l-55 -290c-18 -96 -72 -167 -198 -167c-123 0 -176 87 -157 183l53 282c19 95 87 166 197 166c112 0 180 -73 160 -174zM419 452c13 69 -24 133 -120 133c-88 0 -138 -59 -151 -129l-54 -279c-13 -73 14 -146 118 -146c93 0 139 56 153 131zM93 585l-111 -117
c-4 -3 -9 -5 -14 -1l-7 6c-3 2 -5 6 0 13l91 125c5 6 10 9 19 3l20 -13c7 -5 7 -10 2 -16z" />
    <glyph glyph-name="Upsilontonos" unicode="&#x38e;" horiz-adv-x="398" 
d="M463 606l-231 -355c-7 -10 -7 -17 -9 -24l-43 -220c0 -5 -2 -7 -8 -7h-27c-5 0 -8 1 -8 6l43 217c2 9 2 15 0 24l-92 360c-2 6 0 10 7 10h26c6 0 9 -3 10 -8l77 -316c1 -4 4 -3 5 -1l201 316c5 7 6 9 14 9h31c9 0 8 -6 4 -11zM42 585l-111 -117c-4 -3 -9 -5 -14 -1l-7 6
c-3 2 -5 6 0 13l91 125c5 6 10 9 19 3l20 -13c7 -5 7 -10 2 -16z" />
    <glyph glyph-name="Omegatonos" unicode="&#x38f;" horiz-adv-x="490" 
d="M422 31l-5 -24c-1 -5 -3 -7 -8 -7h-134c-6 0 -8 2 -7 7l6 32c1 6 3 8 13 11c60 19 86 59 96 114l53 284c16 73 -31 138 -123 138c-99 0 -149 -63 -163 -133l-53 -282c-9 -50 3 -100 53 -120c9 -4 9 -6 8 -13l-5 -31c-1 -6 -3 -7 -9 -7h-129c-5 0 -7 3 -6 7l4 24
c1 4 3 7 9 7h69c2 0 4 1 4 3c0 1 -1 2 -3 3c-48 32 -43 104 -33 157l46 242c16 103 92 181 214 181c109 0 178 -78 160 -175l-52 -278c-12 -54 -29 -106 -79 -129c-4 -2 -3 -4 0 -4h67c6 0 8 -3 7 -7zM103 585l-111 -117c-4 -3 -9 -5 -14 -1l-7 6c-3 2 -5 6 0 13l91 125
c5 6 10 9 19 3l20 -13c7 -5 7 -10 2 -16z" />
    <glyph glyph-name="iotadieresistonos" unicode="&#x390;" horiz-adv-x="180" 
d="M125 0c-1 -4 -4 -5 -8 -5c-3 0 -9 0 -13 1c-62 7 -70 57 -60 108l63 324c0 3 2 6 7 6h28c5 0 6 -2 6 -6l-62 -321c-7 -37 -9 -67 38 -74c7 -1 8 -5 6 -10zM218 609l-111 -117c-4 -3 -9 -5 -14 -1l-7 6c-3 2 -5 6 0 13l91 125c5 6 10 9 19 3l20 -13c7 -5 7 -10 2 -16z
M262 549c-3 -16 -19 -29 -35 -29c-14 0 -24 10 -24 24c0 19 18 35 35 35c14 0 25 -10 25 -24c0 -2 -1 -4 -1 -6zM81 549c-3 -16 -18 -29 -34 -29c-14 0 -24 10 -24 24v5c4 17 20 30 36 30c13 0 23 -9 23 -23c0 -2 0 -4 -1 -7z" />
    <glyph glyph-name="Alpha" unicode="&#x391;" horiz-adv-x="441" 
d="M348 7l-15 145c0 4 -3 4 -5 4h-232c-2 0 -5 -1 -6 -4l-69 -145c-3 -5 -5 -7 -11 -7h-29c-9 0 -7 4 -5 10c96 198 194 402 291 600c2 4 5 7 9 7h45c6 0 8 -2 8 -7l62 -599c0 -5 0 -11 -8 -11h-26c-6 0 -8 0 -9 7zM116 193h208c4 0 6 0 6 6c-9 84 -16 168 -24 252
c-3 41 -7 80 -11 121c0 4 -2 3 -4 0c-22 -45 -42 -89 -63 -133c-39 -80 -77 -160 -115 -240c-2 -4 -2 -6 3 -6z" />
    <glyph glyph-name="Beta" unicode="&#x392;" horiz-adv-x="473" 
d="M230 0h-199c-5 0 -6 3 -6 7l117 602c1 4 2 8 8 8h176c83 0 137 -43 137 -124c0 -68 -37 -135 -112 -162c-2 -1 -3 -2 -1 -3c50 -25 79 -66 79 -125c0 -118 -84 -203 -199 -203zM275 310h-141c-5 0 -7 -2 -8 -7l-51 -259c0 -5 2 -6 6 -6h152c91 0 152 76 152 163
c0 62 -42 109 -110 109zM141 348h138c75 0 142 53 142 138c0 56 -37 93 -101 93h-135c-4 0 -7 -1 -8 -6l-42 -219c0 -4 0 -6 6 -6z" />
    <glyph glyph-name="Epsilon" unicode="&#x395;" horiz-adv-x="430" 
d="M379 31l-5 -24c-1 -4 -3 -7 -9 -7h-336c-5 0 -6 3 -6 7l117 602c1 4 3 8 9 8h301c5 0 6 -4 6 -8l-4 -23c-1 -5 -4 -7 -9 -7h-258c-5 0 -8 -1 -9 -6l-45 -230c0 -4 0 -6 6 -6h233c5 0 6 -3 6 -8l-5 -24c-1 -4 -3 -6 -8 -6h-233c-4 0 -7 -2 -8 -7l-48 -249c0 -4 1 -5 6 -5
h292c5 0 8 -2 7 -7z" />
    <glyph glyph-name="Zeta" unicode="&#x396;" horiz-adv-x="387" 
d="M334 8c-1 -5 -3 -8 -9 -8h-340c-7 0 -10 5 -9 9l3 16c1 7 4 13 8 19l398 528c4 4 2 7 -3 7h-273c-6 0 -7 3 -6 8l4 22c1 5 4 8 9 8h320c8 0 11 -3 10 -10l-3 -17c-1 -8 -6 -14 -9 -19l-395 -524c-3 -5 -3 -8 3 -8h290c6 0 7 -3 7 -8z" />
    <glyph glyph-name="Eta" unicode="&#x397;" horiz-adv-x="500" 
d="M400 7c-1 -4 -3 -7 -8 -7h-28c-5 0 -8 2 -8 7l56 285c1 5 -1 7 -5 7h-278c-5 0 -7 -2 -8 -7l-56 -285c-1 -4 -3 -7 -8 -7h-28c-4 0 -8 2 -7 7l117 603c1 5 4 7 9 7h28c5 0 7 -3 6 -7l-52 -267c-1 -4 0 -6 6 -6h278c6 0 7 2 8 6l51 267c2 5 5 7 9 7h29c5 0 7 -3 6 -7z" />
    <glyph glyph-name="Iota" unicode="&#x399;" horiz-adv-x="198" 
d="M198 611l-117 -604c-1 -5 -3 -7 -8 -7h-29c-4 0 -7 2 -6 6l118 604c1 5 4 7 8 7h29c5 0 6 -2 5 -6z" />
    <glyph glyph-name="Kappa" unicode="&#x39a;" horiz-adv-x="470" 
d="M415 197l-22 -190c-1 -6 -3 -7 -8 -7h-26c-5 0 -6 2 -6 7l22 179c8 67 6 138 -105 138c-108 0 -158 -75 -170 -139l-35 -178c-1 -5 -3 -7 -7 -7h-30c-4 0 -7 2 -7 5v1l117 602c1 6 2 9 9 9h30c6 0 5 -5 5 -9l-56 -285c0 -7 4 -9 10 -3l311 290c6 5 9 6 16 6h31
c8 0 7 -5 3 -9l-259 -245c-8 -8 -6 -10 3 -9c12 3 36 5 52 5c113 -2 131 -82 122 -161z" />
    <glyph glyph-name="Mu" unicode="&#x39c;" horiz-adv-x="599" 
d="M508 7c-1 -5 -3 -7 -7 -7h-28c-4 0 -6 2 -6 5v1c32 166 65 331 96 496c0 4 -2 6 -5 1c-40 -71 -81 -142 -122 -213c-49 -86 -99 -171 -149 -257c-3 -6 -7 -9 -13 -9h-22c-7 0 -10 1 -11 8c-14 78 -30 158 -44 237l-42 236c0 6 -3 4 -5 0l-16 -82l-81 -416
c-1 -4 -3 -7 -8 -7h-27c-4 0 -6 2 -6 4v2l116 598c1 6 4 13 13 13h22c9 0 11 -2 13 -9c22 -122 45 -243 66 -365l28 -160c2 -6 5 -4 8 0c26 46 51 92 78 138c73 130 147 258 220 388c4 5 8 8 15 8h24c12 0 9 -7 9 -13z" />
    <glyph glyph-name="Nu" unicode="&#x39d;" horiz-adv-x="499" 
d="M149 617h23c8 0 11 -4 13 -9l185 -525c1 -3 3 -3 4 0l102 526c2 5 4 8 9 8h28c5 0 7 -3 6 -7l-116 -598c-2 -9 -8 -12 -14 -12h-22c-9 0 -12 3 -14 8c-16 45 -171 479 -186 523c-1 3 -3 2 -4 0l-101 -523c-1 -5 -3 -8 -9 -8h-27c-5 0 -7 3 -6 8l116 596c1 8 4 13 13 13z
" />
    <glyph glyph-name="Omicron" unicode="&#x39f;" horiz-adv-x="474" 
d="M462 450l-55 -290c-18 -96 -72 -167 -198 -167c-123 0 -176 87 -157 183l53 282c19 95 87 166 197 166c112 0 180 -73 160 -174zM419 452c13 69 -24 133 -120 133c-88 0 -138 -59 -151 -129l-54 -279c-13 -73 14 -146 118 -146c93 0 139 56 153 131z" />
    <glyph glyph-name="Rho" unicode="&#x3a1;" horiz-adv-x="448" 
d="M280 289h-150c-5 0 -7 -3 -8 -8l-54 -274c0 -5 -3 -7 -8 -7h-28c-4 0 -7 1 -7 6l117 602c1 5 5 9 11 9h171c80 0 151 -45 151 -133c0 -123 -85 -195 -195 -195zM327 579h-139c-7 0 -9 -2 -10 -7l-46 -237v-3c0 -3 1 -5 5 -5h145c88 0 150 61 150 150
c0 58 -33 102 -105 102z" />
    <glyph glyph-name="Tau" unicode="&#x3a4;" horiz-adv-x="400" 
d="M461 586c0 -5 -4 -7 -9 -7h-152c-5 0 -8 0 -9 -6l-110 -566c-1 -4 -2 -7 -8 -7h-27c-5 0 -9 2 -8 7l110 566c1 5 -1 6 -6 6h-151c-5 0 -7 1 -6 7l4 23c2 5 4 8 9 8h362c5 0 7 -3 6 -7z" />
    <glyph glyph-name="Upsilon" unicode="&#x3a5;" horiz-adv-x="398" 
d="M463 606l-231 -355c-7 -10 -7 -17 -9 -24l-43 -220c0 -5 -2 -7 -8 -7h-27c-5 0 -8 1 -8 6l43 217c2 9 2 15 0 24l-92 360c-2 6 0 10 7 10h26c6 0 9 -3 10 -8l77 -316c1 -4 4 -3 5 -1l201 316c5 7 6 9 14 9h31c9 0 8 -6 4 -11z" />
    <glyph glyph-name="Chi" unicode="&#x3a7;" horiz-adv-x="413" 
d="M256 315l109 -306c0 -5 3 -9 -6 -9h-26c-5 0 -9 0 -11 4c-28 83 -56 165 -95 271c-2 4 -4 4 -7 1l-200 -272c-4 -4 -7 -4 -12 -4h-29c-7 0 -8 4 -5 9l226 304c5 7 5 9 3 15l-99 279c-2 5 0 10 7 10h27c7 0 10 -1 11 -5l83 -245c1 -3 3 -5 7 0l179 245c4 4 6 5 12 5h30
c7 0 7 -6 4 -10l-206 -276c-5 -7 -4 -11 -2 -16z" />
    <glyph glyph-name="Iotadieresis" unicode="&#x3aa;" horiz-adv-x="198" 
d="M198 611l-117 -604c-1 -5 -3 -7 -8 -7h-29c-4 0 -7 2 -6 6l118 604c1 5 4 7 8 7h29c5 0 6 -2 5 -6zM297 707c-2 -18 -18 -33 -35 -33c-16 0 -25 12 -24 27c2 18 18 33 35 33c15 0 25 -12 24 -27zM143 707c-2 -18 -19 -33 -35 -33c-14 0 -25 12 -24 27c2 18 19 33 36 33
c15 0 25 -12 23 -27z" />
    <glyph glyph-name="Upsilondieresis" unicode="&#x3ab;" horiz-adv-x="398" 
d="M463 606l-231 -355c-7 -10 -7 -17 -9 -24l-43 -220c0 -5 -2 -7 -8 -7h-27c-5 0 -8 1 -8 6l43 217c2 9 2 15 0 24l-92 360c-2 6 0 10 7 10h26c6 0 9 -3 10 -8l77 -316c1 -4 4 -3 5 -1l201 316c5 7 6 9 14 9h31c9 0 8 -6 4 -11zM390 707c-2 -18 -18 -33 -35 -33
c-16 0 -25 12 -24 27c2 18 18 33 35 33c15 0 25 -12 24 -27zM236 707c-2 -18 -19 -33 -35 -33c-14 0 -25 12 -24 27c2 18 19 33 36 33c15 0 25 -12 23 -27z" />
    <glyph glyph-name="alphatonos" unicode="&#x3ac;" horiz-adv-x="429" 
d="M334 6v1c-1 -5 -4 -7 -8 -7h-29c-5 0 -6 2 -5 6l7 34c1 9 -2 11 -10 4c-32 -32 -76 -48 -122 -48c-99 0 -145 72 -128 161l25 127c17 89 76 156 183 156c49 0 95 -19 112 -48c4 -6 9 -5 10 2l7 34c1 5 2 7 7 7h27c4 0 7 -2 6 -7zM321 154l26 130c13 67 -27 120 -98 120
c-77 0 -130 -50 -145 -122l-24 -127c-13 -69 19 -125 97 -125c72 0 131 56 144 124zM380 609l-111 -117c-4 -3 -9 -5 -14 -1l-7 6c-3 2 -5 6 0 13l91 125c5 6 10 9 19 3l20 -13c7 -5 7 -10 2 -16z" />
    <glyph glyph-name="epsilontonos" unicode="&#x3ad;" horiz-adv-x="363" 
d="M102 247h149c6 0 6 -3 5 -7l-4 -21c-1 -5 -3 -7 -8 -7h-147c-5 0 -11 -3 -12 -8l-10 -51c-13 -73 17 -123 100 -123c47 0 82 20 113 52c4 5 8 5 12 2l17 -13c6 -5 4 -8 0 -13c-37 -42 -87 -63 -147 -63c-102 0 -154 63 -135 158l24 128c18 92 68 159 180 159
c57 0 108 -22 130 -63c3 -5 1 -9 -3 -12l-19 -14c-5 -4 -10 -1 -12 3c-18 32 -60 50 -102 50c-74 0 -118 -50 -132 -122l-5 -25c-2 -7 0 -10 6 -10zM356 609l-111 -117c-4 -3 -9 -5 -14 -1l-7 6c-3 2 -5 6 0 13l91 125c5 6 10 9 19 3l20 -13c7 -5 7 -10 2 -16z" />
    <glyph glyph-name="etatonos" unicode="&#x3ae;" horiz-adv-x="427" 
d="M355 609l-111 -117c-4 -3 -9 -5 -14 -1l-7 6c-3 2 -5 6 0 13l91 125c5 6 10 9 19 3l20 -13c7 -5 7 -10 2 -16zM391 276l-81 -415c0 -5 -3 -7 -7 -7h-29c-4 0 -7 2 -6 6l82 417c13 68 -11 127 -96 127c-72 0 -132 -58 -146 -127l-52 -270c0 -5 -3 -7 -8 -7h-28
c-4 0 -7 2 -6 6l82 422c1 5 4 7 8 7h28c5 0 6 -2 5 -7l-8 -39c-2 -9 2 -11 10 -4c33 36 82 55 128 55c112 0 141 -79 124 -164z" />
    <glyph glyph-name="iotatonos" unicode="&#x3af;" horiz-adv-x="180" 
d="M125 0c-1 -4 -4 -5 -8 -5c-3 0 -9 0 -13 1c-62 7 -70 57 -60 108l63 324c0 3 2 6 7 6h28c5 0 6 -2 6 -6l-62 -321c-7 -37 -9 -67 38 -74c7 -1 8 -5 6 -10zM253 604l-111 -117c-4 -3 -9 -5 -14 -1l-7 6c-3 2 -5 6 0 13l91 125c5 6 10 9 19 3l20 -13c7 -5 7 -10 2 -16z" />
    <glyph glyph-name="upsilondieresistonos" unicode="&#x3b0;" horiz-adv-x="424" 
d="M365 153c-19 -99 -83 -160 -184 -160c-104 0 -159 64 -141 159c12 57 44 222 54 276c1 5 4 7 9 7h27c5 0 7 -3 6 -7c-12 -62 -41 -213 -54 -276c-14 -74 25 -123 98 -123c74 0 128 49 143 125c12 61 41 212 52 274c2 5 5 7 9 7h29c4 0 6 -3 5 -7
c-13 -64 -35 -181 -53 -275zM349 609l-111 -117c-4 -3 -9 -5 -14 -1l-7 6c-3 2 -5 6 0 13l91 125c5 6 10 9 19 3l20 -13c7 -5 7 -10 2 -16zM393 549c-3 -16 -19 -29 -35 -29c-14 0 -24 10 -24 24c0 19 18 35 35 35c14 0 25 -10 25 -24c0 -2 -1 -4 -1 -6zM212 549
c-3 -16 -18 -29 -34 -29c-14 0 -24 10 -24 24v5c4 17 20 30 36 30c13 0 23 -9 23 -23c0 -2 0 -4 -1 -7z" />
    <glyph glyph-name="iotadieresis" unicode="&#x3ca;" horiz-adv-x="180" 
d="M125 0c-1 -4 -4 -5 -8 -5c-3 0 -9 0 -13 1c-62 7 -70 57 -60 108l63 324c0 3 2 6 7 6h28c5 0 6 -2 6 -6l-62 -321c-7 -37 -9 -67 38 -74c7 -1 8 -5 6 -10zM261 561c-3 -16 -19 -30 -35 -30s-27 14 -24 30c4 17 19 30 35 30s27 -13 24 -30zM107 561
c-3 -17 -19 -30 -34 -30c-16 0 -27 14 -24 30c3 17 19 30 35 30c15 0 26 -13 23 -30z" />
    <glyph glyph-name="upsilondieresis" unicode="&#x3cb;" horiz-adv-x="424" 
d="M387 561c-3 -16 -19 -30 -35 -30s-27 14 -24 30c4 17 19 30 35 30s27 -13 24 -30zM233 561c-3 -17 -19 -30 -34 -30c-16 0 -27 14 -24 30c3 17 19 30 35 30c15 0 26 -13 23 -30zM365 153c-19 -99 -83 -160 -184 -160c-104 0 -159 64 -141 159c12 57 44 222 54 276
c1 5 4 7 9 7h27c5 0 7 -3 6 -7c-12 -62 -41 -213 -54 -276c-14 -74 25 -123 98 -123c74 0 128 49 143 125c12 61 41 212 52 274c2 5 5 7 9 7h29c4 0 6 -3 5 -7c-13 -64 -35 -181 -53 -275z" />
    <glyph glyph-name="omicrontonos" unicode="&#x3cc;" horiz-adv-x="421" 
d="M364 156c-20 -102 -79 -161 -183 -161c-106 0 -160 69 -141 165l22 122c19 93 79 158 180 158c98 0 161 -69 142 -167zM322 156l20 116c14 71 -23 130 -102 132c-74 2 -123 -52 -137 -123l-23 -126c-14 -76 29 -125 103 -125c73 0 123 47 139 126zM377 609l-111 -117
c-4 -3 -9 -5 -14 -1l-7 6c-3 2 -5 6 0 13l91 125c5 6 10 9 19 3l20 -13c7 -5 7 -10 2 -16z" />
    <glyph glyph-name="upsilontonos" unicode="&#x3cd;" horiz-adv-x="424" 
d="M365 153c-19 -99 -83 -160 -184 -160c-104 0 -159 64 -141 159c12 57 44 222 54 276c1 5 4 7 9 7h27c5 0 7 -3 6 -7c-12 -62 -41 -213 -54 -276c-14 -74 25 -123 98 -123c74 0 128 49 143 125c12 61 41 212 52 274c2 5 5 7 9 7h29c4 0 6 -3 5 -7
c-13 -64 -35 -181 -53 -275zM364 609l-111 -117c-4 -3 -9 -5 -14 -1l-7 6c-3 2 -5 6 0 13l91 125c5 6 10 9 19 3l20 -13c7 -5 7 -10 2 -16z" />
    <glyph glyph-name="afii10023" unicode="&#x401;" horiz-adv-x="430" 
d="M379 31l-5 -24c-1 -4 -3 -7 -9 -7h-336c-5 0 -6 3 -6 7l117 602c1 4 3 8 9 8h301c5 0 6 -4 6 -8l-4 -23c-1 -5 -4 -7 -9 -7h-258c-5 0 -8 -1 -9 -6l-45 -230c0 -4 0 -6 6 -6h233c5 0 6 -3 6 -8l-5 -24c-1 -4 -3 -6 -8 -6h-233c-4 0 -7 -2 -8 -7l-48 -249c0 -4 1 -5 6 -5
h292c5 0 8 -2 7 -7zM414 707c-2 -18 -18 -33 -35 -33c-16 0 -25 12 -24 27c2 18 18 33 35 33c15 0 25 -12 24 -27zM260 707c-2 -18 -19 -33 -35 -33c-14 0 -25 12 -24 27c2 18 19 33 36 33c15 0 25 -12 23 -27z" />
    <glyph glyph-name="afii10052" unicode="&#x403;" horiz-adv-x="397" 
d="M465 586c-1 -5 -5 -7 -9 -7h-270c-4 0 -7 0 -8 -6l-111 -566c-1 -4 -2 -7 -8 -7h-28c-4 0 -8 2 -7 7l117 602c1 5 5 8 10 8h312c5 0 7 -3 6 -7zM408 720l-140 -74c-5 -3 -10 -4 -13 1l-6 9c-4 6 -2 8 5 13l127 90c6 4 11 5 16 -2l16 -22c4 -6 1 -12 -5 -15z" />
    <glyph glyph-name="afii10054" unicode="&#x405;" horiz-adv-x="427" 
d="M347 177c0 67 -52 98 -111 124c-64 30 -153 65 -153 154c0 120 105 169 196 169c57 0 112 -15 147 -48c3 -3 3 -7 -1 -12c-3 -4 -11 -15 -14 -18c-4 -5 -8 -5 -13 0c-37 31 -83 40 -119 40c-62 0 -152 -32 -152 -127c0 -61 67 -93 121 -116c77 -34 145 -78 145 -160
c0 -131 -104 -189 -224 -189c-59 0 -128 20 -160 58c-4 5 -2 7 2 12l14 16c5 5 8 5 14 0c24 -26 83 -48 136 -48c91 0 172 50 172 145z" />
    </font>
</defs>
</svg>
